<?xml version="1.0" encoding="utf-8"?>
<!-- Generator: Adobe Illustrator 22.0.1, SVG Export Plug-In . SVG Version: 6.00 Build 0)  -->
<svg version="1.1" xmlns="http://www.w3.org/2000/svg" xmlns:xlink="http://www.w3.org/1999/xlink" x="0px" y="0px"
	 viewBox="0 0 750 500" style="enable-background:new 0 0 750 500;" xml:space="preserve">
<style type="text/css">
	.st0{display:none;}
	.st1{display:inline;fill:#D9F0EE;}
	.st2{display:inline;}
	.st3{fill:#B7E6F8;}
	.st4{display:inline;fill:#F76262;}
	.st5{display:inline;fill:#002B59;}
	.st6{font-family:'Baloo';}
	.st7{font-size:12.9868px;}
	.st8{fill:#FFFFFF;}
	.st9{display:inline;fill:none;}
	.st10{fill:#002B59;}
	.st11{font-size:52.2578px;}
	.st12{font-family:'Montserrat-Light';}
	.st13{font-size:10.352px;}
	.st14{font-size:14.8526px;}
	.st15{fill:#F9F9F9;}
	.st16{fill:#ECECEC;}
	.st17{fill:#F98372;}
	.st18{fill:#F76262;}
	.st19{fill:#FFE37F;}
	.st20{fill:#FF9A57;}
	.st21{fill:#264B72;}
	.st22{fill:#637F9A;}
	.st23{fill:#2F4BFF;}
	.st24{fill:#8298AE;}
	.st25{fill:#333333;}
	.st26{fill:#2F5478;}
	.st27{fill:#222221;}
</style>
<g id="BACKGROUND" class="st0">
	<rect class="st1" width="750" height="500"/>
</g>
<g id="OBJECTS">
	<g>
		<g class="st0">
			
				<image style="display:inline;overflow:visible;opacity:0.3;" width="780" height="528" xlink:href="931830A6.png"  transform="matrix(1 0 0 1 -8 -6)">
			</image>
			<g class="st2">
				<rect x="0.7" y="2.3" class="st3" width="749.3" height="497.3"/>
			</g>
		</g>
		<g class="st0">
			<path class="st4" d="M131.8,328H44.5c-3.3,0-6.1-2.7-6.1-6.1v-14.3c0-3.3,2.7-6.1,6.1-6.1h87.3c3.3,0,6.1,2.7,6.1,6.1V322
				C137.8,325.3,135.1,328,131.8,328z"/>
			<path class="st4" d="M711.2,57.8h-55.4c-2.7,0-4.9-2.2-4.9-4.9V36.3c0-2.7,2.2-4.9,4.9-4.9h55.4c2.7,0,4.9,2.2,4.9,4.9v16.6
				C716.1,55.6,713.9,57.8,711.2,57.8z"/>
		</g>
		<g class="st0">
			<text transform="matrix(0.9825 0 0 1 365.5127 48.1782)" class="st5 st6 st7">ABOUT</text>
			<g class="st2">
				<text transform="matrix(0.9825 0 0 1 52.4634 319.7393)" class="st8 st6 st7">LEARN MORE</text>
			</g>
			<text transform="matrix(0.9825 0 0 1 477.0479 48.1782)" class="st5 st6 st7">CONTACT</text>
			<g class="st2">
				<text transform="matrix(0.9825 0 0 1 660.793 48.1782)" class="st8 st6 st7">SIGN UP</text>
			</g>
			<text transform="matrix(0.9825 0 0 1 600.6172 48.1782)" class="st5 st6 st7">LOG IN</text>
			<path class="st9" d="M294.7,200.2H40.9c-1.4,0-2.5-1.1-2.5-2.5v-81.5c0-1.4,1.1-2.5,2.5-2.5h253.8c1.4,0,2.5,1.1,2.5,2.5v81.5
				C297.2,199.1,296.1,200.2,294.7,200.2z"/>
			<text transform="matrix(0.9825 0 0 1 38.3955 150.7085)" class="st2"><tspan x="0" y="0" class="st10 st6 st11">business </tspan><tspan x="0" y="42.5" class="st10 st6 st11">success</tspan></text>
			<rect x="38.4" y="209.8" class="st9" width="143.2" height="71"/>
			<text transform="matrix(0.9825 0 0 1 38.3955 217.1328)" class="st2"><tspan x="0" y="0" class="st10 st12 st13">Lorem ipsum dolor sit amet, </tspan><tspan x="0" y="12.4" class="st10 st12 st13">consectetuer adipiscing elit, sed </tspan><tspan x="0" y="24.8" class="st10 st12 st13">diam nonummy nibh euismod </tspan><tspan x="0" y="37.3" class="st10 st12 st13">tincidunt ut laoreet dolore </tspan><tspan x="0" y="49.7" class="st10 st12 st13">magna </tspan></text>
			<text transform="matrix(0.9825 0 0 1 247.6855 47.1128)" class="st5 st6 st14">HOME</text>
		</g>
		<g class="st0">
			<g class="st2">
				<path class="st10" d="M62.4,38.5h-22c-1.1,0-1.9-0.9-1.9-2l0,0c0-1.1,0.9-2,1.9-2h22c1.1,0,1.9,0.9,1.9,2l0,0
					C64.3,37.6,63.4,38.5,62.4,38.5z"/>
				<path class="st10" d="M62.4,45.5h-22c-1.1,0-1.9-0.9-1.9-2l0,0c0-1.1,0.9-2,1.9-2h22c1.1,0,1.9,0.9,1.9,2l0,0
					C64.3,44.6,63.4,45.5,62.4,45.5z"/>
				<path class="st10" d="M62.4,52.6h-22c-1.1,0-1.9-0.9-1.9-2l0,0c0-1.1,0.9-2,1.9-2h22c1.1,0,1.9,0.9,1.9,2l0,0
					C64.3,51.7,63.4,52.6,62.4,52.6z"/>
			</g>
			<g class="st2">
				<path class="st10" d="M285.6,57.7h-36.6c-0.7,0-1.3-0.6-1.3-1.3c0-0.7,0.6-1.3,1.3-1.3h36.6c0.7,0,1.3,0.6,1.3,1.3
					C286.8,57.1,286.3,57.7,285.6,57.7z"/>
			</g>
		</g>
		<g>
			<g>
				<path class="st15" d="M381.4,479.3c-7.4-2.2-14.7-4.3-16.8-5.1c-4.8-1.8,3.3-17-19.5-21.8c-22.8-4.8-33.8-2.2-33.8-2.2
					s11.5-19-0.3-32.4c-11.8-13.4-24.8-13.2-24.8-13.2s-5.6-17.8-35.4-15.1c-29.8,2.7-23.2,24.7-28.4,33.4s-18.8,0.1-31.5,7.6
					c-12.7,7.5-4.3,12.8-14.3,19.6c-10,6.8-16.5,4-23.3,5.6c-6.9,1.6-6.5,3-12.7,7.5c-6.2,4.4-10,6.8-25.1,10.5
					c-7.3,1.8-17.5,3.9-26.2,5.6H381.4z"/>
				<path class="st16" d="M347.3,479.3c-0.7-5.4-2.4-13-17.4-16.1c-22.8-4.8-33.8-2.2-33.8-2.2s11.5-19-0.3-32.4
					c-11.8-13.4-24.8-13.2-24.8-13.2s-5.6-17.8-35.4-15.1c-2.3,0.2-4.4,0.6-6.2,1c-5,7.7-3.9,17.7-7,22.9c-2.7,4.4-7.5,4.3-13.3,4.2
					c-0.4,2-1,3.9-1.9,5.3c-4.1,6.8-13.4,3-23.4,4.7c-2.2,4.4-0.5,8.4-7.3,13c-3.9,2.7-7.3,3.9-10.4,4.4c-0.8,1.7-2.1,3.3-4.8,5.1
					c-10,6.8-16.5,4-23.3,5.6c-0.3,0.1-0.6,0.1-0.9,0.2c-2.3,1.5-4.5,2.7-7.6,4c-1.1,0.9-2.3,1.9-4.2,3.3c-2.9,2.1-5.3,3.7-8.6,5.3
					H347.3z"/>
				<path class="st15" d="M257.5,456.4c2.8,3.9,0.2,11.7,2.3,12.5c2.1,0.8,11.5-2.8,14.1,3.1c1.2,2.7,1.5,5.3,1.7,7.4h10.5
					c-1-1.4-1.7-3.1-1.5-5.4c0.6-8.6-5.8-16.8-11.9-15.3c-6,1.5-7-5.5-12.8-8.6c-5.8-3.1-15.8,0.6-15.8,0.6S254.7,452.5,257.5,456.4
					z"/>
			</g>
			<g>
				<path class="st15" d="M748.2,331.8c-5.7-1.7-11.3-3.3-13-4c-3.7-1.4,2.5-13.1-15.1-16.9c-17.6-3.7-26.1-1.7-26.1-1.7
					s8.9-14.7-0.2-25c-9.1-10.3-19.2-10.2-19.2-10.2s-4.3-13.8-27.3-11.6c-23,2.1-17.9,19.1-22,25.8c-4,6.7-14.5,0.1-24.4,5.9
					c-9.8,5.8-3.3,9.9-11,15.2c-7.7,5.3-12.7,3.1-18,4.3c-5.3,1.3-5,2.4-9.8,5.8c-4.8,3.4-7.7,5.3-19.4,8.1
					c-5.6,1.4-13.6,3-20.2,4.3H748.2z"/>
				<path class="st16" d="M721.8,331.8c-0.6-4.2-1.9-10-13.4-12.5c-17.6-3.7-26.1-1.7-26.1-1.7s8.9-14.7-0.2-25
					c-9.1-10.3-19.2-10.2-19.2-10.2s-4.3-13.8-27.3-11.6c-1.8,0.2-3.4,0.4-4.8,0.8c-3.9,6-3,13.7-5.4,17.7
					c-2.1,3.4-5.8,3.4-10.3,3.3c-0.3,1.6-0.8,3-1.4,4.1c-3.2,5.2-10.4,2.3-18.1,3.6c-1.7,3.4-0.4,6.5-5.6,10.1c-3,2.1-5.7,3-8,3.4
					c-0.6,1.3-1.7,2.6-3.7,4c-7.7,5.3-12.7,3.1-18,4.3c-0.2,0.1-0.5,0.1-0.7,0.2c-1.7,1.1-3.5,2.1-5.9,3.1c-0.8,0.7-1.8,1.5-3.3,2.5
					c-2.3,1.6-4.1,2.9-6.7,4.1H721.8z"/>
				<path class="st15" d="M652.5,314c2.2,3,0.1,9,1.7,9.6c1.6,0.6,8.9-2.1,10.9,2.4c0.9,2,1.1,4.1,1.3,5.7h8.1
					c-0.8-1.1-1.3-2.4-1.2-4.2c0.4-6.6-4.5-13-9.2-11.9c-4.7,1.1-5.4-4.2-9.9-6.6c-4.5-2.4-12.2,0.4-12.2,0.4S650.3,311,652.5,314z"
					/>
			</g>
			<g>
				<path class="st15" d="M402.3,281.4c-2-0.6-3.9-1.2-4.5-1.4c-1.3-0.5,0.9-4.5-5.2-5.8c-6.1-1.3-9-0.6-9-0.6s3.1-5.1-0.1-8.7
					c-3.2-3.6-6.6-3.5-6.6-3.5s-1.5-4.8-9.5-4s-6.2,6.6-7.6,8.9c-1.4,2.3-5,0-8.4,2c-3.4,2-1.1,3.4-3.8,5.3
					c-2.7,1.8-4.4,1.1-6.2,1.5c-1.8,0.4-1.7,0.8-3.4,2c-1.7,1.2-2.7,1.8-6.7,2.8c-2,0.5-4.7,1-7,1.5H402.3z"/>
				<path class="st16" d="M393.1,281.4c-0.2-1.4-0.7-3.5-4.7-4.3c-6.1-1.3-9-0.6-9-0.6s3.1-5.1-0.1-8.7c-3.2-3.6-6.6-3.5-6.6-3.5
					s-1.5-4.8-9.5-4c-0.6,0.1-1.2,0.1-1.7,0.3c-1.3,2.1-1,4.7-1.9,6.1c-0.7,1.2-2,1.2-3.6,1.1c-0.1,0.5-0.3,1-0.5,1.4
					c-1.1,1.8-3.6,0.8-6.3,1.2c-0.6,1.2-0.1,2.2-1.9,3.5c-1.1,0.7-2,1-2.8,1.2c-0.2,0.4-0.6,0.9-1.3,1.4c-2.7,1.8-4.4,1.1-6.2,1.5
					c-0.1,0-0.2,0-0.2,0.1c-0.6,0.4-1.2,0.7-2,1.1c-0.3,0.2-0.6,0.5-1.1,0.9c-0.8,0.6-1.4,1-2.3,1.4H393.1z"/>
				<path class="st15" d="M369.1,275.2c0.8,1,0,3.1,0.6,3.3c0.6,0.2,3.1-0.7,3.8,0.8c0.3,0.7,0.4,1.4,0.5,2h2.8
					c-0.3-0.4-0.4-0.8-0.4-1.5c0.1-2.3-1.6-4.5-3.2-4.1c-1.6,0.4-1.9-1.5-3.4-2.3c-1.6-0.8-4.2,0.1-4.2,0.1S368.4,274.2,369.1,275.2
					z"/>
			</g>
		</g>
		<g>
			<g>
				<path class="st17" d="M629,215.7c0,0,6,6.1-2.6,13.1c-8.6,7-12,13.1-12,20.1c0,7,6,11.4,6,11.4s-12.9,0.9-13.7-17.5
					c-0.9-18.4,8.6-30.6,6.9-43.7C611.8,186,629,215.7,629,215.7z"/>
				<path class="st18" d="M555.1,217.5c0,0,3.4,5.2,13.7,2.6c10.3-2.6,17.2-10.5,29.2-12.2c12-1.7,30.9,7.9,30.9,7.9l-12.9-76.9
					c0,0,0-8.7-18.9-12.2c-18.9-3.5-39.5,2.6-39.5,2.6L555.1,217.5z"/>
				<path class="st17" d="M573.2,180.7c0,0-0.9,6.1-9.4,18.4c-8.6,12.2-8.6,18.4-8.6,18.4l-9.4-52.4
					C545.7,165,567.2,157.2,573.2,180.7z"/>
				<path class="st18" d="M392,86.4c0,0,74.7-8.7,121.1-12.2c46.4-3.5,43.8,3.5,48.1,4.4c4.3,0.9,12,102.2,12,102.2
					s-31.8-9.6-61-6.1c-29.2,3.5-104.7,16.6-104.7,16.6S422.1,129.2,392,86.4z"/>
			</g>
			<g>
				<path class="st19" d="M498.5,121.3l-1.4-10.8c3.2,0,6.6,0.6,10,2l2.1-8.2c-3.7-1.8-8.5-2.4-13.2-2.2l-0.9-6.9l-6.3,0.8l0.9,7.1
					c-9.7,2.5-13.8,8.9-12.9,15.6c1.2,9.1,9.2,10.4,16.4,11.2l1.4,10.6c-4.6,0.1-9.3-1-12.7-2.9l-2.4,8.2c3.8,2.3,10,3.5,16.2,3
					l0.9,6.9l6.3-0.8l-0.9-7.1c9.7-2.5,13.7-8.9,12.8-15.5C513.6,123.4,505.7,122,498.5,121.3z M486.9,116.8c-0.3-2.1,0.8-4.1,4-5.3
					l1.2,9C489.2,120,487.2,119,486.9,116.8z M500.9,139.4l-1.1-8.8c2.8,0.6,4.8,1.6,5.1,3.8C505.1,136.5,503.9,138.3,500.9,139.4z"
					/>
				<path class="st19" d="M495,85.5c-21.8,0-39.5,18-39.5,40.2s17.7,40.2,39.5,40.2c21.8,0,39.5-18,39.5-40.2S516.8,85.5,495,85.5z
					 M495,159.8c-18.5,0-33.5-15.3-33.5-34.1c0-18.8,15-34.1,33.5-34.1c18.5,0,33.5,15.3,33.5,34.1
					C528.5,144.5,513.5,159.8,495,159.8z"/>
			</g>
			<path class="st20" d="M456.3,184.7c0,0,2.5,2.9,4.5,5.4s4.5,7.5,4.5,7.5l14.8-13c0,0-4.1-8.8-4.5-13L456.3,184.7z"/>
			<path class="st20" d="M466.6,150c0,0-8.1-0.2-10.7,5c-0.8,1.7-2.1,4.9-3.3,8.5l-5.2,4c-1.1,0.8-1,2.5,0.2,3.1l2.4,1.5
				c-1.3,5.2-2,9.8-0.9,11.3c2.5,3.5,14.9,2.6,17.4,0.8c2.5-1.7,8-10.3,8-10.3s7.6,1.7,8.5-6.9C483.9,158.4,477.6,149.1,466.6,150z"
				/>
			<polygon class="st21" points="477,297.8 489.5,348.6 524,397 534.3,396.2 504.8,342 511.6,277.9 			"/>
			<path class="st10" d="M474.4,267.6l-2.1,16.7c0,0,2.9,2.5,4.5,5.9s22.2,4.2,28.8,1.7c6.6-2.5,9.5-12.6,7-20.1
				c-2.5-7.5-4.9-16.7-4.9-16.7S481.8,268.4,474.4,267.6z"/>
			<g>
				<path class="st22" d="M431.7,388.4c-0.9,0-1.7-0.7-1.9-1.7L390.6,76.9c-0.1-1,0.6-2,1.6-2.1c1-0.1,2,0.6,2.1,1.7l39.3,309.8
					c0.1,1-0.6,2-1.6,2.1C431.9,388.4,431.8,388.4,431.7,388.4z"/>
			</g>
			<polygon class="st15" points="430.5,240.8 423.2,239.5 423.2,246.3 431.7,248.6 			"/>
			<polyline class="st10" points="467.9,231.8 461.6,245 430.5,240.8 429.7,253.1 473.7,264.2 479.9,251.3 469.7,231.3 			"/>
			<path class="st23" d="M458.7,210.4c0,0-1.4,4,2.3,7.7c3.7,3.7,16.5-1.2,28.3-8.7c11.9-7.4,13.3-17.2,22.9-19.1
				c9.6-1.9,13.7,0.9,21.9,1.9c8.2,0.9,15.1-1.4,15.1-1.4l11.4,5.1l-12.3,5.1c0,0-5.5,2.8-16,0c-10.5-2.8-14.2-6.5-21-3.3
				c-6.9,3.3-7.1,8.1-18.3,16.4c-8.7,6.5-12.4,9.2-25.2,9.2C455.1,223.4,458.7,210.4,458.7,210.4z"/>
			<path class="st15" d="M464.1,201c0,0-2.9,18.8-1.6,23.9c1.2,5,7.8,20.9,7.8,23s3.7,21.3,3.7,21.3s11.5,3.3,21.4,0.8
				c9.9-2.5,12.7-13,12.7-13s-7.4-46.4-9.5-53.6c-2.1-7.1-16-17.2-16-17.2L464.1,201z"/>
			<polygon class="st23" points="461.5,202 458.7,210.4 467.4,202 			"/>
			<polygon class="st15" points="480.6,182.6 459.6,199.4 460.4,205.6 484.7,186.8 			"/>
			<path class="st10" d="M559.8,267.8c0,0-6.4-9.4-11.6-14.3c-5.2-4.9-11.6-7.7-20-12.6c-6.6-3.8-11-8.2-12.5-9.9
				c-9.4-18.1-21.5-37.4-33.9-47.2c0,0-14.5,16.1-15.2,34.2c-0.4,9.8,0.8,21.2,6.8,30.6c21.1,32.9,45.3,44.4,50.1,45.2
				c4.8,0.8,26.8-23.2,26.8-23.2s0,0,0,0C554.3,267.9,559.8,267.8,559.8,267.8z"/>
			<path class="st21" d="M489.2,268.9c0,0,12.8,6.9,21.2,8.6c8.4,1.6,26.8,1.2,26.8,1.2s-6.8,3.3-10,7.3c-3.2,4.1-3.2,9.4-3.2,9.4
				S499.8,284.5,489.2,268.9z"/>
			<path class="st10" d="M469.1,159.2l-6.2,4.6l4.1,3.3l-3.3,4.1l2.7,1.2l8.4-2.4l2.5,5.9c0,0,7-2.7,8.2-5.4
				c3.2-7.2,0.4-15.8-1.2-18.7s-12.5-7.2-17.9-8.5c-5.3-1.3-13.4,3.3-13,6.7c0.4,3.3,2.5,5,2.5,5S471.5,152.9,469.1,159.2z"/>
			<path class="st10" d="M473.2,281.4L427,312.1c-1.4,1.4-1.6,3.6-0.6,5.2l13.3,4.4c1.2,2-1.4,7.4,0.5,6.1l5.8-2.1
				c5.4-1.7,13.6-5,23.4-8.9c15.7-6.3,30.9-21.1,36.1-25l0,0"/>
			<polygon class="st24" points="504.7,380.2 486.8,358.5 468.9,352.9 347.7,416.6 323.6,444.7 298.8,456.6 252.9,499.7 
				668.8,499.7 655.5,478.3 629.4,478.3 548.1,380.9 			"/>
			<path class="st22" d="M484,373.1l-10.3,5.2l6,8.7l-29.2,4.4l15.5,11.4l-30,4.6l47.2,32.1h-24.9l-1.7,21.8l-23.2-17.5l-2.6,16.6
				c0,0-18.9-5.2-23.2-8.7c-4.3-3.5-23.2-10.5-23.2-10.5l-17.2,20.1l12,35.8l30.9-23.6l10.9,26h247.7l-13.3-21.3h-26.2l-81.3-97.4
				l-43.4-0.7l-17.9-21.7l-13.2-4.1L484,373.1z"/>
			<path class="st25" d="M455.5,396l-18.6,9.9c-0.6,0.3-0.9,0.9-0.9,1.5l0,0c0,0.9,0.7,1.7,1.6,1.7l30.6,1.3c0,0,1,0,0.7-4.1
				c-0.3-4.1-3.5-10.8-3.5-10.8L455.5,396z"/>
			<path class="st10" d="M433.6,308.4c0,0-7.6,4.1-9.7,6.6c-2.1,2.5-1.2,7.1,0,9.6c1.2,2.5,31.6,71.4,31.6,71.4l16.1,1.5l-23.7-80.4
				"/>
			<polygon class="st15" points="521.8,278.4 522.4,288.2 530.4,288.2 530.6,278.8 			"/>
			<path class="st21" d="M476.8,200c0,0-3.1,5-2.2,12.3c0.9,7.3,4.9,15.5,6.7,16.4c1.8,0.9,30.8,15.5,30.8,15.5l8.5,39.2l12-0.4
				l-9.3-49.9l-31.8-28.4c0,0-1.3-4.5-6.3-5.5"/>
			<polygon class="st20" points="423.2,239.5 418.8,235.9 409.8,236.8 410.3,246.8 423.2,246.3 			"/>
			<polygon class="st20" points="409.8,234.1 410.3,246.8 417.9,246.8 417.4,234.1 			"/>
			<polygon class="st20" points="522.4,288.2 519,294.8 521.5,302.9 525.9,303.3 526.6,301.4 532.7,301 530.4,288.2 			"/>
			<path class="st20" d="M468.1,172.2c0,0,3.9-7.5,6-4.1c2.1,3.3,1.6,6.3-0.8,7.5c-2.5,1.3-4.4,3.1-5.6,0.6"/>
			<path class="st21" d="M481.7,183.8c0,0-14.5,16.1-15.2,34.2c-0.3,7,0.3,14.9,2.8,22.2c-0.1-0.8-0.1-1.8,0-3.1
				c0.3-5.9,2.4-22.4,2.4-22.4l-3.2-3.3l4.8-1.2c0,0,3.2-13,10-19.2c1.2-1.1,2.3-2.1,3.2-3C485,186.5,483.4,185.1,481.7,183.8z"/>
			<path class="st26" d="M537.3,448.3l-0.9,22.7l-25.8-47.2l6,59.4h-13.7c0,0,0.9,9.6-1.7,10.5c-1.4,0.5-12.2,3.3-22.1,5.9h189.7
				l-13.3-21.3h-26.2l-81.3-97.4l12.3,53.4L537.3,448.3z"/>
		</g>
	</g>
</g>
<g id="DESIGNED_BY_FREEPIK" class="st0">
	<g class="st2">
		<g id="XMLID_319_">
			<g id="XMLID_338_">
				<path id="XMLID_346_" class="st27" d="M385.1,469.3c-0.4,0.4-0.8,0.9-1.1,1.5l-0.5-0.2c-0.1-0.3-0.3-0.5-0.7-0.5
					c-0.3,0-0.6,0.3-0.5,0.7c0,0.3,0.3,0.6,0.7,0.5c0.1,0,0.1,0,0.2-0.1l0.5,0.2c-0.3,0.6-0.4,1.1-0.5,1.7l0.7,0.1
					c0.2-1.3,0.8-2.5,1.8-3.5L385.1,469.3z"/>
				<path id="XMLID_345_" class="st27" d="M390.6,467c-0.2,0-0.3,0-0.5,0l-0.1-0.6c0.2-0.1,0.3-0.4,0.3-0.6c0-0.4-0.4-0.7-0.8-0.6
					c-0.4,0-0.7,0.4-0.6,0.8c0,0.3,0.2,0.5,0.4,0.6l0.1,0.6c-0.7,0.1-1.4,0.3-2.1,0.6l0.3,0.7c0.9-0.4,1.9-0.7,3-0.7
					c0.5,0,1,0.1,1.5,0.2l0.2-0.7C391.7,467.1,391.1,467,390.6,467z"/>
				<path id="XMLID_344_" class="st27" d="M397.2,469.6c0.3,0,0.6-0.3,0.5-0.7c0-0.3-0.3-0.6-0.7-0.5c-0.3,0-0.5,0.3-0.5,0.6
					l-0.4,0.4c-0.4-0.4-0.9-0.8-1.4-1.1l-0.4,0.6c1.1,0.7,2,1.7,2.6,2.9l0.7-0.3c-0.3-0.6-0.6-1.1-0.9-1.5l0.4-0.4
					C397.1,469.6,397.1,469.6,397.2,469.6z"/>
				<path id="XMLID_343_" class="st27" d="M390,477.2c-0.4,0-0.8,0-1.2,0c-0.9,0-1.7-0.1-2.5-0.2c-0.4-0.1-0.8-0.2-1.3-0.3
					c1,1.9,3.1,3.1,5.4,3.1c2.9,0,5.3-1.9,5.9-4.5c-0.7,0.4-1.5,0.8-2.5,1.1C392.8,476.9,391.5,477.1,390,477.2z"/>
				<path id="XMLID_339_" class="st27" d="M390.6,468.5c-3.4,0-6.1,2.7-6.1,5.9c0,0.4,0,0.8,0.1,1.3c0.7,0.5,2.7,0.9,5.3,0.7
					c2.9-0.2,5.3-1,6.7-2.2c0-0.2,0-0.4,0-0.6C396.2,470.8,393.7,468.5,390.6,468.5z M388.4,475c-1,0-1.8-0.8-1.8-1.8
					c0-1,0.8-1.8,1.8-1.8c1,0,1.8,0.8,1.8,1.8C390.3,474.2,389.5,475,388.4,475z M393.2,474.1c-0.8,0-1.4-0.6-1.4-1.4
					s0.6-1.4,1.4-1.4c0.8,0,1.4,0.6,1.4,1.4S393.9,474.1,393.2,474.1z"/>
			</g>
			<path id="XMLID_336_" class="st27" d="M406.6,470.4c-0.3-0.1-0.8-0.3-1.4-0.2c-0.6,0.1-0.8,0.3-0.8,1v0.9h2.2v1.7h-2.2v5.5h-1.9
				v-5.5h-1.3V472h1.3v-0.9c0-1.7,0.9-2.8,2.6-2.8c0.6,0,1.2,0.1,1.6,0.3L406.6,470.4z"/>
			<path id="XMLID_334_" class="st27" d="M411.3,473.7c-0.2,0-0.4,0-0.5,0c-0.9,0-1.5,0.5-1.5,1.6v3.9h-1.9V472h1.9v0.8
				c0.5-0.7,1.1-1,2-1c0.4,0,0.8,0.1,1.1,0.3L411.3,473.7z"/>
			<path id="XMLID_331_" class="st27" d="M419,475.6c0,0.2,0,0.5,0,0.7h-5.1c0.2,1,0.9,1.5,1.8,1.5c0.6,0,1.3-0.3,1.8-0.7l1.1,1.2
				c-0.8,0.7-1.9,1.1-3.1,1.1c-2.2,0-3.7-1.5-3.7-3.8c0-2.3,1.5-3.8,3.6-3.8C417.5,471.8,419,473.4,419,475.6z M413.9,474.9h3.2
				c-0.2-0.9-0.7-1.4-1.6-1.4C414.6,473.5,414,474,413.9,474.9z"/>
			<path id="XMLID_328_" class="st27" d="M426.6,475.6c0,0.2,0,0.5,0,0.7h-5.1c0.2,1,0.9,1.5,1.8,1.5c0.6,0,1.3-0.3,1.8-0.7l1.1,1.2
				c-0.8,0.7-1.9,1.1-3.1,1.1c-2.2,0-3.7-1.5-3.7-3.8c0-2.3,1.5-3.8,3.6-3.8C425.2,471.8,426.6,473.4,426.6,475.6z M421.5,474.9h3.2
				c-0.2-0.9-0.7-1.4-1.6-1.4C422.2,473.5,421.7,474,421.5,474.9z"/>
			<path id="XMLID_325_" class="st27" d="M435,475.6c0,2.2-1.5,3.8-3.5,3.8c-1,0-1.6-0.4-2.1-0.9v3.7h-1.9V472h1.9v0.8
				c0.5-0.6,1.2-1,2.1-1C433.5,471.8,435,473.5,435,475.6z M429.3,475.6c0,1.1,0.7,2,1.8,2c1.1,0,1.9-0.9,1.9-2c0-1.1-0.7-2-1.9-2
				C430,473.6,429.3,474.5,429.3,475.6z"/>
			<path id="XMLID_322_" class="st27" d="M438.1,469.7c0,0.7-0.5,1.2-1.2,1.2c-0.7,0-1.2-0.5-1.2-1.2c0-0.7,0.5-1.2,1.2-1.2
				C437.5,468.4,438.1,469,438.1,469.7z M437.8,479.2h-1.9V472h1.9V479.2z"/>
			<path id="XMLID_320_" class="st27" d="M441,474.6l2.7-2.6h2.4l-3.5,3.4l3.5,3.8h-2.4l-2.7-2.9v2.9h-1.9v-10.7h1.9V474.6z"/>
		</g>
		<g>
			<path class="st27" d="M309.4,479.1v-1.1c-0.5,0.7-1.4,1.2-2.4,1.2c-1.8,0-3.1-1.4-3.1-3.7c0-2.3,1.3-3.7,3.1-3.7
				c1,0,1.8,0.5,2.4,1.2v-3.8h1.1v9.8H309.4z M309.4,477.2V474c-0.4-0.6-1.2-1.1-2.1-1.1c-1.4,0-2.3,1.2-2.3,2.7
				c0,1.6,0.8,2.7,2.3,2.7C308.2,478.3,309,477.8,309.4,477.2z"/>
			<path class="st27" d="M311.9,475.6c0-2.1,1.5-3.7,3.5-3.7c2.1,0,3.4,1.7,3.4,3.8v0.3h-5.7c0.1,1.3,1,2.4,2.5,2.4
				c0.8,0,1.6-0.3,2.2-0.9l0.5,0.7c-0.7,0.7-1.7,1.1-2.8,1.1C313.4,479.3,311.9,477.8,311.9,475.6z M315.4,472.8
				c-1.5,0-2.3,1.3-2.3,2.4h4.6C317.7,474.1,317,472.8,315.4,472.8z"/>
			<path class="st27" d="M319.6,478.2l0.6-0.8c0.5,0.5,1.4,1,2.3,1c1.1,0,1.7-0.5,1.7-1.2c0-1.7-4.4-0.7-4.4-3.3c0-1.1,1-2,2.6-2
				c1.2,0,2.1,0.5,2.6,1l-0.5,0.8c-0.4-0.5-1.2-0.9-2.1-0.9c-1,0-1.6,0.5-1.6,1.1c0,1.6,4.4,0.5,4.4,3.3c0,1.2-1,2.1-2.8,2.1
				C321.3,479.3,320.3,479,319.6,478.2z"/>
			<path class="st27" d="M326.5,470.3c0-0.4,0.3-0.7,0.7-0.7c0.4,0,0.7,0.3,0.7,0.7c0,0.4-0.3,0.7-0.7,0.7
				C326.8,471,326.5,470.7,326.5,470.3z M326.7,479.1v-7.1h1.1v7.1H326.7z"/>
			<path class="st27" d="M329.6,480.9l0.6-0.8c0.6,0.7,1.3,1,2.3,1c1.2,0,2.3-0.6,2.3-2.1v-1c-0.5,0.7-1.4,1.3-2.4,1.3
				c-1.8,0-3.1-1.4-3.1-3.7c0-2.3,1.3-3.7,3.1-3.7c1,0,1.8,0.5,2.4,1.2v-1.1h1.1v6.9c0,2.3-1.6,3.1-3.4,3.1
				C331.2,482,330.4,481.8,329.6,480.9z M334.7,477.1V474c-0.4-0.6-1.2-1.1-2.1-1.1c-1.4,0-2.3,1.1-2.3,2.7c0,1.6,0.8,2.7,2.3,2.7
				C333.5,478.3,334.3,477.7,334.7,477.1z"/>
			<path class="st27" d="M342.4,479.1v-4.6c0-1.2-0.6-1.6-1.6-1.6c-0.9,0-1.7,0.5-2.1,1.1v5.2h-1.1v-7.1h1.1v1
				c0.5-0.6,1.5-1.2,2.5-1.2c1.5,0,2.3,0.7,2.3,2.3v5H342.4z"/>
			<path class="st27" d="M344.9,475.6c0-2.1,1.5-3.7,3.5-3.7c2.1,0,3.4,1.7,3.4,3.8v0.3h-5.7c0.1,1.3,1,2.4,2.5,2.4
				c0.8,0,1.6-0.3,2.2-0.9l0.5,0.7c-0.7,0.7-1.7,1.1-2.8,1.1C346.4,479.3,344.9,477.8,344.9,475.6z M348.4,472.8
				c-1.5,0-2.3,1.3-2.3,2.4h4.6C350.7,474.1,350,472.8,348.4,472.8z"/>
			<path class="st27" d="M358.4,479.1v-1.1c-0.5,0.7-1.4,1.2-2.4,1.2c-1.8,0-3.1-1.4-3.1-3.7c0-2.3,1.3-3.7,3.1-3.7
				c1,0,1.8,0.5,2.4,1.2v-3.8h1.1v9.8H358.4z M358.4,477.2V474c-0.4-0.6-1.2-1.1-2.1-1.1c-1.4,0-2.3,1.2-2.3,2.7
				c0,1.6,0.8,2.7,2.3,2.7C357.1,478.3,358,477.8,358.4,477.2z"/>
			<path class="st27" d="M364.7,479.1v-9.8h1.1v3.8c0.6-0.8,1.4-1.2,2.4-1.2c1.8,0,3.1,1.5,3.1,3.7c0,2.3-1.3,3.7-3.1,3.7
				c-1,0-1.9-0.5-2.4-1.2v1.1H364.7z M367.9,478.3c1.4,0,2.3-1.2,2.3-2.7c0-1.6-0.8-2.7-2.3-2.7c-0.9,0-1.7,0.5-2.1,1.1v3.2
				C366.2,477.8,367,478.3,367.9,478.3z"/>
			<path class="st27" d="M372.5,480.9c0.2,0.1,0.4,0.1,0.6,0.1c0.5,0,0.8-0.2,1.1-0.7l0.5-1.1l-3-7.1h1.2l2.4,5.8l2.3-5.8h1.2
				l-3.5,8.5c-0.4,1-1.1,1.4-2.1,1.4c-0.2,0-0.6,0-0.8-0.1L372.5,480.9z"/>
		</g>
	</g>
</g>
</svg>
