<?xml version="1.0" encoding="utf-8"?>
<!-- Generator: Adobe Illustrator 22.0.1, SVG Export Plug-In . SVG Version: 6.00 Build 0)  -->
<svg version="1.1" xmlns="http://www.w3.org/2000/svg" xmlns:xlink="http://www.w3.org/1999/xlink" x="0px" y="0px"
	 viewBox="0 0 750 500" style="enable-background:new 0 0 750 500;" xml:space="preserve">
<style type="text/css">
	.st0{display:none;}
	.st1{display:inline;fill:#FCCA0E;}
	.st2{display:none;opacity:0.3;}
	.st3{fill:#FFFFFF;}
	.st4{fill:url(#SVGID_1_);}
	.st5{fill:url(#SVGID_2_);}
	.st6{font-family:'Gilroy-ExtraBold';}
	.st7{font-size:33.9884px;}
	.st8{display:inline;}
	.st9{fill:#E8664E;}
	.st10{font-family:'Montserrat-Bold';}
	.st11{font-size:16.9942px;}
	.st12{display:inline;fill:none;}
	.st13{font-family:'Montserrat-Regular';}
	.st14{font-size:11.3295px;}
	.st15{font-size:13.2177px;}
	.st16{display:inline;fill:#35255A;}
	.st17{fill:#CD4843;}
	.st18{fill:#29155A;}
	.st19{fill:#35255A;}
	.st20{clip-path:url(#SVGID_4_);fill:#35255A;}
	.st21{clip-path:url(#SVGID_4_);}
	.st22{fill:none;stroke:#FFFFFF;stroke-width:2;stroke-miterlimit:10;}
	.st23{fill:#FCCA0E;}
	.st24{fill:#E9FFFF;}
	.st25{fill:#DBF0F7;}
	.st26{fill:none;stroke:#35255A;stroke-width:2;stroke-miterlimit:10;}
	.st27{fill:#8A3A2C;}
	.st28{fill:#15213D;}
	.st29{fill:#935145;}
	.st30{fill:#1B2A4D;}
	.st31{opacity:0.4;fill:#D8D8FF;}
	.st32{clip-path:url(#SVGID_6_);}
	.st33{fill:#39304A;}
	.st34{display:inline;fill:#DBF0F7;}
	.st35{fill:none;stroke:#FFFFFF;stroke-width:1.1956;stroke-miterlimit:10;}
	.st36{fill:#1D262D;}
</style>
<g id="BACKGROUND" class="st0">
	<rect class="st1" width="750" height="500"/>
</g>
<g id="OBJECTS">
	<g class="st2">
		
			<image style="display:inline;overflow:visible;" width="759" height="487" xlink:href="69DB8EE3.png"  transform="matrix(1 0 0 1 1 0)">
		</image>
	</g>
	<g>
		<rect x="-2" y="2" class="st3" width="753" height="495"/>
		<g>
			<linearGradient id="SVGID_1_" gradientUnits="userSpaceOnUse" x1="505.2845" y1="430.7094" x2="505.2845" y2="1.97">
				<stop  offset="0" style="stop-color:#8E3BFB"/>
				<stop  offset="0.3667" style="stop-color:#64E0E6"/>
				<stop  offset="0.4897" style="stop-color:#6DD8DD"/>
				<stop  offset="0.5564" style="stop-color:#5EE6EC"/>
				<stop  offset="0.6128" style="stop-color:#6AD1DF"/>
				<stop  offset="1" style="stop-color:#2D43FF"/>
				<stop  offset="1" style="stop-color:#949494"/>
				<stop  offset="1" style="stop-color:#2C282A"/>
				<stop  offset="1" style="stop-color:#252122"/>
				<stop  offset="1" style="stop-color:#3D393A"/>
				<stop  offset="1" style="stop-color:#656263"/>
				<stop  offset="1" style="stop-color:#8A8889"/>
				<stop  offset="1" style="stop-color:#AAA8A9"/>
				<stop  offset="1" style="stop-color:#C5C4C4"/>
				<stop  offset="1" style="stop-color:#DADADA"/>
				<stop  offset="1" style="stop-color:#EBEAEB"/>
				<stop  offset="1" style="stop-color:#F6F6F6"/>
				<stop  offset="1" style="stop-color:#FDFDFD"/>
				<stop  offset="1" style="stop-color:#FFFFFF"/>
			</linearGradient>
			<path class="st4" d="M751,2v428.2c-2.4,0.3-4.8,0.4-7.3,0.5c-42.6,1.5-36.1-34-66.4-48.4c-33.4-15.9-88.5,25.4-121.5,27.1
				c-39.2,2.1-76.3-91.6-107.1-104.3c-122.7-50.8-135.2,73.5-173.6-4c-40.3-81.1,2.6-138.6,81.6-146.6c40.7-4.1,52.5,14.2,79.5-18.1
				c29.6-35.3,48.5-82.9,97.7-74.8c60.6,10,47.5-29.4,61.4-59.7H751z"/>
			<linearGradient id="SVGID_2_" gradientUnits="userSpaceOnUse" x1="134.3239" y1="166.8402" x2="134.3239" y2="1.97">
				<stop  offset="0" style="stop-color:#8E3BFB"/>
				<stop  offset="0.3667" style="stop-color:#64E0E6"/>
				<stop  offset="0.4897" style="stop-color:#6DD8DD"/>
				<stop  offset="0.5564" style="stop-color:#5EE6EC"/>
				<stop  offset="0.6128" style="stop-color:#6AD1DF"/>
				<stop  offset="1" style="stop-color:#2D43FF"/>
				<stop  offset="1" style="stop-color:#949494"/>
				<stop  offset="1" style="stop-color:#2C282A"/>
				<stop  offset="1" style="stop-color:#252122"/>
				<stop  offset="1" style="stop-color:#3D393A"/>
				<stop  offset="1" style="stop-color:#656263"/>
				<stop  offset="1" style="stop-color:#8A8889"/>
				<stop  offset="1" style="stop-color:#AAA8A9"/>
				<stop  offset="1" style="stop-color:#C5C4C4"/>
				<stop  offset="1" style="stop-color:#DADADA"/>
				<stop  offset="1" style="stop-color:#EBEAEB"/>
				<stop  offset="1" style="stop-color:#F6F6F6"/>
				<stop  offset="1" style="stop-color:#FDFDFD"/>
				<stop  offset="1" style="stop-color:#FFFFFF"/>
			</linearGradient>
			<path class="st5" d="M263.2,62.6c-13.8,27.2-46.3,42.7-76.4,36.5c-21.1-4.3-42.4-18.1-62.5-11.3c-11.9,4-20.2,14.5-28.1,24.4
				c-14.2,17.8-29.6,35.5-49.7,46c-14.7,7.6-32.4,10.8-48.6,6.9V2h267.4C272.9,21.7,272.5,44.3,263.2,62.6z"/>
		</g>
		<g class="st0">
			<text transform="matrix(0.9121 0 0 1 555.2734 213.1406)" class="st1 st6 st7">MARKETING</text>
			<g class="st8">
				<rect x="609.6" y="281.9" class="st9" width="117.6" height="32.1"/>
				<text transform="matrix(0.9121 0 0 1 618.0967 303.4238)" class="st3 st10 st11">READ MORE</text>
			</g>
			<rect x="484.6" y="227" class="st12" width="242.5" height="62.4"/>
			<text transform="matrix(0.9121 0 0 1 501.9326 235.0586)" class="st8"><tspan x="0" y="0" class="st3 st13 st14">Lorem ipsum dolor sit amet, consectetuer adipiscing </tspan><tspan x="19.8" y="13.6" class="st3 st13 st14">elit, sed diam nonummy nibh euismod tincidunt</tspan></text>
			<g class="st8">
				<g>
					<g>
						<text transform="matrix(0.9121 0 0 1 33.2451 39.6787)" class="st3 st10 st15">YOURLOGO</text>
					</g>
				</g>
			</g>
			<text transform="matrix(0.9121 0 0 1 319.9565 39.6289)" class="st16 st13 st14">Home          Services          About          Contact          FAQ</text>
			<g class="st8">
				<path class="st3" d="M726.6,31.6h-10.4c-0.3,0-0.5-0.3-0.5-0.6l0,0c0-0.3,0.2-0.6,0.5-0.6h10.4c0.3,0,0.5,0.3,0.5,0.6l0,0
					C727.1,31.4,726.9,31.6,726.6,31.6z"/>
				<path class="st3" d="M726.6,36h-10.4c-0.3,0-0.5-0.3-0.5-0.6l0,0c0-0.3,0.2-0.6,0.5-0.6h10.4c0.3,0,0.5,0.3,0.5,0.6l0,0
					C727.1,35.8,726.9,36,726.6,36z"/>
				<path class="st3" d="M726.6,40.5h-10.4c-0.3,0-0.5-0.3-0.5-0.6l0,0c0-0.3,0.2-0.6,0.5-0.6h10.4c0.3,0,0.5,0.3,0.5,0.6l0,0
					C727.1,40.2,726.9,40.5,726.6,40.5z"/>
			</g>
			<g class="st8">
				<path class="st3" d="M697.3,41.9h-92.1c-2.9,0-5.3-2.4-5.3-5.3v-2.2c0-2.9,2.4-5.3,5.3-5.3h92.1c2.9,0,5.3,2.4,5.3,5.3v2.2
					C702.7,39.5,700.3,41.9,697.3,41.9z"/>
				<g>
					<path class="st9" d="M697.9,39.6L697.9,39.6c-0.3,0.3-0.8,0.3-1,0l-3.2-3.5c-0.3-0.3-0.3-0.8,0-1.1l0,0c0.3-0.3,0.8-0.3,1,0
						l3.2,3.5C698.2,38.7,698.2,39.3,697.9,39.6z"/>
					<path class="st9" d="M695.3,32.1c1.2,1.3,1.2,3.4,0,4.7c-1.2,1.3-3.1,1.3-4.3,0c-1.2-1.3-1.2-3.4,0-4.7
						C692.2,30.8,694.1,30.8,695.3,32.1z"/>
					<ellipse class="st3" cx="693.2" cy="34.4" rx="1.8" ry="2"/>
				</g>
			</g>
		</g>
		<g class="st0">
			<g class="st8">
				<path class="st17" d="M369.7,350.5c1-1.8,2.1-4.5,1.8-6.5c-0.3-2-1.2-5.3-2.9-2.4c0,0,0.6,5.4,0.1,6.6
					C368.2,349.3,369.5,349.7,369.7,350.5z"/>
				<g>
					<path class="st18" d="M358.7,361.1c5.9,5.8,12.6-6.8,12.8-8.6c0.5-4.7-3.1-9-3.5-3.2c-0.4,5.9-5,8.2-8,7.8
						S359.8,361.5,358.7,361.1z"/>
				</g>
			</g>
			<g class="st8">
				<path class="st19" d="M255.3,424.5l-8,1.8c-9.2,2-18.5-2.7-23-11.8l-46-93.4l51.7-11.5l39.9,80.9
					C276.6,404.3,269.3,421.4,255.3,424.5z"/>
				<g>
					<defs>
						<path id="SVGID_3_" d="M192.7,333.9l-30.6,6.8c-24,5.3-47.5-11.7-52.3-38.1l-0.4-2.1c-4.9-26.4,10.7-52.1,34.7-57.4l30.6-6.8
							L192.7,333.9z"/>
					</defs>
					<clipPath id="SVGID_4_">
						<use xlink:href="#SVGID_3_"  style="overflow:visible;"/>
					</clipPath>
					<path class="st20" d="M192.7,333.9l-30.6,6.8c-24,5.3-47.5-11.7-52.3-38.1l-0.4-2.1c-4.9-26.4,10.7-52.1,34.7-57.4l30.6-6.8
						L192.7,333.9z"/>
					<g class="st21">
						<line class="st22" x1="108.2" y1="347.3" x2="201" y2="326.7"/>
						<line class="st22" x1="105.6" y1="332.7" x2="198.4" y2="312.2"/>
						<line class="st22" x1="102.9" y1="318.2" x2="195.7" y2="297.6"/>
						<line class="st22" x1="100.2" y1="303.6" x2="193" y2="283.1"/>
						<line class="st22" x1="97.5" y1="289.1" x2="190.3" y2="268.5"/>
						<line class="st22" x1="94.8" y1="274.5" x2="187.6" y2="254"/>
						<line class="st22" x1="92.1" y1="260" x2="184.9" y2="239.4"/>
					</g>
				</g>
				<path class="st23" d="M416.4,347.8L187,335c-19.8-5.8-33.6-82.5-17.9-97.2l206.8-109.6L416.4,347.8z"/>
				<path class="st23" d="M422.9,232.1c11.2,60.6,8.3,112.4-6.5,115.7c-12.6,2.8-29.6-30.3-41.3-77.4c-2.1-8.4-4-17.3-5.7-26.4
					c-1.7-9.2-3.1-18.1-4.1-26.8c-5.9-48.4-1.9-86.1,10.6-88.9C390.6,125,411.7,171.4,422.9,232.1z"/>
				<path class="st24" d="M422.9,232.1c11.2,60.6,8.3,112.4-6.5,115.7c-12.6,2.8-29.6-30.3-41.3-77.4c-2.1-8.4-4-17.3-5.7-26.4
					c-1.7-9.2-3.1-18.1-4.1-26.8c-5.9-48.4-1.9-86.1,10.6-88.9C390.6,125,411.7,171.4,422.9,232.1z"/>
				<path class="st19" d="M420.9,232.5c10.3,55.6,8.7,102.9-3.4,105.6c-10.3,2.3-25-28.3-35.5-71.6c-1.9-7.7-3.6-15.9-5.2-24.3
					c-1.6-8.4-2.8-16.7-3.9-24.6c-5.7-44.4-3-78.8,7.3-81.1C392.4,133.9,410.6,176.8,420.9,232.5z"/>
				<path class="st25" d="M413.4,234.2c2.8,15-6.1,29.7-19.8,32.8c-4,0.9-7.9,0.7-11.5-0.4c-1.9-7.7-3.6-15.9-5.2-24.3
					c-1.6-8.4-2.8-16.7-3.9-24.6c3-2.6,6.5-4.4,10.5-5.3C397.2,209.4,410.6,219.1,413.4,234.2z"/>
			</g>
			<g class="st8">
				<g>
					<path class="st19" d="M170.7,406.7H40.4c-1.7,0-3-1.3-3-3v-28.6c0-1.7,1.3-3,3-3h130.3V406.7z"/>
					<path class="st25" d="M170.7,403.8h-122c-1.4,0-2.5-1.1-2.5-2.5v-23.8c0-1.4,1.1-2.5,2.5-2.5h122V403.8z"/>
					<line class="st26" x1="46.2" y1="382.2" x2="170.7" y2="382.2"/>
					<line class="st26" x1="46.2" y1="389.4" x2="170.7" y2="389.4"/>
					<line class="st26" x1="46.2" y1="396.6" x2="170.7" y2="396.6"/>
				</g>
				<g>
					<path class="st23" d="M191.5,433H61.3v-26.1h130.2c1.7,0,3.1,1.4,3.1,3.1v19.9C194.6,431.6,193.2,433,191.5,433z"/>
					<path class="st25" d="M186.1,429.3H61.3v-18.6h124.8c1.2,0,2.2,1,2.2,2.2v14.2C188.4,428.3,187.4,429.3,186.1,429.3z"/>
					<line class="st26" x1="61.3" y1="414.6" x2="188.4" y2="414.6"/>
					<line class="st26" x1="61.3" y1="422.3" x2="188.4" y2="422.3"/>
				</g>
			</g>
			<g class="st8">
				<g>
					<g>
						<g>
							<path class="st27" d="M107.6,372.1c-3.5,0-5.5-2.7-5.5-2.7l-0.2-2.2l-1.6,1l-0.8-0.5l2.9-5l2.3,1.6c0,0-1.1,1.6-0.1,3.1
								C106.1,369.7,109.6,372.1,107.6,372.1z"/>
							<g>
								<path class="st28" d="M105.4,363.3c-1.3,2.3-2.7,2.6-5.1,1.3c2.1-22.8-0.9-27.9-6.2-46.7c1.9-1.4,3.7-2.9,5.6-4.3
									C106.9,332.7,107.9,348,105.4,363.3z"/>
							</g>
						</g>
						<g>
							<path class="st29" d="M96.2,372.1c-3.5,0-5.5-2.7-5.5-2.7l-0.2-2.2l-1.6,1l-0.8-0.5l2.9-5l2.3,1.6c0,0-1.1,1.6-0.1,3.1
								C94.7,369.7,98.3,372.1,96.2,372.1z"/>
							<polygon class="st30" points="93.4,365.1 89.2,365 89.7,314.4 98.2,318.7 							"/>
						</g>
					</g>
					<g>
						<path class="st17" d="M98.4,285.2l-4.5,5.5l4.2,3.2c0,0,3.4-5.3,4.1-5.8C103,287.7,98.4,285.2,98.4,285.2z"/>
						<path class="st23" d="M96,288c0,0,2,2.1,3.2,6.4c0.9,3.3,0.3,11.2,0.8,15.3c0.4,2.9,2.8,11.4,2.8,11.4s-10,3.8-13.3-1
							c-1.3-1.9,1.9-9.3,0.9-22.2C89.9,291,93.8,288.8,96,288z"/>
						<g>
							<path class="st9" d="M108.7,305c3.1,0,6-1.6,9.2-2.5c0.5-0.1,3.2-1.2,2.5-1.9c-1.4-1.6-4.3-1-6.8,0c-1.7,0.7-2.7,1-4.1,1.3
								C107.2,302.5,108.3,304.4,108.7,305z"/>
							<path class="st23" d="M99.2,294.4c1.4,6.9,11.7,6.4,14.9,5.7c2.8-0.6,4.9,1.6,3.2,2.7c-5.9,3.6-16.1,2.8-19.4-0.8
								C94.6,298.4,96.7,296,99.2,294.4z"/>
						</g>
					</g>
					<g>
						<g>
							<path class="st9" d="M105.7,285.9c-0.8,2.6-1.5,5.7-3.4,5c-1.9-0.7-4.2-5-3.4-7.6c0.8-2.6,3-4.1,4.9-3.4
								C105.6,280.6,106.5,283.3,105.7,285.9z"/>
						</g>
						<path class="st28" d="M105.3,279.1c1.3,0.5,0.7,1.4,0.6,2.4c0.6,0,1.4-0.1,1.7,0.6c0.4,0.7-0.2,1.9-0.7,2.4
							c-1.2,1-2.8-1.2-4-1.5c-1-0.2-2.2,0.6-2.2,1.4c0,0.5-2.4,2-3.2,1.9c-0.6,0-0.8-0.9-0.7-1.8c0.1-0.8,0.7-1.1,0.8-1.8
							c0.1-0.7,0.2-1.4,0.5-2.1c0.5-1.2,1.8-2.8,3.2-2.9c0.9-0.1,1.1,0.7,1.7,1.1C103.7,279.1,104.5,278.8,105.3,279.1z"/>
						<path class="st3" d="M104.6,288.9l-1.2-0.5C103.4,288.5,103.2,291.4,104.6,288.9z"/>
					</g>
				</g>
			</g>
			<g class="st8">
				<g>
					<g>
						<path class="st18" d="M371.6,439.6l-11.6-0.1l0.1-6l3,0l1.7,3c1.6,0.5,4.8,0.3,5.9,1.8L371.6,439.6z"/>
						<g>
							<path class="st17" d="M363,433.4l-3,0c0.4-16.6,3-26.8-6-47.1c2.2-1.4,4.3-2.8,6.5-4.2C369.8,404.2,367.1,409.8,363,433.4z"
								/>
						</g>
					</g>
					<g>
						<path class="st19" d="M358.5,439.6l-11.6-0.1l0.1-6l3,0l1.7,3c1.6,0.5,4.8,0.3,5.9,1.8L358.5,439.6z"/>
						<polygon class="st9" points="350,433.4 346.9,433.4 349.2,382.6 358.5,387.3 						"/>
					</g>
				</g>
				<g>
					<path class="st17" d="M354.2,346l0.7,10.4l4.2,2.7c0,0-0.4-7.9,0.5-8.4C360.5,350.1,354.2,346,354.2,346z"/>
					<path class="st19" d="M354.7,353.9c0,0,4.3,4.1,4.3,1.3c0-1.6,4,5.2,4.5,7.4c0.4,1.9-0.2,5.8-0.2,5.8l5.1,40.7
						c0,0-19.4,3.3-21.9-2.9c-3.7-9.3,5.9-31.4,3.9-45.6C350.1,358.5,352.2,354.7,354.7,353.9z"/>
					<g>
						<path class="st9" d="M338.6,350.9c-1.5-2-3.1-4.8-2.7-6.9c0.4-2.1,1.8-5.7,4.4-2.6c0,0-0.9,5.8-0.2,7
							C340.9,349.7,338.9,350.1,338.6,350.9z"/>
						<g>
							<path class="st19" d="M355,362.2c-8.8,6.1-18.7-7.2-19-9.2c-0.8-5,4.6-9.7,5.2-3.4c0.6,6.3,7.4,8.8,11.9,8.3
								C357.6,357.5,353.4,362.7,355,362.2z"/>
						</g>
					</g>
				</g>
				<g>
					<path class="st9" d="M361.3,345.6c0.1,3.1,0.4,6.8-1.9,6.9c-2.3,0.1-6.3-3.5-6.4-6.6c-0.1-3.1,1.7-5.7,4-5.8
						C359.3,340,361.2,342.5,361.3,345.6z"/>
					<path class="st30" d="M351.8,342.4c-0.8,1.3-0.9,3-0.4,4.4c0.5,1.4,1.7,2.5,3,2.9c-0.4-0.7,0-1.6,0.4-2.2
						c0.4-0.7,0.9-1.4,0.7-2.2c-0.1-0.2-0.2-0.5-0.3-0.7c-0.1-0.2-0.1-0.6,0.1-0.7c0.1-0.1,0.3-0.1,0.4-0.2c2.2-0.2,4.4,0.5,6.1,2.1
						c-0.1-1.2-0.3-2.3-0.7-3.4c-0.4-1.1-0.9-2.1-1.8-2.9c-0.8-0.7-1.9-1-3-0.9c-1.5,0.1-2.2,2.1-2.2,2.1S353,340.4,351.8,342.4z"/>
					<path class="st3" d="M361.2,348.7l-2.1,0.2C359.1,348.9,360.4,351.7,361.2,348.7z"/>
				</g>
			</g>
			<g class="st8">
				<g>
					<polygon class="st29" points="245.6,379.3 237,376 252.8,327.1 261.4,330.4 					"/>
					<path class="st29" d="M276.6,259.3c-17.6-6.8-36.9,3.3-43.2,22.6s3,40.5,20.6,47.3c17.6,6.8,36.9-3.3,43.2-22.6
						C303.4,287.3,294.2,266.1,276.6,259.3z M295.1,298.9c-2.3,18-17.5,30.5-33.9,28c-16.4-2.5-27.9-19.2-25.5-37.2
						c2.3-18,17.5-30.5,33.9-28C286,264.2,297.4,280.9,295.1,298.9z"/>
					<ellipse class="st31" cx="265.3" cy="294.3" rx="30" ry="32.9"/>
					<g>
						<defs>
							<ellipse id="SVGID_5_" cx="265.3" cy="294.3" rx="30" ry="32.9"/>
						</defs>
						<clipPath id="SVGID_6_">
							<use xlink:href="#SVGID_5_"  style="overflow:visible;"/>
						</clipPath>
						<g class="st32">
							<polygon class="st24" points="224.2,320.1 218.9,313.7 284.6,248.3 289.9,254.6 							"/>
							<polygon class="st24" points="245.4,353.4 242.7,350.2 308.5,284.7 311.1,287.9 							"/>
							<polygon class="st24" points="237.5,336.1 226,322.3 291.8,256.9 303.2,270.7 							"/>
						</g>
					</g>
				</g>
				<g>
					<g>
						<path class="st9" d="M253.1,355.9l1.5-4.4c0,0,2.3,2.7-0.9,8.9C250.7,366.1,253.1,355.9,253.1,355.9z"/>
						<path class="st25" d="M239.3,357.6c0,0,6.9,8.8,13.2-0.8c0.4,1.2,1.1,4.6,1.1,4.6s-6.5,12.1-16.3,2.1
							C235.4,361.5,239.3,357.6,239.3,357.6z"/>
					</g>
					<g>
						<path class="st23" d="M222.2,384.5c-0.7,3.1,1.1,50.9,1.7,50.9c0,0,2-0.7,3.4-0.6c1.5,0.1,2.9-32.1,3.7-37.1
							c1.7,6.3,4.4,37.4,5.8,37.8c1.8,0.5,3.2,1.5,3.3-1c0.8-12.9-0.9-50.9-3.6-53.7C233.5,377.8,223.2,379.6,222.2,384.5z"/>
						<path class="st33" d="M242.1,437.7c0,1.8-2,1.8-3.1,1.8c-1.2,0-2.4,0-2.4-2.7c0-1.8,0.9-3.5,2-3.5
							C239.7,433.3,242.1,435.9,242.1,437.7z"/>
						<path class="st33" d="M228.7,437.7c0,1.8-2,1.8-3.1,1.8c-1.2,0-2.4,0-2.4-2.7c0-1.8,0.9-3.5,2-3.5
							C226.4,433.3,228.7,435.9,228.7,437.7z"/>
					</g>
					<g>
						<path class="st17" d="M230.6,345.2c0,0-1,6.8-2.9,8.7s5.7,1.4,5.7,1.4s-0.6-3.5,1-3.6C236,351.5,230.6,345.2,230.6,345.2z"/>
						<path class="st25" d="M227.6,351.5c0.2,2.6-2.9,3.2-4.5,4c-3.1,1.5-2.6,26.8-0.9,29c0,0,12.5,3.2,15.3-0.4
							c1.4-1.8,1.8-26.4,1.8-26.4c-1-0.7-5.7-2.7-5.6-4.1C233.8,352.7,228.2,351.2,227.6,351.5z"/>
					</g>
					<g>
						<g>
							<path class="st9" d="M236.8,345.2c0,2.7,0.4,6.8-0.9,7.3c-1.1,0.4-3.1-1.2-3.8-2.6c-0.8-1.5-0.3-2.8-0.3-4.2
								c0-2.7-1.9-5.6,0.5-5.6C234.7,340.3,236.8,342.5,236.8,345.2z"/>
							<path class="st23" d="M227.3,346.7c-0.9-3,0.3-6.6,3.7-7.3c1.7-0.3,2.7,0.2,4.1,1.2c1,0.7,2,2.7,3.4,2c-1.1,2.4-2.3,0-3.7,1
								c-0.7,0.5-0.4,2.7-1.2,2.9c-0.2,0.1-1.2-0.1-1.4-0.1c-0.7,1.5,0.6,4.1-1.9,3.5C229.1,349.7,227.6,348,227.3,346.7z"/>
						</g>
					</g>
				</g>
			</g>
		</g>
		<g class="st0">
			<path class="st34" d="M140.8,220.5h-36.5l-5.9,47l-10.5-47c-8,0-14.5-7.1-14.5-15.9v-22.4c0-8.8,6.5-15.9,14.5-15.9h52.9
				c8,0,14.5,7.1,14.5,15.9v22.4C155.2,213.4,148.8,220.5,140.8,220.5z"/>
			<g class="st8">
				<path class="st23" d="M125.5,183.5c0,6.8-5,19.6-11.2,19.6c-1.8,0-3.5-1.1-5-2.9c-3.6-4.2-6.1-12-6.1-16.7
					c0-6.8,5-12.2,11.2-12.2C120.5,171.2,125.5,176.7,125.5,183.5z"/>
				<path class="st24" d="M114.3,171.2v31.9c0,0-2.1-1.1-5-2.9c-3.6-4.2-6.1-12-6.1-16.7C103.2,176.7,108.2,171.2,114.3,171.2z"/>
				<rect x="109.2" y="200.3" class="st19" width="10.3" height="11.3"/>
				<g>
					<path class="st19" d="M112.5,197.4c0,2.4-0.5,4.4-1,4.4c-0.6,0-1-2-1-4.4c0-2.4,0.5-4.4,1-4.4C112.1,193,112.5,195,112.5,197.4
						z"/>
					<path class="st19" d="M118.2,197.4c0,2.4-0.5,4.4-1,4.4s-1-2-1-4.4c0-2.4,0.5-4.4,1-4.4S118.2,195,118.2,197.4z"/>
				</g>
				<line class="st35" x1="109.2" y1="204.2" x2="119.5" y2="204.2"/>
				<line class="st35" x1="109.2" y1="207.6" x2="119.5" y2="207.6"/>
				<rect x="112.5" y="211.6" class="st19" width="3.6" height="2.5"/>
			</g>
		</g>
	</g>
</g>
<g id="DESIGNED_BY_FREEPIK" class="st0">
	<g class="st8">
		<g id="XMLID_319_">
			<g id="XMLID_338_">
				<path id="XMLID_346_" class="st36" d="M385.1,471.5c-0.4,0.4-0.8,0.9-1.1,1.5l-0.5-0.2c-0.1-0.3-0.3-0.5-0.7-0.5
					c-0.3,0-0.6,0.3-0.5,0.7c0,0.3,0.3,0.6,0.7,0.5c0.1,0,0.1,0,0.2-0.1l0.5,0.2c-0.3,0.6-0.4,1.1-0.5,1.7l0.7,0.1
					c0.2-1.3,0.8-2.5,1.8-3.5L385.1,471.5z"/>
				<path id="XMLID_345_" class="st36" d="M390.6,469.2c-0.2,0-0.3,0-0.5,0l-0.1-0.6c0.2-0.1,0.3-0.4,0.3-0.6c0-0.4-0.4-0.7-0.8-0.6
					c-0.4,0-0.7,0.4-0.6,0.8c0,0.3,0.2,0.5,0.4,0.6l0.1,0.6c-0.7,0.1-1.4,0.3-2.1,0.6l0.3,0.7c0.9-0.4,1.9-0.7,3-0.7
					c0.5,0,1,0.1,1.5,0.2l0.2-0.7C391.7,469.2,391.1,469.2,390.6,469.2z"/>
				<path id="XMLID_344_" class="st36" d="M397.2,471.7c0.3,0,0.6-0.3,0.5-0.7c0-0.3-0.3-0.6-0.7-0.5c-0.3,0-0.5,0.3-0.5,0.6
					l-0.4,0.4c-0.4-0.4-0.9-0.8-1.4-1.1l-0.4,0.6c1.1,0.7,2,1.7,2.6,2.9l0.7-0.3c-0.3-0.6-0.6-1.1-0.9-1.5l0.4-0.4
					C397.1,471.7,397.1,471.7,397.2,471.7z"/>
				<path id="XMLID_343_" class="st36" d="M390,479.4c-0.4,0-0.8,0-1.2,0c-0.9,0-1.7-0.1-2.5-0.2c-0.4-0.1-0.8-0.2-1.3-0.3
					c1,1.9,3.1,3.1,5.4,3.1c2.9,0,5.3-1.9,5.9-4.5c-0.7,0.4-1.5,0.8-2.5,1.1C392.8,479,391.5,479.3,390,479.4z"/>
				<path id="XMLID_339_" class="st36" d="M390.6,470.7c-3.4,0-6.1,2.7-6.1,5.9c0,0.4,0,0.8,0.1,1.3c0.7,0.5,2.7,0.9,5.3,0.7
					c2.9-0.2,5.3-1,6.7-2.2c0-0.2,0-0.4,0-0.6C396.2,472.9,393.7,470.7,390.6,470.7z M388.4,477.2c-1,0-1.8-0.8-1.8-1.8
					c0-1,0.8-1.9,1.8-1.9c1,0,1.8,0.8,1.8,1.9C390.3,476.4,389.5,477.2,388.4,477.2z M393.2,476.3c-0.8,0-1.4-0.6-1.4-1.4
					s0.6-1.4,1.4-1.4s1.4,0.6,1.4,1.4S393.9,476.3,393.2,476.3z"/>
			</g>
			<path id="XMLID_336_" class="st36" d="M406.6,472.5c-0.3-0.1-0.8-0.3-1.4-0.2c-0.6,0.1-0.8,0.3-0.8,1v0.9h2.2v1.7h-2.2v5.5h-1.9
				v-5.5h-1.3v-1.7h1.3v-0.9c0-1.7,0.9-2.8,2.6-2.8c0.6,0,1.2,0.1,1.6,0.3V472.5z"/>
			<path id="XMLID_334_" class="st36" d="M411.3,475.9c-0.2,0-0.4,0-0.5,0c-0.9,0-1.5,0.5-1.5,1.6v3.9h-1.9v-7.2h1.9v0.8
				c0.5-0.7,1.1-1,2-1c0.4,0,0.8,0.1,1.1,0.3L411.3,475.9z"/>
			<path id="XMLID_331_" class="st36" d="M419,477.8c0,0.2,0,0.5,0,0.7h-5.1c0.2,1,0.9,1.5,1.8,1.5c0.6,0,1.3-0.3,1.8-0.7l1.1,1.2
				c-0.8,0.7-1.9,1.1-3.1,1.1c-2.2,0-3.7-1.5-3.7-3.8c0-2.3,1.5-3.8,3.6-3.8C417.5,474,419,475.5,419,477.8z M413.9,477.1h3.2
				c-0.2-0.9-0.7-1.4-1.6-1.4C414.6,475.7,414,476.2,413.9,477.1z"/>
			<path id="XMLID_328_" class="st36" d="M426.6,477.8c0,0.2,0,0.5,0,0.7h-5.1c0.2,1,0.9,1.5,1.8,1.5c0.6,0,1.3-0.3,1.8-0.7l1.1,1.2
				c-0.8,0.7-1.8,1.1-3.1,1.1c-2.2,0-3.7-1.5-3.7-3.8c0-2.3,1.5-3.8,3.6-3.8C425.2,474,426.6,475.5,426.6,477.8z M421.5,477.1h3.2
				c-0.2-0.9-0.7-1.4-1.6-1.4C422.2,475.7,421.7,476.2,421.5,477.1z"/>
			<path id="XMLID_325_" class="st36" d="M435,477.8c0,2.2-1.5,3.8-3.5,3.8c-1,0-1.6-0.4-2.1-0.9v3.7h-1.9v-10.1h1.9v0.8
				c0.5-0.6,1.2-1,2.1-1C433.5,474,435,475.6,435,477.8z M429.3,477.8c0,1.1,0.7,2,1.8,2c1.1,0,1.8-0.9,1.8-2c0-1.1-0.7-2-1.8-2
				C430,475.8,429.3,476.6,429.3,477.8z"/>
			<path id="XMLID_322_" class="st36" d="M438.1,471.8c0,0.7-0.5,1.2-1.2,1.2c-0.7,0-1.2-0.5-1.2-1.2c0-0.7,0.5-1.2,1.2-1.2
				C437.5,470.6,438.1,471.1,438.1,471.8z M437.8,481.4h-1.9v-7.2h1.9V481.4z"/>
			<path id="XMLID_320_" class="st36" d="M441,476.7l2.7-2.6h2.4l-3.5,3.4l3.5,3.8h-2.4l-2.7-2.9v2.9h-1.9v-10.7h1.9V476.7z"/>
		</g>
		<g>
			<path class="st36" d="M309.4,481.3v-1.1c-0.5,0.7-1.4,1.2-2.4,1.2c-1.8,0-3.1-1.4-3.1-3.7c0-2.3,1.3-3.7,3.1-3.7
				c1,0,1.8,0.5,2.4,1.2v-3.8h1.1v9.8H309.4z M309.4,479.4v-3.2c-0.4-0.6-1.2-1.1-2.1-1.1c-1.4,0-2.3,1.2-2.3,2.7
				c0,1.6,0.8,2.7,2.3,2.7C308.2,480.5,309,480,309.4,479.4z"/>
			<path class="st36" d="M311.9,477.7c0-2.1,1.5-3.7,3.5-3.7c2.1,0,3.4,1.7,3.4,3.8v0.3h-5.7c0.1,1.3,1,2.4,2.5,2.4
				c0.8,0,1.6-0.3,2.2-0.9l0.5,0.7c-0.7,0.7-1.7,1.1-2.8,1.1C313.4,481.5,311.9,480,311.9,477.7z M315.4,474.9
				c-1.5,0-2.3,1.3-2.3,2.4h4.6C317.7,476.3,317,474.9,315.4,474.9z"/>
			<path class="st36" d="M319.6,480.4l0.6-0.8c0.5,0.5,1.4,1,2.3,1c1.1,0,1.7-0.5,1.7-1.2c0-1.7-4.4-0.7-4.4-3.3c0-1.1,1-2,2.6-2
				c1.2,0,2.1,0.5,2.6,1l-0.5,0.8c-0.4-0.5-1.2-0.9-2.1-0.9c-1,0-1.6,0.5-1.6,1.1c0,1.6,4.4,0.5,4.4,3.3c0,1.2-1,2.1-2.8,2.1
				C321.3,481.5,320.3,481.1,319.6,480.4z"/>
			<path class="st36" d="M326.5,472.5c0-0.4,0.3-0.7,0.7-0.7c0.4,0,0.7,0.3,0.7,0.7c0,0.4-0.3,0.7-0.7,0.7
				C326.8,473.2,326.5,472.9,326.5,472.5z M326.7,481.3v-7.1h1.1v7.1H326.7z"/>
			<path class="st36" d="M329.6,483.1l0.6-0.8c0.6,0.7,1.3,1,2.3,1c1.2,0,2.3-0.6,2.3-2.1v-1c-0.5,0.7-1.4,1.3-2.4,1.3
				c-1.8,0-3.1-1.4-3.1-3.7c0-2.3,1.3-3.7,3.1-3.7c1,0,1.8,0.5,2.4,1.2v-1.1h1.1v6.9c0,2.3-1.6,3.1-3.4,3.1
				C331.2,484.2,330.4,483.9,329.6,483.1z M334.7,479.3v-3.1c-0.4-0.6-1.2-1.1-2.1-1.1c-1.4,0-2.3,1.1-2.3,2.7
				c0,1.6,0.8,2.7,2.3,2.7C333.5,480.4,334.3,479.9,334.7,479.3z"/>
			<path class="st36" d="M342.4,481.3v-4.6c0-1.2-0.6-1.6-1.6-1.6c-0.9,0-1.7,0.5-2.1,1.1v5.2h-1.1v-7.1h1.1v1
				c0.5-0.6,1.5-1.2,2.5-1.2c1.5,0,2.3,0.7,2.3,2.3v5H342.4z"/>
			<path class="st36" d="M344.9,477.7c0-2.1,1.5-3.7,3.5-3.7c2.1,0,3.4,1.7,3.4,3.8v0.3h-5.7c0.1,1.3,1,2.4,2.5,2.4
				c0.8,0,1.6-0.3,2.2-0.9l0.5,0.7c-0.7,0.7-1.7,1.1-2.8,1.1C346.4,481.5,344.9,480,344.9,477.7z M348.4,474.9
				c-1.5,0-2.3,1.3-2.3,2.4h4.6C350.7,476.3,350,474.9,348.4,474.9z"/>
			<path class="st36" d="M358.3,481.3v-1.1c-0.5,0.7-1.4,1.2-2.4,1.2c-1.8,0-3.1-1.4-3.1-3.7c0-2.3,1.3-3.7,3.1-3.7
				c1,0,1.8,0.5,2.4,1.2v-3.8h1.1v9.8H358.3z M358.3,479.4v-3.2c-0.4-0.6-1.2-1.1-2.1-1.1c-1.4,0-2.3,1.2-2.3,2.7
				c0,1.6,0.8,2.7,2.3,2.7C357.1,480.5,358,480,358.3,479.4z"/>
			<path class="st36" d="M364.7,481.3v-9.8h1.1v3.8c0.6-0.8,1.4-1.2,2.4-1.2c1.8,0,3.1,1.5,3.1,3.7c0,2.3-1.3,3.7-3.1,3.7
				c-1,0-1.9-0.5-2.4-1.2v1.1H364.7z M367.9,480.5c1.4,0,2.3-1.2,2.3-2.7c0-1.6-0.8-2.7-2.3-2.7c-0.9,0-1.7,0.5-2.1,1.1v3.2
				C366.2,480,367,480.5,367.9,480.5z"/>
			<path class="st36" d="M372.5,483.1c0.2,0.1,0.4,0.1,0.6,0.1c0.5,0,0.8-0.2,1.1-0.7l0.5-1.1l-3-7.1h1.2l2.4,5.8l2.3-5.8h1.2
				l-3.5,8.5c-0.4,1-1.1,1.4-2.1,1.4c-0.2,0-0.6,0-0.8-0.1L372.5,483.1z"/>
		</g>
	</g>
</g>
</svg>
