<?xml version="1.0" encoding="utf-8"?>
<!-- Generator: Adobe Illustrator 22.0.1, SVG Export Plug-In . SVG Version: 6.00 Build 0)  -->
<svg version="1.1" id="Layer_2" xmlns="http://www.w3.org/2000/svg" xmlns:xlink="http://www.w3.org/1999/xlink" x="0px" y="0px"
	 viewBox="0 0 1338.1 784.2" style="enable-background:new 0 0 1338.1 784.2;" xml:space="preserve">
<style type="text/css">
	.st0{clip-path:url(#SVGID_2_);fill:#965A88;}
	.st1{clip-path:url(#SVGID_2_);fill:#7F4B7D;}
	.st2{clip-path:url(#SVGID_2_);fill:#6D4A6D;}
	.st3{filter:url(#Adobe_OpacityMaskFilter);}
	.st4{filter:url(#Adobe_OpacityMaskFilter_1_);}
	.st5{clip-path:url(#SVGID_2_);mask:url(#SVGID_3_);fill:url(#SVGID_4_);}
	.st6{clip-path:url(#SVGID_2_);fill:url(#SVGID_5_);}
	.st7{clip-path:url(#SVGID_2_);fill:#774472;}
	.st8{opacity:0.56;clip-path:url(#SVGID_2_);fill:#683E66;}
	.st9{opacity:0.75;clip-path:url(#SVGID_2_);fill:#7C507C;}
	.st10{opacity:0.16;clip-path:url(#SVGID_2_);fill:#562F52;}
	.st11{clip-path:url(#SVGID_2_);fill:#844D7F;}
	.st12{opacity:0.14;clip-path:url(#SVGID_2_);fill:#6D4365;}
	.st13{filter:url(#Adobe_OpacityMaskFilter_2_);}
	.st14{filter:url(#Adobe_OpacityMaskFilter_3_);}
	.st15{clip-path:url(#SVGID_2_);mask:url(#SVGID_6_);fill:url(#SVGID_7_);}
	.st16{clip-path:url(#SVGID_2_);fill:url(#SVGID_8_);}
	.st17{clip-path:url(#SVGID_2_);fill:#F9E4F9;}
	.st18{clip-path:url(#SVGID_2_);fill:#CCB4CC;}
	.st19{clip-path:url(#SVGID_2_);fill:#EED8EF;}
	.st20{clip-path:url(#SVGID_2_);fill:#E7BAE8;}
	.st21{clip-path:url(#SVGID_2_);}
	.st22{fill:#958196;}
	.st23{clip-path:url(#SVGID_2_);fill:#958196;}
	.st24{fill:#E7D9E8;}
	.st25{fill:#C0ACC1;}
	.st26{fill:#998F7A;}
	.st27{fill:#77674A;}
	.st28{filter:url(#Adobe_OpacityMaskFilter_4_);}
	.st29{filter:url(#Adobe_OpacityMaskFilter_5_);}
	.st30{clip-path:url(#SVGID_2_);mask:url(#SVGID_9_);fill:url(#SVGID_10_);}
	.st31{clip-path:url(#SVGID_2_);fill:url(#SVGID_11_);}
	.st32{filter:url(#Adobe_OpacityMaskFilter_6_);}
	.st33{filter:url(#Adobe_OpacityMaskFilter_7_);}
	.st34{clip-path:url(#SVGID_2_);mask:url(#SVGID_12_);fill:url(#SVGID_13_);}
	.st35{clip-path:url(#SVGID_2_);fill:url(#SVGID_14_);}
	.st36{clip-path:url(#SVGID_2_);fill:url(#SVGID_15_);}
	.st37{opacity:0.35;clip-path:url(#SVGID_2_);fill:#F4E4F4;}
	.st38{clip-path:url(#SVGID_2_);fill:#321233;}
	.st39{opacity:8.000000e-02;clip-path:url(#SVGID_2_);fill:#321233;}
	.st40{filter:url(#Adobe_OpacityMaskFilter_8_);}
	.st41{filter:url(#Adobe_OpacityMaskFilter_9_);}
	.st42{clip-path:url(#SVGID_2_);mask:url(#SVGID_16_);fill:url(#SVGID_17_);}
	.st43{opacity:0.64;clip-path:url(#SVGID_2_);fill:url(#SVGID_18_);}
	.st44{fill:#C5B0C6;}
	.st45{opacity:0.23;fill:#2F2030;}
	.st46{fill:#4B354C;}
	.st47{clip-path:url(#SVGID_2_);fill:#CA9ECC;}
	.st48{clip-path:url(#SVGID_2_);fill:#C4657E;}
	.st49{clip-path:url(#SVGID_2_);fill:#6565C1;}
	.st50{clip-path:url(#SVGID_2_);fill:#68686D;}
	.st51{opacity:0.18;clip-path:url(#SVGID_2_);fill:#CE97C9;}
	.st52{fill:#56585E;}
	.st53{opacity:0.2;fill:#F7F7F7;}
	.st54{fill:#303030;}
	.st55{fill:#0A2126;}
	.st56{fill:#ADA7B7;}
	.st57{fill:#232226;}
	.st58{fill:#413F44;}
	.st59{fill:#F6F7C1;}
	.st60{opacity:0.47;fill:#AFAF91;}
	.st61{fill:#756B58;}
	.st62{fill:#626666;}
	.st63{fill:#9E9E71;}
	.st64{opacity:0.54;fill:#6D4365;}
	.st65{fill:#E58A7F;}
	.st66{fill:#D7EDF9;}
	.st67{fill:#B7DDF7;}
	.st68{fill:#2C2449;}
	.st69{fill:#492C24;}
	.st70{fill:#CE6752;}
	.st71{fill:#EDB19D;}
	.st72{fill:#231613;}
	.st73{fill:url(#SVGID_19_);}
	.st74{fill:#3A211B;}
	.st75{fill:#79688E;}
	.st76{fill:#516168;}
	.st77{fill:#4C4B60;}
	.st78{fill:#95ABB5;}
	.st79{fill:#B7695A;}
	.st80{fill:#724F46;}
	.st81{fill:#935A4E;}
	.st82{fill:#DD6652;}
	.st83{fill:#593A31;}
	.st84{fill:#1E1C28;}
	.st85{clip-path:url(#SVGID_2_);fill:url(#SVGID_20_);}
	.st86{clip-path:url(#SVGID_2_);fill:url(#SVGID_21_);}
	.st87{fill:#1E1619;}
	.st88{fill:#FFFFE3;}
	.st89{fill:#231A1E;}
	.st90{fill:url(#SVGID_22_);}
	.st91{fill:url(#SVGID_23_);}
	.st92{fill:url(#SVGID_24_);}
	.st93{fill:#0B080C;}
	.st94{fill:#2D272E;}
	.st95{fill:#0A1B26;}
	.st96{fill:#DB643B;}
	.st97{fill:#A8472D;}
	.st98{fill:#162F44;}
	.st99{fill:#230E09;}
	.st100{fill:#49241A;}
	.st101{fill:#1E100D;}
	.st102{fill:#0C090C;}
	.st103{fill:#9C939E;}
	.st104{fill:#434147;}
	.st105{fill:#3E3A47;}
	.st106{fill:#282727;}
	.st107{fill:#564D60;}
	.st108{fill:#9788AA;}
	.st109{fill:#110404;}
	.st110{fill:#0C1821;}
	.st111{filter:url(#Adobe_OpacityMaskFilter_10_);}
	.st112{filter:url(#Adobe_OpacityMaskFilter_11_);}
	.st113{mask:url(#SVGID_25_);fill:url(#SVGID_26_);}
	.st114{opacity:0.54;}
	.st115{filter:url(#Adobe_OpacityMaskFilter_12_);}
	.st116{filter:url(#Adobe_OpacityMaskFilter_13_);}
	.st117{mask:url(#SVGID_29_);fill:url(#SVGID_30_);}
	.st118{fill:#6D676D;}
	.st119{fill:#4C454C;}
	.st120{clip-path:url(#SVGID_2_);fill:#5E452A;}
	.st121{clip-path:url(#SVGID_2_);fill:#493F49;}
	.st122{fill:#3A171F;}
	.st123{fill:#38423F;}
	.st124{fill:#300D15;}
	.st125{fill:#191C23;}
	.st126{fill:#161416;}
	.st127{fill:#231C23;}
	.st128{fill:#211E21;}
	.st129{fill:#423642;}
	.st130{fill:#141114;}
	.st131{fill:#4B4E66;}
	.st132{opacity:0.43;fill:#EAE8EA;}
	.st133{opacity:0.19;fill:#EAE8EA;}
	.st134{fill:#AA4627;}
	.st135{fill:#393A4C;}
	.st136{fill:#E3E5FC;}
	.st137{fill:#7F7C7F;}
	.st138{fill:#E5CA45;}
	.st139{opacity:0.38;fill:#B26F2D;}
	.st140{fill:#B7952A;}
	.st141{fill:#333F3F;}
	.st142{fill:#110F14;}
	.st143{fill:#F6F7C9;}
	.st144{fill:#CE3932;}
	.st145{fill:#3F2712;}
	.st146{fill:#9B4B48;}
	.st147{fill:#EA756C;}
	.st148{fill:#334447;}
	.st149{fill:#293333;}
	.st150{fill:#35352D;}
	.st151{fill:#909D9E;}
	.st152{fill:#555E5E;}
	.st153{fill:#363A3A;}
	.st154{fill:#967E60;}
	.st155{fill:#6B7475;}
	.st156{opacity:0.43;fill:#9B4E46;}
	.st157{fill:#464F4F;}
	.st158{fill:#754E0A;}
	.st159{opacity:0.4;fill:#513508;}
	.st160{fill:#996D25;}
	.st161{fill:#EA6654;}
	.st162{fill:#B3E2E1;}
	.st163{fill:#282B2B;}
	.st164{fill:#63503B;}
	.st165{fill:#634B29;}
	.st166{fill:#C65860;}
	.st167{fill:#CC847A;}
	.st168{fill:#C17670;}
	.st169{fill:#563428;}
	.st170{fill:#2D230F;}
	.st171{fill:#0A302A;}
	.st172{fill:#473815;}
	.st173{fill:#A8C2CC;}
	.st174{fill:#364144;}
	.st175{fill:#3F2B2B;}
	.st176{fill:#332120;}
	.st177{opacity:0.31;fill:#9275A0;}
	.st178{opacity:0.53;fill:#3F2B2B;}
	.st179{fill:#AFAF91;}
	.st180{fill:#061E1A;}
	.st181{opacity:0.53;fill:#3F220F;}
	.st182{fill:#846B3E;}
	.st183{fill:#E3F3FC;}
	.st184{fill:#3A1E12;}
	.st185{fill:#3A2928;}
	.st186{fill:#63635B;}
	.st187{fill:#6EDDE5;}
	.st188{fill:#44A2A5;}
	.st189{fill:#2B6B6B;}
	.st190{fill:#9E503B;}
	.st191{fill:#BC8D2E;}
	.st192{fill:#AA351D;}
	.st193{opacity:0.43;fill:#BC8D2E;}
	.st194{fill:#1E1B30;}
	.st195{fill:#0D1942;}
	.st196{fill:#3A3256;}
	.st197{fill:#171B23;}
	.st198{clip-path:url(#SVGID_2_);fill:#E2472D;}
	.st199{clip-path:url(#SVGID_2_);fill:#B53333;}
	.st200{clip-path:url(#SVGID_2_);fill:#49241A;}
	.st201{opacity:0.69;clip-path:url(#SVGID_2_);fill:#49241A;}
	.st202{clip-path:url(#SVGID_2_);fill:#4B474C;}
	.st203{clip-path:url(#SVGID_2_);fill:#A8472D;}
</style>
<g>
	<defs>
		<rect id="SVGID_1_" x="2.1" y="-2.3" width="1337" height="785"/>
	</defs>
	<clipPath id="SVGID_2_">
		<use xlink:href="#SVGID_1_"  style="overflow:visible;"/>
	</clipPath>
	<polygon class="st0" points="1339.1,782.7 2.1,782.7 2.1,575.3 903.6,531.1 1316.6,769.8 	"/>
	<polygon class="st1" points="1253.5,-2.3 1222.5,11 1178.1,30 919.1,141 123.4,111.3 2.1,106.7 2.1,32.3 2.1,-2.3 	"/>
	<polygon class="st2" points="2.1,32.3 1148,42.9 1266.4,-2.3 2.1,-2.3 	"/>
	<defs>
		<filter id="Adobe_OpacityMaskFilter" filterUnits="userSpaceOnUse" x="119" y="30" width="1059.1" height="111">
			<feFlood  style="flood-color:white;flood-opacity:1" result="back"/>
			<feBlend  in="SourceGraphic" in2="back" mode="normal"/>
		</filter>
	</defs>
	<mask maskUnits="userSpaceOnUse" x="119" y="30" width="1059.1" height="111" id="SVGID_3_">
		<g class="st3">
			<defs>
				<filter id="Adobe_OpacityMaskFilter_1_" filterUnits="userSpaceOnUse" x="119" y="30" width="1059.1" height="111">
					<feFlood  style="flood-color:white;flood-opacity:1" result="back"/>
					<feBlend  in="SourceGraphic" in2="back" mode="normal"/>
				</filter>
			</defs>
			<mask maskUnits="userSpaceOnUse" x="119" y="30" width="1059.1" height="111" id="SVGID_3_">
				<g class="st4">
				</g>
			</mask>
			<linearGradient id="SVGID_4_" gradientUnits="userSpaceOnUse" x1="119.0141" y1="85.5412" x2="1178.0981" y2="85.5412">
				<stop  offset="0" style="stop-color:#000000"/>
				<stop  offset="0.9946" style="stop-color:#4D4D4D"/>
			</linearGradient>
			<polygon class="st5" points="1178.1,30 919.1,141 123.4,111.3 119,108.3 			"/>
		</g>
	</mask>
	<linearGradient id="SVGID_5_" gradientUnits="userSpaceOnUse" x1="119.0141" y1="85.5412" x2="1178.0981" y2="85.5412">
		<stop  offset="0" style="stop-color:#AA5F9F"/>
		<stop  offset="0.9946" style="stop-color:#DBC6D7"/>
	</linearGradient>
	<polygon class="st6" points="1178.1,30 919.1,141 123.4,111.3 119,108.3 	"/>
	<path class="st7" d="M919.1,141v399l-218.5,8.4c0,0,0,0,0,0L2.1,575.3V103.9l134.8,5.5L919.1,141z"/>
	<polygon class="st8" points="2.1,167.8 189.6,243.9 919.1,540.1 2.1,575.3 	"/>
	<polygon class="st9" points="392.9,120 189.6,243.9 423.5,338.9 819.1,137.3 	"/>
	<polygon class="st9" points="189.6,243.9 198.8,566.2 428.8,558.6 423.5,338.9 	"/>
	<path class="st10" d="M700.5,548.5L2.1,575.3V103.9l134.8,5.5C234.9,219.9,518.7,523.3,700.5,548.5z"/>
	<polygon class="st11" points="1339.1,-2.3 1339.1,782.7 919.1,540.1 919.1,141 1253.5,-2.3 	"/>
	<polygon class="st12" points="1339.1,782.7 2.1,782.7 2.1,615.7 1316.6,769.8 	"/>
	<defs>
		<filter id="Adobe_OpacityMaskFilter_2_" filterUnits="userSpaceOnUse" x="919.1" y="116.5" width="420" height="666.2">
			<feFlood  style="flood-color:white;flood-opacity:1" result="back"/>
			<feBlend  in="SourceGraphic" in2="back" mode="normal"/>
		</filter>
	</defs>
	<mask maskUnits="userSpaceOnUse" x="919.1" y="116.5" width="420" height="666.2" id="SVGID_6_">
		<g class="st13">
			<defs>
				<filter id="Adobe_OpacityMaskFilter_3_" filterUnits="userSpaceOnUse" x="919.1" y="116.5" width="420" height="666.2">
					<feFlood  style="flood-color:white;flood-opacity:1" result="back"/>
					<feBlend  in="SourceGraphic" in2="back" mode="normal"/>
				</filter>
			</defs>
			<mask maskUnits="userSpaceOnUse" x="919.1" y="116.5" width="420" height="666.2" id="SVGID_6_">
				<g class="st14">
				</g>
			</mask>
			<linearGradient id="SVGID_7_" gradientUnits="userSpaceOnUse" x1="919.0908" y1="449.6192" x2="1339.0789" y2="449.6192">
				<stop  offset="0" style="stop-color:#4D4D4D"/>
				<stop  offset="1" style="stop-color:#000000"/>
			</linearGradient>
			<polygon class="st15" points="976.4,116.5 1339.1,782.7 919.1,540.1 919.1,141 			"/>
		</g>
	</mask>
	<linearGradient id="SVGID_8_" gradientUnits="userSpaceOnUse" x1="919.0908" y1="449.6192" x2="1339.0789" y2="449.6192">
		<stop  offset="0" style="stop-color:#5B2A59"/>
		<stop  offset="1" style="stop-color:#5B2A59"/>
	</linearGradient>
	<polygon class="st16" points="976.4,116.5 1339.1,782.7 919.1,540.1 919.1,141 	"/>
	<polygon class="st17" points="1339.1,1 1339.1,710.1 948.5,518.3 948.5,156.3 	"/>
	<path class="st18" d="M1019.4,154.5c0.1-0.6,0.2-1.3,0.2-2v-4.2c0-6.3-4.9-11.4-11-11.4c-6.1,0-11,5.1-11,11.4v4.2
		c0,0.8,0.1,1.6,0.2,2.3c-3.6,1.4-6.2,5.1-6.2,9.3V193h35v-28.9C1026.5,159.5,1023.5,155.6,1019.4,154.5z"/>
	<polygon class="st19" points="1099.1,297.2 1091.3,293.7 1091.3,327.6 1101.8,329.1 1101.8,346.9 1090.8,345.5 1090.8,492.9 
		1103.2,498.6 1102.2,551 1101.8,346.9 1106.2,349.1 1109.2,331.9 1101.8,329.1 	"/>
	<polygon class="st20" points="1232.7,159.2 1211,134.5 1198.4,372.2 1215.5,373.6 	"/>
	<polygon class="st20" points="1311.1,283.5 1292.9,250.1 1267.6,532.5 1285.3,534.9 	"/>
	<path class="st18" d="M1339.1,622.9v87.2l-350.1-172l-40.5-19.9v-241l25.2-14.2v-52.3c0,0-2.1-30.5,31.5-37.1
		c33.6-6.5,37.8,34.2,37.8,34.2v77l48.3,8.7v33.9l10.5,1.5v17.8l-11-1.4v199l38.3,21.8l-5.1-412.8l87-18.9l-12.6,237.7l26.2,2.2
		V263.9l68.2-13.8l-30.4,340.2L1339.1,622.9z"/>
	<g class="st21">
		<rect x="1064" y="303.5" class="st22" width="12.1" height="32.2"/>
		<rect x="1042.3" y="303.5" class="st22" width="12.1" height="32.2"/>
		<rect x="1020.6" y="303.5" class="st22" width="12.1" height="32.2"/>
		<rect x="998.9" y="303.5" class="st22" width="12.1" height="32.2"/>
		<rect x="977.1" y="303.5" class="st22" width="12.1" height="32.2"/>
		<rect x="955.4" y="303.5" class="st22" width="12.1" height="32.2"/>
	</g>
	<g class="st21">
		<rect x="1064" y="341.4" class="st22" width="12.1" height="32.2"/>
		<rect x="1042.3" y="341.4" class="st22" width="12.1" height="32.2"/>
		<rect x="1020.6" y="341.4" class="st22" width="12.1" height="32.2"/>
		<rect x="998.9" y="341.4" class="st22" width="12.1" height="32.2"/>
		<rect x="977.1" y="341.4" class="st22" width="12.1" height="32.2"/>
		<rect x="955.4" y="341.4" class="st22" width="12.1" height="32.2"/>
	</g>
	<g class="st21">
		<rect x="1064" y="379.4" class="st22" width="12.1" height="32.2"/>
		<rect x="1042.3" y="379.4" class="st22" width="12.1" height="32.2"/>
		<rect x="1020.6" y="379.4" class="st22" width="12.1" height="32.2"/>
		<rect x="998.9" y="379.4" class="st22" width="12.1" height="32.2"/>
		<rect x="977.1" y="379.4" class="st22" width="12.1" height="32.2"/>
		<rect x="955.4" y="379.4" class="st22" width="12.1" height="32.2"/>
	</g>
	<rect x="1232.7" y="270.8" class="st23" width="4.2" height="17.4"/>
	<rect x="1232.7" y="297.7" class="st23" width="4.2" height="17.4"/>
	<rect x="1233.6" y="357.9" class="st23" width="2.5" height="17.4"/>
	<rect x="1239.7" y="357.9" class="st23" width="2.4" height="17.4"/>
	<rect x="1245.1" y="357.9" class="st23" width="2.5" height="17.4"/>
	<g class="st21">
		<g>
			<path class="st24" d="M1198.7,453.6c0-23.7-22.6-46.9-36.7-46.9c-14.1,0-14.3,23.2-14.3,46.9c0,23.7,11.4,42.9,25.5,42.9
				C1187.3,496.5,1198.7,477.3,1198.7,453.6z"/>
			<path class="st25" d="M1187.8,449.6c0-23.7-11.7-42.9-25.8-42.9c-14.1,0-32.2,19.2-32.2,42.9c0,23.7,11.4,42.9,25.5,42.9
				C1169.4,492.5,1187.8,473.3,1187.8,449.6z"/>
		</g>
		<polygon class="st24" points="1064,331.8 1054.4,318.3 1034,560.3 1042.1,564.2 		"/>
		<ellipse class="st25" cx="1033.5" cy="329.5" rx="27.3" ry="26"/>
		<path class="st24" d="M1033.5,303.5c-1.3,0-2.7,0.1-3.9,0.3c13.2,1.8,23.4,12.7,23.4,25.8s-10.2,23.9-23.4,25.8
			c1.3,0.2,2.6,0.3,3.9,0.3c15.1,0,27.3-11.7,27.3-26S1048.6,303.5,1033.5,303.5z"/>
		<polygon class="st24" points="1202.9,445.9 1188.5,433.2 1180.9,622.2 1188.3,626.4 		"/>
		<polygon class="st26" points="997.5,325.8 1054.4,318.3 1039.6,563 1049.8,568 1053.9,475.8 1103.2,498.6 1101.8,575.3 
			1136.1,595.3 1129.1,426 1188.5,433.2 1180.9,622.2 1196.3,630.9 1198.7,562.2 1243.2,554.6 1257.9,531.1 1323,540.1 
			1339.1,571.3 1339.1,710.1 1143.8,614.2 948.5,518.3 948.5,477.6 964.6,484.1 965.3,516.8 1005.7,537.4 		"/>
		<g>
			<path class="st27" d="M1174.2,629l-30.5-15.4l-0.9-3l-2.8-169.2c0-0.6,0.5-1.1,1-1.1c0,0,0,0,0,0c0.6,0,1,0.5,1,1.1l2.8,172.2
				l27.3,12.3l7.6-183.6l-44.6-8c-0.6-0.1-1-0.7-0.9-1.3c0.1-0.6,0.6-1,1.2-0.9l46.4,8.3l0,1L1174.2,629z"/>
		</g>
		<g>
			<path class="st27" d="M1165.5,614.2C1165.5,614.2,1165.5,614.2,1165.5,614.2c-0.6,0-1.1-0.5-1-1.1l7.6-165.8l-23.4-4.6l3.8,170.4
				c0,0.6-0.4,1.1-1,1.1c-0.6,0-1.1-0.5-1.1-1.1l-3.9-173.1l27.7,5.4l0,0.9l-7.7,166.7C1166.5,613.7,1166.1,614.2,1165.5,614.2z"/>
		</g>
	</g>
	<defs>
		<filter id="Adobe_OpacityMaskFilter_4_" filterUnits="userSpaceOnUse" x="2.1" y="141" width="917" height="434.2">
			<feFlood  style="flood-color:white;flood-opacity:1" result="back"/>
			<feBlend  in="SourceGraphic" in2="back" mode="normal"/>
		</filter>
	</defs>
	<mask maskUnits="userSpaceOnUse" x="2.1" y="141" width="917" height="434.2" id="SVGID_9_">
		<g class="st28">
			<defs>
				<filter id="Adobe_OpacityMaskFilter_5_" filterUnits="userSpaceOnUse" x="2.1" y="141" width="917" height="434.2">
					<feFlood  style="flood-color:white;flood-opacity:1" result="back"/>
					<feBlend  in="SourceGraphic" in2="back" mode="normal"/>
				</filter>
			</defs>
			<mask maskUnits="userSpaceOnUse" x="2.1" y="141" width="917" height="434.2" id="SVGID_9_">
				<g class="st29">
				</g>
			</mask>
			<linearGradient id="SVGID_10_" gradientUnits="userSpaceOnUse" x1="2.0789" y1="358.1538" x2="919.0908" y2="358.1538">
				<stop  offset="0" style="stop-color:#000000"/>
				<stop  offset="0.9946" style="stop-color:#4D4D4D"/>
			</linearGradient>
			<polygon class="st30" points="919.1,141 2.1,575.3 919.1,540.1 			"/>
		</g>
	</mask>
	<linearGradient id="SVGID_11_" gradientUnits="userSpaceOnUse" x1="2.0789" y1="358.1538" x2="919.0908" y2="358.1538">
		<stop  offset="0" style="stop-color:#AA5F9F"/>
		<stop  offset="0.9946" style="stop-color:#DBC6D7"/>
	</linearGradient>
	<polygon class="st31" points="919.1,141 2.1,575.3 919.1,540.1 	"/>
	<defs>
		<filter id="Adobe_OpacityMaskFilter_6_" filterUnits="userSpaceOnUse" x="2.1" y="141" width="917" height="434.2">
			<feFlood  style="flood-color:white;flood-opacity:1" result="back"/>
			<feBlend  in="SourceGraphic" in2="back" mode="normal"/>
		</filter>
	</defs>
	<mask maskUnits="userSpaceOnUse" x="2.1" y="141" width="917" height="434.2" id="SVGID_12_">
		<g class="st32">
			<defs>
				<filter id="Adobe_OpacityMaskFilter_7_" filterUnits="userSpaceOnUse" x="2.1" y="141" width="917" height="434.2">
					<feFlood  style="flood-color:white;flood-opacity:1" result="back"/>
					<feBlend  in="SourceGraphic" in2="back" mode="normal"/>
				</filter>
			</defs>
			<mask maskUnits="userSpaceOnUse" x="2.1" y="141" width="917" height="434.2" id="SVGID_12_">
				<g class="st33">
				</g>
			</mask>
			<linearGradient id="SVGID_13_" gradientUnits="userSpaceOnUse" x1="2.0789" y1="358.1538" x2="919.0908" y2="358.1538">
				<stop  offset="0" style="stop-color:#000000"/>
				<stop  offset="0.9946" style="stop-color:#4D4D4D"/>
			</linearGradient>
			<polygon class="st34" points="2.1,511.3 919.1,141 919.1,540.1 2.1,575.3 			"/>
		</g>
	</mask>
	<linearGradient id="SVGID_14_" gradientUnits="userSpaceOnUse" x1="2.0789" y1="358.1538" x2="919.0908" y2="358.1538">
		<stop  offset="0" style="stop-color:#AA5F9F"/>
		<stop  offset="0.9946" style="stop-color:#DBC6D7"/>
	</linearGradient>
	<polygon class="st35" points="2.1,511.3 919.1,141 919.1,540.1 2.1,575.3 	"/>
	<linearGradient id="SVGID_15_" gradientUnits="userSpaceOnUse" x1="948.49" y1="432.3816" x2="1339.0789" y2="432.3816">
		<stop  offset="0" style="stop-color:#AA5F9F"/>
		<stop  offset="0.185" style="stop-color:#8A4983"/>
		<stop  offset="0.4038" style="stop-color:#6B3467"/>
		<stop  offset="0.6167" style="stop-color:#542554"/>
		<stop  offset="0.8192" style="stop-color:#471C48"/>
		<stop  offset="1" style="stop-color:#421944"/>
	</linearGradient>
	<polygon class="st36" points="948.5,156.3 952.6,154.7 953,516.5 1339.1,692 1339.1,710.1 948.5,518.3 	"/>
	<polygon class="st37" points="948.5,156.3 1339.1,1 1339.1,710.1 948.5,518.3 	"/>
	<polygon class="st38" points="1040.9,563.6 1038.5,562.5 1038.5,120.5 1040.9,119.6 	"/>
	<polygon class="st38" points="1220.6,651.9 1217.3,650.3 1218.6,48.9 1221,48 	"/>
	<polygon class="st39" points="1339.1,1 1297.7,596.3 1220.6,651.9 1339.1,710.1 	"/>
	<defs>
		<filter id="Adobe_OpacityMaskFilter_8_" filterUnits="userSpaceOnUse" x="2.1" y="1" width="1337" height="781.7">
			<feFlood  style="flood-color:white;flood-opacity:1" result="back"/>
			<feBlend  in="SourceGraphic" in2="back" mode="normal"/>
		</filter>
	</defs>
	<mask maskUnits="userSpaceOnUse" x="2.1" y="1" width="1337" height="781.7" id="SVGID_16_">
		<g class="st40">
			<defs>
				<filter id="Adobe_OpacityMaskFilter_9_" filterUnits="userSpaceOnUse" x="2.1" y="1" width="1337" height="781.7">
					<feFlood  style="flood-color:white;flood-opacity:1" result="back"/>
					<feBlend  in="SourceGraphic" in2="back" mode="normal"/>
				</filter>
			</defs>
			<mask maskUnits="userSpaceOnUse" x="2.1" y="1" width="1337" height="781.7" id="SVGID_16_">
				<g class="st41">
				</g>
			</mask>
			<linearGradient id="SVGID_17_" gradientUnits="userSpaceOnUse" x1="2.0789" y1="391.8765" x2="1339.0789" y2="391.8765">
				<stop  offset="0" style="stop-color:#000000"/>
				<stop  offset="0.9946" style="stop-color:#4D4D4D"/>
			</linearGradient>
			<polygon class="st42" points="1117.6,654.8 1339.1,782.7 129.5,782.7 2.1,575.3 959.1,152.1 1339.1,1 			"/>
		</g>
	</mask>
	<linearGradient id="SVGID_18_" gradientUnits="userSpaceOnUse" x1="2.0789" y1="391.8765" x2="1339.0789" y2="391.8765">
		<stop  offset="0" style="stop-color:#AA5F9F"/>
		<stop  offset="0.9946" style="stop-color:#DBC6D7"/>
	</linearGradient>
	<polygon class="st43" points="1117.6,654.8 1339.1,782.7 129.5,782.7 2.1,575.3 959.1,152.1 1339.1,1 	"/>
	<g class="st21">
		<polygon class="st44" points="896,170.4 896,420.2 404.6,439 404.6,156.9 		"/>
		<polygon class="st45" points="896,420.2 404.6,439 404.6,156.9 433,406.7 		"/>
		<path class="st46" d="M406.7,159.1l487.2,13.4v245.6l-487.2,18.7V159.1L406.7,159.1z M402.5,154.7v286.6l495.6-19v-254
			L402.5,154.7L402.5,154.7z"/>
	</g>
	<polygon class="st47" points="476,180.3 842.5,193 839.3,406.7 476,422.3 	"/>
	<rect x="514.1" y="213.3" class="st48" width="12.5" height="182.4"/>
	<rect x="583.5" y="208.8" class="st48" width="12.5" height="186.6"/>
	<rect x="526.5" y="238.1" class="st49" width="14.4" height="157.7"/>
	<rect x="540.8" y="227.9" class="st49" width="16.1" height="167.9"/>
	<rect x="570.2" y="213.6" class="st49" width="13.3" height="181.8"/>
	<rect x="693" y="225" class="st50" width="124.6" height="5.8"/>
	<rect x="693" y="238.1" class="st50" width="124.6" height="5.8"/>
	<rect x="693" y="246.8" class="st50" width="124.6" height="5.8"/>
	<rect x="693" y="216.6" class="st50" width="124.6" height="5.8"/>
	<polygon class="st51" points="919.1,540.1 2.1,575.3 533.7,782.7 1196,700.1 	"/>
	<g class="st21">
		<g>
			<g>
				<g>
					<rect x="210.3" y="564.2" class="st52" width="12" height="66.2"/>
					<polygon class="st53" points="210.3,587 210.3,597.5 222.3,613.1 222.3,602.6 					"/>
					<polygon class="st53" points="210.3,599.4 210.3,604.6 222.3,620.3 222.3,615 					"/>
					<polygon class="st53" points="210.3,605.6 210.3,610.9 222.3,626.5 222.3,621.3 					"/>
				</g>
				<path class="st54" d="M247.2,533.8v6.9c0,4.6-5.7,8.4-12.8,8.4H233v7.8c0,2-2.4,3.5-5.4,3.5h-21.2c-3,0-5.4-1.6-5.4-3.5v-8.2
					c-5.2-1.1-9-4.3-9-8v-6.9H247.2z"/>
				
					<rect x="208.3" y="560.4" transform="matrix(-1 -1.224647e-16 1.224647e-16 -1 432.0534 1134.4991)" class="st54" width="15.5" height="13.6"/>
				<g>
					<polygon class="st55" points="210.6,631.5 221.5,631.5 221.5,621.4 221.5,613.3 210.6,613.3 					"/>
					<polygon class="st55" points="261.5,643.5 221.5,621.4 221.5,631.5 250.2,643.5 250.2,645.7 261.5,645.7 					"/>
					<polygon class="st55" points="170.6,643.5 210.6,621.4 210.6,631.5 181.9,643.5 181.9,645.7 170.6,645.7 					"/>
					<polygon class="st55" points="219.7,621.4 219.7,645.7 222.4,645.7 222.4,647.5 210.6,647.5 210.6,645.7 213.1,645.7 
						212.3,621.4 					"/>
				</g>
			</g>
			<g>
				<path class="st56" d="M219.4,468.1l-1.9,0.5l31.3,2.9l8.4,7.7l3.6,0.1c0,0-7.8-8.4-9.6-10.3c-0.7-0.8-4.3-1.5-8.3-2.1
					C235.2,465.6,227.1,466.1,219.4,468.1z"/>
				<path class="st57" d="M234,513.1l-3-9.4c-2.4-7.5-7.8-17.8-9.1-26.2c-0.2-1.5,0.3-3,1.2-4.1l0,0l-0.5-1.7l-6.2,1.9
					c0,0-2.2,6.6-2.2,6.9c0,0.3,15.8,29,15.8,29L234,513.1z"/>
				<polygon class="st57" points="262.5,514 260.9,479.4 257.3,479.2 				"/>
				<path class="st58" d="M256.8,514l-3.5-33l-0.3-0.4c-2.6-4-6.9-6.5-11.6-6.7l-20.6-0.6c-1.8-0.1-3.4,1.2-3.9,3
					c-0.3,1.1-0.2,2.2,0.3,3.2l16.8,33.6l-6.3-2.1l-14.8-28.7c-0.7-1.4-1.2-3.1-1.2-4.7c0-5.5,4.4-9.6,9.3-9.5l20.6,0.6
					c6.3,0.2,12.2,3.6,15.7,9l0,0c0.6,0.9,0.9,1.9,1.1,3l4.1,33.4H256.8z"/>
			</g>
			<polygon class="st59" points="287,509.7 254,527.6 214.2,527.9 165.9,528.4 224.4,506.5 246.6,507.6 			"/>
			<path class="st60" d="M214.2,527.9l-48.3,0.5l58.6-21.9l22.2,1.1C227.7,512.3,212,518.8,214.2,527.9z"/>
			<path class="st61" d="M165.9,528.4l-26-61.1c-6.3-14.7-5.4-31.7,2.4-45.6l2.9-5.2c6-10.8,18.8-15.5,30-11l0,0
				c14,5.6,24.7,17.5,29.1,32.4l20.2,68.8L165.9,528.4z"/>
			<g>
				<path class="st56" d="M160.8,493.4l-1.9,0.5l31.3,2.9l8.4,7.7l3.6,0.1c0,0-7.8-8.4-9.6-10.4c-0.7-0.8-4.3-1.5-8.3-2.1
					C176.6,490.9,168.5,491.3,160.8,493.4z"/>
				<path class="st57" d="M175.4,538.3l-3-9.4c-2.4-7.5-7.8-17.8-9.1-26.2c-0.2-1.5,0.3-3,1.2-4.1l0,0l-0.5-1.7l-6.2,1.9
					c0,0-2.2,6.6-2.2,6.9c0,0.3,15.8,29,15.8,29L175.4,538.3z"/>
				<polygon class="st57" points="203.9,539.3 202.3,504.6 198.7,504.5 				"/>
				<path class="st58" d="M198.2,539.3l-3.5-33l-0.3-0.4c-2.6-4-6.9-6.5-11.6-6.7l-20.6-0.6c-1.8-0.1-3.4,1.2-3.9,3
					c-0.3,1.1-0.2,2.2,0.3,3.2l16.8,33.6l-6.3-2.1l-14.8-28.7c-0.7-1.4-1.2-3.1-1.2-4.7c0-5.5,4.4-9.6,9.3-9.5l20.6,0.6
					c6.3,0.2,12.2,3.6,15.7,9l0,0c0.6,0.9,0.9,1.9,1.1,3l4.1,33.4H198.2z"/>
			</g>
			<polygon class="st62" points="165.9,528.4 254,527.6 245.8,539.3 170.2,539.3 			"/>
		</g>
		<polygon class="st63" points="235.4,548.2 242.6,537.9 271.6,522.2 257,535.9 		"/>
		<polygon class="st64" points="211.6,666.7 170.6,645.7 181.9,645.7 211.5,655.1 210.6,647.5 222.4,647.5 220.5,655 250.2,645.7 
			261.5,645.7 221.5,666.1 224.4,712.1 253.5,715.7 278.6,782.7 133.2,782.7 191.6,712.9 210.6,710.3 		"/>
	</g>
	<g class="st21">
		<g>
			<polygon class="st65" points="335.7,300.2 348.3,267.3 374.9,283.7 378.3,303.1 360.4,311.8 			"/>
			<polygon class="st66" points="488,308.1 445,351.4 443.4,351.1 399.5,341.9 399.5,304.9 408.8,301.5 435.1,315.7 478.3,290.5 			
				"/>
			<path class="st67" d="M443.4,351.1l-43.9-9.2v-27.5c6.9,2.1,17.8,6.3,26.2,14.2C436.4,338.6,441.7,347.9,443.4,351.1z"/>
			<polygon class="st68" points="351.1,425 347,592.9 403.5,408.2 			"/>
			<path class="st69" d="M363.9,251.6l-9.2-3.3c-0.6-0.8-1.6-0.9-2.4-0.3l-8,7.1c-1,0.9-1.4,2.3-1.1,3.6l1.3,5.8l0.1,0.3l8.9,16.1
				l0.1,0.2l-0.2-0.2l-11.1-10.3l-1.4-4l-4.1-11.2l15.7-11.4l1.9,1.3L363.9,251.6z"/>
			<path class="st70" d="M348.3,267.3l-3.5,8.6c0,0,7.4,14.7,13.7,17.9c6.3,3.1,17.9-1.8,17.9-1.8l-2.1-13.2L348.3,267.3z"/>
			<path class="st71" d="M348.1,278.6c0,0,7.5,8.7,11.1,9.8c3.7,1,11,6,13,4.7c1.7-1.1,2.3-2.1,2.5-2.5c3-7.2,2.5-15.2,0.2-22.4
				c-2.7-8.1-7.8-15.1-13.2-18.8c-11.6-7.9-18.3,8.8-18.3,8.8L348.1,278.6z"/>
			<g>
				<path class="st72" d="M348.1,278.6c0,0-0.1-0.1-0.1-0.1l-7.2-13.5l-0.1-4.3c1.7,0.5,4-0.6,4.1-0.7l0,0.3L348.1,278.6z"/>
				<path class="st72" d="M359.4,248.1c0.5-0.4,0.7-1.7,0.8-3l6.9,9.2L359.4,248.1z"/>
				
					<linearGradient id="SVGID_19_" gradientUnits="userSpaceOnUse" x1="232.2022" y1="345.541" x2="212.528" y2="362.8224" gradientTransform="matrix(0.9452 0.3264 -0.3264 0.9452 256.0172 -159.5486)">
					<stop  offset="0" style="stop-color:#F15A24"/>
					<stop  offset="1.675069e-02" style="stop-color:#EA5824"/>
					<stop  offset="0.1295" style="stop-color:#BF4C24"/>
					<stop  offset="0.2481" style="stop-color:#9B4224"/>
					<stop  offset="0.3716" style="stop-color:#7D3A24"/>
					<stop  offset="0.5017" style="stop-color:#663424"/>
					<stop  offset="0.641" style="stop-color:#562F24"/>
					<stop  offset="0.7964" style="stop-color:#4C2D24"/>
					<stop  offset="1" style="stop-color:#492C24"/>
				</linearGradient>
				<path class="st73" d="M339.3,242.6c4.1-4,8.7-1.6,13.6-3.1c4.9-1.4,5.1-4.7,6.4,0.3c1.3,5,2.1,7.6-1.3,9.3
					c-3.4,1.7-10.3,1.8-11.2,5.4c-0.9,3.6-1.5,8.1-5.5,6.2C334.1,257.6,334.6,247.2,339.3,242.6z"/>
				<path class="st74" d="M358.5,237.2c0.2,1.8,0,3.6-0.6,5.3c-1.4,4.2-4.4,4.8-8.7,4.7c-1.7,0-3.4-0.2-5.1-0.1
					c-1.6,0-3.3,0.4-4.5,1.5c-1.2,1-1.9,2.6-2.1,4.3c-0.2,1.6,0.3,3.4,1.3,4.8c0.9,1.5,2.1,2.7,3.5,3.8c-1.5-0.8-2.8-2-3.9-3.4
					c-1.1-1.4-1.7-3.3-1.7-5.1c0.2-2.1,1.3-4.3,2.3-5c1.4-1.3,3.3-1.7,5-1.8c1.8-0.1,3.5,0.1,5.1,0.2c3.9,0.2,6.6-0.2,8.1-3.9
					C358.1,240.7,358.4,238.9,358.5,237.2z"/>
			</g>
			<path class="st75" d="M307.5,318.3c0,0,7.9-6.1,16.9-10.1c1.3-0.6,2.6-1.1,3.9-1.6c1.5-0.5,3-1,4.5-1.3c4.4-0.9,9.1-1.7,14-2.3
				c4.3-0.5,9.6,18.3,14,17.9c5-0.4,9.2-19.8,14.1-20c14-0.4,26.7,0,34,0.6c21.6,1.7-5.4,106.6-5.4,106.6L351.1,425L307.5,318.3z"/>
			<polygon class="st67" points="329.5,297 353.6,299.4 358.5,301.9 326.4,307.3 			"/>
			<polygon class="st67" points="362.7,300.8 368.6,297 385.8,294.1 388,300.8 361.6,302.2 			"/>
			<polygon class="st66" points="339.5,302.2 353,299.3 329.5,297 			"/>
			<polygon class="st66" points="362.7,300.8 369.9,301.7 388,296 385.8,294.1 368.6,297 			"/>
			<polygon class="st76" points="376.6,293.4 385.8,294.1 377,295.6 			"/>
			<polygon class="st76" points="337.6,295.2 329.5,297 336.8,297.8 			"/>
			<polygon class="st66" points="353,327.9 326.4,307.3 351.1,303.1 358.5,301.9 360.3,310.4 361.6,302.2 388,300.8 376.7,326.5 			
				"/>
			<path class="st76" d="M356.9,309.3c-0.5-0.3-0.7-1-0.4-1.5c0.3-0.5,0.9-0.7,1.4-0.4c0.5,0.3,0.7,1,0.4,1.5
				C358.1,309.4,357.4,309.6,356.9,309.3z"/>
			<path class="st77" d="M307.5,318.3c0,0,19.1,28.8,25.2,31.5c6.2,2.7,63.9,6.7,62.7,10.6c-1.2,4-55.3-2.5-58.5,6s22.3,5.9,28.3,9
				s-22.2,1.5-24.1,8.6c-1.9,7.1,34.2,6.3,39.8,10.2c5.6,4-9.6,0.7-13.5,7.8c-3.9,7.1,30.1,8,30.1,8l-5.8,1.8L351.1,425L307.5,318.3
				z"/>
			<polygon class="st78" points="356.1,327.7 351.1,303.1 350.5,303.2 355.6,327.9 			"/>
			<polygon class="st77" points="326.4,307.3 353,327.9 376.7,326.5 388,300.8 392.4,300.9 380.4,330.1 353,332.5 318.5,311.1 			
				"/>
			<path class="st66" d="M346.7,408.2l-5.8,12l-2.3,4.8l-61.4-22.9l5.8-25.1l24.6-58.7l6.5,16c0,0,0,0,0,0l14.8,36.1L312,389.9
				L346.7,408.2z"/>
			<path class="st67" d="M340.9,420.2l-2.3,4.8l-61.4-22.9l5.8-25.1l24.6-58.7l6.5,16c0,0,0,0,0,0c0.5,1.7,0.7,2.7,0.7,2.7
				s-8.9,53.4-15.2,54C293.3,391.5,340.9,420.2,340.9,420.2z"/>
			<polygon class="st67" points="339.5,423.1 345.9,410 349.6,417.5 347,426.2 			"/>
			<g>
				<polygon class="st79" points="350.6,445.9 343.7,432.6 347,426.2 349,419.7 351.1,425 350.7,445 				"/>
			</g>
			<g>
				<path class="st71" d="M519.7,293.1c-1.2,0-8-1-8-1l-1,3.3h-2.3l-2.1,3.9h-4.7c0,0,0,0,0,0c-0.3-0.4-4.1-6.5-6.6-8.5
					c-0.6-0.5-1.1-0.7-1.4-0.6c-2,0.6-3.9,4.9-3.9,4.9s-1.9-0.7-3.4-1.7c-0.8-0.6-1.4-1.2-1.5-2c-0.2-2,1.4-5.9,1.4-5.9
					s2.3,0,3.1-2.8c0.8-2.8,4.7-7.7,4.7-7.7s8.8,0.6,10.4,0c1.6-0.6,2.2-3.5,3.9-3c1.8,0.4,2.5,1.8,1.4,3.7c-1.2,1.8-6.9,1-6.9,3.1
					c0,2.2,3.3,3.2,3.3,3.2s6.7,4.3,7.8,5.7c1.2,1.4,6.2,3.4,6.8,3.4c0.6,0,5.4-0.9,5.7-0.3C526.9,291.4,520.9,293.1,519.7,293.1z"
					/>
				<path class="st80" d="M510.6,295.1l-2.2-0.1l-0.1,0l-0.1,0.1l-2.1,3.6c-1.4,0-2.8-0.1-4.3-0.1c-0.8-1.3-1.6-2.5-2.5-3.8
					c-0.9-1.3-1.9-2.6-3-3.7c-0.6-0.6-1.1-1.2-2-1.6c-0.2-0.1-0.5-0.2-0.8-0.1c-0.2,0-0.3,0.1-0.4,0.1c-0.1,0-0.2,0.1-0.3,0.2
					c-0.4,0.2-0.7,0.5-1,0.8c-1,1.1-1.8,2.4-2.4,3.8c-0.8-0.3-1.6-0.6-2.4-1.1c-0.8-0.5-1.7-1.1-2-1.9c-0.2-0.9,0-2,0.2-3
					c0.2-1,0.5-2,0.8-3c-0.4,0.9-0.8,1.9-1.1,2.9c-0.3,1-0.6,2-0.5,3.2c0.1,0.6,0.5,1.1,0.9,1.4c0.4,0.4,0.8,0.7,1.3,1
					c0.9,0.6,1.8,1,2.8,1.4l0.3,0.1l0.2-0.4c0.7-1.3,1.5-2.7,2.5-3.8c0.5-0.5,1.2-1,1.5-0.7c0.5,0.3,1.1,0.8,1.6,1.4
					c1,1.1,2,2.3,2.9,3.6c0.9,1.3,1.8,2.5,2.7,3.9l0-0.1c0-0.1,0-0.1,0-0.2l0.5,0.5c1.6,0,3.1-0.1,4.7-0.1l0.2,0l0.1-0.2l2-3.8
					l2.2-0.1l0.1,0l0-0.1c0.3-1.1,0.6-2.2,0.8-3.3C511.3,293.1,511,294.1,510.6,295.1z"/>
				<path class="st81" d="M494.9,290.6c-0.6-0.5-1.1-0.7-1.4-0.6c-2,0.6-3.9,4.9-3.9,4.9s-1.9-0.7-3.4-1.7c2-3.7,4.3-7.8,4.3-7.8
					L494.9,290.6z"/>
				<path class="st70" d="M499.5,289.9c0.2,0,6.7,9.2,6.7,9.2h-4.7c0,0,0,0,0,0C501.3,298.6,497.1,289.9,499.5,289.9z"/>
				<path class="st70" d="M511.7,292l-1,3.3h-2.3l-2.1,3.9l-0.2-0.9c0,0-7.7-12.2-5.7-12.1c0.6,0,1.6,0.9,2.7,2.1
					c-0.3-0.7-0.5-1.3-0.3-1.7C503.4,284.4,511.7,292,511.7,292z"/>
			</g>
			<polygon class="st67" points="478.7,291.2 486,285.3 491.9,291.2 487,306.3 478.3,290.5 			"/>
			<g>
				<path class="st82" d="M357.8,258.9c0,0,3.4,4.3,5.1,6c1.7,1.7,4.5,3.3,5.2,3.5c0.8,0.2,0.4,1.8-1.2,3.6
					c-1.6,1.7-7.1-7.4-7.1-7.4l-2.9-6L357.8,258.9z"/>
				<path class="st82" d="M354.8,258.4c0,0-1.1-2.1-4.2-0.5c-3,1.6-3.8,6.7-3.8,6.7s2-3.9,4-4.5
					C352.9,259.4,354.8,258.4,354.8,258.4z"/>
				<path class="st82" d="M357.3,255.3c0,0,1.4-4.6,3.6-4.3c2.2,0.3,3.4,1.2,3.4,1.2s-1.5-1.1-2.9-0.3c-1.3,0.8-2.5,4-2.5,4
					S357.8,256.6,357.3,255.3z"/>
				<path class="st83" d="M353.9,261.2c0,0-1.1-0.1-2.4,1.3c-1.3,1.4-1,3.1-1,3.1L353.9,261.2z"/>
				<path class="st83" d="M360.1,255.8c0,0,1.7-1.3,2.8-1.2c1.1,0,2.4,0.9,2.4,0.9L360.1,255.8z"/>
				<path class="st83" d="M359.1,278.4c0,0,4.8,0,8.7-1.7c3.9-1.7,5.6-6.4,5.6-6.4l-2.5,7.5c0,0,1.5,3,0.8,3.3
					c-0.7,0.4-3.4,2.4-3.4,2.4L359.1,278.4z"/>
				<path class="st83" d="M354.8,264.7c-0.3,0.8-1.2,1.3-2,1c-0.8-0.3-1.2-1.2-1-2.1c0.3-0.8,1.2-1.3,2-1
					C354.7,262.9,355.1,263.8,354.8,264.7z"/>
				<path class="st83" d="M363.7,257.1c-0.3,0.8-1.2,1.3-2,1c-0.8-0.3-1.2-1.2-1-2.1c0.3-0.8,1.2-1.3,2-1
					C363.6,255.3,364,256.3,363.7,257.1z"/>
			</g>
			<path class="st82" d="M342.7,265.7c0,0-2.5-1.7-2.8-0.3c-0.3,1.5,3.4,7.2,4.2,8.3c0.9,1.1,1.6-1.2,1.6-1.2L342.7,265.7z"/>
		</g>
		<polygon class="st84" points="332.9,595.3 364,595.3 347,592.9 		"/>
	</g>
	<linearGradient id="SVGID_20_" gradientUnits="userSpaceOnUse" x1="2.0789" y1="553.1931" x2="919.0908" y2="553.1931">
		<stop  offset="0" style="stop-color:#3A1515"/>
		<stop  offset="1" style="stop-color:#774472"/>
	</linearGradient>
	<polygon class="st85" points="2.1,575.3 919.1,540.1 919.1,531.1 2.1,563.6 	"/>
	<linearGradient id="SVGID_21_" gradientUnits="userSpaceOnUse" x1="2.0789" y1="124.0988" x2="919.0908" y2="124.0988">
		<stop  offset="0" style="stop-color:#3A1515"/>
		<stop  offset="1" style="stop-color:#774472"/>
	</linearGradient>
	<polygon class="st86" points="919.1,141 2.1,103.9 2.1,122.5 919.1,144.3 	"/>
	<g class="st21">
		<g>
			<rect x="168.5" y="-2.3" width="2.1" height="86.3"/>
		</g>
		<g>
			<path class="st87" d="M236.6,121.8H102.6l15.7-8.6c4.8-2.6,10.1-4,15.5-4h72.8c5.7,0,11.4,1.5,16.4,4.5L236.6,121.8z"/>
			<path class="st88" d="M236.6,121.8c0,1-30,1.9-67,1.9c-37,0-67-0.8-67-1.9c0-1,30-1.9,67-1.9C206.6,120,236.6,120.8,236.6,121.8z
				"/>
			<path class="st87" d="M189.8,106.5h-40.3V105c0-11.6,9-20.9,20.2-20.9l0,0c11.1,0,20.2,9.4,20.2,20.9V106.5z"/>
			<path class="st87" d="M201.7,103.7h-64.2c-3,0-5.4,2.5-5.4,5.6l0,0h75l0,0C207.1,106.2,204.7,103.7,201.7,103.7z"/>
		</g>
		<g>
			<rect x="371.7" y="-8.3" width="2.1" height="165.7"/>
		</g>
		<g>
			<path class="st89" d="M682.9,121.8H548.9l15.7-8.6c4.8-2.6,10.1-4,15.5-4h72.8c5.7,0,11.4,1.5,16.4,4.5L682.9,121.8z"/>
			<path class="st88" d="M682.9,121.8c0,1-30,1.9-67,1.9c-37,0-67-0.8-67-1.9c0-1,30-1.9,67-1.9C652.9,120,682.9,120.8,682.9,121.8z
				"/>
			<path class="st89" d="M636.1,106.5h-40.3V105c0-11.6,9-20.9,20.2-20.9l0,0c11.1,0,20.2,9.4,20.2,20.9V106.5z"/>
			<path class="st89" d="M648,103.7h-64.2c-3,0-5.4,2.5-5.4,5.6l0,0h75l0,0C653.4,106.2,651,103.7,648,103.7z"/>
		</g>
		<g>
			<rect x="614.8" y="-49" width="2.1" height="135.6"/>
		</g>
		<g>
			<path class="st89" d="M439.8,196.2H305.7l15.7-10.5c4.8-3.2,10.1-4.9,15.5-4.9h72.8c5.7,0,11.4,1.9,16.4,5.5L439.8,196.2z"/>
			<path class="st88" d="M439.8,196.2c0,1.3-30,2.3-67,2.3c-37,0-67-1-67-2.3c0-1.3,30-2.3,67-2.3
				C409.8,193.9,439.8,194.9,439.8,196.2z"/>
			<path class="st89" d="M392.9,177.4h-40.3v-6.5c0-11.6,9-20.9,20.2-20.9l0,0c11.1,0,20.2,9.4,20.2,20.9V177.4z"/>
			<path class="st89" d="M405.1,173.9h-64.7c-2.9,0-5.2,2.3-5.2,5.2v1.7h75v-1.7C410.3,176.2,408,173.9,405.1,173.9z"/>
		</g>
		<g>
			<rect x="818" y="-11.8" width="2.1" height="135.6"/>
		</g>
		<g>
			<linearGradient id="SVGID_22_" gradientUnits="userSpaceOnUse" x1="752.0164" y1="152.7157" x2="886.0845" y2="152.7157">
				<stop  offset="0" style="stop-color:#3A1515"/>
				<stop  offset="1" style="stop-color:#774472"/>
			</linearGradient>
			<path class="st90" d="M886.1,159H752l15.7-8.6c4.8-2.6,10.1-4,15.5-4H856c5.7,0,11.4,1.5,16.4,4.5L886.1,159z"/>
			<ellipse class="st88" cx="819.1" cy="159" rx="67" ry="1.9"/>
			<linearGradient id="SVGID_23_" gradientUnits="userSpaceOnUse" x1="798.895" y1="132.4136" x2="839.2059" y2="132.4136">
				<stop  offset="0" style="stop-color:#3A1515"/>
				<stop  offset="1" style="stop-color:#774472"/>
			</linearGradient>
			<path class="st91" d="M839.2,143.6h-40.3v-1.5c0-11.6,9-20.9,20.2-20.9l0,0c11.1,0,20.2,9.4,20.2,20.9V143.6z"/>
			<linearGradient id="SVGID_24_" gradientUnits="userSpaceOnUse" x1="781.5325" y1="143.623" x2="856.5685" y2="143.623">
				<stop  offset="0" style="stop-color:#3A1515"/>
				<stop  offset="1" style="stop-color:#774472"/>
			</linearGradient>
			<path class="st92" d="M851.1,140.8H787c-3,0-5.4,2.5-5.4,5.6l0,0h75l0,0C856.6,143.3,854.1,140.8,851.1,140.8z"/>
		</g>
	</g>
	<g class="st21">
		<g>
			<g>
				<rect x="981.3" y="602.9" class="st52" width="12" height="64.3"/>
				<polygon class="st53" points="993.2,625.1 993.2,635.3 981.3,650.4 981.3,640.2 				"/>
				<polygon class="st53" points="993.2,637.1 993.2,642.2 981.3,657.4 981.3,652.3 				"/>
				<polygon class="st53" points="993.2,643.2 993.2,648.2 981.3,663.4 981.3,658.3 				"/>
			</g>
			<path class="st54" d="M956.4,573.4v6.7c0,4.5,5.7,8.2,12.8,8.2h1.4v7.6c0,1.9,2.4,3.4,5.4,3.4h21.1c3,0,5.4-1.5,5.4-3.4v-7.9
				c5.2-1,9-4.1,9-7.8v-6.7H956.4z"/>
			<rect x="979.8" y="599.3" class="st54" width="15.4" height="13.2"/>
			<g>
				<polygon class="st55" points="995.3,668.3 979.7,668.3 979.7,658.5 979.7,650.6 995.3,650.6 				"/>
				<polygon class="st55" points="922.1,680 979.7,658.5 979.7,668.3 938.4,680 938.4,682.1 922.1,682.1 				"/>
				<polygon class="st55" points="1052.9,680 995.3,658.5 995.3,668.3 1036.6,680 1036.6,682.1 1052.9,682.1 				"/>
				<polygon class="st55" points="982.3,658.5 982.3,682.1 978.4,682.1 978.4,683.8 995.3,683.8 995.3,682.1 991.8,682.1 
					992.9,658.5 				"/>
			</g>
		</g>
		<g>
			<polygon class="st93" points="941.7,400.9 893.9,458.4 846.2,512.9 868.2,512.9 869.8,520.1 905.3,492.5 933.5,465.9 			"/>
			<path class="st94" d="M1033.4,553.1l-9.9,11.2h-41.1l-23.5-14l-23.5-14.1l-3.3-6.5l-0.8-1.6l3.6-104.2c0.3-7.6,1.8-21,8.5-24.2
				l32.8-8.1c9,0.7,18.5,3.5,26.6,8.1c0,0,0,0,0,0c12.5,7,22,18.1,22,31.9c0,1-0.1,2.1-0.2,3.2l-16.6,72.5L1033.4,553.1z"/>
			<path class="st95" d="M941.9,529.8l-58.2,7.7c-12.2,1.6-21.1,12.4-20.6,24.9l4,96.4l-38.8,19.5c-2.2,1.1-1.4,4.6,1.1,4.5l52-3
				c2.4-0.1,4.2-2.2,4.2-4.7v-17.8h4.1l7.7-83.6l98.7-9L941.9,529.8z"/>
			<path class="st96" d="M989.2,394.4l-4.9,4.6l-27.9,26.5l-7.9-34.5c0,0,11.5-9.3,21.1-16.8c7-5.5,12.9-10,12.8-9.3
				C982,366.5,989.2,394.4,989.2,394.4z"/>
			<path class="st97" d="M984.3,399l-27.9,26.5l-7.9-34.5c0,0,11.5-9.3,21.1-16.8c0.1,7.5,1,16.4,5,19.1
				C977.6,395.3,981.2,397.3,984.3,399z"/>
			<polygon class="st98" points="939.8,546.1 870.1,561.1 806.6,632.8 813.6,637.1 789.9,638.7 753.6,633.5 811.3,670.4 
				831.6,646.8 880.9,591.7 1023.5,564.2 			"/>
			<polygon class="st99" points="944.5,357.5 936.8,379.4 940.6,379.4 			"/>
			<path class="st96" d="M954.5,338.6c0,0-20.5,30.8-13.7,47c6.8,16.2,42.7-14.1,42.7-14.1l4.8-32.9l-10.2-9.1h-8.5l-11.2,4.9
				L954.5,338.6z"/>
			<path class="st100" d="M987.1,347.4l-0.2,1.6l-2.6,17.6l-0.7,4.9l-14.7,13.2l-15.9,10.5l-21.6-7.9c-0.7-0.3-1.2-0.7-1.4-1.2
				c-1.3-3,4.5-9.1,9.6-9.1c6,0,15.7,2.5,15.7,2.5l20.7-10.5l7.4-22.8L987.1,347.4z"/>
			<path class="st101" d="M986.8,349l-2.6,17.6l-0.7,4.9l-14.7,13.2l-15.9,10.5l-21.6-7.9c-0.7-0.3-1.2-0.7-1.4-1.2
				c7.4,3.6,39.1-6.8,44.7-9.8C978.4,374.2,983.8,358.8,986.8,349z"/>
			<path class="st100" d="M996.1,339.6c0,0-12.4,32.7-11.2,37.5c1.2,4.9-3.4-8.7-3.4-8.7s2.3-27.9,1.7-28.9c-0.6-1-3.2-5-7.9-6.9
				c-4.7-1.9-20.7,6-20.7,6s-4.5-10,2.3-13.9c6.8-3.8,12.1-12.5,23.1-5.2C991,326.9,996.1,339.6,996.1,339.6z"/>
			<path class="st102" d="M1033.4,553.1l-9.9,11.2l-64.6-14l-19.1-4.1l-8.5-16.3c0,0,0.3-0.1,0.8-0.2c6-1.4,44.2-10.9,40.8-19
				c-3.7-8.8-35.4-4.9-36.1-11.2c-0.7-6.3,35.9-7.6,40.4-11.2c4.5-3.5,9.9-19.6-7.2-17.7c-17.2,1.9-28.5-1.4-19.2-5.7
				c9.3-4.4,60.6-17.7,63.4-27.7c2.1-7.4-6.6-27.5-11.2-37.5c12.5,7,22,18.1,22,31.9c0,1-0.1,2.1-0.2,3.2l-16.6,72.5L1033.4,553.1z"
				/>
		</g>
		<polygon class="st103" points="934.9,529 946.3,524.4 952.3,542.5 934.7,539.5 		"/>
		<polygon class="st97" points="896,555 903.6,531.6 922.6,525.2 934.9,529 934.7,539.5 924.1,539.5 		"/>
		<path class="st104" d="M1024.1,558.4c0,0-60.6-2.7-66.3-1.5c-6.6,1.4-22,3.2-24.6,2.7c-2.3-0.5-4.6-0.2-6.6,1l-21.4,12.8l13.7,7
			l105.1-4.4l10.4-6.4L1024.1,558.4z"/>
		<path class="st105" d="M1020.2,469.1l4,89.4l10.4,11.2l1.4-22l-4.3-73.3l2.8-40l24-26l4.1-6.3l-15.1,3.5
			c-5.7,1.3-10.7,4.9-13.8,10c-1.1,1.8-2.2,3.8-3.4,6.1C1022.8,436.2,1019.4,452.6,1020.2,469.1z"/>
		<g>
			<path class="st106" d="M929.1,584.2c-13.5,0-20.8-3.3-21.2-3.5c-2.7-1.3-3.9-4.5-2.7-7.3c1.2-2.8,4.4-4,7.1-2.7
				c0.1,0,10.8,4.6,30.8,1.2c19-3.2,54.2-2.6,71.1-2.3c3.3,0.1,5.8,0.1,7.4,0.1h0.2c0,0,0,0,0,0c3.5,0,5.8-0.1,6.6-1
				c1.1-1.2,2.8-5.5,1.5-20.6c-2.2-26.9-4.4-99.5,3.3-119.5c8-20.7,28.4-26.4,29.3-26.6c2.9-0.8,5.8,1,6.6,3.9
				c0.8,2.9-1,5.9-3.8,6.7l0,0c-0.2,0-16,4.6-22,20c-6.4,16.6-5.1,84.4-2.6,114.6c1.3,15.7,0,24.1-4.3,28.9c-4,4.5-9.5,4.6-14.4,4.6
				c-0.1,0-0.1,0-0.2,0h-0.2c-1.6,0-4.2,0-7.6-0.1c-16.6-0.3-51.1-0.9-69.1,2.2C939,583.8,933.7,584.2,929.1,584.2z"/>
		</g>
		<g>
			<g>
				<path class="st107" d="M913.6,578.9c-1.2-1.1-6.6-7.1,1.3-20.8c7.2-12.6,22.9-15.4,23.6-15.5l0.5-0.1l95.6,1.1l-3,8.6l-91.5,1.5
					c-1.5,0.3-11.6,2.6-15.8,10.1c-2.7,4.6-1.7,14.6-1.6,15.2C922.6,578.9,913.6,578.9,913.6,578.9z"/>
			</g>
			<polygon class="st108" points="1031.8,542 938.5,542.6 1034.6,543.6 			"/>
		</g>
		<polygon class="st64" points="1036.6,682.1 957.1,719.8 995.3,683.8 978.4,683.8 945.6,715.7 938.4,682.1 922.1,682.1 
			938.4,721.3 878.8,762.3 852.6,688.7 844.9,688.7 759.8,648.1 752.1,648.1 367.5,652.3 196.6,657.7 2.1,782.7 849.1,782.7 
			886.1,782.7 910.7,782.7 947.5,729.3 1052.9,682.1 		"/>
		<path class="st109" d="M974.6,332.5c0,0-2.8-4.3-7.8-4.3c-5,0-12.2,10.4-12.2,10.4L974.6,332.5z"/>
		<path class="st94" d="M1002.9,399.7l-8.7,113.1l-48,10.9l4.7,20.2l60.1-5.3l12.6-95l1.1-7.3c2.1-14.4-0.7-30.4-14.3-34.2
			L1002.9,399.7z"/>
		<polygon class="st95" points="813.6,637.1 831.6,646.8 823.8,655.9 798.3,638.1 		"/>
		<path class="st110" d="M768,642.7c0,0,11.7,1.4,20.2,3.8c8.6,2.4,33.4,10.9,33.4,10.9h0.9l-11.2,13L768,642.7z"/>
	</g>
	<g class="st21">
		<defs>
			<filter id="Adobe_OpacityMaskFilter_10_" filterUnits="userSpaceOnUse" x="476.2" y="-2.8" width="672" height="426">
				<feFlood  style="flood-color:white;flood-opacity:1" result="back"/>
				<feBlend  in="SourceGraphic" in2="back" mode="normal"/>
			</filter>
		</defs>
		<mask maskUnits="userSpaceOnUse" x="476.2" y="-2.8" width="672" height="426" id="SVGID_25_">
			<g class="st111">
				<defs>
					<filter id="Adobe_OpacityMaskFilter_11_" filterUnits="userSpaceOnUse" x="476.4" y="-2.3" width="671.6" height="424.6">
						<feFlood  style="flood-color:white;flood-opacity:1" result="back"/>
						<feBlend  in="SourceGraphic" in2="back" mode="normal"/>
					</filter>
				</defs>
				<mask maskUnits="userSpaceOnUse" x="476.4" y="-2.3" width="671.6" height="424.6" id="SVGID_25_">
					<g class="st112">
					</g>
				</mask>
				<linearGradient id="SVGID_26_" gradientUnits="userSpaceOnUse" x1="476.3977" y1="210.0303" x2="1148.0284" y2="210.0303">
					<stop  offset="0" style="stop-color:#000000"/>
					<stop  offset="7.929260e-02" style="stop-color:#242424"/>
					<stop  offset="0.2203" style="stop-color:#5D5D5D"/>
					<stop  offset="0.3617" style="stop-color:#8F8F8F"/>
					<stop  offset="0.5002" style="stop-color:#B7B7B7"/>
					<stop  offset="0.6351" style="stop-color:#D6D6D6"/>
					<stop  offset="0.7655" style="stop-color:#EDEDED"/>
					<stop  offset="0.8894" style="stop-color:#FAFAFA"/>
					<stop  offset="1" style="stop-color:#FFFFFF"/>
				</linearGradient>
				<polygon class="st113" points="1148,-2.3 476.4,180.3 476.4,422.3 1148,32.3 				"/>
			</g>
		</mask>
		<g class="st114">
			<g>
				<defs>
					<polygon id="SVGID_27_" points="1148,-2.3 476.4,180.3 476.4,422.3 1148,32.3 					"/>
				</defs>
				<clipPath id="SVGID_28_">
					<use xlink:href="#SVGID_27_"  style="overflow:visible;"/>
				</clipPath>
				<g style="clip-path:url(#SVGID_28_);">
					
						<image style="overflow:visible;" width="672" height="426" xlink:href="8E29C660.png"  transform="matrix(1 0 0 1 476.2246 -2.8213)">
					</image>
				</g>
			</g>
		</g>
		<defs>
			<filter id="Adobe_OpacityMaskFilter_12_" filterUnits="userSpaceOnUse" x="476.2" y="32.2" width="790" height="391">
				<feFlood  style="flood-color:white;flood-opacity:1" result="back"/>
				<feBlend  in="SourceGraphic" in2="back" mode="normal"/>
			</filter>
		</defs>
		<mask maskUnits="userSpaceOnUse" x="476.2" y="32.2" width="790" height="391" id="SVGID_29_">
			<g class="st115">
				<defs>
					<filter id="Adobe_OpacityMaskFilter_13_" filterUnits="userSpaceOnUse" x="476.4" y="32.3" width="789.1" height="390">
						<feFlood  style="flood-color:white;flood-opacity:1" result="back"/>
						<feBlend  in="SourceGraphic" in2="back" mode="normal"/>
					</filter>
				</defs>
				<mask maskUnits="userSpaceOnUse" x="476.4" y="32.3" width="789.1" height="390" id="SVGID_29_">
					<g class="st116">
					</g>
				</mask>
				<linearGradient id="SVGID_30_" gradientUnits="userSpaceOnUse" x1="476.3977" y1="227.3087" x2="1265.4785" y2="227.3087">
					<stop  offset="0" style="stop-color:#000000"/>
					<stop  offset="7.929260e-02" style="stop-color:#242424"/>
					<stop  offset="0.2203" style="stop-color:#5D5D5D"/>
					<stop  offset="0.3617" style="stop-color:#8F8F8F"/>
					<stop  offset="0.5002" style="stop-color:#B7B7B7"/>
					<stop  offset="0.6351" style="stop-color:#D6D6D6"/>
					<stop  offset="0.7655" style="stop-color:#EDEDED"/>
					<stop  offset="0.8894" style="stop-color:#FAFAFA"/>
					<stop  offset="1" style="stop-color:#FFFFFF"/>
				</linearGradient>
				<polygon class="st117" points="1265.5,32.3 839.7,406.7 476.4,422.3 1148,32.3 				"/>
			</g>
		</mask>
		<g>
			<g>
				<defs>
					<polygon id="SVGID_31_" points="1265.5,32.3 839.7,406.7 476.4,422.3 1148,32.3 					"/>
				</defs>
				<clipPath id="SVGID_32_">
					<use xlink:href="#SVGID_31_"  style="overflow:visible;"/>
				</clipPath>
				<g style="clip-path:url(#SVGID_32_);">
					
						<image style="overflow:visible;" width="790" height="391" xlink:href="8E29C667.png"  transform="matrix(1 0 0 1 476.2246 32.1787)">
					</image>
				</g>
			</g>
		</g>
		<polygon class="st118" points="1148,-2.3 1148,32.3 1265.5,32.3 1339.5,1 1339.5,-2.3 1253.9,-2.3 		"/>
		<polygon class="st119" points="1148,32.3 1250.5,-2.3 1339.5,-2.3 1339.5,1 1265.5,32.3 		"/>
	</g>
	<path class="st120" d="M465.5,704.6l-0.4-0.2c0,0,2.7-2.1,4-4.7c0.1-0.2,0.2-0.3,0.2-0.5c0,0,0,0,0,0s0.1-0.5,0-0.3
		c-0.2,0.2-3.1,1.2-3.5,0.8c-0.3-0.4-0.8-2.9-0.9-3.5v0v0c0-0.1,0-0.1,0-0.1l-0.2,8.3L465.5,704.6z"/>
	<polygon class="st121" points="517.7,662.5 523.3,671.5 525.7,670.4 519.1,661.4 	"/>
	<g class="st21">
		<polygon class="st122" points="231.9,690.3 224.2,690.3 220.5,527.1 236.2,527.1 		"/>
		<polygon class="st122" points="852.6,688.7 844.9,688.7 841.3,525.5 856.9,525.5 		"/>
		<polygon class="st122" points="375.2,652.3 367.5,652.3 363.9,489.1 379.5,489.1 		"/>
		<polygon class="st122" points="759.8,648.1 752.1,648.1 748.4,484.9 764.1,484.9 		"/>
		<polygon class="st123" points="194.9,525.6 363.9,489.1 764.1,484.9 883.1,525.5 		"/>
		<polygon class="st124" points="197.4,538.3 194.9,525.6 883.1,525.5 876.2,539.5 		"/>
	</g>
	<g class="st21">
		<g>
			<g>
				<g>
					<g>
						<rect x="601.7" y="618.7" class="st125" width="10.5" height="58.1"/>
						<polygon class="st53" points="612.2,638.7 612.2,647.9 601.7,661.7 601.7,652.4 						"/>
						<polygon class="st53" points="612.2,649.6 612.2,654.2 601.7,667.9 601.7,663.3 						"/>
						<polygon class="st53" points="612.2,655.1 612.2,659.7 601.7,673.4 601.7,668.8 						"/>
					</g>
					<path class="st54" d="M579.8,592v6.1c0,4.1,5,7.4,11.3,7.4h1.3v6.9c0,1.7,2.1,3.1,4.7,3.1h18.6c2.6,0,4.7-1.4,4.7-3.1v-7.2
						c4.6-0.9,7.9-3.7,7.9-7V592H579.8z"/>
					<rect x="600.4" y="615.4" class="st54" width="13.6" height="12"/>
					<g>
						<polygon class="st55" points="614,677.8 600.3,677.8 600.3,668.9 600.3,661.8 614,661.8 						"/>
						<polygon class="st55" points="549.5,688.3 600.3,668.9 600.3,677.8 563.9,688.3 563.9,690.3 549.5,690.3 						"/>
						<polygon class="st55" points="664.8,688.3 614,668.9 614,677.8 650.4,688.3 650.4,690.3 664.8,690.3 						"/>
						<polygon class="st55" points="602.5,668.9 602.5,690.3 599.1,690.3 599.1,691.8 614,691.8 614,690.3 610.9,690.3 611.9,668.9 
													"/>
					</g>
				</g>
			</g>
			<g>
				<polygon class="st126" points="533.2,651.3 526.7,654.9 535.9,661.4 541.2,656.3 				"/>
				<polygon class="st127" points="602,580.4 544.6,658.4 533.2,651.3 567.6,569.7 				"/>
				<path class="st128" d="M535.9,661.4l-6.2-8.6l-2.9,0.9c-0.7-1-3.4-4.7-2.1-7.6c1.5-3.4-0.1-13.8-2.5-14.2c0,0-7.1,3.3-6.8,12.3
					c0,0,0,5.9,2,11.6l1.6,5.6l2.4,3.2l4.3,5.8c0,0,4.3-2.6,6.7-4.3l0,0l0,0c0.6-0.4,1.2-0.8,1.4-1.1
					C535.3,663.8,535.9,661.4,535.9,661.4z"/>
			</g>
			<path class="st129" d="M605.4,671.8l-8.2,2.3l-79.3-94.6c-7.8-9.3-4.6-23.7,6.3-28.5l11.7-5.2l11.8,12.9l22.4,24.5l8.4,9.1l2,5.9
				L605.4,671.8C605.4,671.8,605.4,671.8,605.4,671.8z"/>
			<path class="st130" d="M605.4,671.7c-1.1-1.4-71.3-89.2-69-100.5c1.5-7.5,7-11.1,11.3-12.6l22.4,24.5l10.4,15.1L605.4,671.7z"/>
			<path class="st131" d="M650.3,577.7c0,0-43.7,4.9-59.2,6.2c-2.1,0.2-23.7,0-25.4-1c-0.2-0.1-0.4-0.2-0.6-0.3
				c-17.5-9.9-28.3-28.9-28.3-49.6v-96.8l3.5-0.9l31.1-8.4h36.8c0,0,26.3,37.9,28.1,47.6c0.6,3.6,4.4,19.5,9,38.2l0,0.2
				C653.4,545.5,650.3,577.7,650.3,577.7z"/>
			<path class="st132" d="M555.7,426.9c0.5-0.1,3-0.4,6.7-0.7L555.7,426.9z"/>
			<path class="st133" d="M645.4,512.9c0,0-32.2-67.7-45.1-79.2c-4.3-3.8-10.6-5.8-17.1-6.9h25.1c0,0,26.3,37.9,28.1,47.6
				c0.6,3.6,4.4,19.5,9,38.2L645.4,512.9z"/>
			<polygon class="st96" points="593.5,425 581.7,426.9 554.2,431.5 555,404.7 579.8,400.6 585.5,399.7 			"/>
			<path class="st134" d="M581.7,426.9l-27.6,4.6l0.8-26.8l24.9-4.1C581.9,407.8,583.9,418.1,581.7,426.9z"/>
			<polygon class="st131" points="536.8,436.2 536.8,499.3 495.5,512.9 495.5,494.3 			"/>
			<path class="st135" d="M536.8,436.2v63.1l-41.3,13.6v-3.5c0.6-0.7,1.2-1.3,1.9-1.8c4.4-3.3,4.4-16.7,6.8-15.8
				c2.5,0.9-1.4,6.7,1.2,7.4c2.6,0.7,7.6-18.5,8.2-20.7c0.6-2.2,0.4,8.6,4.8,7C522.7,483.9,536.8,436.2,536.8,436.2z"/>
			<path class="st135" d="M596.9,426.9c0,0-17.2,5.3-24.1,5.8c-7,0.5-22.3-0.2-22.3-0.2l2.9-5.6l0.9-1.8l38.5-2.7L596.9,426.9z"/>
			<path class="st131" d="M592.7,422.3c0,0-15.3,5.5-28.1,6.3c-4.9,0.3-8.6-0.5-11.4-1.7l0.9-1.8L592.7,422.3z"/>
			<polygon class="st59" points="544.8,570.9 599.8,568.1 651.2,587.3 573.9,586.6 			"/>
			<polygon class="st136" points="553.3,422.9 593.5,420.1 592.7,422.3 554.2,425.1 			"/>
			<path class="st137" d="M536.9,487.7l-0.1,0.5C536.8,487.9,536.9,487.7,536.9,487.7z"/>
			<path class="st135" d="M628.3,512.9c-16.1-3.9-39.2,5.7-45.6-4.1c-6.4-9.8,31.2-5.5,43.8-15.3c12.6-9.8-17.5-3.3-55-0.6
				c-11.6,0.8-19.4,0.6-24.5,0c-1.7-20.7-5.4-48.1-6.7-57.8l-3.5,0.9v52.4v21.8V533c0,20.7,10.9,39.7,28.3,49.6l74.3-0.2l6-33.5
				C645.4,548.8,644.3,516.8,628.3,512.9z"/>
			<path class="st96" d="M585.5,399.7c0,0-6.7,3.2-7,3.8c0,0,0.1,1.1,0.1,2.4c0.1,2.9-1.4,5.6-3.9,6.9c-5,2.5-10.9,4.3-15.6,8.4
				c-10.4,9-13.1,3.8-14.5,1.9c-0.5-0.6-0.7-1.8,0.1-8.5c0.1-0.9,0.2-2,0.2-3.1c-0.1-7.6-3.3-20.4-4.6-25c-0.3-1.1-0.5-1.7-0.5-1.7
				s-0.8-1.7-3-11.7c0,0,0,0,0,0c-2.2-10,4.1-20.1,20.1-20.2c4.4,0,7.8,0.7,10.6,2.1c0,0,0,0,0,0c1.1,0.6,2.1,1.3,3,2.1
				c4.8,4.4,7.1,12.3,10.5,23.7C586.7,399.7,585.5,399.7,585.5,399.7z"/>
			<path class="st138" d="M585.5,399.7c0,0-2.8,1.9-6.8,4.8c0,0,0,0-0.1,0.1c-0.1,0-0.1,0.1-0.2,0.1c-2.7,1.4-4.7-10.5-8.3-16.5
				c-0.6-1-2.7-2.8-3.2-3.7c-0.3-0.6-1.5,4.9-2.2,4.9c-4.1-0.3-3.8-7.7-3.8-7.7s0.5-16.3-6.3-18.1c-0.2,0-0.3-0.1-0.5-0.1
				c-7.3-1-17.4,8.2-17.4,8.2S532,368,532,368c-0.2-0.4-4.2-5.2-3-8.5c0.4-1.1,1-2.4,1.9-3.7c2-3,5.8-6.2,12.8-7.2
				c10.2-1.4,6,2.9,6,2.9s10.2-3,17.8,2.1c0,0,0,0,0,0c1,0.7,2,1.4,3,2.1c4.8,4.4,7.1,12.3,10.5,23.7c2.5,8.2,3.6,13.1,4.1,16.1v0
				C585.9,399.2,585.5,399.7,585.5,399.7z"/>
			<path class="st139" d="M585.5,399.7c0,0-2.8,1.9-6.8,4.8c0,0,0,0-0.1,0.1c-0.1,0-0.1,0.1-0.2,0.1c-2.7,1.4-4.7-10.5-8.3-16.5
				c-0.6-1-2.7-2.8-3.2-3.7c-0.3-0.6-1.5,4.9-2.2,4.9c-4.1-0.3-3.8-7.7-3.8-7.7s0.5-16.3-6.3-18.1c-0.2,0-0.3-0.1-0.5-0.1
				c-7.3-1-17.4,8.2-17.4,8.2S532,368,532,368c-0.2-0.4-4.2-5.2-3-8.5c0.4-1.1,1-2.4,1.9-3.7c9.1-0.1,22.4,0.1,28.1,3.6
				c8.1,4.8,19.3,29.6,26.1,36.1v0C585.9,399.2,585.5,399.7,585.5,399.7z"/>
			<path class="st140" d="M553.3,348.3c0-0.1-0.1-0.4-0.2-0.7c-0.5-2.1-2.4-7.2-13-3.5c-12.4,4.4-26,11.1-19.8,18.4
				c6.2,7.3,16.5,9.3,16.5,9.3c0,0-4.8-3.6,1-8s6-4.5,12.6-3.6c6.6,0.9,9.7-0.2,6.5-2.8c-3.2-2.6-3-2.1-0.1-4.2c3-2.2-3.7-5-3.7-5
				L553.3,348.3z"/>
			<polygon class="st126" points="597.2,674.1 597.2,686.9 612.5,687.9 605.4,671.7 			"/>
			<polygon class="st141" points="651.2,587.3 573.9,586.6 581,596.8 647.4,596.8 			"/>
			<g>
				<path class="st141" d="M581,596.8l-6.4-0.3l-35-18.4c0,0,0.6-6.7,5.2-7.3l29,15.7L581,596.8z"/>
				<path class="st56" d="M539.1,541.4l-1.7,0.2l26.9,6.6l6.4,7.7l3.1,0.6c0,0-5.8-8.3-7.1-10.2c-0.5-0.8-3.5-1.9-6.9-2.9
					C553.1,541.2,546.1,540.6,539.1,541.4z"/>
				<path class="st57" d="M546.5,582.3l-1.5-8.6c-1.2-6.9-4.7-16.5-4.8-23.9c0-1.3,0.6-2.5,1.5-3.4l0,0l-0.2-1.6l-5.6,0.9
					c0,0-2.7,5.5-2.7,5.7c0,0.3,10.3,27.3,10.3,27.3L546.5,582.3z"/>
				<polygon class="st57" points="571,594.8 573.9,556.5 570.7,555.9 				"/>
				<path class="st142" d="M566,592.2l1-35.3l-0.2-0.4c-1.8-3.8-5.2-6.6-9.3-7.3l-17.9-3.1c-1.5-0.3-3.1,0.6-3.7,2.1
					c-0.4,0.9-0.4,1.9-0.1,2.8l10.6,31.3l-5.2-2.7l-9.5-26.9c-0.5-1.4-0.7-2.8-0.5-4.2c0.7-4.8,4.9-7.8,9.2-7l17.9,3.1
					c5.5,1,10.2,4.7,12.6,9.9l0,0c0.4,0.9,0.6,1.8,0.6,2.7l-0.5,37.5L566,592.2z"/>
			</g>
		</g>
		<path class="st143" d="M573.9,586.6l40.4,7.4c5.3,1,10.6,0.9,15.9-0.2l34.7-10.5l-0.6-92.7c-0.2-1.8-0.6-3.5-1.4-5
			c-2.2-4.7-6.8-7.8-12.1-7.8H602c-6.6,0-12.3,5-13.4,11.8l-12.5,80.2L573.9,586.6z"/>
		<path class="st60" d="M573.9,586.6l40.4,7.4c5.3,1,10.6,0.9,15.9-0.2l34.7-10.5l-0.6-92.7c-0.2-1.8-0.6-3.5-1.4-5
			c-15.4,36.8-43.9,85-86.7,84.2L573.9,586.6z"/>
		<polygon class="st64" points="598.6,782.7 598.8,732.6 549.5,690.3 563.9,690.3 600.8,721.3 599.1,691.8 614,691.8 609.4,722.2 
			650.4,690.3 664.8,690.3 609.9,732.4 609.9,782.7 		"/>
		<path class="st144" d="M565.8,375.9c0,0,0.5-4.5,4.1,2.4c3.6,6.8,1.5,13.4,1.5,13.6c0,0.1-0.3,0.8-0.6,1.7
			c-0.5,1.2-2.1,1.1-2.4-0.1l-2.2-8.6L565.8,375.9z"/>
		<path class="st145" d="M541.6,380.2c0,0,1.3,3.3,2.3,3.3c1,0,0.4-2.1,5.5-2.5c5.2-0.4,7.8,0.8,7.8,0.8s-2.9-3.2-6.8-4.2
			C546.4,376.7,541.6,380.2,541.6,380.2z"/>
		<path class="st145" d="M537.9,383.5c0.6,1,2.4,3,2.4,3s1.5-0.1,1.4-0.8c-0.2-0.7-1.2-3.5-1.5-3.5
			C539.9,382.1,537.9,383.5,537.9,383.5z"/>
		<g>
			<path class="st146" d="M546.5,409.5c-0.8,0-1.2-0.1-1.3-0.1c-0.3-0.1-0.4-0.4-0.4-0.7c0.1-0.3,0.4-0.5,0.6-0.4
				c0,0,1.8,0.5,5.3-0.8c3.6-1.3,8.6-5.2,8.6-5.3c0.2-0.2,0.6-0.1,0.7,0.1c0.2,0.2,0.1,0.6-0.1,0.8c-0.2,0.2-5.1,4.1-8.9,5.4
				C549.1,409.4,547.5,409.5,546.5,409.5z"/>
		</g>
		<path class="st145" d="M549.2,387.6c1,1.6,1.3,3.2,0.7,3.7c-0.7,0.5-2-0.4-3.1-2c-1-1.6-1.3-3.2-0.7-3.7
			C546.7,385.1,548.1,386,549.2,387.6z"/>
		<path class="st145" d="M543.2,389.4c0.8,1.3,1.1,2.6,0.5,3c-0.5,0.4-1.6-0.3-2.5-1.6c-0.8-1.3-1.1-2.6-0.5-3
			C541.3,387.4,542.4,388.1,543.2,389.4z"/>
		<path class="st144" d="M542,383.5c0,0,1.4,6.7,0.8,10.4c-0.6,3.7-0.8,8.1-0.8,8.4c0,0.4,0.5,0.7,3.8,1.1c3.2,0.4,3.1-1.5,3.1-1.5
			L542,383.5z"/>
		<path class="st147" d="M546.8,412.2c1,0.4,2.1,0.3,3-0.1c0.5-0.2,0.9-0.4,1.4-0.7l1.4-0.9c-0.2,0.2-0.4,0.4-0.5,0.7l-0.6,0.6
			c-0.4,0.3-0.9,0.6-1.5,0.8c-0.5,0.2-1.1,0.3-1.7,0.2C547.8,412.8,547.2,412.6,546.8,412.2z"/>
	</g>
	<g class="st21">
		<polygon class="st148" points="434.8,613.6 470.2,687.4 474.9,703.1 486.4,700.8 476.8,684.1 463.8,606.6 		"/>
		<g>
			<g>
				<g>
					<rect x="410.1" y="637.7" class="st125" width="10.5" height="58.1"/>
					<polygon class="st53" points="410.1,657.7 410.1,666.9 420.6,680.6 420.6,671.4 					"/>
					<polygon class="st53" points="410.1,668.6 410.1,673.2 420.6,686.9 420.6,682.3 					"/>
					<polygon class="st53" points="410.1,674.1 410.1,678.7 420.6,692.4 420.6,687.8 					"/>
				</g>
				<path class="st54" d="M442.5,611v6.1c0,4.1-5,7.4-11.3,7.4H430v6.9c0,1.7-2.1,3.1-4.7,3.1h-18.6c-2.6,0-4.7-1.4-4.7-3.1v-7.2
					c-4.6-0.9-7.9-3.7-7.9-7V611H442.5z"/>
				
					<rect x="408.3" y="634.4" transform="matrix(-1 -1.224647e-16 1.224647e-16 -1 830.1981 1280.755)" class="st54" width="13.6" height="12"/>
				<g>
					<polygon class="st55" points="408.2,696.8 422,696.8 422,687.9 422,680.8 408.2,680.8 					"/>
					<polygon class="st55" points="472.7,707.3 472.7,709.3 458.4,709.3 458.4,707.3 422,696.8 422,687.9 453,699.8 464.7,704.2 
						465.1,704.4 465.5,704.6 					"/>
					<polygon class="st55" points="357.5,707.3 408.2,687.9 408.2,696.8 371.8,707.3 371.8,709.3 357.5,709.3 					"/>
					<polygon class="st55" points="419.7,687.9 419.7,709.3 423.1,709.3 423.1,710.8 408.2,710.8 408.2,709.3 411.4,709.3 
						410.4,687.9 					"/>
				</g>
			</g>
			<polygon class="st149" points="371.1,606.3 448.4,605.5 441.2,615.8 374.8,615.8 			"/>
			<polygon class="st150" points="477.4,589.9 422.5,587.1 371.1,606.3 448.4,605.5 			"/>
			<path class="st151" d="M499.6,575.3c6.1,3.1,8.7,10.6,5.9,17l-39.1,89.8c0,0,0,0.1,0,0.1l-1.8,4.2l0.5,18.1l-12.1-4.6l1-10.4
				l1.1-5.8l0.7-3.8l14.4-73.1l-3.3-0.4l-18.4-2.5l8.4-32.4l25.7-0.1C488.4,571.2,494.3,572.6,499.6,575.3L499.6,575.3z"/>
			<path class="st152" d="M466.4,682.1C466.4,682.1,466.4,682.1,466.4,682.1l-10.5-2.3l14.4-73.1l-3.9-0.5l5.1-4.8
				c0,0,13.1-16.7,19.7-12.1C497.6,593.8,467.3,679.6,466.4,682.1z"/>
			<g>
				<path class="st153" d="M441.2,615.8l6.4-0.3l33.7-17.1c0,0,1.1-7.9-3.6-8.5l-29.5,15.6L441.2,615.8z"/>
				<path class="st56" d="M483.2,560.4l1.6,0.2l-26.9,6.6l-6.4,7.7l-3.1,0.6c0,0,5.8-8.3,7.1-10.2c0.5-0.7,3.4-1.8,6.8-2.9
					C469.1,560.2,476.2,559.6,483.2,560.4z"/>
				<path class="st57" d="M475.8,601.3l1.5-8.6c1.2-6.9,4.7-16.5,4.8-23.9c0-1.3-0.6-2.5-1.5-3.4l0,0l0.2-1.6l5.6,0.9
					c0,0,2.7,5.5,2.7,5.7c0,0.3-10.3,27.3-10.3,27.3L475.8,601.3z"/>
				<polygon class="st57" points="451.2,613.8 448.4,575.5 451.5,574.9 				"/>
				<path class="st58" d="M456.2,611.2l-1-35.3l0.2-0.4c1.8-3.8,5.2-6.6,9.3-7.3l17.9-3.1c1.5-0.3,3.1,0.6,3.7,2.1
					c0.4,0.9,0.4,1.9,0.1,2.8l-10.6,31.3l5.2-2.7l9.5-26.9c0.5-1.4,0.7-2.8,0.5-4.2c-0.7-4.8-4.9-7.8-9.2-7l-17.9,3.1
					c-5.5,1-10.2,4.7-12.6,9.9l0,0c-0.4,0.9-0.6,1.8-0.6,2.7l0.5,37.5L456.2,611.2z"/>
			</g>
			<polygon class="st154" points="454.9,684.4 464.6,686.3 465.1,704.4 453,699.8 454,689.4 454.8,684.7 			"/>
		</g>
		<g>
			<path class="st155" d="M486.6,561l-26.1,4.7l-2.2,0.4l-9.8,37.6l-63.2-0.1L367,511l-10,1.3l-8.5,1.1c-7.6,1-14.7-4.2-16.5-11.9
				l-0.1-0.5c-1.4-6.1,1.2-12.5,6.5-15.6l21.1-12.4l19.9-16.2c3.4-2.7,7-5,10.7-6.9c3.7-1.9,7.7-3.3,11.7-4.3
				c11.7-2.9,24.3-2.1,35.9,2.6c3,1.2,5.4,1.9,6.5,1.5c1.5-0.5,6.3-0.7,12.1-0.7c18,0,33.8,12.7,38.3,30.9
				c1.9,7.7,3.8,15.4,5.4,21.1C504.5,517.8,486.6,561,486.6,561z"/>
			<path class="st65" d="M469.5,449.6c-1.4,0.2-8.6,2.5-15.6,3.8c-3.3,0.6-6.6,1-9.3,0.8c-5.9-0.4-6.9-6.2-6.9-6.2l11.8-46.8h40.4
				C492.5,403.2,473.1,449.1,469.5,449.6z"/>
			<path class="st156" d="M473.2,401.4c0,0-6.8,30.7-11.4,34.8c-3.2,2.8-6.4,11.6-7.9,17.3c-3.3,0.6-6.6,1-9.3,0.8
				c-5.9-0.4-6.9-6.2-6.9-6.2l11.8-46.8h21.4L473.2,401.4z"/>
			<path class="st157" d="M458.2,566.1l-9.8,37.6l-63.2-0.1L367,511l-10,1.3c0,0,0.8-21.4,9.5-27.3c8.7-5.9,24-10.5,60.3-10.4
				c36.3,0.1,41.2,1.7,46.5,21.8C476.1,507.5,458.2,566.1,458.2,566.1z"/>
		</g>
		<path class="st143" d="M448.4,605.5l-40.4,7.4c-5.3,1-10.6,0.9-15.9-0.2l-34.7-10.5l0.6-92.7c0.2-1.8,0.6-3.5,1.4-5
			c2.2-4.7,6.8-7.8,12.1-7.8h48.7c6.6,0,12.3,5,13.4,11.8l12.5,80.2L448.4,605.5z"/>
		<path class="st60" d="M448.4,605.5l-40.4,7.4c-5.3,1-10.6,0.9-15.9-0.2l-34.7-10.5l0.6-92.7c0.2-1.8,0.6-3.5,1.4-5
			c15.4,36.8,43.9,85,86.7,84.2L448.4,605.5z"/>
		<polygon class="st64" points="408.1,782.7 408.2,751.6 357.5,709.3 371.8,709.3 410.2,740.3 408.2,710.8 423.1,710.8 418.9,741.1 
			458.4,709.3 472.7,709.3 419.3,751.4 419.3,782.7 		"/>
		<path class="st158" d="M490.6,400.8C490.6,400.8,490.6,400.9,490.6,400.8c-0.3,0.2-0.5,0.3-0.8,0.4c-0.1,0-0.1,0.1-0.2,0.1
			c-0.5,0.3-1,0.9-1.6,1.5c0,0,0,0,0,0c-5.2,6.5-11.2,26.3-11.2,26.3s-28.3,16.4-32.9,12.1c-4.5-4.3-4-27.9-2.4-29.1
			c0,0,3.7-16.2,5.6-20.3c0-0.1,0.1-0.2,0.1-0.2c0,0,0,0,0,0c2-3.9,5.8-6.1,10.6-3.6c4.9,2.5,6.1-0.2,6.1-0.2s0.3-0.5,1-1.1
			c1.6-1.5,5.2-3.9,11.1-3.2c8.4,0.9,4.4,3.8,9.1,1.8c4.7-2,9.1,2.5,10.4,8.2C496.7,398.8,495.5,398.1,490.6,400.8z"/>
		<path class="st159" d="M488.1,403c-5.2,6.5-11.2,26.3-11.2,26.3s-28.3,16.4-32.9,12.1c-4.5-4.3-4-27.9-2.4-29.1
			c0,0,3.7-16.2,5.6-20.3c0-0.1,0.1-0.2,0.1-0.2c-1.4,8.8-2.1,23,7,25.8C467.5,421.5,487.4,403.6,488.1,403z"/>
		<path class="st158" d="M489.9,401.3c-0.1,0-0.1,0.1-0.2,0.1C489.7,401.4,489.7,401.3,489.9,401.3z"/>
		<path class="st160" d="M490.6,400.8c1.8-1.4,3.7-5.1,3.7-7c0-2.2-3.7-8-7.5-7c-3.9,0.9-5.6,2.1-5.9,0c-0.4-2.1-6.5-1.1-10.9-0.2
			c-1.4,0.3-3.2,0.3-5.1,0.1c1.6-1.5,5.2-3.9,11.1-3.2c8.4,0.9,4.4,3.8,9.1,1.8c4.7-2,9.1,2.5,10.4,8.2
			C496.7,398.8,495.5,398.1,490.6,400.8z"/>
		<path class="st161" d="M481.1,412.7c0,0,1.2-0.6,2.6,0c1.4,0.6-6.8,16.6-6.8,16.6L481.1,412.7z"/>
		<path class="st162" d="M432.2,446.2l7.1-4.2c0,0-2.2,4.1,9.5,7.1c11.7,2.9,17.9,0,17.9,0l4.3,2.7c0,0-19.7,7.3-26.5,6.5
			c-6.9-0.7-12.1-10.2-12.1-10.2L432.2,446.2z"/>
		<polygon class="st163" points="455.9,679.7 455.1,683.5 464.6,686.3 466.4,682.1 		"/>
		<polygon class="st163" points="476.8,684.1 469.9,686.7 471,689.9 479.7,689.1 		"/>
		<path class="st164" d="M469.3,699.2c-0.1,0.2-0.1,0.3-0.2,0.5c-1.2,2.5-4,4.7-4,4.7l-0.2-8.3v0l-0.1-1.9l3.7,1.2
			C468.5,695.4,470.1,697,469.3,699.2z"/>
		<path class="st165" d="M455.1,683.5l9.4,2.8l0.2,6.9c0,0-0.3,1.8-4.8,1.4c-4.5-0.5-6.2-2.5-6.2-2.5l0.4-3.9L455.1,683.5z"/>
		<polygon class="st165" points="486.4,700.8 474.9,703.1 474.9,703.1 474.8,703 473.1,697 471,689.9 479,687.9 483.7,696 
			486.1,700.3 		"/>
		<path class="st154" d="M486.4,700.8l-11.5,2.3l-0.1-0.1l-1.8-6c0.4-1.1,1.2-2.4,2.9-3.2c2.2-1,5.9,1,7.7,2.2l2.4,4.2L486.4,700.8z
			"/>
	</g>
	<g class="st21">
		<g>
			<g>
				<rect x="200" y="621.9" class="st52" width="10.5" height="58.1"/>
				<polygon class="st53" points="200,642 200,651.2 210.5,664.9 210.5,655.7 				"/>
				<polygon class="st53" points="200,652.9 200,657.5 210.5,671.2 210.5,666.6 				"/>
				<polygon class="st53" points="200,658.3 200,662.9 210.5,676.7 210.5,672.1 				"/>
			</g>
			<path class="st54" d="M232.4,595.3v6.1c0,4.1-5,7.4-11.3,7.4h-1.3v6.9c0,1.7-2.1,3.1-4.7,3.1h-18.6c-2.6,0-4.7-1.4-4.7-3.1v-7.2
				c-4.6-0.9-7.9-3.7-7.9-7v-6.1H232.4z"/>
			
				<rect x="198.2" y="618.7" transform="matrix(-1 -1.224647e-16 1.224647e-16 -1 410.0542 1249.3074)" class="st54" width="13.6" height="12"/>
			<g>
				<polygon class="st55" points="198.1,681 211.9,681 211.9,672.2 211.9,665.1 198.1,665.1 				"/>
				<polygon class="st55" points="262.7,691.6 211.9,672.2 211.9,681 248.3,691.6 248.3,693.5 262.7,693.5 				"/>
				<polygon class="st55" points="147.4,691.6 198.1,672.2 198.1,681 161.8,691.6 161.8,693.5 147.4,693.5 				"/>
				<polygon class="st55" points="209.7,672.2 209.7,693.5 213.1,693.5 213.1,695.1 198.1,695.1 198.1,693.5 201.3,693.5 
					200.3,672.2 				"/>
			</g>
		</g>
		<polygon class="st62" points="161,590.6 238.3,589.8 231.2,600.1 164.8,600.1 		"/>
		<polygon class="st59" points="289.7,570.9 234.8,568.1 183.4,587.3 260.7,586.6 		"/>
		<g>
			<path class="st166" d="M234.9,372.2c0,0,1.2,5.7,3.1,6.4c2,0.7,2.8,2.2,2.8,2.2s0.3,0.2-1,1c-1.3,0.8-2.5,0-2.5,0L234.9,372.2z"
				/>
			<polygon class="st167" points="282.5,516.8 274.8,513.4 265.7,516.3 263.4,524.9 271,523.8 287,524.9 			"/>
			<path class="st79" d="M270.3,525.1c0.8-2,2.5-3.6,4.5-4.3l4.1-1.5l9.2-3l1.6,5.9l-8.5,2.7L269,540.2v-11.9L270.3,525.1z"/>
			<path class="st65" d="M252.8,435.6L250.4,560l-62.6,29.3c0,0-47.7-112.9-44.5-141.9c2.3-21,25.3-36.7,37.8-43.7
				c4.8-2.7,8.1-4.2,8.1-4.2l3.6-27.1c0,0,18.8-29.2,29-20.9c16.8,13.6,22.4,52.1,7.3,52.1c-4.4,0-5,7.3-2.3,10.6
				C233,421.9,252.1,435.1,252.8,435.6C252.8,435.6,252.8,435.6,252.8,435.6z"/>
			<path class="st168" d="M222.4,391.1c0,0,1.7,7,3.6,10.6c0.6,1.1,1.7,1.8,2.8,1.8h0.2l-2.2,2.8c-0.7,0.9-1.2,1.8-1.6,2.9l-0.1,0.2
				c0,0-7.1-2.6-8.2-5.7c-1-3.2-2.1-11.2-2.1-11.2l6.4-15.1L222.4,391.1z"/>
			<path class="st169" d="M272.1,664c0,0,5.7-1.2,4.8,1.8c-0.9,3-13.4,19.6-13.4,19.6l-7.5-7.6C256,677.7,265.3,665.7,272.1,664z"/>
			<path class="st170" d="M291.3,508.8l10.1,5.2l26.1-5.2c0,0,0.4,0.8-0.1,3.8c-0.5,3-40.4,12.3-40.4,12.3l-3.8-9.8L291.3,508.8z"/>
			<path class="st171" d="M335.3,559.5l-84.9,0.4l-75.3-4.2l12.7,33.4c0,0,46.6,4.1,52.7,1c6.1-3.1,59.9-6,59.9-6l-47.5,84.9h1.6
				l-4.6,13.9l14.7-3.1l-1.9-9.6l58.2-70.3L335.3,559.5z"/>
			<path class="st172" d="M327.9,509l0,0.7l-0.4,2.9l-26,1.5l-49.6-25.6v0.2l-0.9,45.6l-0.5,25.7l-62.6,29.3
				c0,0-47.7-112.9-44.5-141.9c2.3-21,25.3-36.7,37.8-43.7c7.3-0.7,27.5,4.7,45.7,10.6c4.5,5.6,15.6,14,21.8,18.4
				c2.4,1.7,4,2.9,4.2,3c0,0,0,0,0,0c0,0,0,0,0,0c14.5-0.3,42.6,31.5,60.1,53c0.2,0.3,0.5,0.6,0.7,0.9c6.3,7.8,12.6,16.6,14,18.6
				C327.8,508.3,327.9,508.6,327.9,509z"/>
			<polygon class="st173" points="176.6,405.1 183.2,398 225.3,409.4 227.5,415 186.7,410 			"/>
			<polygon class="st174" points="183.2,398 189.3,398 189.1,399.4 			"/>
			<path class="st175" d="M231.9,363.6c0,0,2.2-7.9-2-11.4c-4.2-3.5-8.9-3.5-9.2-5.5s-12.6-4.9-17.1-1.5c-4.5,3.4-7,14.7-7,14.7
				l34.6,3.7H231.9z"/>
			<path class="st176" d="M231.9,371.6c-0.7,1.8-5.1,11.6-5.1,11.6s-0.6-1.9-4.3-0.1c0,0-0.1,0-0.1,0.1c-3.8,1.9-6,10.5-7.3,11.9
				c-1.3,1.4-16.9,5.9-19.6,5.5c-2.6-0.4-4.9-5.5-4.9-5.5s-1.2-21.1,0.8-27.1c2-6,12.2-15.9,17.6-16.5c5.1-0.5,10.1-1.1,13.5,0.7
				c0.2,0.1,0.4,0.2,0.5,0.3c3.4,2.2,8.9,11.1,8.9,11.1S232.5,369.9,231.9,371.6z"/>
			<path class="st177" d="M231.9,371.6c-0.7,1.8-5.1,11.6-5.1,11.6s-0.6-1.9-4.3-0.1v-31c0.2,0.1,0.4,0.2,0.5,0.3
				c3.4,2.2,8.9,11.1,8.9,11.1S232.5,369.9,231.9,371.6z"/>
			<path class="st175" d="M234.9,369.4l0.3,3.7c0,0-0.6-0.8-1.8,1.2s-1.3,4.9-1.3,4.9s0.1-6.5,1.5-8.6
				C235.2,368.6,234.9,369.4,234.9,369.4z"/>
			<path class="st178" d="M177.6,405.6c0,0-5.6,9.9,4,14.1c9.6,4.3,45.9-4.7,45.9-4.7l-39.9-5L177.6,405.6z"/>
			<polygon class="st179" points="282.5,556.4 278.1,539.3 248.7,537.5 250.4,560 281.5,559.8 			"/>
			<path class="st180" d="M278.6,585.6l-23.8,72l-1.5,4.4l-0.6,0l-1.9,17.1c-0.2,1.9-1.8,3.4-3.6,3.4h-7c-2,0-3.2-2.2-2.3-4
				l7.5-14.7l0.1-0.5l-1.1-0.1l13-76.3L278.6,585.6z"/>
			<path class="st181" d="M250.8,487.2c0.3,0.5,0.6,1,1,1.5l-0.6,27.6l-0.4,18c-1.2,2.3-2.1,3.6-2.2,3.2c-0.5-1.5-18.7-32.3-15-48.4
				c2.8-12.3,11.1-42.7,14.9-56.6c2.4,1.7,4,2.9,4.2,3c0,0,0,0,0,0c0,0,0,0,0,0S246.9,480.4,250.8,487.2z"/>
			<path class="st182" d="M327.9,508.9l0,0.8c-1.6,1.6-7,2.6-9.8,2.6c-1,0-2.4-0.4-4.1-1.1c-4.4-1.8-10.1-5.6-12.1-9.8
				c-2.1-4.3,1.3-8.9,3.1-10.9c0.6-0.7,1-1,1-1s2.6-3,6.4-1c0.1,0.1,0.3,0.2,0.4,0.3c0.2,0.3,0.5,0.6,0.7,0.9
				c6.3,7.9,12.8,16.8,14.1,18.7C327.8,508.3,327.9,508.6,327.9,508.9z"/>
			<polygon class="st183" points="254.4,669.2 262.7,670.4 263.5,674.9 251.4,675.6 			"/>
			<polygon class="st183" points="245.4,663.2 252.8,662 251.9,669.2 241.9,670.4 			"/>
			<path class="st184" d="M249.8,683.1c0,0,1.4,3.1,4.7,2.7l9.1-0.4c0,0,1.9-1.5,2.2-4.3c0.3-2.8-2.2-6.2-2.2-6.2h-12.1L249.8,683.1
				z"/>
		</g>
		<g>
			<path class="st62" d="M231.2,600.1l6.4-0.3l34.8-17.6c0,0,5.3-7.4,0.7-8L237.5,591L231.2,600.1z"/>
			<path class="st56" d="M273.1,544.7l1.7,0.2l-26.9,6.6l-6.4,7.7l-3.1,0.6c0,0,5.8-8.3,7.1-10.2c0.5-0.8,3.5-1.9,6.9-2.9
				C259,544.5,266.1,543.8,273.1,544.7z"/>
			<path class="st57" d="M265.7,585.6l1.5-8.6c1.2-6.9,4.7-16.5,4.8-23.9c0-1.3-0.6-2.5-1.5-3.4l0,0l0.2-1.6l5.6,0.9
				c0,0,2.7,5.5,2.7,5.7c0,0.3-10.3,27.3-10.3,27.3L265.7,585.6z"/>
			<polygon class="st57" points="241.2,598 238.3,559.7 241.5,559.2 			"/>
			<path class="st58" d="M246.2,595.5l-1-35.3l0.2-0.4c1.8-3.8,5.2-6.6,9.3-7.3l17.9-3.1c1.5-0.3,3.1,0.6,3.7,2.1
				c0.4,0.9,0.4,1.9,0.1,2.8l-10.6,31.3l5.2-2.7l9.5-26.9c0.5-1.4,0.7-2.8,0.5-4.2c-0.7-4.8-4.9-7.8-9.2-7l-17.9,3.1
				c-5.5,1-10.2,4.7-12.6,9.9l0,0c-0.4,0.9-0.6,1.8-0.6,2.7l0.5,37.5L246.2,595.5z"/>
		</g>
		<path class="st143" d="M237.5,591l-39.5,6.2c-5.3,1-10.6,0.9-15.9-0.2l-34.7-10.5l0.6-92.7c0.2-1.8,0.6-3.5,1.4-5
			c2.2-4.7,6.8-7.8,12.1-7.8h48.7c6.6,0,12.3,5,13.4,11.8l12.5,80.2L237.5,591z"/>
		<path class="st60" d="M237.5,591l-39.5,6.2c-5.3,1-10.6,0.9-15.9-0.2l-34.7-10.5l0.6-92.7c0.2-1.8,0.6-3.5,1.4-5
			c15.4,36.8,43.9,85,86.7,84.2L237.5,591z"/>
		<polygon class="st64" points="194.2,782.7 198.4,735.8 147.4,693.5 161.8,693.5 200.4,724.6 198.1,695.1 213.1,695.1 209,725.4 
			248.3,693.5 262.7,693.5 209.5,735.6 209.5,782.7 		"/>
		<polygon class="st172" points="265.7,516.3 251.3,513.4 251,525.6 263.4,524.9 		"/>
		<path class="st185" d="M239.5,374.2c0-0.6-0.4-6-2.2-7.1c-0.3-0.2-1.1-0.6-1.7-0.2c-1.8,1.3-1.7,2.6-1.7,2.7l0.1,0.5
			c0,0,0.2-1.5,1.8-2.4c0.2-0.1,0.8,0.3,0.9,0.4c0.6,0.4,1.2,2.1,1.5,4.1c-2.6-0.3-11.2-1.1-12.4-0.9c-1.6,0.2-2.5,2.7-2.6,3
			c-0.1,0.3,0,0.6,0.3,0.7c0.1,0,0.1,0,0.2,0c0.2,0,0.4-0.1,0.5-0.4c0.2-0.7,1-2.2,1.7-2.3c0.9-0.1,7.8,0.5,12.4,1
			c0,0.3,0.1,0.6,0.1,0.9c0.1,2.7-0.3,5.8-1.4,6.2l0.2,1.1C239.8,380.7,239.5,374.5,239.5,374.2z"/>
		<path class="st166" d="M227.3,375.7c0,0-1.6-1.8-3.6-1.2s-3.4,13.5-1.3,14.6C224.5,390.2,227.3,375.7,227.3,375.7z"/>
	</g>
	<g class="st21">
		<g>
			<polygon class="st186" points="712.5,563.6 746,664.9 739.2,674.8 752.8,674.7 748.7,596.8 744.8,563.6 			"/>
			<polygon class="st186" points="785.5,566.5 765,666.4 774.6,681.5 758.9,676.8 750.6,581.1 			"/>
			<polygon class="st187" points="756.3,460.9 780.4,451.7 801.7,443.6 829.1,460.9 807.1,558.7 818.9,580.8 748.7,596.5 
				771.4,544.6 			"/>
			<polygon class="st187" points="764.1,503.6 719,546.1 719,538.6 756.3,460.9 758.5,473.4 			"/>
			<path class="st188" d="M764.1,503.6l-32.9,31.6l-13,12.5l0.8-9.2c0,0,24.4-36.5,26.3-39.6c1.9-3.1,9.4-7.3,12.1-16.7
				c0.7-2.6,1-5.7,1.1-8.9L764.1,503.6z"/>
			<path class="st189" d="M765.1,540c-1-0.7-33.9-4.8-33.9-4.8l-13,12.5l42.9-1.6L765.1,540z"/>
			<path class="st189" d="M785.5,443.6c0,0,4.6-2.9,10.8-3.4c6.2-0.5,10.3,0,10.3,0l1.5,0.7c0,0,1.2,2.3,0.5,3.1
				c-0.7,0.8-5.4,4-6.5,4c-1.1,0-6.7-1.1-7.3-1s-6.9-0.2-7-0.2C787.6,446.7,785.5,443.6,785.5,443.6z"/>
			<polygon class="st96" points="807.1,453.3 792.3,452.1 788.9,451.8 786.8,432.8 785.5,430.6 797.5,426.5 801.7,425.1 			"/>
			<path class="st190" d="M797.5,426.5c-2.4,5.5-5.2,14.3-5.2,25.5v0l-3.4-0.3l-2.1-18.9l-1.3-2.3L797.5,426.5z"/>
			<path class="st96" d="M781.7,391c-3,0.1-12.4,20-12.4,23.2c0,3.2,4.9,20.5,4.9,20.5l27.4-4.2v-33.9L781.7,391z"/>
			<path class="st143" d="M818,402.3c-0.3,6.4-1.7,13-3.5,18.4c-1.2,3.7-3.1,6-5.3,7.3c-4.4,2.7-10.2,1.6-15.7-0.2
				c-8.2-2.7-6.3-13.1-13.3-22c-5.1-6.5-1.9-16.4,0.1-21.2c0.8-1.8,1.4-2.9,1.4-2.9s9.1-1.8,17.8-1.5c6.3,0.2,12.5,1.4,14.9,5.1
				C817.4,389.8,818.3,395.9,818,402.3z"/>
			<path class="st191" d="M809.2,428.1c-4.4,2.7-10.2,1.6-15.7-0.2c-8.2-2.7-6.3-13.1-13.3-22c-5.1-6.5-1.9-16.4,0.1-21.2
				c0.2,7.2,1.7,15,6.5,20.3c11.2,12.3,7.4,19.5,14.9,22.6C803.8,428.5,806.4,428.5,809.2,428.1z"/>
			<path class="st191" d="M786.8,382c-1.4,1.4-2.2,3.6-1.8,5.6c0.1,1,0.5,2,1,2.8c0.8,1.2,1.1,1.3,2,2c1.7,1,3.5,1.8,5.4,2.6
				c1.9,0.8,3.8,1.6,5.4,3c0.8,0.7,1.7,2.2,1.8,2.8c0.3,1.1,0.3,2.2,0.3,3.3c-0.1,2.1-0.5,4.2-0.9,6.2c-0.3,2-0.7,4.1-0.3,6.1
				c0.2,1,0.7,1.9,1.4,2.5c0.8,0.6,1.7,1,2.7,1.2c-1-0.1-2-0.3-2.9-0.9c-0.9-0.6-1.5-1.6-1.8-2.6c-0.5-2.1-0.2-4.3,0-6.3
				c0.3-2.1,0.7-4.1,0.8-6.1c0-1,0-2-0.3-2.9c-0.3-0.9-0.8-1.7-1.5-2.3c-1.4-1.3-3.2-2.1-5.1-2.9c-1.8-0.8-3.8-1.5-5.5-2.8
				c-1.8-1.5-1.7-1.5-2.2-2.4c-0.5-1-0.8-2-0.9-3.1C784.3,385.4,785.2,383.2,786.8,382z"/>
			<path class="st192" d="M769.3,407.2c0,0,2.7-0.9,3.6-2.8l-2.3,5.3L769.3,407.2z"/>
			<path class="st96" d="M783.5,409.1c0,0,0.4,0.1,1,0.2c1.2,0.3,3.1,1.1,3,2.4c-0.1,1.9-1.9,9.1-1.9,9.1L783.5,409.1z"/>
			<path class="st193" d="M818,402.3c-1.9,0.6-4,1-6.2,1c-9.2,0-16.7-6.1-16.7-13.7c0-3.6,1.7-6.9,4.4-9.3
				c6.3,0.2,12.5,1.4,14.9,5.1C817.4,389.8,818.3,395.9,818,402.3z"/>
			<ellipse class="st143" cx="816.3" cy="387.3" rx="16.7" ry="13.7"/>
			<path class="st187" d="M806.6,457.2c-1.1,0.4-3,0.4-5.2,0.1c-5.9-0.7-13.9-2.8-13.9-2.8l-2-10.9c0,0,6.4,1.1,12.3,1.2
				c4.2,0.1,8.2-0.3,9.3-2c1.1-1.6-0.2-2.5-0.4-2.7l2.5,1.1c0,0,0.5,4.7,2.6,8.7C813.9,453.9,810.5,455.7,806.6,457.2z"/>
			<path class="st188" d="M801.4,457.3c-5.9-0.7-13.9-2.8-13.9-2.8l-2-10.9c0,0,6.4,1.1,12.3,1.2
				C798.3,447.5,799.6,453.8,801.4,457.3z"/>
			<polygon class="st194" points="727.6,679.6 740,681.5 747.5,675.8 745.7,668.9 739.2,674.8 			"/>
			<polygon class="st59" points="712.5,570.9 767.5,568.1 818.9,587.3 741.5,586.6 			"/>
			<polygon class="st195" points="791.5,568.5 771.4,551.1 745.2,538.6 739.2,546.1 726,544.7 714.2,551.5 698.9,560.4 719,609.9 
				777.2,609.9 796.9,579.5 			"/>
			<path class="st196" d="M745.7,668.9c0,0,4.7-2.2,6.2-1c1.4,1.2,2.5,4.3,0.9,6.3c-1.6,1.9,0,10.5,0,10.5s-9.2-1-9.1-1
				c0.1,0,3.7-7.9,3.7-7.9S742.7,674.1,745.7,668.9z"/>
			<path class="st194" d="M760.7,670.4c0,0,3.3,0.3,7.3,3c4,2.7,5.7,7.9,7.8,8.1c2.1,0.3,9.8,1.5,9.8,1.5l-13.8,3l-7-7.3l-5.9-3.5
				L760.7,670.4z"/>
			<path class="st196" d="M757.4,672.9c0-1.2,0.8-2.2,1.9-2.4c1-0.2,2.3-0.3,3.7,0c3.1,0.5,3.8,5.5,3.8,5.5l-1.1,6.2v5h-7l0.3-6.8
				l-1.7-3.6V672.9z"/>
			<g>
				<g>
					<rect x="769.3" y="618.7" class="st197" width="10.5" height="58.1"/>
					<polygon class="st53" points="779.9,638.7 779.9,647.9 769.3,661.7 769.3,652.4 					"/>
					<polygon class="st53" points="779.9,649.6 779.9,654.2 769.3,667.9 769.3,663.3 					"/>
					<polygon class="st53" points="779.9,655.1 779.9,659.7 769.3,673.4 769.3,668.8 					"/>
				</g>
				<path class="st54" d="M747.5,592v6.1c0,4.1,5,7.4,11.3,7.4h1.3v6.9c0,1.7,2.1,3.1,4.7,3.1h18.6c2.6,0,4.7-1.4,4.7-3.1v-7.2
					c4.6-0.9,7.9-3.7,7.9-7V592H747.5z"/>
				<rect x="768" y="615.4" class="st54" width="13.6" height="12"/>
				<g>
					<polygon class="st55" points="781.7,677.8 768,677.8 768,668.9 768,661.8 781.7,661.8 					"/>
					<polygon class="st55" points="717.2,688.3 768,668.9 768,677.8 731.6,688.3 731.6,690.3 717.2,690.3 					"/>
					<polygon class="st55" points="832.5,688.3 781.7,668.9 781.7,677.8 818.1,688.3 818.1,690.3 832.5,690.3 					"/>
					<polygon class="st55" points="770.2,668.9 770.2,690.3 766.8,690.3 766.8,691.8 781.7,691.8 781.7,690.3 778.6,690.3 
						779.6,668.9 					"/>
				</g>
			</g>
			<polygon class="st62" points="818.9,587.3 741.5,586.6 748.7,596.8 815.1,596.8 			"/>
			<g>
				<path class="st62" d="M748.7,596.8l-6.4-0.3l-33.7-17.1c0,0-0.6-8,4-8.6l29,15.7L748.7,596.8z"/>
				<path class="st56" d="M706.8,541.4l-1.7,0.2l26.9,6.6l6.4,7.7l3.1,0.6c0,0-5.8-8.3-7.1-10.2c-0.5-0.8-3.5-1.9-6.9-2.9
					C720.8,541.2,713.8,540.6,706.8,541.4z"/>
				<path class="st57" d="M714.2,582.3l-1.5-8.6c-1.2-6.9-4.7-16.5-4.8-23.9c0-1.3,0.6-2.5,1.5-3.4l0,0l-0.2-1.6l-5.6,0.9
					c0,0-2.7,5.5-2.7,5.7c0,0.3,10.3,27.3,10.3,27.3L714.2,582.3z"/>
				<polygon class="st57" points="738.7,594.8 741.5,556.5 738.4,555.9 				"/>
				<path class="st58" d="M733.7,592.2l1-35.3l-0.2-0.4c-1.8-3.8-5.2-6.6-9.3-7.3l-17.9-3.1c-1.5-0.3-3.1,0.6-3.7,2.1
					c-0.4,0.9-0.4,1.9-0.1,2.8l10.6,31.3l-5.2-2.7l-9.5-26.9c-0.5-1.4-0.7-2.8-0.5-4.2c0.7-4.8,4.9-7.8,9.2-7l17.9,3.1
					c5.5,1,10.2,4.7,12.6,9.9l0,0c0.4,0.9,0.6,1.8,0.6,2.7l-0.5,37.5L733.7,592.2z"/>
			</g>
		</g>
		<path class="st143" d="M741.5,586.6l40.4,7.4c5.3,1,10.6,0.9,15.9-0.2l34.7-10.5l-0.6-92.7c-0.2-1.8-0.6-3.5-1.4-5
			c-2.2-4.7-6.8-7.8-12.1-7.8h-48.7c-6.6,0-12.3,5-13.4,11.8l-12.5,80.2L741.5,586.6z"/>
		<path class="st60" d="M741.5,586.6l40.2,7.2c5.3,1,10.6,0.9,15.9-0.2l34.7-10.5l-0.6-92.7c-0.2-1.8-0.6-3.5-1.4-5
			c-15.4,36.8-43.9,85-86.7,84.2L741.5,586.6z"/>
		<polygon class="st64" points="766.8,782.7 769,732.8 717.2,690.3 731.6,690.3 769.4,721.3 766.8,691.8 781.7,691.8 778,722.2 
			818.1,690.3 832.5,690.3 778.5,732.4 778,782.7 		"/>
	</g>
	<path class="st198" d="M985.2,347.4c0,0,2.1-0.8,3.1,0c1,0.8-6.4,15.9-6.4,15.9L985.2,347.4z"/>
	<path class="st199" d="M946,360.4c-0.5-0.2-0.6-0.8-0.3-1.2c0.5-0.6,1.3-1.4,2.1-1.6c1.4-0.3,8.5-8.5,8.5-10.4l-2.1,12.1
		c0,0,0,2.5-1.8,2.9C951.1,362.4,947.6,361.1,946,360.4z"/>
	<path class="st200" d="M960.4,341.6l-1,3.5c0,0,2.8-0.6,5.9,1c3.1,1.7,6.3,3.9,6.3,3.9l-5.2-6.2L960.4,341.6z"/>
	<path class="st200" d="M955.3,343.8l0.1-2.4h-4.5l-0.7,4.4C950.2,345.8,953,342.7,955.3,343.8z"/>
	<path class="st200" d="M958.4,348.6c0,1.3,1,2.4,2.2,2.4c1.2,0,2.2-1.1,2.2-2.4c0-1.3-1-2.4-2.2-2.4
		C959.4,346.2,958.4,347.3,958.4,348.6z"/>
	<path class="st200" d="M949.7,348.6c0,1.1,0.6,2,1.2,2s1.2-0.9,1.2-2c0-1.1-0.6-2-1.2-2S949.7,347.5,949.7,348.6z"/>
	<path class="st200" d="M943.4,368.4c1.3,0.7,2.7,0.9,4.1,1c1.4,0.1,2.8,0,4.2-0.2c1.4-0.2,2.8-0.5,4.2-0.7c0.7-0.1,1.4-0.2,2.1-0.4
		c0.4-0.1,0.7-0.1,1.1-0.2c0.2,0,0.3-0.1,0.5-0.2c0.2-0.1,0.4-0.1,0.4-0.3c-0.1,0.4-0.5,0.5-0.9,0.7c-0.3,0.2-0.7,0.3-1,0.5
		c-0.7,0.3-1.4,0.5-2.1,0.7c-1.4,0.4-2.8,0.7-4.3,0.9c-1.5,0.2-3,0.2-4.4,0C945.9,370.1,944.4,369.5,943.4,368.4z"/>
	<path class="st201" d="M948.5,371.5c0.7,0,1.5,0,2.2,0c0.4,0,0.7,0,1.1,0c0.4,0,0.7,0,1.1-0.1c-0.7,0.3-1.4,0.3-2.2,0.3
		C949.9,371.8,949.2,371.7,948.5,371.5z"/>
	<polygon class="st202" points="989.2,394.4 956.4,425.5 950.2,398 944.5,399.4 952.8,437.2 1000.3,398.3 1001.3,397.3 989.1,394 	
		"/>
	<path class="st203" d="M843.8,514.2l6.3-2.5c0,0,1.4,0.7,4,0c2.6-0.7,2.1-1.6,4.5-0.9c2.5,0.7,3.7-0.2,6.8-0.3c3.1-0.1,5.9,5,5.9,5
		l2,5.6c0,0-1.4,6.3-5.1,5.3c-3.7-1-25.8-2.1-25.8-2.1L843.8,514.2z"/>
</g>
</svg>
