<?xml version="1.0" encoding="utf-8"?>
<!-- Generator: Adobe Illustrator 22.0.1, SVG Export Plug-In . SVG Version: 6.00 Build 0)  -->
<svg version="1.1" xmlns="http://www.w3.org/2000/svg" xmlns:xlink="http://www.w3.org/1999/xlink" x="0px" y="0px"
	 viewBox="0 0 500 500" style="enable-background:new 0 0 500 500;" xml:space="preserve">
<style type="text/css">
	.st0{fill:#F0F3FC;}
	.st1{fill:#202121;}
	.st2{fill:#394042;}
	.st3{fill:#202728;}
	.st4{fill:#2B1C16;}
	.st5{fill:#9F7F4A;}
	.st6{fill:#56331E;}
	.st7{fill:#C69689;}
	.st8{fill:#8F5B4A;}
	.st9{fill:#FFFFFF;}
	.st10{fill:#E69797;}
	.st11{fill:#A64A4A;}
	.st12{opacity:0.5;}
	.st13{fill:#426DB2;}
	.st14{fill:#345699;}
	.st15{fill:#A62F1E;}
	.st16{fill:#932714;}
	.st17{fill:#231714;}
	.st18{fill:#9C6959;}
	.st19{fill:#211C26;}
	.st20{fill:#312837;}
	.st21{fill:#494E4F;}
	.st22{fill:#E9A532;}
	.st23{fill:#BC95CA;}
	.st24{fill:none;}
	.st25{fill:#9371A3;}
	.st26{opacity:0.2;}
	.st27{fill:#643A27;}
	.st28{fill:#805043;}
	.st29{fill:#DFCAFC;}
	.st30{fill:#C4B59B;}
	.st31{fill:#A38051;}
	.st32{fill:#EFEFE6;}
	.st33{fill:#C4C4BF;}
	.st34{fill:#DDDDD4;}
	.st35{fill:#F3CCB7;}
	.st36{fill:#E38E73;}
	.st37{fill:#EFCC58;}
	.st38{fill:#64AFAC;}
	.st39{fill:#CFF6ED;}
	.st40{fill:#4A8E89;}
	.st41{fill:#7C4115;}
	.st42{fill:#7E3D27;}
</style>
<g id="BACKGROUND">
	<rect class="st0" width="500" height="500"/>
</g>
<g id="OBJECTS">
	<g>
		<g>
			<g>
				<g>
					<path class="st1" d="M256.4,485.3c-0.1-2.9,1.1-6.3,2.2-9l14.2,0.3c3,2.9,8.2,5.7,12.4,8.1c2.3,1.3,9,4,10.3,6.5
						C292.3,497,263.1,489.4,256.4,485.3z"/>
				</g>
			</g>
			<g>
				<g>
					<path d="M295.5,491.3c0.7,1.3-0.1,2.5-3.8,3.4c-5.5,1.3-11.9,0.4-17.6-0.9c-2.6-0.5-5.4-2.7-8-2.8c-3.1-0.3-4.1,1.6-7.3-0.9
						c-1.6-1.2-2.3-2.9-2.4-4.7C263.1,489.4,292.3,497,295.5,491.3z"/>
				</g>
			</g>
		</g>
		<g>
			<g>
				<g>
					<path class="st1" d="M253.1,484.4c0-2.9-1.5-6.2-2.7-8.9l-14.2,1.1c-2.9,3.1-7.9,6.1-12,8.8c-2.2,1.4-8.8,4.5-9.9,7
						C217.9,497.9,246.6,488.7,253.1,484.4z"/>
				</g>
			</g>
			<g>
				<g>
					<path d="M214.3,492.3c-0.6,1.3,0.3,2.5,4,3.2c5.6,1,11.9-0.2,17.5-1.8c2.6-0.7,5.2-3,7.9-3.2c3.1-0.5,4.2,1.4,7.3-1.3
						c1.6-1.3,2.1-3,2.1-4.9C246.6,488.7,217.9,497.9,214.3,492.3z"/>
				</g>
			</g>
		</g>
		<g>
			<g>
				<path class="st2" d="M282.8,302.9c0,0-10.3,153.2-8.5,162.6c0.3,1.7,1.1,2.9-0.8,4.4c2.1,1,2.1,3.3,0.1,4.2
					c6.4,2.1-4.7,4.4-6.5,4.5c-2.5,0.1-11,1.6-11.7-1.3l-1.9-141.8l-3.2-1.1c0,0,3.8,127.3,3.1,141.9c-0.1,2.1-7.6,2.5-8.9,2.5
					c-2.5,0-8.7-0.6-10.3-2.9c-1.2-1.7-0.7-6.3,1.6-7c-1.3-1.1-2.4-2.5-2-4.3c0.3,0,0.6,0,0.9-0.1c-4.1-2.3-1.2-4.6-0.1-7.1
					c0,0-13-146.9-10.3-156.7l4.9-10l49.4,3.8l4.3,0.1L282.8,302.9z"/>
			</g>
		</g>
		<g>
			<g>
				<path class="st3" d="M275.1,473.4c0,0-0.3,0.1-0.7,0.2c-0.2,0.1-0.5,0.1-0.8,0.1c-0.3,0.1-0.7,0-1,0.1c-0.8,0-1.6,0-2.6-0.1
					c-0.5,0-1-0.1-1.5-0.2c-0.5-0.1-1-0.2-1.5-0.3c-2-0.4-4.1-0.8-5.6-1c-1.6-0.2-2.6-0.2-2.6-0.2s1,0.4,2.5,0.8
					c1.5,0.5,3.5,1.1,5.6,1.5c1,0.2,2.1,0.3,3.1,0.3c1,0,1.9,0,2.7-0.2c0.4-0.1,0.8-0.2,1.1-0.3c0.3-0.1,0.6-0.2,0.8-0.3
					C274.9,473.5,275.1,473.4,275.1,473.4z"/>
			</g>
		</g>
		<g>
			<g>
				<path class="st3" d="M272,469.7c0,0-0.1,0-0.4,0c-0.2,0-0.6,0.1-1,0.1c-0.2,0-0.4,0-0.6,0c-0.2,0-0.5,0-0.7,0
					c-0.5,0-1,0-1.5,0.1c-1.1,0-2.1,0.1-2.9,0.1c-0.8,0-1.4,0.2-1.4,0.2s0.5,0.3,1.3,0.5c0.4,0.1,0.9,0.2,1.4,0.3
					c0.3,0,0.5,0.1,0.8,0.1c0.3,0,0.6,0,0.8,0c0.6,0,1.1-0.1,1.6-0.2c0.5-0.1,1-0.3,1.4-0.4c0.4-0.1,0.7-0.4,0.9-0.5
					C271.9,469.8,272,469.7,272,469.7z"/>
			</g>
		</g>
		<g>
			<g>
				<path class="st3" d="M238.5,469.7c0,0,0.1,0.1,0.4,0.3c0.1,0.1,0.3,0.2,0.4,0.3c0.2,0.1,0.4,0.2,0.6,0.3
					c0.2,0.1,0.5,0.2,0.8,0.3c0.3,0.1,0.6,0.2,0.9,0.2c0.3,0.1,0.6,0.1,1,0.1c0.3,0,0.7,0.1,1,0c0.3,0,0.7-0.1,1-0.1
					c0.3,0,0.7-0.2,1-0.2c0.3-0.1,0.6-0.2,0.9-0.3c0.3-0.1,0.5-0.3,0.7-0.4c0.5-0.2,0.8-0.6,1-0.8c0.2-0.2,0.3-0.3,0.3-0.3
					s-0.2,0-0.4,0.1c-0.3,0.1-0.6,0.3-1.1,0.4c-0.2,0-0.5,0.1-0.7,0.2c-0.3,0.1-0.5,0.1-0.8,0.1c-0.6,0.1-1.2,0.2-1.8,0.2
					c-0.3,0-0.6,0-0.9,0c-0.3,0-0.6,0-0.9,0c-0.3,0-0.6,0-0.8-0.1c-0.3,0-0.5-0.1-0.7-0.1c-0.2,0-0.5,0-0.7-0.1
					c-0.2-0.1-0.4-0.1-0.5-0.1C238.6,469.7,238.5,469.7,238.5,469.7z"/>
			</g>
		</g>
		<g>
			<g>
				<path class="st3" d="M248.3,463.1c0,0-0.2,0.1-0.6,0.2c-0.4,0.1-0.9,0.4-1.5,0.5c-0.3,0.1-0.6,0.2-1,0.3
					c-0.3,0.1-0.7,0.2-1.1,0.3c-0.8,0.2-1.6,0.3-2.5,0.5c-0.9,0.1-1.7,0.3-2.5,0.3c-0.4,0-0.8,0.1-1.2,0.1c-0.4,0-0.7,0.1-1,0.1
					c-0.7,0.1-1.2,0.1-1.6,0.1c-0.4,0-0.6,0.1-0.6,0.1s0.2,0.1,0.6,0.2c0.4,0.1,0.9,0.2,1.6,0.3c0.7,0.1,1.4,0.2,2.3,0.1
					c0.4,0,0.9,0,1.3-0.1c0.4-0.1,0.9-0.1,1.3-0.2c0.4-0.1,0.9-0.2,1.3-0.3c0.4-0.1,0.8-0.2,1.2-0.4c0.4-0.1,0.8-0.3,1.1-0.4
					c0.4-0.2,0.7-0.3,1-0.5c0.6-0.3,1-0.7,1.3-0.9C248.1,463.3,248.3,463.1,248.3,463.1z"/>
			</g>
		</g>
		<g>
			<g>
				<path class="st3" d="M251.4,334.7C251.4,334.7,251.5,335.9,251.4,334.7c0-1.3,0.9-7.7,0.9-9c0-2.7,0.1-5.5,0.2-8.4
					c0.1-2.9,0.2-5.7,0.3-8.4c0.1-2.7,0.1-5.2,0.2-7.3c0-2.2,0-3.9,0-5.2c0-1.3,0-2,0-2s-0.1,0.7-0.2,2c-0.1,1.3-0.2,3-0.4,5.2
					c-0.2,2.1-0.3,4.6-0.5,7.3c-0.1,1.3-0.2,2.7-0.2,4.1c-0.1,1.4-0.1,2.8-0.2,4.3c0,1.4-0.1,2.9-0.1,4.3c-0.1,1.4,0,2.8,0,4.2
					C251.3,327,251.3,333.8,251.4,334.7C251.5,335.5,251.3,334.1,251.4,334.7C251.6,335.9,251.4,334.7,251.4,334.7z"/>
			</g>
		</g>
		<g>
			<g>
				<path class="st3" d="M246.8,299.5c0,0-0.2,2-0.6,5.1c-0.2,1.5-0.4,3.3-0.5,5.2c-0.2,1.9-0.2,4-0.2,6c0,1,0.1,2.1,0.2,3.1
					c0.1,1,0.2,2,0.4,3c0.2,1,0.4,1.9,0.7,2.7c0.3,0.8,0.5,1.7,0.9,2.4c0.2,0.4,0.3,0.7,0.5,1c0.2,0.3,0.4,0.6,0.5,0.9
					c0.3,0.5,0.6,1,0.9,1.3c0.6,0.7,0.9,1.1,0.9,1.1s-0.3-0.4-0.7-1.2c-0.3-0.4-0.5-0.9-0.7-1.4c-0.3-0.6-0.5-1.2-0.8-1.9
					c-0.3-0.7-0.4-1.5-0.7-2.3c-0.2-0.8-0.3-1.7-0.5-2.7c-0.1-0.9-0.2-1.9-0.3-2.9c-0.1-1-0.1-2-0.1-3c0-1,0-2,0-3
					c0-1,0.1-2,0.1-2.9c0.1-1.9,0.1-3.7,0.2-5.2C246.9,301.5,246.8,299.5,246.8,299.5z"/>
			</g>
		</g>
		<g>
			<g>
				<path class="st3" d="M258.8,337.8c0,0-0.8-0.6-2.1-1.3c-0.3-0.2-0.7-0.4-1-0.6c-0.4-0.2-0.8-0.4-1.2-0.6
					c-0.9-0.4-1.8-0.8-2.7-1.1c-1.9-0.6-3.8-1.2-5.3-1.5c-1.5-0.3-2.5-0.4-2.5-0.4s0.9,0.5,2.3,1c0.7,0.3,1.5,0.6,2.4,0.9
					c0.9,0.3,1.8,0.7,2.7,1c0.9,0.4,1.8,0.7,2.7,1c0.4,0.2,0.9,0.3,1.3,0.4c0.4,0.2,0.8,0.3,1.1,0.4
					C257.8,337.5,258.8,337.8,258.8,337.8z"/>
			</g>
		</g>
		<g>
			<g>
				<g>
					<path class="st4" d="M236.7,160c-2.2,6.9-7.2,14.8-7.2,14.8c-0.9-1.3-1.6-2.7-2.2-3.8c-1.4-2.9-2.3-5.8-2.8-8.8
						c0.2,0.1,0.4,0.1,0.6,0.2C229.1,163.7,233.1,162,236.7,160z"/>
				</g>
			</g>
			<g>
				<g>
					<path class="st5" d="M266.6,126.9c0,0.5-0.2,0.9-0.8,1.5C266,127.9,266.3,127.4,266.6,126.9z"/>
				</g>
			</g>
			<g>
				<g>
					<path class="st6" d="M217.8,157.9c0.4,0,1-0.2,1.4-0.1c-0.8-0.5-1.7-1.4-1.8-2.3c3.9-1,6.4-5.1,7.1-8.9
						c0.9-4.8,2.5-9.5,4.6-13.9c4.1-8.5,11.7-13.9,20.5-11.3c6.4,1.4,11,6.5,17,3.4c-0.2,1,0,1.6-0.1,2.2c-0.3,0.4-0.6,0.9-0.8,1.5
						c0.5-0.6,0.7-1,0.8-1.5c0.8-1,1.9-1.7,3.1-1.9c0.6,1.8-0.3,2.1-1.8,3.1c7.3-1.6,10.9,0.2,15.2,6.5c4,5.7,7.8,14.4,7.3,21.4
						c-0.5,6.4-5,12.5-7.3,18.6c-1.7,5.5-0.4,14.2-6.4,17.4c0.3-1.2,0-2.1,0.6-3.3c-1.8,1.8-8.4,6.5-7.6,0.4
						c-3.9,0.7-6.6,2.8-10.9,3.2c-4.5,0.4-7.9-0.5-11.9-3.2c-2.1-1.8-3.1-3.9-4.9-5.4c-2.8-2.4-2.4-0.6-5.5-2
						c-1.4-0.5-2.8-1.6-4.1-2.9l5.6-18.3c-0.5,0.3-8.1,3.8-13.1,2.3c-0.2-0.1-2.3-0.5-4.6-1.9C220.2,160.7,216.8,157.8,217.8,157.9z
						"/>
				</g>
			</g>
		</g>
		<g>
			<g>
				<path class="st7" d="M198.6,222.2c-0.2-15.2,4.8-27.9,6.7-42.2c0.3-3,2.2-18.9-0.3-18.9c-2.7,0-4.6,15.6-5.5,18.3
					c-0.3,1.2-0.3,2.2-0.6,3.4c-0.4-4.8,0.2-9.7,0.1-14.2c0-2.1,0.8-6.4-0.4-8.2c-1.5-2.4-4.9-3.3-4.8,0.4c-3.4-5.7-4.2,6.1-4.4,8.2
					c-0.2,4.5-0.2,9.4-0.1,13.9c0.2-4.2-1.4-10.9-5.3-12.7c-1.7,7.3,2.6,11.8,4.2,18.4c1.3,5.4-1.9,15.4,6,16.5
					c0.1,5.8-0.1,11.9-1,16.9L198.6,222.2z"/>
			</g>
		</g>
		<g>
			<g>
				<path class="st8" d="M194.8,182.7c0,0,0-0.3,0-1c0-0.6,0-1.5,0-2.5c-0.1-2.1-0.2-4.8-0.5-7.6c-0.1-2.8-0.3-5.5-0.5-7.6
					c-0.1-1-0.2-1.9-0.3-2.5c-0.1-0.6-0.1-0.9-0.1-0.9s0,0.3-0.1,1c0,0.6-0.1,1.5-0.1,2.5c-0.1,2.1-0.1,4.9,0,7.7
					c0.3,2.8,0.6,5.5,1,7.6c0.2,1,0.3,1.9,0.5,2.5C194.7,182.3,194.8,182.7,194.8,182.7z"/>
			</g>
		</g>
		<g>
			<g>
				<path class="st7" d="M208.7,180.4c4,2.4-3.9,24-9.1,25.3c-9.1,1.9-2.3-11.8,0.4-13.9c2.1-1.8,2.1,0,4.2-3.4
					c1.2-1.8,2.1-4.3,2.6-6.4L208.7,180.4z"/>
			</g>
		</g>
		<g>
			<g>
				<path class="st8" d="M195.1,202.7c0,0,0.1-0.3,0.2-0.8c0.1-0.2,0.1-0.5,0.2-0.9c0.1-0.3,0.3-0.7,0.4-1c0.1-0.4,0.3-0.8,0.5-1.2
					c0.2-0.4,0.4-0.9,0.6-1.3c0.2-0.5,0.5-0.9,0.7-1.4c0.3-0.5,0.5-1,0.8-1.4c0.3-0.5,0.6-0.9,0.9-1.3c0.2-0.2,0.3-0.4,0.5-0.6
					c0.2-0.2,0.3-0.4,0.5-0.5c0.4-0.3,0.8-0.7,1.1-0.9c0.4-0.2,0.8-0.3,1.2-0.6c0.4-0.3,0.7-0.6,0.8-0.9c0.2-0.3,0.3-0.6,0.5-0.8
					c0.2-0.4,0.3-0.7,0.3-0.7s-0.2,0.2-0.5,0.6c-0.2,0.2-0.3,0.4-0.6,0.6c-0.2,0.2-0.5,0.5-0.8,0.6c-0.3,0.1-0.8,0.2-1.3,0.4
					c-0.6,0.2-0.9,0.5-1.4,0.9c-0.4,0.4-0.9,0.8-1.2,1.3c-0.4,0.4-0.7,0.9-1,1.4c-0.3,0.5-0.5,1-0.8,1.5c-0.3,0.5-0.5,1-0.7,1.5
					c-0.2,0.5-0.4,1-0.5,1.5c-0.1,0.5-0.3,0.9-0.3,1.3c-0.1,0.4-0.1,0.8-0.2,1.2c0,0.3,0,0.6,0,0.9
					C195,202.4,195.1,202.7,195.1,202.7z"/>
			</g>
		</g>
		<g>
			<g>
				<path class="st7" d="M271.3,307c3.7,3.7,7.5,7.4,11.2,11l4.8-8.1l-8.1-6.2c0,0-4.5,2.2-6.2,2.7C271.3,307,271.3,307,271.3,307z"
					/>
			</g>
		</g>
		<g>
			<g>
				<g>
					<path class="st4" d="M247.6,142.1c0.1-0.7,0.3-1.3,0.5-1.9c2.3-5.8,8.1-2.8,11.5,0.8c3.7-5.9,7.1-2,9,2.3
						C261.7,141.3,254.7,139.7,247.6,142.1z"/>
				</g>
			</g>
			<g>
				<g>
					<path class="st7" d="M230.4,172.5c1.8-1.8,1.2-3.7,1.7-6.1c0.9-3.6,0-2.4,2.7-4.3c4.8-3.1,8.8-2.8,11.4-9.2
						c1.5-3.3,0.8-7.3,1.4-10.8c7-2.4,14.1-0.8,21,1.1c0.7,1.5,1.2,3.1,1.4,4.3c1,5.1,3.2,11.8,9,13.2l1.7,0.5
						c-0.2,4.2-1.6,8.6,0,12.8c5.4-4.9,7.6,1.4,7.4,6c-0.2,6.1-3.5,8.5-9.9,7.7c-2,7.3-6.7,15.9-18.2,16.6c-0.6,3.9,0.2,6,0.2,9.9
						c3,0.6,6.8,1.2,10.2,2.4c-5.3,9.8-26.8,10.1-30-1.7c2.4-0.6,5.1-0.7,7.9-1c0.6-2.1,0.8-5.5,0.5-7.9c-0.3-3.1-2.7-2.2-4.4-3.2
						c-5.1-3-10.8-6.8-11.3-14.5c-4.8-0.5-7.3-2.9-8.6-8.7C223.5,176.2,227,166.5,230.4,172.5z"/>
				</g>
			</g>
		</g>
		<g>
			<g>
				<path class="st8" d="M259.2,175.9c0,0,0,0.5,0,1.2c0,0.8-0.1,1.9-0.4,3.2c-0.1,0.6-0.4,1.3-0.7,1.9c-0.4,0.6-0.9,1-1.6,0.9
					c-0.2,0-0.3,0-0.5-0.1l-0.2-0.1l-0.3-0.1c-0.2-0.1-0.3-0.2-0.4-0.3c-0.1-0.1-0.3-0.2-0.4-0.4c-0.5-0.6-0.7-1.4-0.8-2.3
					c-0.3-1.7-0.3-3.5-0.2-5.1c0.1-1.7,0.2-3.2,0.4-4.6c0.1-1.3,0.3-2.5,0.3-3.2c0.1-0.8,0.1-1.2,0.1-1.2s-0.1,0.4-0.3,1.2
					c-0.2,0.8-0.5,1.9-0.8,3.2c-0.3,1.3-0.6,2.9-0.7,4.6c-0.2,1.7-0.2,3.5,0.1,5.4c0.2,0.9,0.4,1.9,1.1,2.7c0.3,0.4,0.8,0.8,1.2,1
					l0.3,0.1c0.2,0.1,0.3,0.1,0.4,0.1c0.2,0,0.5,0.1,0.7,0.1c0.3,0,0.5,0,0.8-0.1l0.4-0.1l0.3-0.2c0.4-0.3,0.7-0.7,0.9-1.1
					c0.4-0.8,0.5-1.5,0.6-2.2c0.2-1.4,0.1-2.5,0-3.3C259.3,176.4,259.2,175.9,259.2,175.9z"/>
			</g>
		</g>
		<g>
			<g>
				<path class="st4" d="M269.6,155.5c-0.8-0.6-6.1-1.7-3.2-2.8c2-0.9,3.7,1,3.4,3L269.6,155.5z"/>
			</g>
		</g>
		<g>
			<g>
				<path class="st4" d="M244.8,152.6c-1.2,0.2-2.4,0.8-3.5,1.3c-0.6-1.8,2.4-4.3,3.2-2L244.8,152.6z"/>
			</g>
		</g>
		<g>
			<g>
				<g>
					<path class="st9" d="M256.1,191c-4.1-0.2-6.9-0.6-8.5-3.5c3.1,0.3,6.2,0.6,9.2,0.7c2.7,0.1,5.2-0.3,7.8-0.5
						C262.8,190.5,259.7,191,256.1,191z"/>
				</g>
			</g>
			<g>
				<g>
					<path class="st10" d="M263.1,195.1c-2.3,1.3-5,1.7-7.6,1.5c-2.5-0.2-5-0.9-7.2-2.3C253,191.9,258.5,192.7,263.1,195.1z"/>
				</g>
			</g>
			<g>
				<g>
					<path class="st11" d="M245,190.8c-0.1-0.3-1-3.7-0.6-3.6c1.1,0.1,2.2,0.2,3.2,0.3c1.6,2.9,4.4,3.3,8.5,3.5
						c3.6,0.1,6.7-0.5,8.5-3.3c0.9-0.1,1.9-0.2,2.9-0.2c0,0.8-0.9,3.8-1.1,4.2c-0.7,1.2-1.5,2.3-2.7,3.1c-0.2,0.1-0.4,0.2-0.5,0.3
						c-4.6-2.4-10.1-3.2-14.8-0.7c-0.3-0.2-0.6-0.4-0.8-0.6C246.5,193,245.6,192,245,190.8z"/>
				</g>
			</g>
		</g>
		<g>
			<g>
				<path class="st8" d="M201.1,182.9c0,0-0.8-0.2-1.9-0.4c-0.6-0.1-1.2-0.2-2-0.3c-0.4,0-0.7-0.1-1.1-0.1c-0.4,0-0.8,0-1.2,0
					c-0.4,0-0.8,0.1-1.2,0.1c-0.4,0-0.8,0.2-1.1,0.2c-0.8,0.1-1.4,0.5-1.9,0.7c-0.3,0.1-0.5,0.3-0.7,0.4c-0.2,0.1-0.4,0.3-0.5,0.4
					c-0.3,0.2-0.4,0.3-0.4,0.3s0.2,0,0.5-0.1c0.2,0,0.4-0.1,0.6-0.2c0.2-0.1,0.5-0.2,0.8-0.2c0.3-0.1,0.6-0.1,0.9-0.2
					c0.3-0.1,0.6-0.1,1-0.2c0.4,0,0.7-0.1,1.1-0.1c0.4,0,0.7,0,1.1,0c1.5,0,3.1,0.1,4.2,0C200.3,183.1,201.1,182.9,201.1,182.9z"/>
			</g>
		</g>
		<g>
			<g class="st12">
				<path class="st4" d="M264.1,130.6c-2.1,2.3-3.3,5.2-5.2,7.5c0.4-3.8-3.7-4.8-6.4-5.5c0.9-1.4,2.7-0.9,4.1-0.8
					c0.7-2.6-1.7-5.9,2.2-2.4c-0.2-0.9-0.2-2-0.2-3c1.2,0.1,2.1,1.3,2.9,2.2c0.9-2.7,2.3,0.3,2.4,1.2L264.1,130.6z"/>
			</g>
		</g>
		<g>
			<path class="st3" d="M238.2,306.8c0,0,0,0.2-0.1,0.6c0,0.2-0.1,0.4-0.2,0.7c-0.1,0.3-0.2,0.6-0.4,0.9c-0.1,0.3-0.3,0.7-0.6,1
				c-0.2,0.4-0.5,0.7-0.8,1c-0.3,0.3-0.6,0.7-1,1c-0.4,0.3-0.8,0.6-1.2,0.9c-0.8,0.5-1.6,1-2.5,1.4c-0.8,0.4-1.6,0.7-2.3,0.9
				c-1.3,0.5-2.3,0.7-2.3,0.7s0.2-0.1,0.6-0.3c0.4-0.2,0.9-0.5,1.5-0.9c0.6-0.3,1.3-0.7,2.1-1.2c0.4-0.2,0.8-0.4,1.2-0.7
				c0.4-0.2,0.8-0.5,1.2-0.7c0.8-0.5,1.5-1.1,2.1-1.6c0.3-0.3,0.6-0.6,0.8-0.9c0.3-0.3,0.5-0.6,0.7-0.9c0.2-0.3,0.4-0.5,0.5-0.8
				c0.1-0.2,0.3-0.5,0.3-0.7C238,307,238.2,306.8,238.2,306.8z"/>
		</g>
		<g>
			<path class="st8" d="M285.7,176.9c0,0-0.1,0.1-0.4,0.3c-0.1,0.1-0.2,0.2-0.4,0.3c-0.1,0.1-0.3,0.3-0.4,0.4
				c-0.2,0.2-0.3,0.4-0.5,0.6c-0.1,0.2-0.3,0.4-0.5,0.7c-0.2,0.2-0.3,0.5-0.4,0.8c-0.1,0.3-0.3,0.5-0.4,0.8
				c-0.3,0.6-0.5,1.1-0.7,1.7c-0.2,0.5-0.4,1.1-0.5,1.5c-0.3,0.9-0.5,1.5-0.5,1.5s-0.1-0.7-0.1-1.6c0-0.5,0.1-1.1,0.3-1.7
				c0.1-0.3,0.1-0.6,0.3-0.9c0.1-0.3,0.2-0.6,0.4-0.9c0.3-0.6,0.6-1.2,1-1.7c0.2-0.3,0.4-0.5,0.6-0.7c0.2-0.2,0.4-0.4,0.7-0.5
				c0.4-0.3,0.9-0.4,1.1-0.5C285.5,177,285.7,176.9,285.7,176.9z"/>
		</g>
		<g>
			<path class="st8" d="M232.4,185c0,0-0.3-0.8-0.6-1.9c-0.2-0.6-0.3-1.3-0.6-2c-0.2-0.7-0.4-1.5-0.7-2.2c-0.3-0.7-0.6-1.4-0.9-2.1
				c-0.2-0.3-0.3-0.6-0.5-0.9c-0.2-0.3-0.4-0.5-0.5-0.8c-0.4-0.5-0.7-0.8-1-1.1c-0.3-0.3-0.4-0.4-0.4-0.4s0.2,0.1,0.5,0.2
				c0.2,0.1,0.4,0.2,0.6,0.3c0.2,0.1,0.5,0.3,0.7,0.5c0.2,0.2,0.5,0.4,0.7,0.7c0.3,0.3,0.5,0.6,0.7,0.9c0.2,0.3,0.4,0.7,0.6,1.1
				c0.2,0.4,0.3,0.8,0.5,1.1c0.3,0.8,0.5,1.6,0.6,2.3c0.1,0.8,0.2,1.5,0.3,2.1C232.5,184.2,232.4,185,232.4,185z"/>
		</g>
		<g>
			<path class="st8" d="M257,205.5c0,0-0.1,0.1-0.2,0.1c-0.2,0.1-0.4,0.2-0.7,0.3c-0.3,0.1-0.6,0.2-1,0.3c-0.2,0-0.4,0.1-0.6,0.1
				c-0.2,0-0.4,0-0.6,0c-0.4,0-0.8,0-1.2-0.1c-0.4-0.1-0.7-0.2-1-0.3c-0.3-0.1-0.5-0.3-0.6-0.4c-0.1-0.1-0.2-0.2-0.2-0.2
				s0.1,0,0.3,0c0.2,0,0.4,0.1,0.7,0.1c0.3,0,0.6,0.1,1,0.1c0.4,0,0.7,0,1.1,0c0.8,0,1.5-0.1,2.1-0.1c0.3,0,0.6,0,0.7,0
				C256.9,205.5,257,205.5,257,205.5z"/>
		</g>
		<g>
			<g>
				<g>
					<path class="st13" d="M271,214.7c1.7,0.3,3.3,0.9,4.6,2c2.2,1.9,1.9,4.9,2.5,7.6c1.8,7.6,1.5,15,1.4,22.8
						c-0.4,15.5,0.1,26.3,2.2,41.7c0.6,3.3,1,14.2-0.2,15.5l0,0c-16.3,2.9-32,7.4-48.2,1.6c-3-1.2-7.9-2-9.2-5
						c-1.6-3.6,2.3-12.5,2.8-16.4c1.7-10.9,3.3-21.9,4.4-32.8c0.3-3.3,0.2-8.5,0.2-11.8c0,1-7.9,5.6-9,6.5c-3.2,2.3-6.4,4.6-9.7,6.6
						c-3.1,1.9-6.3,3.7-9.8,4.8c-2.7,0.9-5.8,3.8-8.8,3.1c-5.5-1.3-2.9-24.1-3.1-27.2c-0.1-1.5-1.5-3.5-1.5-4.8
						c0.1-1.5,1.4-1.8,1.6-3.2c0.1-1.1-0.7-2.8-0.7-4.1c0-1.8-0.3-3.6-0.3-5.5c1.5,0.1,3.1-0.9,4.7-1c2.1-0.2,4.2,0.2,6.2-0.2
						c1.6,9.7-0.4,20,1.8,29.1c4.8-6.4,14.4-13.5,20.1-19.4c3.6-3.5,7.8-8.8,12.7-10.4c2.3-0.7,5.1-0.6,7.9-0.3c0,0,7,12.1,10,12.2
						c3.3,0.1,9.4-11.3,9.9-11.4C264.7,214.3,268.6,214.3,271,214.7z"/>
				</g>
			</g>
			<g>
				<g>
					<path class="st14" d="M205.1,251.3c0,0,0.1-0.5,0.1-1.2c0.1-0.7-0.1-1.7-0.2-2.6c-0.1-0.5-0.3-0.9-0.5-1.4
						c-0.1-0.4-0.4-0.8-0.6-1.1c-0.4-0.6-0.8-1-0.8-1s0,0.5,0.2,1.2c0,0.2,0.1,0.4,0.1,0.5c0.1,0.2,0.1,0.4,0.1,0.6
						c0.1,0.4,0.2,0.9,0.3,1.3c0.1,0.4,0.2,0.9,0.3,1.3c0.1,0.4,0.2,0.8,0.4,1.2C204.8,250.9,205.1,251.3,205.1,251.3z"/>
				</g>
			</g>
			<g>
				<g>
					<path class="st14" d="M266.6,295.7c0,0-2,0-4.9-0.1c-0.7,0-1.5,0-2.4-0.1c-0.8,0-1.7-0.1-2.6-0.1c-1.8-0.1-3.7-0.3-5.6-0.6
						c-0.9-0.2-1.9-0.3-2.8-0.5c-0.9-0.2-1.8-0.4-2.7-0.7c-0.9-0.3-1.7-0.5-2.5-0.8c-0.8-0.3-1.5-0.6-2.1-0.9
						c-0.7-0.3-1.2-0.6-1.8-0.9c-0.5-0.3-1-0.5-1.3-0.8c-0.7-0.5-1.1-0.7-1.1-0.7s0.4,0.3,1,0.9c0.3,0.3,0.7,0.6,1.2,1
						c0.2,0.2,0.5,0.4,0.8,0.6c0.3,0.2,0.6,0.4,0.9,0.6c0.6,0.4,1.3,0.8,2.1,1.1c0.8,0.4,1.6,0.7,2.5,1c0.9,0.3,1.8,0.6,2.8,0.8
						c0.9,0.3,1.9,0.4,2.9,0.6c1,0.1,2,0.3,2.9,0.3c1,0.1,1.9,0.1,2.8,0.1c1.8,0,3.6-0.1,5-0.2c1.5-0.1,2.7-0.3,3.5-0.4
						C266.1,295.7,266.6,295.7,266.6,295.7z"/>
				</g>
			</g>
			<g>
				<path class="st14" d="M230.4,223.5c0,0,0.1,0.4,0.2,1c0.1,0.7,0.2,1.6,0.4,2.7c0.3,2.2,0.5,5.2,0.7,8.2c0.1,3,0.2,6,0.2,8.3
					c0,1.1-0.1,2.1-0.1,2.7c0,0.7,0,1,0,1s-0.1-0.4-0.1-1c-0.1-0.7-0.2-1.6-0.3-2.7c-0.2-2.2-0.5-5.2-0.6-8.2c-0.2-3-0.3-6-0.3-8.3
					c0-1.1,0-2.1,0-2.7C230.4,223.8,230.4,223.5,230.4,223.5z"/>
			</g>
			<g>
				<path class="st14" d="M201.6,220.4c0,0-0.7,0.3-1.7,0.5c-1.1,0.2-2.5,0.4-3.9,0.5c-0.7,0.1-1.4,0.1-2,0.2
					c-0.3,0-0.6,0.1-0.9,0.1c-0.3,0.1-0.6,0.1-0.8,0.1c-0.5,0-0.9,0.2-1.3,0.2c-0.3,0-0.5,0.1-0.5,0.1s0.2-0.1,0.4-0.3
					c0.3-0.1,0.7-0.4,1.2-0.6c0.5-0.2,1.1-0.4,1.8-0.5c0.7-0.2,1.4-0.2,2.1-0.3c1.4-0.1,2.9-0.1,3.9-0.1
					C200.8,220.3,201.6,220.4,201.6,220.4z"/>
			</g>
			<g>
				<path class="st14" d="M199,216.5c0,0,0.1,0.2,0.2,0.6c0,0.2,0.1,0.4,0.1,0.6c0,0.2,0,0.4,0,0.6c0,0.4-0.1,0.8-0.2,1.2
					c-0.1,0.3-0.3,0.5-0.3,0.5s-0.2-0.2-0.3-0.5c-0.1-0.3-0.2-0.8-0.2-1.2c0-0.4,0.1-0.9,0.3-1.2C198.8,216.7,199,216.5,199,216.5z"
					/>
			</g>
			<g>
				<path class="st14" d="M196,216.8c0,0,0.2,0.2,0.3,0.6c0.1,0.3,0.2,0.8,0.2,1.3c0,0.5-0.1,0.9-0.2,1.3c-0.1,0.3-0.3,0.6-0.3,0.6
					s-0.2-0.2-0.3-0.6c-0.1-0.3-0.2-0.8-0.2-1.3c0-0.5,0.1-0.9,0.2-1.3C195.9,217,196,216.8,196,216.8z"/>
			</g>
			<g>
				<path class="st14" d="M192.8,217.3c0,0,0.2,0.2,0.4,0.5c0.2,0.3,0.3,0.8,0.4,1.2c0,0.5-0.1,1-0.2,1.3c-0.1,0.4-0.3,0.6-0.3,0.6
					s-0.2-0.2-0.3-0.6c-0.1-0.2-0.1-0.4-0.2-0.6c-0.1-0.2-0.1-0.4-0.1-0.7c0-0.5,0-0.9,0.1-1.3C192.7,217.6,192.8,217.3,192.8,217.3
					z"/>
			</g>
			<g>
				<path class="st14" d="M269,216.1c-0.6,0.7-1.2,1.5-1.8,2.2l-1.9,2.1l-4,4c-0.7,0.7-1.3,1.4-2,2l-1.9,2l-1.8,2.1l-1.7,2.2
					l-0.4,0.5l-0.4-0.5l-1.7-2.4l-1.8-2.3l-3.9-4.5c-1.3-1.5-2.6-3-3.8-4.5l-1.8-2.4c-0.6-0.8-1.1-1.6-1.7-2.5l1.9,2.3l2,2.2
					c1.3,1.5,2.7,2.9,4,4.3c1.4,1.4,2.7,2.9,4,4.4l1.9,2.3c0.6,0.8,1.2,1.6,1.8,2.4l-0.8,0l1.8-2.3l1.9-2.1l2-2
					c0.7-0.7,1.4-1.3,2.1-2l4.2-3.8l2.1-1.9L269,216.1z"/>
			</g>
			<g>
				<path class="st14" d="M265.6,215.2c-0.9,1.1-1.8,2.2-2.7,3.4c-0.9,1.1-1.8,2.2-2.8,3.3c-0.9,1.1-1.9,2.1-2.9,3.2
					c-0.2,0.3-0.5,0.5-0.8,0.7l-0.8,0.7c-0.5,0.5-1.1,0.9-1.7,1.4l-0.4,0.3l-0.3-0.4c-0.9-1-1.8-2.1-2.8-3.1
					c-0.9-1.1-1.9-2.1-2.8-3.2l-1.4-1.6c-0.5-0.5-0.9-1.1-1.4-1.6c-0.8-1.1-1.7-2.3-2.5-3.4c1,1,1.9,2.1,2.9,3.1
					c0.5,0.5,1,1,1.5,1.5l1.5,1.5l3,3c0.5,0.5,1,1,1.4,1.6l1.4,1.6l-0.7-0.1c0.5-0.4,1.1-0.9,1.6-1.3c0.5-0.5,1.1-0.9,1.6-1.4
					c0.5-0.5,1-1,1.5-1.5l1.5-1.5c1-1,2-2.1,3-3.1C263.5,217.2,264.5,216.2,265.6,215.2z"/>
			</g>
			<g>
				<path class="st14" d="M279.3,298.3c0,0-0.8,0.3-2.2,0.8c-0.7,0.2-1.6,0.5-2.6,0.8c-1,0.3-2.2,0.6-3.4,0.9
					c-1.3,0.3-2.6,0.6-4.1,0.9c-1.5,0.2-3,0.6-4.6,0.8c-0.8,0.1-1.6,0.2-2.4,0.3c-0.8,0.1-1.7,0.2-2.5,0.2c-0.8,0.1-1.7,0.1-2.6,0.2
					c-0.9,0-1.7,0.1-2.6,0.1c-1.7,0-3.5,0-5.2-0.2c-1.7-0.1-3.4-0.3-5-0.5c-0.8-0.1-1.6-0.3-2.4-0.4c-0.8-0.1-1.5-0.3-2.2-0.5
					c-0.7-0.2-1.4-0.4-2.1-0.6c-0.7-0.2-1.3-0.4-1.9-0.6c-0.6-0.2-1.2-0.4-1.8-0.6c-0.5-0.3-1-0.5-1.5-0.7c-1-0.4-1.8-0.8-2.4-1.2
					c-1.3-0.8-2-1.2-2-1.2s0.8,0.4,2.1,1.1c0.7,0.4,1.5,0.7,2.5,1.1c0.5,0.2,1,0.4,1.5,0.6c0.6,0.2,1.1,0.3,1.8,0.5
					c0.6,0.2,1.2,0.4,1.9,0.6c0.7,0.2,1.4,0.3,2.1,0.5c0.7,0.2,1.5,0.3,2.2,0.4c0.8,0.1,1.5,0.2,2.3,0.4c1.6,0.1,3.2,0.4,4.9,0.4
					c1.7,0.1,3.4,0.1,5.1,0.1c0.9,0,1.7,0,2.6-0.1c0.8,0,1.7,0,2.5-0.1c0.8-0.1,1.7-0.1,2.5-0.2c0.8-0.1,1.6-0.2,2.4-0.3
					c1.6-0.2,3.1-0.4,4.6-0.6c1.4-0.3,2.8-0.5,4.1-0.7c1.3-0.3,2.4-0.5,3.4-0.7c1-0.2,1.9-0.4,2.6-0.6
					C278.4,298.5,279.3,298.3,279.3,298.3z"/>
			</g>
			<g>
				<path class="st14" d="M275.9,303.9c0,0-0.2-0.2-0.4-0.6c-0.1-0.2-0.2-0.4-0.3-0.6c-0.1-0.2-0.1-0.5-0.2-0.7
					c-0.1-0.5-0.1-1-0.1-1.3c0-0.4,0.2-0.7,0.2-0.7s0.2,0.2,0.4,0.6c0.2,0.3,0.4,0.8,0.5,1.3c0.1,0.5,0.1,1,0,1.4
					C276,303.6,275.9,303.9,275.9,303.9z"/>
			</g>
			<g>
				<path class="st14" d="M272,304.8c0,0-0.2-0.1-0.3-0.4c-0.2-0.2-0.3-0.5-0.3-0.8c0-0.3,0-0.7,0.1-0.9c0.1-0.2,0.2-0.4,0.2-0.4
					s0.2,0.2,0.3,0.4c0.2,0.2,0.3,0.5,0.3,0.8c0,0.3,0,0.6-0.1,0.9C272.2,304.7,272,304.8,272,304.8z"/>
			</g>
			<g>
				<path class="st14" d="M268.2,306.9c0,0-0.2-0.2-0.4-0.6c-0.2-0.4-0.4-0.9-0.5-1.4c-0.1-0.5-0.2-1-0.2-1.4c0-0.4,0.1-0.7,0.1-0.7
					s0.2,0.2,0.5,0.6c0.2,0.4,0.5,0.9,0.6,1.4c0.1,0.5,0.1,1.1,0.1,1.5C268.3,306.6,268.2,306.9,268.2,306.9z"/>
			</g>
			<g>
				<path class="st14" d="M262.9,306.6c0,0-0.2-0.1-0.3-0.4c-0.2-0.2-0.3-0.6-0.4-0.9c-0.1-0.3,0-0.7,0-0.9c0.1-0.3,0.2-0.5,0.2-0.5
					s0.2,0.1,0.4,0.3c0.2,0.2,0.3,0.6,0.4,0.9c0.1,0.4,0,0.7-0.1,1C263,306.4,262.9,306.6,262.9,306.6z"/>
			</g>
			<g>
				<path class="st14" d="M255.4,308c0,0-0.2-0.2-0.3-0.5c-0.1-0.2-0.1-0.4-0.2-0.5c-0.1-0.2-0.1-0.4-0.2-0.6
					c-0.1-0.4-0.1-0.8-0.1-1.2c0-0.3,0.1-0.6,0.1-0.6s0.2,0.1,0.5,0.4c0.1,0.1,0.2,0.3,0.3,0.5c0.1,0.2,0.2,0.4,0.2,0.6
					c0.1,0.5,0.1,1,0,1.3C255.5,307.8,255.4,308,255.4,308z"/>
			</g>
			<g>
				<path class="st14" d="M250.1,307.2c0,0-0.1,0-0.2-0.1c-0.1-0.1-0.2-0.2-0.3-0.4c-0.1-0.1-0.2-0.3-0.3-0.5
					c-0.1-0.2-0.1-0.4-0.2-0.6c-0.1-0.4-0.1-0.9,0-1.2c0.1-0.3,0.2-0.6,0.2-0.6s0.2,0.2,0.4,0.5c0.2,0.3,0.3,0.7,0.4,1.2
					c0.1,0.4,0.1,0.9,0,1.2c0,0.1-0.1,0.3-0.1,0.4C250.1,307.1,250.1,307.2,250.1,307.2z"/>
			</g>
			<g>
				<path class="st14" d="M243.7,307.5c0,0-0.2-0.2-0.4-0.4c-0.2-0.3-0.3-0.6-0.4-1c0-0.4,0.1-0.8,0.2-1.1c0.1-0.3,0.3-0.5,0.3-0.5
					s0.2,0.2,0.3,0.5c0.1,0.3,0.2,0.6,0.2,1c0.1,0.4,0,0.8-0.1,1.1C243.8,307.3,243.7,307.5,243.7,307.5z"/>
			</g>
			<g>
				<path class="st14" d="M236.1,307.4c0,0-0.1,0-0.1-0.1c-0.1-0.1-0.2-0.2-0.3-0.4c-0.1-0.2-0.2-0.4-0.2-0.6
					c-0.1-0.2-0.1-0.5-0.1-0.7c0-0.5,0.1-0.9,0.2-1.3c0.1-0.3,0.3-0.6,0.3-0.6s0.2,0.2,0.3,0.6c0.1,0.3,0.2,0.8,0.2,1.2
					c0,0.5,0,0.9-0.1,1.2c0,0.1-0.1,0.3-0.1,0.4C236.2,307.3,236.1,307.4,236.1,307.4z"/>
			</g>
			<g>
				<path class="st14" d="M231.1,305.1c0,0-0.2-0.2-0.4-0.6c-0.2-0.4-0.3-0.9-0.4-1.4c0-0.5,0.1-1.1,0.2-1.5
					c0.1-0.4,0.3-0.7,0.3-0.7s0.2,0.3,0.3,0.6c0.1,0.4,0.2,0.9,0.2,1.4c0.1,0.5,0,1-0.1,1.4C231.2,304.9,231.1,305.1,231.1,305.1z"
					/>
			</g>
			<g>
				<path class="st14" d="M226.5,302.7c0,0-0.2-0.2-0.3-0.5c-0.1-0.3-0.2-0.7-0.2-1.2c0-0.4,0.1-0.9,0.2-1.2
					c0.1-0.3,0.3-0.5,0.3-0.5s0.2,0.2,0.3,0.5c0.1,0.3,0.2,0.7,0.2,1.2c0,0.4-0.1,0.9-0.2,1.2C226.6,302.5,226.5,302.7,226.5,302.7z
					"/>
			</g>
			<g>
				<path class="st14" d="M198.7,227.5c0,0-0.5-0.2-1.1-0.5c-0.6-0.3-1.4-0.8-2.1-1.4c-0.7-0.6-1.4-1.2-1.9-1.7
					c-0.5-0.5-0.7-0.9-0.7-0.9s0.5,0.2,1.1,0.5c0.6,0.3,1.4,0.8,2.1,1.4c0.7,0.6,1.4,1.2,1.9,1.7
					C198.4,227.1,198.7,227.5,198.7,227.5z"/>
			</g>
			<g>
				<path class="st14" d="M199,230.7c0,0-0.1,0.2-0.3,0.5c-0.2,0.2-0.6,0.4-1,0.6c-0.4,0.1-0.8,0.1-1.1,0.1c-0.3,0-0.5-0.2-0.5-0.2
					s0.1-0.2,0.4-0.4c0.3-0.2,0.6-0.4,1-0.5c0.3-0.1,0.7-0.1,1-0.1C198.7,230.7,199,230.7,199,230.7z"/>
			</g>
			<g>
				<path class="st14" d="M230.1,235.8c0,0-0.4-0.1-0.8-0.3c-0.5-0.2-1-0.6-1.5-1c-0.5-0.4-0.9-1-1.2-1.4c-0.3-0.4-0.4-0.7-0.4-0.7
					s0.3,0.1,0.8,0.3c0.5,0.2,1,0.6,1.5,1.1c0.2,0.2,0.5,0.4,0.6,0.7c0.2,0.2,0.4,0.5,0.5,0.6C230,235.5,230.1,235.8,230.1,235.8z"
					/>
			</g>
			<g>
				<path class="st14" d="M267.7,217.7c0,0-0.2,0-0.5,0c-0.3,0-0.6-0.2-0.9-0.4c-0.3-0.2-0.5-0.5-0.7-0.7c-0.2-0.2-0.2-0.5-0.2-0.5
					s0.2,0,0.5,0c0.3,0,0.6,0.2,0.9,0.4c0.3,0.2,0.5,0.5,0.7,0.7C267.6,217.5,267.7,217.7,267.7,217.7z"/>
			</g>
			<g>
				<path class="st14" d="M265,220.7c0,0-0.2,0.1-0.4,0.1c-0.2,0-0.4-0.1-0.6-0.2c-0.1-0.1-0.2-0.2-0.2-0.3
					c-0.1-0.1-0.1-0.2-0.1-0.3c0-0.2,0.1-0.4,0.1-0.4s0.2,0,0.4,0c0.1,0,0.2,0,0.3,0.1c0.1,0,0.2,0.1,0.2,0.1
					c0.1,0.1,0.2,0.3,0.3,0.5C265,220.5,265,220.7,265,220.7z"/>
			</g>
			<g>
				<path class="st14" d="M262.5,222.6c0,0-0.1,0.2-0.4,0.1c-0.1,0-0.3,0-0.4-0.1c-0.1,0-0.3-0.1-0.4-0.2c-0.2-0.2-0.4-0.4-0.4-0.7
					c-0.1-0.2,0-0.5,0-0.5c0,0,0.2,0,0.4,0.1c0.2,0.1,0.4,0.2,0.6,0.3c0.2,0.2,0.3,0.4,0.4,0.6c0,0.1,0,0.2,0.1,0.3
					C262.4,222.5,262.5,222.6,262.5,222.6z"/>
			</g>
			<g>
				<path class="st14" d="M258.6,226.5c0,0-0.2,0-0.5-0.2c-0.1-0.1-0.3-0.1-0.4-0.2c-0.1-0.1-0.3-0.2-0.4-0.3
					c-0.2-0.2-0.4-0.5-0.5-0.8c-0.1-0.3-0.1-0.5-0.1-0.5s0.2,0,0.5,0.1c0.3,0.1,0.6,0.3,0.9,0.6c0.2,0.3,0.4,0.6,0.4,0.9
					C258.6,226.3,258.6,226.5,258.6,226.5z"/>
			</g>
			<g>
				<path class="st14" d="M255.9,230c0,0,0,0-0.1,0.1c-0.1,0-0.2,0-0.3-0.1c-0.1,0-0.2-0.1-0.3-0.2c-0.1-0.1-0.2-0.2-0.2-0.3
					c-0.1-0.2-0.1-0.5-0.1-0.7c0-0.2,0.1-0.4,0.1-0.4s0.2,0,0.4,0.1c0.2,0.1,0.4,0.3,0.5,0.5c0.1,0.2,0.1,0.4,0.1,0.6
					c0,0-0.1,0.1-0.1,0.2C255.9,229.9,255.9,230,255.9,230z"/>
			</g>
			<g>
				<path class="st14" d="M253.8,227.3c0,0,0.1,0.3,0,0.6c0,0.3-0.1,0.7-0.3,1.1c-0.2,0.4-0.4,0.7-0.7,0.9c-0.2,0.2-0.5,0.3-0.5,0.3
					s-0.1-0.3,0-0.6c0-0.3,0.1-0.7,0.3-1.1c0.2-0.4,0.4-0.7,0.7-0.9C253.6,227.4,253.8,227.3,253.8,227.3z"/>
			</g>
			<g>
				<path class="st14" d="M251.1,225.9c0,0,0,0.2-0.1,0.4c-0.1,0.1-0.1,0.2-0.1,0.3c0,0.1-0.1,0.2-0.1,0.3c-0.2,0.2-0.4,0.4-0.6,0.5
					c-0.2,0.1-0.4,0.1-0.4,0.1s0-0.2,0-0.4c0-0.2,0.1-0.5,0.2-0.7c0.1-0.1,0.2-0.2,0.3-0.3c0.1-0.1,0.2-0.2,0.4-0.2
					C250.9,225.9,251.1,225.9,251.1,225.9z"/>
			</g>
			<g>
				<path class="st14" d="M248.5,223c0,0,0,0.2,0,0.4c0,0.2-0.2,0.4-0.5,0.6c-0.1,0-0.2,0.1-0.4,0.1c-0.1,0-0.2,0-0.4,0
					c-0.2,0-0.4-0.2-0.4-0.2s0.1-0.2,0.2-0.4c0.1-0.2,0.3-0.3,0.4-0.4c0.1,0,0.2-0.1,0.3-0.1c0.1,0,0.2,0,0.3-0.1
					C248.3,222.9,248.5,223,248.5,223z"/>
			</g>
			<g>
				<path class="st14" d="M246.4,220.5c0,0-0.1,0.2-0.2,0.4c-0.1,0.2-0.3,0.4-0.6,0.5c-0.3,0.1-0.6,0.2-0.8,0.1
					c-0.2,0-0.4-0.1-0.4-0.1s0.1-0.2,0.2-0.4c0.1-0.2,0.4-0.4,0.6-0.5c0.1,0,0.3-0.1,0.4-0.1c0.1,0,0.3,0,0.4,0
					C246.2,220.4,246.4,220.5,246.4,220.5z"/>
			</g>
			<g>
				<path class="st14" d="M243.9,217.3c0,0-0.1,0.2-0.3,0.4c-0.2,0.2-0.5,0.4-0.8,0.5c-0.3,0.1-0.7,0.1-1,0
					c-0.3-0.1-0.4-0.2-0.4-0.2s0.2-0.2,0.4-0.3c0.1-0.1,0.2-0.1,0.3-0.2c0.1-0.1,0.3-0.1,0.4-0.2c0.1,0,0.3-0.1,0.4-0.1
					c0.1,0,0.3,0,0.4,0C243.6,217.2,243.9,217.3,243.9,217.3z"/>
			</g>
			<g>
				<path class="st14" d="M242,215.3c0,0-0.1,0.2-0.3,0.3c-0.1,0.1-0.2,0.1-0.4,0.2c-0.1,0.1-0.3,0-0.4,0.1c-0.3,0-0.5,0-0.8-0.1
					c-0.2-0.1-0.4-0.2-0.4-0.2s0.1-0.2,0.3-0.3c0.2-0.2,0.5-0.3,0.8-0.4c0.3,0,0.6,0.1,0.8,0.2C241.8,215.1,242,215.3,242,215.3z"/>
			</g>
		</g>
		<g>
			<g>
				<g>
					<path class="st13" d="M273.9,215.5c2.4,0,8.4,8,11.2,12.8c3.7,7.5,6.4,12.8,10.5,20.3c4,7.8,11.4,19,7.5,27.5
						c-2.1,4.4-4,8.9-5.9,13.3c-1.6,3.7-4.7,6.8-5.7,10.8c-0.3,1,0.1,2.3-0.2,3.2c-0.3,0.8-2,1.8-2,2.3c-0.1,1,2.1,1.6,1.4,3
						c-0.4,1-2.2,0.7-2.9,1.2c-0.9,0.7-0.8,2.4-1.8,3.3c-3.4-2.5-7.1-6.3-9.7-9.6c1.6-0.6,1.4-1.3,1.8-2.6c0.2-0.5-0.1-1.1,0.1-1.7
						c0.2-0.5,1.2-0.6,1.4-1.1c0.6-1.5,0-2.4,0.9-3.9c2.9-4.8,4.5-10.1,6.5-15.4c0.6-1.6,4.5-8.8,3.6-10.4c0,0-9.2-17.9-14.2-23.3
						L273.9,215.5z"/>
				</g>
			</g>
			<g>
				<path class="st14" d="M276.2,303.7c0,0,0.1,0,0.3-0.1c0.2-0.1,0.4-0.2,0.7-0.5c0.3-0.3,0.4-0.7,0.4-1.2c0-0.2,0.1-0.6,0.1-0.8
					c0-0.1,0-0.3,0-0.4c0-0.1,0-0.2,0-0.4c0-0.2,0-0.3,0-0.6c0-0.1,0-0.2,0.1-0.3c0.1-0.1,0.1-0.1,0.2-0.2c0.4-0.4,0.7-0.5,1-0.7
					c0.1,0,0.1-0.1,0.1-0.1c0,0,0,0,0-0.1c0-0.2,0.1-0.4,0.1-0.5c0.1-0.3,0.1-0.7,0.1-1.1c0-0.4,0-0.9,0.2-1.3
					c0.1-0.5,0.4-0.9,0.6-1.2c0.4-0.8,0.8-1.5,1.2-2.3l0.6-1.1c0.2-0.4,0.3-0.8,0.5-1.2c0.3-0.8,0.7-1.5,1-2.2
					c0.6-1.5,1.2-2.9,1.7-4.1c0.5-1.2,1-2.2,1.3-2.9c0.3-0.7,0.5-1.1,0.5-1.1s-0.1,0.4-0.3,1.1c-0.2,0.7-0.5,1.8-0.9,3
					c-0.2,0.6-0.4,1.3-0.7,2c-0.2,0.7-0.5,1.5-0.8,2.2c-0.3,0.8-0.6,1.5-1,2.3c-0.2,0.4-0.3,0.8-0.5,1.2l-0.6,1.1
					c-0.4,0.8-0.8,1.5-1.2,2.3c-0.2,0.4-0.4,0.7-0.5,1.1c-0.1,0.3-0.2,0.7-0.2,1.1c0,0.4-0.1,0.8-0.2,1.3c0,0.2-0.1,0.4-0.2,0.6
					c0,0.1-0.1,0.3-0.2,0.4c-0.1,0.1-0.2,0.2-0.3,0.2c-0.4,0.2-0.7,0.3-0.9,0.4c0,0-0.1,0.1-0.1,0.2c0,0,0,0.1,0,0.1
					c0,0.1,0,0.3-0.1,0.4c0,0.2,0,0.3,0,0.5c0,0.2-0.1,0.3-0.1,0.5c-0.1,0.3-0.2,0.5-0.3,0.8c-0.1,0.5-0.3,1-0.7,1.3
					c-0.3,0.3-0.6,0.4-0.8,0.4C276.3,303.6,276.2,303.7,276.2,303.7z"/>
			</g>
			<g>
				<g>
					<path class="st14" d="M289.3,306.1c0,0-0.5-0.6-1.2-1.3c-0.8-0.7-1.9-1.6-3-2.4c-0.5-0.4-1.1-0.8-1.6-1.2
						c-0.5-0.4-1-0.8-1.4-1.1c-0.4-0.3-0.7-0.6-1-0.8c-0.2-0.2-0.4-0.3-0.4-0.3s0.1,0.2,0.2,0.4c0.2,0.3,0.3,0.7,0.7,1.1
						c0.3,0.4,0.7,0.9,1.2,1.4c0.5,0.5,1,0.9,1.6,1.4c1.1,0.8,2.3,1.5,3.3,2C288.6,305.9,289.3,306.1,289.3,306.1z"/>
				</g>
			</g>
			<g>
				<g>
					<path class="st14" d="M286.1,294.5c0,0,0,0.1-0.1,0.3c0,0.2-0.2,0.4-0.2,0.7c0,0.3,0,0.7,0,1.1c0,0.4,0.2,0.8,0.3,1.1l0.3,0.5
						c0.1,0.2,0.2,0.3,0.3,0.5c0.2,0.3,0.4,0.6,0.6,0.8c0.4,0.4,0.8,0.6,0.8,0.6s-0.1-0.4-0.2-1c-0.2-0.6-0.4-1.2-0.7-1.9
						c-0.1-0.3-0.3-0.7-0.4-1c-0.1-0.3-0.2-0.6-0.3-0.8c-0.1-0.2-0.2-0.5-0.2-0.7C286.1,294.6,286.1,294.5,286.1,294.5z"/>
				</g>
			</g>
			<g>
				<path class="st14" d="M280,230.1c0,0,0,0.4,0,1c0,0.7,0,1.6,0,2.7c0,1.1,0,2.4-0.1,3.8c0,1.4-0.1,2.9-0.2,4.4
					c-0.1,3-0.2,6-0.4,8.2c-0.1,1.1-0.2,2.1-0.3,2.7c-0.1,0.7-0.1,1-0.1,1s0-0.4-0.1-1c0-0.7-0.1-1.6-0.1-2.7
					c-0.1-2.3-0.1-5.3,0-8.3c0.2-3,0.5-6,0.8-8.2c0.1-1.1,0.3-2,0.4-2.7C279.9,230.5,280,230.1,280,230.1z"/>
			</g>
			<g>
				<path class="st14" d="M282.1,239c0,0-0.1,0.3-0.4,0.7c-0.1,0.2-0.3,0.4-0.5,0.6c-0.2,0.2-0.4,0.4-0.5,0.6
					c-0.4,0.4-0.9,0.8-1.3,1c-0.4,0.2-0.7,0.3-0.7,0.3s0.1-0.3,0.3-0.7c0.2-0.4,0.6-0.9,1-1.3c0.2-0.2,0.5-0.4,0.7-0.6
					c0.2-0.2,0.5-0.3,0.7-0.4C281.8,239.1,282.1,239,282.1,239z"/>
			</g>
			<g>
				<path class="st14" d="M297.4,264c0,0-0.1,0.1-0.3,0.2c-0.2,0.1-0.5,0.2-0.8,0.5c-0.2,0.1-0.3,0.2-0.5,0.3
					c-0.2,0.1-0.4,0.3-0.5,0.4c-0.4,0.3-0.8,0.6-1.1,0.9c-0.4,0.3-0.8,0.7-1.1,1c-0.4,0.3-0.7,0.7-0.9,0.9c-0.3,0.3-0.5,0.5-0.7,0.7
					c-0.2,0.2-0.3,0.3-0.3,0.3s0-0.1,0.1-0.4c0.1-0.2,0.2-0.6,0.4-0.9c0.2-0.4,0.4-0.8,0.7-1.2c0.2-0.2,0.3-0.4,0.5-0.6
					c0.2-0.2,0.4-0.4,0.6-0.6c0.2-0.2,0.4-0.3,0.7-0.5c0.2-0.2,0.5-0.3,0.7-0.4c0.2-0.1,0.4-0.2,0.7-0.3c0.2-0.1,0.5-0.1,0.7-0.2
					c0.4-0.1,0.7-0.1,1-0.1C297.2,264,297.4,264,297.4,264z"/>
			</g>
			<g>
				<path class="st14" d="M288.3,309.2c0,0-0.6-0.3-1.5-0.8c-0.9-0.5-2-1.2-3-2c-0.3-0.2-0.5-0.4-0.7-0.6c-0.3-0.2-0.5-0.4-0.7-0.7
					c-0.4-0.4-0.8-0.9-1.1-1.3c-0.3-0.4-0.5-0.8-0.7-1c-0.1-0.3-0.2-0.4-0.2-0.4s0.1,0.1,0.4,0.3c0.2,0.2,0.5,0.5,0.9,0.7
					c0.2,0.1,0.4,0.3,0.6,0.5c0.2,0.2,0.5,0.3,0.7,0.5c0.5,0.4,1,0.8,1.5,1.2c1,0.8,2,1.6,2.7,2.3
					C287.9,308.7,288.3,309.2,288.3,309.2z"/>
			</g>
			<g>
				<path class="st14" d="M286.3,307.6c0,0,0,0.3-0.1,0.6c-0.1,0.4-0.4,0.8-0.8,1.1c-0.2,0.2-0.4,0.3-0.6,0.4
					c-0.2,0.1-0.4,0.2-0.6,0.3c-0.4,0.1-0.6,0.1-0.6,0.1s0.1-0.3,0.3-0.6c0.1-0.2,0.2-0.3,0.4-0.5c0.1-0.2,0.3-0.3,0.5-0.5
					c0.2-0.1,0.3-0.3,0.5-0.4c0.2-0.1,0.3-0.2,0.5-0.3C286,307.7,286.3,307.6,286.3,307.6z"/>
			</g>
			<g>
				<path class="st14" d="M284,306.7c0,0,0,0.3-0.1,0.6c-0.1,0.3-0.3,0.7-0.6,1c-0.2,0.1-0.3,0.3-0.5,0.3c-0.2,0.1-0.4,0.2-0.5,0.2
					c-0.3,0.1-0.6,0-0.6,0s0.1-0.3,0.3-0.5c0.1-0.1,0.2-0.2,0.3-0.4c0.1-0.1,0.2-0.3,0.4-0.4c0.1-0.1,0.3-0.2,0.4-0.3
					c0.1-0.1,0.3-0.2,0.4-0.3C283.7,306.8,284,306.7,284,306.7z"/>
			</g>
			<g>
				<path class="st14" d="M281.9,304.9c0,0,0,0.3-0.1,0.6c-0.1,0.3-0.4,0.7-0.7,1c-0.3,0.3-0.7,0.5-1.1,0.6
					c-0.3,0.1-0.6,0.1-0.6,0.1s0.1-0.3,0.2-0.6c0.2-0.3,0.4-0.6,0.8-0.9c0.1-0.1,0.3-0.3,0.5-0.4c0.2-0.1,0.3-0.2,0.5-0.3
					C281.6,305,281.9,304.9,281.9,304.9z"/>
			</g>
			<g>
				<path class="st14" d="M280,302.7c0,0,0,0.3-0.1,0.6c-0.1,0.3-0.3,0.7-0.5,0.9c-0.3,0.3-0.6,0.5-0.8,0.6
					c-0.3,0.1-0.5,0.2-0.5,0.2s0-0.3,0.1-0.6c0.1-0.3,0.3-0.7,0.5-0.9c0.3-0.3,0.6-0.5,0.9-0.6C279.8,302.7,280,302.7,280,302.7z"/>
			</g>
		</g>
		<g>
			<g>
				<path class="st15" d="M255.8,225.2c-0.8,4.4,7.5,49,5.7,52.9c-1.3,2.9-4.4,10.1-7.1,11.8c-2.8-3.1-5.9-8.8-6.9-12.8
					c-1.1-5.2,4.4-46,4.7-50.2c0-0.5,0-1,0.1-1.3L255.8,225.2z"/>
			</g>
		</g>
		<g>
			<g>
				<path class="st16" d="M253.4,219.4c3.2-0.9,5.6,4.3,2.8,6.6c-4.3,4.1-9.2-2.7-4.6-6L253.4,219.4z"/>
			</g>
		</g>
		<g>
			<path class="st9" d="M242.3,213.8c0-0.3,4.3-2.5,6.3-2.1c-0.1,4.2,1.9,5.9,5.7,6.1c3.7-0.4,5.9-1.9,5.7-6.2c2-0.5,5.9,3,5.9,3
				c0.2,4.2-2.9,9.6-6,12.2c-1.6-2.2-4.2-4.9-5.6-7.6c-1.6,2.5-4,5.7-5.2,8.1C245.8,224.9,241.9,217.2,242.3,213.8z"/>
		</g>
		<g>
			<path d="M265.2,170.2c0,1.3,0.7,2.4,1.4,2.3c0.8,0,1.4-1.1,1.4-2.4c0-1.3-0.7-2.4-1.4-2.3C265.8,167.8,265.2,168.9,265.2,170.2z"
				/>
		</g>
		<g>
			<path d="M242.8,170.3c0,1.3,0.7,2.4,1.4,2.3c0.8,0,1.4-1.1,1.4-2.4c0-1.3-0.7-2.4-1.4-2.3C243.4,167.9,242.8,169,242.8,170.3z"/>
		</g>
	</g>
	<g>
		<g>
			<path class="st17" d="M410.1,192.8c3.1-1.8,0.6-5.1-1.3-6c0,0,1.8-5-1-6.7c-3.1-1.9-2-1.1-2.7-4.5c-0.6-3.1-3.4-4.4-6.5-3.9
				c0-3.4-3.1-6.8-6.5-7.4c-0.3,0.3-0.3,0.3,0,0.3c2.2-4.3-3.1-13-7.4-8.7c-1.2-5-9-11.5-13.3-6.5c0-5-8.1-9.3-11.2-4.7
				c0-3.7-5.3-3.4-6.2-0.3l-1.2-0.6c-2.8-1.9-6.2,0.6-5.6,4.7c-2.5,0.3-5.9,0-5.9,3.1c-2.5,0.3-5,2.5-3.1,5
				c-3.1-1.6-12.7,0.3-7.8,4.3c-4-0.6-10.9,5-7.4,8.7c-0.6-0.6-3.4,3.4-3.6,3.9c-0.7,1.8-0.4,3.7,0.6,5.3c-1.7,0.4-3.6,0.9-4.4,2.7
				c-0.9,2.1-0.1,4.2,2.1,4.9c-2.5,0.8-5.3,2.2-6.4,4.6c-1.1,2.4-0.6,4.4,2.5,4.1c-4.5,2.5-5.9,13.8,1.2,10.8
				c-2.1,1.7-0.9,5.9,1.3,7.3c2.1,1.4,5.5,1.3,7.8,0.8c-0.6,5.2,4.3,10.6,9.5,8c1,2.8,6.5,5.9,7.2,1.6c0.5,5.3,8.4,2.6,10.2-0.3
				c2.6,4.7,9.7,4.3,12.5,0.3c2.7,2.3,12.7,4.4,12.1-1.3c2,2.9,10.1,3.1,10.5-1.2c3.8,0,9.8-0.5,9.6-5.5c3.9,3.2,13-3.2,10-6.2
				c5.8,2.2,9.2-7.5,3.6-8.4C413.9,205.5,416.2,189.3,410.1,192.8z"/>
		</g>
		<g>
			<path class="st18" d="M325,347.8c-2-4.4-4.8-7.9-5.8-12.7c-1.4-6.5-0.5-14.7,0.9-21.1c3.5-16.8,15.3-72.8,16.1-75.8
				c0.7-2.6,3.8-6.2,6.9-5.7c6.2,1.1,0.7,28-0.6,33c-2,7.7-10.4,36.7-13.6,43.3c-1.5,2.9-2.6,5.6-3.3,8.8c-0.6,2.8-0.2,3,0.8,5.5
				c0.8,2.1,0.5,4,0.5,6.2c0,3.2,0.7,6.1,0.4,9.3c-2.1-0.6-2.7-3.9-3.4-6.1c-0.2,5,3.5,9,3.1,14c-0.5,0,0.5,0,0,0L325,347.8z"/>
		</g>
		<g>
			<g>
				<path class="st19" d="M328.9,476.4c-0.4,0-0.8-0.4,0.4-1.3c1.8-1.3,6.8-1.5,8.6-1c4,1.2,2.4,2.7-0.6,3.5
					c-2.6,0.8-5.4,1.3-7.9-0.3L328.9,476.4z"/>
			</g>
			<g>
				<path class="st18" d="M330.4,465.8c0.8,5.5,1.7,9.6,2.1,11.7c1.8,4.1,4.2,3.8,7,0.2c0.2-0.8,0.5-5.3,1-11.7
					C337.2,466.3,333.7,466.1,330.4,465.8z"/>
			</g>
			<g>
				<g>
					<path class="st20" d="M325.4,424.6l-0.1-0.5C325.3,424.3,325.3,424.4,325.4,424.6z"/>
				</g>
				<g>
					<path class="st20" d="M331.3,476.7c-0.8,0-1.7-0.2-1.5,0c-0.7-0.2-0.7,0-1.3-0.5c0.5,2.6-0.7,7-4,9.6c-2,1.9-12.7,8.5-8,10.6
						c2.3,1.2,9.4-2.2,11.2-3.2c4.1-1.9,7.1-5.1,11.4-6.6c1.6-2.6,1.1-7.4,1.3-10.7C337.9,476.8,335.4,477.2,331.3,476.7z"/>
				</g>
			</g>
			<g>
				<g>
					<path class="st19" d="M331.3,479.3c0,0,0.3-0.2,0.7-0.4c0.1,0,0.2-0.1,0.3-0.1c0.1,0,0.2-0.1,0.3-0.1c0.2-0.1,0.4-0.2,0.7-0.3
						c0.2-0.1,0.5-0.2,0.7-0.3c0.1,0,0.2-0.1,0.3-0.1c0.1-0.1,0.2-0.1,0.3-0.1c0.4-0.1,0.7-0.2,0.7-0.2s-0.1,0.3-0.4,0.7
						c-0.1,0.2-0.3,0.4-0.6,0.6c-0.2,0.2-0.5,0.3-0.8,0.4c-0.3,0.1-0.6,0.2-0.9,0.2c-0.3,0.1-0.5,0-0.7,0
						C331.6,479.4,331.3,479.3,331.3,479.3z"/>
				</g>
			</g>
			<g>
				<path class="st21" d="M329.2,462.5c0.1,1.1,0.3,2.2,0.4,3.3c3.3,0.4,8.4,0.6,11.7,0.3c0.1-1.2,0.2-2.5,0.3-3.8
					C337.5,462.6,333.3,462.8,329.2,462.5z"/>
			</g>
			<g>
				<path class="st19" d="M382.2,475.6c0.4,0,0.8-0.4-0.4-1.3c-1.8-1.3-6.8-1.5-8.7-1c-4,1.2-2.4,2.7,0.6,3.5
					c2.6,0.7,5.4,1.3,7.9-0.3L382.2,475.6z"/>
			</g>
			<g>
				<path class="st18" d="M380.6,465c-0.7,5.5-1.7,9.7-2.1,11.7c-1.8,4.1-4.2,3.8-7,0.2c-0.2-0.8-0.6-5.3-1.1-11.7
					C373.8,465.6,377.3,465.4,380.6,465z"/>
			</g>
			<g>
				<g>
					<path class="st20" d="M385.4,423.8l0.1-0.5C385.5,423.5,385.4,423.6,385.4,423.8z"/>
				</g>
				<g>
					<path class="st20" d="M379.8,475.9c0.8,0,1.7-0.2,1.5,0c0.7-0.2,0.7,0,1.3-0.5c-0.5,2.6,0.7,7,4,9.6c2,1.9,12.7,8.4,8.1,10.5
						c-2.3,1.2-9.4-2.2-11.2-3.2c-4.1-1.9-7.1-5-11.4-6.5c-1.6-2.6-1.1-7.4-1.4-10.7C373.1,476,375.7,476.5,379.8,475.9z"/>
				</g>
			</g>
			<g>
				<g>
					<path class="st19" d="M379.7,478.5c0,0-0.3-0.2-0.7-0.4c-0.1,0-0.2-0.1-0.3-0.1c-0.1,0-0.2-0.1-0.3-0.1
						c-0.2-0.1-0.4-0.2-0.7-0.3c-0.2-0.1-0.5-0.2-0.7-0.3c-0.1,0-0.2-0.1-0.3-0.1c-0.1-0.1-0.2-0.1-0.3-0.1
						c-0.4-0.1-0.7-0.2-0.7-0.2s0.1,0.3,0.4,0.7c0.1,0.2,0.3,0.4,0.6,0.6c0.2,0.2,0.5,0.3,0.8,0.4c0.3,0.1,0.6,0.1,0.9,0.2
						c0.3,0.1,0.5,0,0.7,0C379.4,478.7,379.7,478.5,379.7,478.5z"/>
				</g>
			</g>
			<g>
				<path class="st21" d="M381.8,461.7c-0.1,1.1-0.3,2.2-0.4,3.3c-3.3,0.4-8.4,0.7-11.7,0.4c-0.1-1.2-0.2-2.5-0.3-3.8
					C373.5,461.8,377.7,462,381.8,461.7z"/>
			</g>
			<g>
				<path class="st2" d="M383.3,380.8c3.3-18.4,7.2-38.7,7.2-41.7c0-2.8,0.2-5.6-0.1-8.2c-0.6-6.4-1.4-13.5-3.5-19.6
					c-0.7-2.3-2.7-8-4.6-12.4c-0.9,0.4-1.7,0.8-2.6,1.2c-6.4,2.8-11.8,3.9-20.1,4.8c-6.8,0.7-14.7-0.8-21.5-2.3
					c-2-0.5-3.9-0.9-5.7-1.6c-2.6,5.6-4.9,11-5.7,16.1c-1,5.6-2,17.8-2,23.4c0.1,6.9,2.3,41.5,3.9,54.3c0,0,0.1,12.7-0.9,17.8
					c-1.6,8.3-0.5,33.6,1.4,49.8c4.1,0.3,8.3,0.1,12.4-0.2c1.4-18.9,2.7-48.5,3.3-50.8c0.5-4,8.7-67.2,8.7-70.8c2,0,4.1,0,5.9-0.3
					c0.5,1.1,1.7,15.8,3,32.1c0,0,0,0.1,0,0.1c0.1,0.4,0.1,0.8,0.2,1.2c1.1,13.4,2.3,27.6,3.4,36.2c0,0.4,0.1,0.7,0.1,0.8
					c0.5,2.3,2,32,3.5,50.8c4.1,0.2,8.3,0.4,12.4,0.1c1.9-16.2,2.9-41.5,1.2-49.8c-1-5.1-1-17.8-1-17.8
					C382.4,390.9,382.8,386.1,383.3,380.8z"/>
			</g>
			<g>
				<g>
					<path class="st18" d="M359.6,304.9c8.3-0.9,13.8-2.1,20.1-4.8c0.9-0.4,1.7-0.8,2.6-1.2c-0.9-2-1.7-3.8-2.4-4.8l-45.4,0.5
						c-0.3,0.7-1.8,5.8-2.1,6.5c1.8,0.6,3.6,1.1,5.7,1.6C344.9,304.1,352.7,305.7,359.6,304.9z"/>
				</g>
			</g>
			<g>
				<g>
					<path class="st3" d="M349.7,341.8c0,0,0.3-0.1,0.8-0.3c0.5-0.1,1.2-0.4,2.1-0.6c0.5-0.1,0.9-0.2,1.5-0.3
						c0.5-0.1,1.1-0.1,1.6-0.2c0.6,0,1.2-0.1,1.8-0.1c0.6,0,1.2,0,1.8,0c0.6,0,1.2,0,1.8,0.1c0.6,0,1.2,0.1,1.7,0.1
						c1.1,0.1,2.2,0.2,3.1,0.4c0.9,0.1,1.6,0.3,2.2,0.4c0.5,0.1,0.8,0.2,0.8,0.2s-0.3,0-0.8,0c-0.5,0-1.3,0-2.2,0
						c-1.8,0-4.2-0.1-6.6-0.1c-1.2,0-2.4,0-3.5,0c-0.6,0-1.1,0-1.6,0.1c-0.5,0-1,0.1-1.4,0.1c-0.9,0-1.6,0.2-2.2,0.2
						C350,341.8,349.7,341.8,349.7,341.8z"/>
				</g>
			</g>
			<g>
				<g>
					<path class="st3" d="M330.4,305.6c0,0,0.2,0.1,0.5,0.4c0.2,0.1,0.4,0.3,0.6,0.5c0.3,0.2,0.5,0.3,0.9,0.6
						c0.7,0.4,1.5,0.8,2.5,1.1c1,0.4,2.2,0.6,3.5,1c1.3,0.3,2.7,0.7,4.2,1.1c0.7,0.2,1.5,0.3,2.3,0.5c0.8,0.2,1.6,0.3,2.4,0.4
						c0.8,0.1,1.7,0.3,2.5,0.4c0.8,0.1,1.7,0.2,2.6,0.3c1.7,0.1,3.5,0.2,5.3,0.2c0.9,0,1.8,0,2.7,0c0.9,0,1.8-0.1,2.6-0.1
						c1.7-0.2,3.4-0.3,5.1-0.6c0.8-0.1,1.6-0.3,2.4-0.4c0.8-0.1,1.6-0.3,2.3-0.5c0.7-0.2,1.5-0.3,2.2-0.5c0.7-0.2,1.3-0.4,2-0.6
						c1.3-0.4,2.4-0.9,3.4-1.2c1-0.4,1.9-0.8,2.6-1.2c1.4-0.7,2.2-1.1,2.2-1.1s-0.8,0.5-2.1,1.3c-0.7,0.4-1.5,0.8-2.5,1.3
						c-1,0.5-2.1,1-3.4,1.5c-0.6,0.2-1.3,0.5-2,0.7c-0.7,0.2-1.4,0.4-2.2,0.7c-0.7,0.2-1.5,0.4-2.3,0.6c-0.8,0.2-1.6,0.4-2.4,0.5
						c-1.7,0.3-3.4,0.5-5.2,0.7c-0.9,0.1-1.8,0.1-2.7,0.2c-0.9,0-1.8,0-2.7,0.1c-1.8,0-3.6-0.1-5.4-0.3c-0.9-0.1-1.8-0.2-2.6-0.3
						c-0.9-0.1-1.7-0.2-2.5-0.4c-0.8-0.1-1.6-0.3-2.4-0.5c-0.8-0.2-1.6-0.4-2.3-0.6c-1.5-0.5-2.9-0.9-4.1-1.3
						c-1.3-0.4-2.5-0.8-3.5-1.2c-1-0.4-1.9-0.9-2.5-1.4c-0.3-0.2-0.6-0.5-0.8-0.6c-0.2-0.2-0.4-0.4-0.5-0.6
						C330.5,305.8,330.4,305.6,330.4,305.6z"/>
				</g>
			</g>
			<g>
				<g>
					<path class="st3" d="M355,312.5c0,0,0.1,0.4,0.3,1.2c0.2,0.7,0.5,1.8,0.7,3.1c0.1,0.6,0.3,1.3,0.4,2.1c0.1,0.7,0.2,1.5,0.3,2.3
						c0.2,1.6,0.4,3.4,0.6,5.1c0.1,1.7,0.1,3.5,0.1,5.1c0,0.8,0,1.6,0,2.4c0,0.7-0.1,1.5-0.1,2.1c-0.1,1.3-0.2,2.4-0.2,3.2
						c-0.1,0.8-0.1,1.2-0.1,1.2s0-0.4-0.1-1.2c0-0.8-0.1-1.8-0.2-3.1c0-0.7,0-1.4-0.1-2.1c0-0.7-0.1-1.5-0.2-2.3
						c-0.1-1.6-0.2-3.4-0.3-5.1c-0.1-1.7-0.3-3.4-0.4-5.1c-0.1-0.8-0.1-1.6-0.2-2.3c-0.1-0.7-0.2-1.4-0.3-2.1
						c-0.2-1.3-0.3-2.4-0.3-3.1C355,313,355,312.5,355,312.5z"/>
				</g>
			</g>
			<g>
				<g>
					<path class="st3" d="M357.4,335.2c0,0,0.3-0.3,0.8-0.7c0.3-0.2,0.5-0.5,0.8-0.9c0.3-0.3,0.6-0.8,0.8-1.3
						c0.2-0.2,0.3-0.5,0.4-0.8c0.1-0.3,0.3-0.5,0.4-0.8c0.2-0.6,0.4-1.2,0.6-1.9c0.2-0.7,0.3-1.4,0.4-2.1c0.1-0.7,0.2-1.5,0.2-2.2
						c0.1-0.7,0-1.5,0.1-2.2c0-0.7,0-1.5,0-2.2c0-1.4-0.1-2.8-0.1-3.9c0-2.3,0.1-3.8,0.1-3.8s0.1,0.4,0.2,1c0.1,0.7,0.2,1.6,0.4,2.7
						c0.1,1.1,0.3,2.5,0.4,3.9c0.1,1.4,0.2,3,0.1,4.5c0,0.8-0.1,1.5-0.2,2.3c-0.1,0.8-0.3,1.5-0.5,2.2c-0.2,0.7-0.5,1.4-0.8,2
						c-0.3,0.6-0.6,1.2-1,1.6c-0.4,0.5-0.7,0.9-1.1,1.2c-0.4,0.3-0.7,0.6-0.9,0.8C357.7,335,357.4,335.2,357.4,335.2z"/>
				</g>
			</g>
			<g>
				<g>
					<path class="st3" d="M326.3,319.2c0,0,0.3,0,0.8,0c0.5,0,1.2,0,2-0.1c0.4-0.1,0.8-0.1,1.3-0.2c0.2,0,0.5-0.1,0.7-0.1
						c0.2-0.1,0.5-0.1,0.7-0.2c0.5-0.1,0.9-0.3,1.4-0.6c0.5-0.2,0.9-0.5,1.3-0.8l0.6-0.5l0.5-0.6c0.3-0.4,0.7-0.8,0.9-1.2
						c0.3-0.4,0.5-0.8,0.7-1.2c0.2-0.4,0.4-0.8,0.6-1.2c0.3-0.7,0.6-1.4,0.8-1.8c0.2-0.4,0.3-0.7,0.3-0.7s-0.1,1.1-0.5,2.7
						c-0.1,0.4-0.2,0.8-0.4,1.3c-0.2,0.5-0.4,0.9-0.7,1.4c-0.2,0.5-0.6,0.9-0.9,1.4l-0.6,0.7l-0.7,0.6c-0.5,0.4-1,0.7-1.5,0.9
						c-0.3,0.1-0.5,0.2-0.8,0.3c-0.3,0.1-0.5,0.2-0.8,0.2c-0.3,0.1-0.5,0.1-0.8,0.1c-0.3,0-0.5,0-0.8,0.1c-0.5,0.1-1,0-1.4,0
						c-0.9-0.1-1.5-0.2-2-0.3C326.6,319.3,326.3,319.2,326.3,319.2z"/>
				</g>
			</g>
			<g>
				<g>
					<path class="st3" d="M375.9,309.6c0,0,0.2,0.2,0.4,0.7c0.3,0.4,0.6,1.1,1.1,1.8c0.2,0.4,0.5,0.8,0.7,1.2
						c0.2,0.4,0.5,0.9,0.8,1.3c0.3,0.4,0.6,0.9,0.9,1.4c0.3,0.5,0.7,0.9,1,1.3c0.4,0.4,0.8,0.8,1.2,1.1c0.4,0.4,0.9,0.6,1.3,0.9
						c0.5,0.2,0.9,0.4,1.4,0.5c0.4,0.2,0.9,0.1,1.3,0.2c0.4,0,0.8,0,1.2,0c0.4,0,0.6-0.1,0.9-0.1c0.5-0.1,0.8-0.1,0.8-0.1
						s-0.3,0.1-0.7,0.3c-0.2,0.1-0.5,0.2-0.9,0.3c-0.4,0.1-0.8,0.2-1.2,0.2c-0.5,0-1,0.1-1.5,0c-0.3-0.1-0.5-0.1-0.8-0.1
						c-0.3-0.1-0.5-0.2-0.8-0.3c-0.5-0.3-1.1-0.5-1.6-0.9c-0.5-0.4-0.9-0.8-1.4-1.2c-0.4-0.5-0.8-0.9-1.1-1.4
						c-0.4-0.5-0.6-1-0.9-1.5c-0.5-1-0.9-1.9-1.3-2.7c-0.3-0.8-0.5-1.5-0.7-2C375.9,309.9,375.9,309.6,375.9,309.6z"/>
				</g>
			</g>
			<g>
				<g>
					<path class="st3" d="M352.4,305.4c0,0,0.3,0.4,0.5,1.1c0.1,0.4,0.2,0.7,0.2,1.2c0.1,0.4,0,0.9,0,1.3c0,0.9-0.2,1.8-0.3,2.4
						c-0.2,0.7-0.3,1.1-0.3,1.1s-0.2-0.4-0.3-1.1c-0.1-0.7-0.2-1.6-0.2-2.4c0-0.4,0-0.9,0.1-1.3c0-0.4,0.1-0.8,0.1-1.1
						C352.3,305.8,352.4,305.3,352.4,305.4z"/>
				</g>
			</g>
			<g>
				<g>
					<path class="st22" d="M359.4,308.6c0,0.9-0.7,1.6-1.6,1.6c-0.9,0-1.6-0.7-1.6-1.6c0-0.9,0.7-1.6,1.6-1.6
						C358.7,307,359.4,307.7,359.4,308.6z"/>
				</g>
			</g>
		</g>
		<g>
			<g>
				<path class="st23" d="M330.4,303.3c1-2.7,3.8-12.2,3.8-12.2c-7.2,0-8.6-0.5-10.9-2.5c-0.9-0.7,2.9-17.6,3.2-19
					c0.9-4.5,4.7-22.4,5.9-26.9c0.8-2.9,1.4-8.3,4.1-10.3c3.8-2.8,10.5-2.8,15.1-3c5.1-0.1,10.5-0.5,15.6,0.3c4,0.7,7.6-0.5,11.4,1
					c5,2,8.4,14.5,9.5,17.6c2.8,7.9,5.4,15.9,8.2,23.8c1.8,5,5,9.7,5.4,15.1c0.7,9.3-9.8,2-12.5-1.9c-2.9-4.2-8-21.8-9.4-23.6
					c-2,6.7-2.7,9.4-1.7,14.5c1.7,7.9,7.5,29,7.5,29c-1.3,1.3-11.5,11.7-14.4,14.9c-4.4-4.2-7.6-6.3-14.4-12.5
					c-2.5,3.1-14,13.7-14,13.7C342.3,321.4,332.1,306.2,330.4,303.3z"/>
			</g>
		</g>
		<g>
			<g>
				<path class="st24" d="M360.6,168.9c0.1,0,0.2,0,0.3,0c0-0.1-0.1-0.2-0.1-0.3C360.8,168.7,360.7,168.8,360.6,168.9z"/>
			</g>
			<g>
				<polygon class="st24" points="352.4,167.2 352.4,167.2 352.4,167.2 				"/>
			</g>
			<g>
				<path class="st18" d="M382.6,192.9c-0.1-2,0-7.3,0-11.4c-2.3-1.1-3.9-6.6-2.7-8.3c-1.5-0.3-2.5-1-3-2.3c-5.6,1.6-8.1,0.7-9.1-1
					c0,0-5.1,2.9-6.7-1c-0.1,0-0.2,0-0.3,0c-2.4,2.7-7.7,1.3-8.2-1.7c-3.4,0.7-5.6-1.2-6.6-4.3c-0.2,5.3-5.9,17.6-6.6,19.1
					c-0.5,1.2-0.3,1.6-0.3,2.8c0.8,4.8,1.5,10.1,0.9,9.6c-2.4-1.4-4.3-2.7-6.3,0.4c-1.4,2.4,0.1,7.5,1.5,9.9c1.9,3.9,5,2,5.1,2.6
					c0.4,2,1.3,4,2.3,5.8c0.9,1.7,2,3.4,3.3,4.7c1.6,1.6,3.6,2.5,5.7,3.4c1.5,0.7,3,1.3,4.6,1.9c0.4,0.2,0.4,8.1,0.4,8.3
					c0.4,2.2,1.2-0.1,4.5,0.5c3.2,0.6,4.1,0.5,4.3-0.2c0.2-0.7,0-7.1,0.3-8.7c10.1-1.4,16.8-6.8,17.3-17.6c4.1-0.5,5.6-3,6.5-7.5
					C390.6,193.2,386.6,189,382.6,192.9z"/>
			</g>
		</g>
		<g>
			<g>
				<path d="M347.2,175.2c0,0,0-0.1,0.1-0.2c0.1-0.1,0.2-0.3,0.4-0.5c0.2-0.2,0.4-0.4,0.7-0.6c0.3-0.2,0.6-0.3,0.9-0.5
					c0.6-0.2,1.3-0.4,1.8-0.4c0.5,0,0.9,0,0.9,0s-0.3,0.3-0.7,0.5c-0.4,0.3-1,0.5-1.6,0.8c-0.3,0.1-0.6,0.2-0.9,0.3
					c-0.3,0.1-0.6,0.2-0.8,0.3c-0.1,0-0.2,0.1-0.3,0.1c-0.1,0.1-0.2,0.1-0.3,0.1C347.3,175.2,347.2,175.2,347.2,175.2z"/>
			</g>
		</g>
		<g>
			<g>
				<path d="M370.1,172.6c0,0,0.1,0,0.2-0.1c0.1,0,0.3-0.1,0.6-0.2c0.2,0,0.5-0.1,0.9,0c0.2,0,0.3,0,0.5,0.1l0.5,0.1l0.5,0.2
					c0.2,0.1,0.3,0.2,0.4,0.3c0.3,0.2,0.4,0.4,0.6,0.7c0.1,0.2,0.2,0.4,0.2,0.6c0,0.1,0.1,0.2,0.1,0.2s-0.1,0-0.2-0.1
					c-0.1-0.1-0.3-0.2-0.5-0.3c-0.1,0-0.2-0.1-0.3-0.2c-0.1-0.1-0.2-0.1-0.3-0.2c-0.2-0.1-0.5-0.2-0.7-0.3c-0.5-0.2-1.1-0.4-1.5-0.6
					C370.4,172.7,370.1,172.6,370.1,172.6z"/>
			</g>
		</g>
		<g>
			<g>
				<path class="st25" d="M331.6,286.4c-0.1,0-0.2,0-0.3,0c-0.4,0-0.8,0-1.2-0.1l-0.1,0c-0.5-0.1-1-0.3-1.4-0.4l-0.1,0
					c-0.2-0.1-0.4-0.1-0.5-0.2c-0.1-0.1-0.3-0.2-0.4-0.3c-0.6-0.4-0.9-0.7-0.9-0.7l-0.9-0.9l1.2,0c0,0,0.5,0,1.2,0.1
					c0.2,0,0.3,0.1,0.5,0.1c0.1,0,0.1,0,0.2,0c0.1,0,0.2,0,0.3,0c0.3,0,0.6,0.1,0.9,0.2l0.2,0c0.4,0.1,0.8,0.1,1.2,0.2
					c0.2,0.1,0.4,0.1,0.6,0.1c0.2,0,0.3,0.1,0.5,0.1c0.6,0.1,1.1,0.3,1.1,0.4l1.1,0.5l-1.2,0.4c0,0-0.5,0.2-1.2,0.3
					C332.3,286.4,332,286.4,331.6,286.4z M330.2,285.3c0.1,0,0.1,0,0.2,0C330.4,285.3,330.3,285.3,330.2,285.3l-0.3-0.1c0,0,0,0,0,0
					C330,285.3,330.1,285.3,330.2,285.3L330.2,285.3z"/>
			</g>
		</g>
		<g>
			<g>
				<path class="st25" d="M328.8,288.9c-0.8,0-1.5,0-2-0.1c-0.8-0.1-1.3-0.3-1.3-0.3l-1.4-0.5l1.4-0.5c0,0,0.5-0.2,1.3-0.3
					c0.3-0.1,0.7-0.1,1-0.2l0.2,0c0.4-0.1,0.8-0.1,1.2-0.1l0.4,0c0.5,0,0.9-0.1,1.3-0.1c0.1,0,0.4,0,0.6,0c0.2,0,0.4,0,0.6-0.1
					c0.8,0,1.3,0,1.3,0l1.4,0.1l-1.2,0.8c0,0-0.5,0.3-1.2,0.6c-0.3,0.1-0.8,0.3-1.4,0.4c-0.4,0.1-0.9,0.2-1.3,0.2l-0.2,0
					C329.4,288.8,329.1,288.9,328.8,288.9z M330,287.8c-0.1,0-0.1,0-0.2,0l-0.4,0c0,0,0,0-0.1,0c0.1,0,0.2,0,0.4,0l0.1,0
					C329.8,287.8,329.9,287.8,330,287.8z"/>
			</g>
		</g>
		<g>
			<g>
				<path class="st25" d="M337.1,279.7c0,0,0.1,0.2,0.1,0.5c0.1,0.3,0.2,0.7,0.4,1.2c0.1,0.2,0.2,0.5,0.4,0.7
					c0.1,0.3,0.3,0.5,0.5,0.8c0.4,0.5,0.8,1,1.2,1.5c0.5,0.5,1,0.9,1.5,1.3c0.5,0.4,1,0.7,1.4,1c0.4,0.3,0.8,0.5,1.1,0.7
					c0.3,0.2,0.4,0.2,0.4,0.2s-0.2,0-0.5-0.1c-0.3,0-0.8-0.1-1.3-0.3c-0.5-0.2-1.1-0.5-1.7-0.8c-0.6-0.4-1.2-0.8-1.7-1.4
					c-0.2-0.3-0.5-0.6-0.7-0.9c-0.2-0.3-0.4-0.6-0.6-0.9c-0.2-0.3-0.3-0.6-0.4-0.9c-0.1-0.3-0.2-0.6-0.2-0.9
					c-0.1-0.3-0.1-0.5-0.1-0.8c0-0.2,0-0.4,0-0.6C337,279.8,337.1,279.7,337.1,279.7z"/>
			</g>
		</g>
		<g>
			<g>
				<path class="st25" d="M336.8,285.4c0,0,0.4,0.4,0.9,0.9c0.5,0.6,1.1,1.4,1.6,2.3c0.5,0.9,0.9,1.8,1.2,2.5
					c0.3,0.7,0.4,1.2,0.4,1.2s-0.4-0.4-0.9-0.9c-0.5-0.6-1.1-1.4-1.6-2.3c-0.5-0.9-0.9-1.8-1.2-2.5
					C336.9,286,336.8,285.4,336.8,285.4z"/>
			</g>
		</g>
		<g>
			<g>
				<path class="st25" d="M379,279.7c0,0-0.1,0.5-0.3,1.3c-0.1,0.4-0.3,0.8-0.5,1.3c-0.2,0.4-0.5,0.9-0.8,1.4
					c-0.6,0.9-1.3,1.7-1.9,2.2c-0.6,0.5-1,0.9-1,0.9s0.2-0.5,0.6-1.2c0.2-0.3,0.4-0.7,0.7-1.2c0.2-0.4,0.5-0.8,0.8-1.3
					c0.3-0.4,0.6-0.8,0.9-1.2c0.1-0.2,0.3-0.4,0.4-0.6c0.1-0.2,0.3-0.4,0.4-0.5C378.6,280.1,379,279.7,379,279.7z"/>
			</g>
		</g>
		<g class="st26">
			<g>
				<path class="st27" d="M349.2,158.3c3.6,3.2,9,5.5,14,4.6c2.2-0.4,6.2-3.4,2-4.3c2.4,0.8,9.1-1.1,4.3-2.5
					c3.2,1.1,6.7-1.1,2.7-3.1c-1.8-0.8-4.1-1.1-5.9-1c-3.8,0.1-10.2,0.4-13.5,2.5c0.6,0.6,1.1,1.1,1.5,1.7c-1.1,0.8-3.1,1.3-4.5,1.7
					L349.2,158.3z"/>
			</g>
		</g>
		<g>
			<path class="st28" d="M334.2,196.6c0,0,0.2,0,0.5-0.1c0.1,0,0.3,0,0.5,0c0.2,0,0.5,0,0.7,0.1c0.3,0.1,0.5,0.2,0.8,0.4
				c0.3,0.2,0.5,0.4,0.8,0.6c0.2,0.2,0.5,0.5,0.7,0.8c0.2,0.3,0.4,0.6,0.5,0.9c0.1,0.3,0.3,0.6,0.4,0.9c0.1,0.3,0.2,0.6,0.3,0.9
				c0.2,0.6,0.3,1.2,0.4,1.7c0.2,1,0.2,1.6,0.2,1.6s-0.4-0.6-0.8-1.5c-0.2-0.5-0.4-1-0.7-1.5c-0.2-0.6-0.5-1.1-0.8-1.7
				c-0.1-0.3-0.3-0.6-0.4-0.8c-0.2-0.3-0.3-0.5-0.5-0.7c-0.2-0.2-0.4-0.4-0.5-0.6c-0.2-0.2-0.4-0.3-0.6-0.4
				c-0.2-0.1-0.4-0.2-0.5-0.3c-0.2-0.1-0.3-0.2-0.5-0.2C334.4,196.6,334.2,196.6,334.2,196.6z"/>
		</g>
		<g>
			<path class="st28" d="M383.7,203c0,0-0.1-0.1-0.2-0.4c-0.1-0.3-0.2-0.7-0.3-1.1c-0.1-1,0-2.3,0.5-3.5c0.2-0.6,0.5-1.2,0.8-1.7
				c0.3-0.5,0.7-1,1-1.3c0.3-0.3,0.7-0.6,0.9-0.7c0.3-0.1,0.4-0.2,0.4-0.2s-0.1,0.1-0.3,0.3c-0.1,0.1-0.2,0.3-0.3,0.4
				c-0.1,0.1-0.2,0.3-0.3,0.5c-0.5,0.8-0.9,1.9-1.3,3c-0.2,0.6-0.4,1.1-0.5,1.7c-0.1,0.5-0.2,1.1-0.3,1.5c0,0.2-0.1,0.4-0.1,0.6
				c0,0.2,0,0.3,0,0.5C383.7,202.9,383.7,203,383.7,203z"/>
		</g>
		<g>
			<g>
				<path class="st11" d="M370.2,211.3c1.4-1.3,2.3-3,2.3-5.2c-0.4,0-0.7,0-1.1,0.1c-0.3,1.5-1.1,2.1-3.2,2.4
					c-1.7,0.3-3.6,0.5-5.3,0.5c-3.6,0-7.9,0.1-9.5-3.2c-0.3,0-1.1-0.1-1.1-0.1v1.2c0.2,1.9,1.2,3.5,2.5,4.6
					C359.7,209.5,365.3,209.3,370.2,211.3z"/>
			</g>
			<g>
				<path class="st10" d="M370.2,211.3c-4.9-2-10.5-1.8-15.3,0.3C358.9,214.8,366.4,214.7,370.2,211.3z"/>
			</g>
			<g>
				<g>
					<path class="st9" d="M363,209.1c1.7,0,3.6-0.2,5.3-0.5c2.1-0.4,2.9-0.9,3.2-2.4c-5.9,0.3-12.1,0.5-17.9-0.2
						C355.1,209.2,359.4,209.1,363,209.1z"/>
				</g>
			</g>
		</g>
		<g>
			<path d="M352,190.9c0,1.3-0.6,2.3-1.4,2.3c-0.7,0-1.4-1-1.4-2.3c0-1.3,0.6-2.3,1.4-2.3C351.4,188.6,352,189.6,352,190.9z"/>
		</g>
		<g>
			<path d="M373.6,190.6c0,1.3-0.6,2.3-1.4,2.3c-0.7,0-1.4-1-1.4-2.3c0-1.3,0.6-2.3,1.4-2.3C373,188.4,373.6,189.4,373.6,190.6z"/>
		</g>
		<g>
			<path class="st29" d="M369.8,229l-4.4-0.5c-0.7,1-1.2,1.3-1.9,1.7c-0.9,0.6-1.9,0.8-3,1.1c-1.1-0.3-2.1-0.5-3-1.1
				c-0.7-0.5-1.2-0.7-1.9-1.7l-4.4,0.5c-0.3,2,0,3.4,1.6,4.8c1.8,1.5,6.6,0.8,7.7-1.7c1.1,2.5,5.9,3.2,7.7,1.7
				C369.8,232.4,370.1,231,369.8,229z"/>
		</g>
		<g>
			<path class="st25" d="M335.8,239.7c0,0,0,0.3,0,0.7c0,0.2,0,0.5,0.1,0.9c0.1,0.3,0.1,0.7,0.2,1.2c0.1,0.9,0.4,1.9,0.7,3.2
				c0.3,1.2,0.6,2.6,0.8,4.2c0.1,1.6-0.1,3.3-0.6,5c-0.5,1.8-1.3,3.4-1.4,5.2c0,0.9,0,1.9,0.2,2.8c0.2,1,0.5,1.9,0.8,2.9
				c0.6,1.9,1.3,3.8,1.9,5.8c0.2,1,0.5,2,0.4,3.2c-0.1,1-0.3,2-0.5,3.1c-0.4,2-0.9,3.9-1.3,5.8c-0.5,1.9-0.9,3.7-1.4,5.4
				c-0.5,1.7-1,3.3-1.4,4.8c-0.2,0.7-0.5,1.4-0.7,2.1c-0.2,0.7-0.5,1.3-0.7,1.9c-0.4,1.2-0.8,2.2-1.2,3c-0.7,1.6-1.1,2.6-1.1,2.6
				s0.3-1,1-2.7c0.3-0.8,0.6-1.9,1-3.1c0.2-0.6,0.4-1.2,0.6-1.9c0.2-0.7,0.4-1.4,0.6-2.1c0.4-1.5,0.8-3.1,1.3-4.8
				c0.4-1.7,0.8-3.5,1.3-5.4c0.4-1.9,0.9-3.8,1.3-5.8c0.2-1,0.4-1.9,0.5-3c0.1-0.9-0.2-1.9-0.4-2.9c-0.5-2-1.2-3.9-1.8-5.8
				c-0.3-1-0.6-2-0.8-2.9c-0.2-1.1-0.2-2-0.2-3c0.1-2,1.1-3.8,1.6-5.4c0.6-1.7,0.8-3.2,0.8-4.8c-0.1-1.5-0.3-2.9-0.6-4.1
				c-0.2-1.2-0.4-2.3-0.5-3.2c0-0.4-0.1-0.8-0.1-1.2c0-0.3,0-0.6,0-0.9C335.8,239.9,335.8,239.7,335.8,239.7z"/>
		</g>
		<g>
			<path class="st25" d="M333.8,249.1c0,0,0.2-0.1,0.4-0.1c0.2,0,0.5,0.1,0.7,0.2c0.2,0.1,0.4,0.4,0.5,0.6c0.1,0.2,0.1,0.4,0.1,0.4
				s-0.2,0.1-0.4,0.1c-0.2,0-0.5-0.1-0.7-0.2c-0.2-0.2-0.4-0.4-0.5-0.6C333.8,249.3,333.8,249.1,333.8,249.1z"/>
		</g>
		<g>
			<path class="st25" d="M379,232.3c0,0-0.1,1.2-0.4,3.2c-0.2,1-0.4,2.2-0.6,3.7c-0.2,1.4-0.5,3-0.7,4.7c-0.1,0.9-0.2,1.8-0.1,2.7
				c0,0.9,0.3,1.8,0.6,2.7c0.7,1.9,1.8,3.7,2.5,5.9c0.4,1.1,0.5,2.3,0.4,3.5c0,1.2-0.2,2.3-0.4,3.5c-0.5,2.3-1.3,4.6-1.8,6.8
				c-0.2,1.1-0.2,2.2-0.1,3.4c0.1,1.1,0.2,2.3,0.4,3.4c0.4,2.3,0.8,4.5,1.3,6.6c1,4.3,2,8.3,3,11.7c0.9,3.4,1.7,6.2,2.2,8.2
				c0.5,2,0.7,3.1,0.7,3.1s-0.3-1.1-0.9-3.1c-0.6-2-1.5-4.8-2.5-8.1c-1-3.4-2.2-7.3-3.2-11.6c-0.5-2.1-1-4.4-1.4-6.7
				c-0.2-1.1-0.3-2.3-0.4-3.5c-0.1-1.2-0.1-2.4,0.1-3.6c0.6-2.4,1.3-4.5,1.8-6.8c0.5-2.2,0.7-4.5,0.1-6.5c-0.6-2-1.7-3.9-2.4-5.9
				c-0.3-1-0.6-2-0.5-3c0-1,0.1-1.9,0.3-2.8c0.5-3.5,1.2-6.4,1.7-8.4c0.2-1,0.4-1.8,0.5-2.3C378.9,232.6,379,232.3,379,232.3z"/>
		</g>
		<g>
			<path class="st25" d="M390.7,277c0,0,0.1-0.3,0.4-0.6c0.3-0.3,0.7-0.7,1.3-0.9c0.3-0.1,0.5-0.2,0.8-0.2c0.3-0.1,0.5,0,0.7,0
				c0.2,0,0.4,0.1,0.5,0.1c0.1,0,0.2,0.1,0.2,0.1s-0.3,0.2-0.6,0.3c-0.2,0.1-0.4,0.2-0.6,0.3c-0.2,0.1-0.4,0.2-0.7,0.3
				c-0.2,0.1-0.5,0.2-0.7,0.3c-0.2,0.1-0.5,0.2-0.6,0.2C391,276.9,390.7,277,390.7,277z"/>
		</g>
		<g>
			<path class="st25" d="M388.7,274.8c0,0,0-0.3,0.1-0.8c0-0.2,0.1-0.5,0.2-0.8c0.1-0.3,0.3-0.6,0.5-0.8c0.2-0.2,0.5-0.5,0.7-0.7
				c0.2-0.2,0.5-0.3,0.7-0.4c0.5-0.2,0.8-0.2,0.8-0.2s-0.2,0.3-0.4,0.7c-0.1,0.1-0.1,0.2-0.2,0.3c-0.1,0.1-0.1,0.2-0.2,0.3
				c-0.1,0.2-0.3,0.4-0.5,0.6c-0.2,0.2-0.3,0.5-0.5,0.6c-0.1,0.1-0.2,0.2-0.3,0.3c-0.1,0.1-0.2,0.2-0.2,0.3
				C389,274.6,388.7,274.8,388.7,274.8z"/>
		</g>
		<g>
			<path class="st25" d="M359.5,235c0,0,0,0.3,0.1,0.8c0.1,0.5,0.1,1.3,0.1,2.3c0,1-0.1,2.2-0.3,3.6c-0.2,1.4-0.4,2.9-0.7,4.6
				c-0.2,1.7-0.5,3.5-0.6,5.5c-0.1,2-0.3,4-0.3,6.1c-0.1,2.1-0.1,4.3-0.1,6.6c0.1,2.2,0.1,4.5,0.2,6.8c0.1,2.3,0.4,4.5,0.8,6.7
				c0.4,2.3,0,4.6-0.5,6.7c-0.2,1-0.5,2.1-0.7,3.1c-0.1,0.5-0.2,1-0.3,1.5c-0.1,0.5-0.1,1-0.2,1.5c-0.2,1.9-0.3,3.8-0.4,5.5
				c-0.1,1.7-0.1,3.3-0.1,4.7c0,1.4,0,2.6,0.1,3.6c0,0.5,0,0.9,0.1,1.3c0,0.4,0.1,0.7,0.1,1c0.1,0.5,0.1,0.8,0.1,0.8s0-0.3-0.1-0.8
				c0-0.3-0.1-0.6-0.2-1c0-0.4-0.1-0.8-0.1-1.3c-0.1-1-0.2-2.2-0.2-3.6c0-1.4-0.1-3-0.1-4.7c0-1.7,0.1-3.6,0.2-5.6
				c0-0.5,0.1-1,0.1-1.5c0.1-0.5,0.2-1,0.2-1.5c0.2-1,0.4-2.1,0.6-3.1c0.5-2.1,0.8-4.2,0.5-6.4c-0.4-2.2-0.8-4.5-0.9-6.8
				c-0.1-2.3-0.1-4.6-0.2-6.8c0-2.3,0-4.5,0.2-6.6c0-2.1,0.3-4.2,0.5-6.2c0.2-2,0.5-3.8,0.8-5.5c0.3-1.7,0.6-3.2,0.9-4.6
				c0.2-1.4,0.4-2.6,0.4-3.6c0-1,0.1-1.8,0-2.3C359.5,235.3,359.5,235,359.5,235z"/>
		</g>
		<g>
			<path class="st25" d="M349.9,268.9c0,0,0.2-0.1,0.7-0.2c0.4-0.1,1-0.3,1.7-0.5c0.7-0.2,1.6-0.4,2.5-0.5c0.9-0.2,1.9-0.3,2.9-0.4
				c1,0,2-0.1,2.9-0.1c0.5,0,0.9,0,1.3,0c0.4,0,0.8,0.1,1.2,0.1c0.7,0.1,1.4,0.2,1.8,0.3c0.4,0.1,0.7,0.1,0.7,0.1s-0.3,0-0.7,0.1
				c-0.4,0-1.1,0.1-1.8,0.1c-0.4,0-0.8,0-1.2,0c-0.4,0-0.9,0.1-1.3,0.1c-0.9,0.1-1.9,0.1-2.9,0.2c-1,0.1-1.9,0.2-2.9,0.3
				c-0.5,0.1-0.9,0.1-1.3,0.1c-0.4,0.1-0.8,0.1-1.2,0.1c-0.7,0.1-1.4,0.1-1.8,0.1C350.1,268.9,349.9,268.9,349.9,268.9z"/>
		</g>
		<g>
			<g>
				<g>
					<path class="st30" d="M361.8,265.2l0.4,3.6l0.4,3.5c0,0-0.1,0-0.1,0l0.1,1.2c0,0,1.5,2.8,7.7,2.4c5.9-0.4,7.4-2.8,7.5-3
						c0-0.3,0.3-0.9,0.8-7.1c0-0.4,0.1-0.8,0.1-1.2C373.6,265.9,367.6,266.3,361.8,265.2z"/>
				</g>
				<g>
					<path class="st30" d="M379.5,254.7c0.2-2.4,0.3-8.7,0.6-11.7l-20.5,2.3l0.7,7l0.4,2.9C367.1,256.7,374,256.2,379.5,254.7z"/>
				</g>
				<g>
					<path class="st31" d="M379.5,254.7c-5.6,1.5-12.4,2-18.9,0.5l0.4,3l0.8,6.9c5.8,1.1,11.8,0.7,16.9-0.5c0.1-1.3,0.2-2.8,0.4-4.6
						C379.2,258.5,379.3,256.7,379.5,254.7z"/>
				</g>
			</g>
			<g>
				<path class="st32" d="M382,243c0-1.1-5.5-1.8-12.1-1.5c-6.7,0.3-12,1.4-12,2.5l0.4,1.9c0,1.1,5.3,1.8,11.8,1.5
					c6.5-0.3,11.7-1.4,11.6-2.5L382,243z"/>
			</g>
			<g>
				<path class="st33" d="M357.9,244.1c0,1.1,5.5,2.1,12.2,1.8c6.7-0.3,12-1.7,11.9-2.9c0-1.1-5.5-1.8-12.1-1.5
					C363.2,241.9,357.8,243,357.9,244.1z"/>
			</g>
			<g>
				<path class="st34" d="M380.1,243c0,1.1-4.5,2.1-10.1,2.4c-5.6,0.2-10.2-0.4-10.2-1.5l0.6-3.8c0-1.1,4.1-2.1,9.3-2.3
					c5.2-0.2,9.4,0.4,9.4,1.5L380.1,243z"/>
			</g>
			<g>
				<path class="st32" d="M360.4,240.1c0,1.1,4.3,1.7,9.4,1.5c5.2-0.2,9.3-1.3,9.3-2.3c0-1.1-4.3-1.7-9.4-1.5
					C364.5,238,360.4,239,360.4,240.1z"/>
			</g>
			<g>
				<g>
					<path class="st33" d="M361.9,240.3c-0.2-0.1-0.3-0.2-0.4-0.3c0-0.7,3.6-1.4,8.2-1.6c4.6-0.2,8.3,0.2,8.3,0.9
						c0,0.1-0.1,0.2-0.3,0.4c-1-0.5-4.2-0.7-8-0.5C366,239.2,362.8,239.7,361.9,240.3z"/>
				</g>
				<g>
					<path class="st34" d="M361.9,240.3c1-0.6,4.1-1.1,7.9-1.2c3.7-0.2,6.9,0.1,8,0.5c-1,0.6-4.1,1.1-7.9,1.2
						C366.1,241,362.9,240.8,361.9,240.3z"/>
				</g>
			</g>
		</g>
		<g>
			<g>
				<path class="st18" d="M383.7,272.3c-0.8-7.8,2.2-19.2-5.7-23.8c-2.2-1.3-7.1-3.1-9.6-1.7c-4,2.4,5,3.8,6.6,4.7
					c1.2,0.7,2.1,1.9,3.1,2.9c-2.7,0.8-5.8,0.3-8.5,0.6c-1.1,0.1-3.4,0.2-4.2,1.1c-1.1,1.5,0.3,2.7,1.9,2.6c-3.1,3.2,5,4,7,4.2
					c-1.5,0.3-8.1,0.9-6.9,3.1c1,1.7,7.1,1.5,8.7,1.4c0.9,3,0.3,6.3,1.9,9.1c1,2,2.2,1.4,3.9,2.4c1.5,0.9,2.9,3.6,4.1,5
					c2.8,3.3,6.2,9,10.4,10.8c5.5,2.3,6.5-2.8,5.2-7.1c-1.7-6.3-5.9-6.5-11.8-10.9L383.7,272.3z"/>
			</g>
			<g>
				<path class="st28" d="M367.3,258.6c0,0,0.6-0.2,1.5-0.3c0.9-0.1,2.1-0.2,3.3-0.2c1.2,0,2.4,0.2,3.2,0.3c0.9,0.2,1.5,0.4,1.5,0.4
					s-0.6,0.2-1.5,0.3c-0.9,0.1-2.1,0.2-3.3,0.2c-1.2,0-2.4-0.2-3.2-0.3C367.9,258.8,367.3,258.6,367.3,258.6z"/>
			</g>
			<g>
				<path class="st28" d="M378.4,264.1c0,0,0-0.7,0-1.6c0-0.2,0-0.5,0.1-0.8c0-0.3,0-0.6,0.1-0.9c0-0.6,0.1-1.2,0.2-1.8
					c0.1-1.3,0.3-2.5,0.5-3.5c0.2-0.9,0.4-1.6,0.4-1.6s0.2,0.7,0.2,1.6c0.1,1,0.1,2.3,0,3.5c-0.1,0.6-0.2,1.3-0.3,1.9
					c-0.1,0.6-0.3,1.1-0.5,1.6C378.8,263.5,378.4,264.1,378.4,264.1z"/>
			</g>
		</g>
		<g>
			<path class="st28" d="M361.3,185.2c0,0,0.1,0.4,0.1,1c0,0.6,0.2,1.5,0.3,2.6c0.1,0.5,0.1,1.1,0.1,1.8c0,0.2,0,0.3,0,0.5
				c0,0.1,0,0.3,0,0.4c0,0.2,0,0.3,0,0.5l0.1,0.4c0.1,0.6,0.4,1.1,0.8,1.6c0.4,0.5,1,0.9,1.5,1.4c0.5,0.4,1.1,0.9,1.6,1.5
				c0.5,0.6,0.9,1.3,0.9,2.2c0,0.4-0.2,0.8-0.4,1.2c-0.2,0.2-0.6,0.5-0.8,0.7c-0.6,0.3-1.2,0.5-1.8,0.5c-1.1,0.1-2.1,0-2.6-0.4
				c-0.6-0.4-0.6-0.8-0.6-0.8c0,0,0.1,0.1,0.2,0.2c0.1,0.1,0.3,0.3,0.6,0.4c0.3,0.1,0.6,0.2,1.1,0.2c0.4,0,0.9-0.1,1.4-0.2
				c0.5-0.1,1-0.3,1.5-0.6c0.1-0.1,0.2-0.2,0.3-0.2c0.1,0,0.2-0.2,0.3-0.3c0.1-0.2,0.2-0.4,0.2-0.7c0-0.5-0.4-1-0.8-1.5
				c-0.4-0.5-0.9-0.9-1.5-1.4c-0.5-0.5-1.1-0.9-1.6-1.5c-0.5-0.6-0.9-1.3-1-2.1c0-0.2,0-0.4-0.1-0.6c0-0.2,0-0.3,0-0.5
				c0-0.3,0-0.6,0-1c0-0.6,0-1.2,0-1.7C361.2,186.7,361.3,185.2,361.3,185.2z"/>
		</g>
	</g>
	<g>
		<g>
			<g>
				<path class="st6" d="M134.7,130.1c3.2-0.1,6.5,0.5,9.7,1.2c7.4,1.6,14.2,5.3,18.8,11.4c4.1,5.4,3.8,11.1,4.4,17.5
					c0.8,9.1,1.9,18,0.7,27.1c-1,7.4-0.3,15,2.2,22.1c1.5,4.2,3.8,9.9,2,14.3c-0.3-1.5-0.4-3.3-1.2-4.7c0.1,7.3-0.7,12.6-4.9,18.5
					c0-0.8-0.2-1.7-0.1-2.5c-0.5,2.9-4.4,3.7-6.8,4.5c-6.9,2.3-13.8,1.6-20.9,1.9c-8,0.3-18.5,1-25.4-4.1c-4.5-3.3-4.5-7.4-4.5-12.6
					c-0.1-8.6,0.1-17,0.9-25.6c1.5-17.2,1.5-34.3,5.5-51.1c0.6-2.5,1.7-4.9,3-7.1c1.3-2.1,2.9-4.5,4.7-6.2
					C126.4,131.4,130.5,130.2,134.7,130.1z"/>
			</g>
		</g>
		<g>
			<g>
				<g>
					<path class="st35" d="M154.3,242.8c2.5,21.2,5,32.8,6.6,53.8c0.3,3.8,1.2,11.1,1.3,14.9c-0.1,3.3-0.5,3.6-2.3,6.2
						c-2.7,3.6-2.5,8.9-2.9,13.3c2.8,4.2,3.6-6.7,6.5-7.7c1.9,3.4,0.5,10.1-0.2,13.7c-0.3,1.4-1.5,4.6-0.5,5.8
						c1.8,2.5,3.1-2.1,4.3-3.3c3.3-2.8,8.1-3,9.7-7.6c1.7-4.8,0-9.9-3.1-13.4c-1.2-1.4-3.2-3.7-4.2-4.9c-1.8-2.3-4.9-69.2-7.1-73.6
						L154.3,242.8z"/>
				</g>
			</g>
			<g>
				<g>
					<path class="st36" d="M165.8,341c0,0,0.1-0.8,0.4-2.1c0.3-1.2,0.8-2.8,1.4-4.4c0.6-1.6,1.3-3.1,1.8-4.2c0.6-1.1,1-1.8,1-1.8
						s-0.1,0.8-0.4,2c-0.3,1.2-0.8,2.8-1.4,4.3c-0.6,1.6-1.2,3.1-1.8,4.2C166.3,340.3,165.8,341,165.8,341z"/>
				</g>
			</g>
			<g>
				<g>
					<path class="st36" d="M172.4,329.6c0,0,0.2,0.4,0.4,1.1c0.1,0.3,0.1,0.8,0.1,1.2c0,0.4,0,0.9-0.1,1.4c-0.1,0.2-0.1,0.5-0.2,0.7
						c0,0.2-0.1,0.4-0.2,0.6c-0.1,0.4-0.4,0.8-0.6,1.1c-0.2,0.3-0.4,0.5-0.6,0.7c-0.1,0.1-0.2,0.2-0.2,0.2s0-0.1,0-0.3
						c0-0.2,0.1-0.5,0.2-0.8c0-0.2,0.1-0.3,0.1-0.5c0.1-0.2,0.1-0.4,0.1-0.6c0.1-0.4,0.1-0.8,0.2-1.3c0.1-0.4,0.1-0.9,0.2-1.3
						c0.1-0.4,0.1-0.8,0.2-1.1C172.3,330.1,172.4,329.6,172.4,329.6z"/>
				</g>
			</g>
			<g>
				<g>
					<path class="st36" d="M174.9,328.2c0,0,0.3,0.4,0.5,1c0.1,0.3,0.3,0.6,0.3,1.1c0,0.4,0.1,0.9,0.1,1.3c-0.1,0.4-0.2,0.9-0.3,1.3
						c-0.1,0.4-0.3,0.8-0.4,1c-0.3,0.6-0.6,0.9-0.6,0.9s0-0.5,0-1.1c0-0.2,0-0.3,0.1-0.5c0-0.2,0-0.4,0-0.5c0-0.4,0.1-0.8,0.1-1.2
						c0-0.4,0-0.8,0.1-1.1c0-0.2,0.1-0.4,0-0.5c0-0.2,0-0.4,0-0.5C174.8,328.6,174.9,328.2,174.9,328.2z"/>
				</g>
			</g>
		</g>
		<g>
			<g>
				<g>
					<g>
						<path class="st2" d="M120.8,484.7c-1.5,1.6-3.3,3.1-5.1,4.5c-1.2,1.1-2.8,1.9-4.5,1.3c-1-0.3-1.6-1-2.1-1.8
							c-4.7,3.4-8.5,6.6-6.5,7.1c4.8,2.2,12.5-1.4,16.1-4.3c1.2-1,5.2-4.5,6.7-4.3c0,0,1.3,3.8,1.6,5.1c0.1,0.4,0.6,0.2,1.2,0.2
							c0.6,0,0.7-1.8,0.7-2.3c0.1-0.8,0.1-1.5,0.2-2.3c0.1-1.3,0-2.7,0.2-3.9c0.4-2.1-0.4-4-0.7-6c-1.6,1.4-3.4,2.4-5.2,3.7
							C122.3,482.7,121.6,483.7,120.8,484.7z"/>
					</g>
				</g>
			</g>
			<g>
				<g>
					<g>
						<path class="st35" d="M127.9,460.9l-5.7,2.4c-0.2,5.3,0.8,9-1.8,13.7c-2.1,3.9-7.2,8.2-11.3,11.7c0.5,0.8,1.1,1.4,2.1,1.8
							c2,0.6,3.6-0.6,5.1-1.8c2.3-1.8,4.6-3.7,6.9-5.4c1.9-1.5,4.1-3,5.3-5.2c-0.1-0.4-0.1-0.8-0.2-1.2
							C128.3,475.7,128.2,465.1,127.9,460.9z"/>
					</g>
				</g>
			</g>
		</g>
		<g>
			<g>
				<g>
					<g>
						<path class="st2" d="M150.1,484.7c1.5,1.6,3.3,3.1,5.1,4.5c1.2,1.1,2.8,1.9,4.5,1.3c1-0.3,1.6-1,2.1-1.8
							c4.7,3.4,8.5,6.6,6.5,7.1c-4.8,2.2-12.5-1.4-16.1-4.3c-1.2-1-5.2-4.5-6.7-4.3c0,0-1.3,3.8-1.6,5.1c-0.1,0.4-0.6,0.2-1.2,0.2
							c-0.6,0-0.7-1.8-0.7-2.3c-0.1-0.8-0.1-1.5-0.2-2.3c-0.1-1.3,0-2.7-0.2-3.9c-0.4-2.1,0.4-4,0.7-6c1.6,1.4,3.4,2.4,5.2,3.7
							C148.6,482.7,149.3,483.7,150.1,484.7z"/>
					</g>
				</g>
			</g>
			<g>
				<g>
					<g>
						<path class="st35" d="M143,460.9l5.7,2.4c0.2,5.3-0.8,9,1.8,13.7c2.1,3.9,7.2,8.2,11.3,11.7c-0.5,0.8-1.1,1.4-2.1,1.8
							c-2,0.6-3.6-0.6-5.1-1.8c-2.3-1.8-4.6-3.7-6.9-5.4c-1.9-1.5-4.2-3-5.3-5.2c0.1-0.4,0.1-0.8,0.2-1.2
							C142.6,475.7,142.8,465.1,143,460.9z"/>
					</g>
				</g>
			</g>
		</g>
		<g>
			<g>
				<g>
					<path class="st2" d="M160.2,284.9c4.4,11.6,11.1,28.9,10.1,40.4c-1.4,15.8-7.6,40.8-8.8,51c-0.8,6.5-0.8,7.7-1.4,14.4
						c-0.2,3.1-0.4,14.6-0.6,17.7c-0.2,3.5-1.2,9.2-1.5,12.7c-2.2,11.3-5.9,23.1-6.5,34.5c-0.1,1.4,0.5,1.9,0.7,3.1
						c0.1,0.5,0.3,0.9,0.2,1.5c-0.2,0.7-0.9,0.8-1.1,1.3c-0.4,1.2,0.1,1.6,0.2,2.8c0.7,8.8-9.8,8.3-12.7,5.7l-0.1-91l2.5-46
						c0,0-1.5-2.1-5.2,0.3c-2.3,1.5-2.2,71.7-2.2,71.7c-0.4,14-0.8,28-1.3,42.1c-0.1,3.7-0.2,7.3-0.3,11c0,1.1-0.7,9.8-0.8,10.8
						c-0.2,3.3-2.2,2-5.3,2.8c-1.8,0.5-5.9-0.5-7.3-2c-0.8-0.9-1.5-5.2-1.5-6.4c0-1,0.7-2.6,0.6-3.3c-0.1-1.2-1.3-2-1.3-3.5
						c0-1.3,0.3-4,0.8-5.2c0,0-6.9-36.8-2.5-54.5c0,0,1.3-5.6-3.5-22.1c-4.8-16.4-11.4-65.4,1.5-84l2.3-3.7
						c9.4,0.3,18.9,1.2,28.3,0.1C149.1,286.4,154.6,285.6,160.2,284.9z"/>
				</g>
			</g>
		</g>
		<g>
			<g>
				<g>
					<path class="st3" d="M123.5,320c0,0-0.1,0.8-0.1,2.1c-0.1,1.3-0.2,3.2-0.3,5.5c-0.1,2.3-0.3,4.9-0.4,7.8
						c-0.1,2.9-0.2,5.9-0.3,8.9c0,3,0,6.1,0.1,8.9c0,2.9,0.1,5.5,0.2,7.8c0,2.3,0.1,4.2,0.2,5.5c0.1,1.3,0.1,2.1,0.1,2.1
						s0-0.8,0.1-2.1c0-1.3,0.1-3.2,0.2-5.5c0-2.3,0.1-4.9,0.2-7.8c0-2.9,0-5.9,0.1-8.9c0.1-3,0.1-6.1,0.2-8.9c0.1-2.9,0-5.5,0.1-7.8
						c0-2.3,0-4.2,0-5.5C123.5,320.8,123.5,320,123.5,320z"/>
				</g>
			</g>
		</g>
		<g>
			<g>
				<g>
					<path class="st3" d="M123.9,392.9c0,0-0.1,0.3-0.3,0.7c-0.2,0.5-0.4,1.2-0.6,2.1c-0.2,0.9-0.4,2.1-0.5,3.4
						c-0.1,1.3-0.1,2.9-0.1,4.5c0,1.6,0.1,3.4,0.1,5.3c0,1.9,0,3.9,0,5.9c0,4.1,0.1,8.5,0.1,12.9c0.1,4.4,0.1,8.8,0.3,12.9
						c0.1,4.1,0.3,7.9,0.4,11.2c0.1,3.3,0.3,6,0.3,7.9c0.1,1.9,0.2,3,0.2,3s0-1.1,0-3c0-1.9,0.1-4.7,0-7.9c0-3.3,0-7.1-0.1-11.2
						c0-4.1-0.1-8.5-0.1-12.9c-0.1-4.4-0.2-8.8-0.2-12.9c0-2.1-0.1-4-0.1-5.9c0-1.9-0.2-3.7-0.2-5.3c-0.1-1.6-0.1-3.1-0.1-4.5
						c0.1-1.3,0.1-2.5,0.3-3.4c0.1-0.9,0.3-1.7,0.5-2.2C123.8,393.1,123.9,392.9,123.9,392.9z"/>
				</g>
			</g>
		</g>
		<g>
			<g>
				<g>
					<path class="st3" d="M157,323.4c0,0,0,0.9,0,2.5c0,0.4,0,0.8,0,1.3c0,0.5-0.1,1-0.1,1.6c-0.1,1.1-0.2,2.4-0.3,3.7
						c-0.1,1.4-0.3,2.9-0.4,4.4c-0.1,0.8-0.1,1.6-0.2,2.4c-0.1,0.8-0.1,1.7-0.1,2.5c-0.1,3.4-0.3,7.1-0.4,10.8
						c0,1.8-0.1,3.7-0.1,5.5c0,0.9,0,1.8-0.1,2.7c0,0.9-0.1,1.8-0.1,2.6c-0.1,1.7-0.1,3.4-0.2,5c-0.1,1.6-0.1,3.1-0.2,4.4
						c-0.2,2.7-0.4,5-0.5,6.6c-0.1,1.6-0.2,2.5-0.2,2.5s0.1-0.9,0.4-2.5c0.2-1.6,0.5-3.9,0.9-6.6c0.2-1.4,0.3-2.9,0.4-4.4
						c0.1-1.6,0.2-3.2,0.3-5c0-0.9,0.1-1.7,0.2-2.6c0-0.9,0.1-1.8,0.1-2.7c0.1-1.8,0.1-3.6,0.2-5.5c0.1-3.7,0.2-7.4,0.3-10.8
						c0-0.9,0-1.7,0.1-2.5c0-0.8,0.1-1.6,0.1-2.4c0.1-1.6,0.2-3.1,0.3-4.4c0.1-1.4,0.1-2.7,0.1-3.8c0.1-1.1,0-2.1-0.1-2.9
						C157.1,324.4,157,323.4,157,323.4z"/>
				</g>
			</g>
		</g>
		<g>
			<g>
				<g>
					<path class="st3" d="M150.5,404.1c0,0-0.1,0.7-0.2,2c-0.1,1.3-0.4,3.1-0.6,5.2c-0.2,2.2-0.5,4.7-0.7,7.4
						c-0.2,2.7-0.5,5.6-0.7,8.5c-0.2,2.9-0.4,5.8-0.6,8.5c-0.2,2.7-0.3,5.3-0.4,7.4c-0.1,2.2-0.2,4-0.2,5.3c0,1.3-0.1,2-0.1,2
						s0.1-0.7,0.2-2c0.1-1.3,0.4-3.1,0.6-5.2c0.2-2.2,0.5-4.7,0.7-7.4c0.2-2.7,0.5-5.6,0.7-8.5c0.2-2.9,0.4-5.8,0.6-8.5
						c0.2-2.7,0.3-5.3,0.4-7.4c0.1-2.2,0.2-4,0.2-5.3C150.5,404.8,150.5,404.1,150.5,404.1z"/>
				</g>
			</g>
		</g>
		<g>
			<g>
				<g>
					<path class="st37" d="M137,289.4c0,1,0.8,1.8,1.8,1.8c1,0,1.8-0.8,1.8-1.8s-0.8-1.8-1.8-1.8C137.8,287.6,137,288.4,137,289.4z"
						/>
				</g>
			</g>
		</g>
		<g>
			<path class="st3" d="M114.5,291.9c0,0,0.7,0,2,0.1c1.3,0.1,3.1,0.2,5.3,0.3c1.1,0.1,2.3,0.1,3.6,0.2c1.3,0.1,2.6,0.1,4,0.2
				c2.8,0.1,5.7,0.2,8.6,0.1c1.5,0,2.9,0,4.4-0.1c1.4-0.1,2.9-0.2,4.2-0.3c1.4-0.2,2.7-0.3,3.9-0.5c1.2-0.2,2.4-0.4,3.5-0.6
				c1.1-0.2,2.1-0.4,2.9-0.7c0.9-0.2,1.6-0.4,2.2-0.6c1.2-0.4,1.9-0.6,1.9-0.6s-0.7,0.3-1.9,0.8c-0.6,0.3-1.3,0.5-2.2,0.8
				c-0.4,0.1-0.9,0.3-1.4,0.5c-0.5,0.1-1,0.3-1.5,0.4c-1.1,0.3-2.3,0.5-3.5,0.8c-1.2,0.2-2.6,0.5-4,0.6c-1.4,0.1-2.8,0.3-4.3,0.4
				c-1.5,0.1-2.9,0.1-4.4,0.2c-3,0-5.9-0.1-8.7-0.3c-2.8-0.2-5.3-0.5-7.5-0.7c-2.2-0.2-4-0.5-5.3-0.7
				C115.2,292,114.5,291.9,114.5,291.9z"/>
		</g>
		<g>
			<path class="st3" d="M136.7,292.9c0,0,0.1,0.6,0.3,1.5c0.1,0.5,0.2,1.1,0.3,1.8c0.1,0.7,0.3,1.5,0.3,2.3c0.1,0.9,0.2,1.8,0.3,2.8
				c0.1,1,0.2,2,0.2,3.1c0.1,1.1,0.1,2.2,0.1,3.3c0,1.1,0,2.3,0,3.4c0,2.3-0.1,4.6-0.2,6.7c-0.1,2.2-0.2,4.2-0.3,5.9
				c-0.1,1.7-0.2,3.1-0.2,4.2c-0.1,1-0.1,1.6-0.1,1.6s0-0.6-0.1-1.6c0-1-0.1-2.4-0.1-4.2c0-1.7-0.1-3.7,0-5.9c0-2.1,0-4.4,0-6.7
				c0-2.3,0-4.6,0-6.7c0-1.1,0-2.1-0.1-3.1c0-1-0.1-1.9-0.1-2.8c0-0.9-0.1-1.6-0.1-2.3c-0.1-0.7-0.1-1.3-0.2-1.8
				C136.7,293.5,136.7,292.9,136.7,292.9z"/>
		</g>
		<g>
			<path class="st3" d="M135.6,333.2c0,0,0.2-0.1,0.4-0.3c0.3-0.2,0.7-0.5,1.2-0.7c0.5-0.3,1.1-0.6,1.8-0.8c0.3-0.1,0.7-0.3,1.1-0.3
				c0.4-0.1,0.7-0.2,1.1-0.3c0.7-0.2,1.5-0.3,2.2-0.4c0.7-0.1,1.4-0.2,1.9-0.2c1.1-0.1,1.9-0.1,1.9-0.1s-0.7,0.3-1.8,0.7
				c-1.1,0.3-2.6,0.7-4,1c-0.7,0.2-1.5,0.3-2.1,0.5c-0.3,0.1-0.7,0.1-1,0.2c-0.3,0.1-0.6,0.2-0.9,0.2c-0.5,0.1-1,0.3-1.3,0.4
				C135.8,333.1,135.6,333.2,135.6,333.2z"/>
		</g>
		<g>
			<path class="st3" d="M142.5,293.8c0,0,0.1,0.4,0.2,1.2c0.1,0.8,0.3,1.9,0.5,3.2c0.1,0.7,0.1,1.4,0.2,2.2c0.1,0.8,0.2,1.6,0.2,2.4
				c0,1.7,0.1,3.5,0,5.2c0,0.9-0.1,1.8-0.1,2.7c0,0.2,0,0.4,0,0.7l-0.1,0.6c0,0.4-0.1,0.8-0.2,1.3c-0.1,0.8-0.3,1.6-0.5,2.4
				c-0.1,0.4-0.3,0.7-0.4,1.1c-0.1,0.3-0.3,0.7-0.5,1c-0.1,0.3-0.3,0.6-0.5,0.8c-0.2,0.2-0.3,0.5-0.5,0.7c-0.4,0.4-0.7,0.7-1,1
				c-0.7,0.4-1,0.7-1,0.7s0.3-0.3,0.9-0.8c0.3-0.3,0.5-0.7,0.9-1.1c0.2-0.2,0.3-0.5,0.4-0.7c0.1-0.3,0.3-0.5,0.4-0.8
				c0.1-0.3,0.3-0.6,0.4-0.9c0.1-0.3,0.2-0.7,0.3-1c0.1-0.7,0.3-1.5,0.4-2.3c0.1-0.8,0.1-1.7,0.2-2.5c0-0.9,0-1.8,0.1-2.6
				c0-0.9,0.1-1.8,0-2.6c0-0.9,0-1.7,0-2.6c0-1.7,0-3.2,0-4.5C142.5,295.6,142.5,293.8,142.5,293.8z"/>
		</g>
		<g>
			<path class="st3" d="M119.8,293.1c0,0,0,0.3,0,0.9c0,0.3,0,0.6-0.1,1.1c0,0.4-0.1,0.9-0.2,1.4c-0.1,0.5-0.3,1-0.5,1.6
				c-0.2,0.6-0.4,1.1-0.7,1.7c-0.3,0.6-0.6,1.2-1,1.7c-0.4,0.6-0.8,1.1-1.2,1.7c-0.5,0.5-0.9,1-1.4,1.5c-0.5,0.5-1,0.9-1.4,1.3
				c-0.5,0.4-1,0.8-1.5,1.1c-0.5,0.3-0.9,0.7-1.4,0.9c-0.9,0.5-1.6,0.9-2.1,1.2c-0.5,0.3-0.8,0.4-0.8,0.4s0.3-0.2,0.7-0.6
				c0.5-0.3,1.1-0.9,1.9-1.5c0.4-0.3,0.8-0.7,1.2-1c0.4-0.4,0.9-0.8,1.3-1.2c0.4-0.4,0.9-0.9,1.3-1.4c0.5-0.5,0.9-1,1.3-1.5
				c0.4-0.5,0.8-1,1.2-1.6c0.4-0.5,0.7-1.1,1-1.6c0.3-0.5,0.6-1.1,0.8-1.6c0.2-0.5,0.4-1,0.6-1.5c0.2-0.5,0.3-0.9,0.4-1.3
				c0.1-0.4,0.2-0.7,0.2-1C119.7,293.5,119.8,293.1,119.8,293.1z"/>
		</g>
		<g>
			<path class="st3" d="M155.1,292.5c0,0,0.1,0.3,0.2,0.9c0,0.3,0.1,0.7,0.2,1c0.1,0.4,0.2,0.8,0.3,1.3c0.1,0.5,0.3,1,0.5,1.5
				c0.2,0.5,0.5,1.1,0.7,1.7c0.5,1.1,1.1,2.3,1.9,3.4c0.4,0.6,0.7,1.1,1.1,1.7c0.4,0.5,0.8,1.1,1.1,1.6c0.8,1,1.5,1.9,2.2,2.7
				c0.7,0.8,1.2,1.4,1.6,1.9c0.4,0.4,0.6,0.7,0.6,0.7s-0.3-0.2-0.7-0.6c-0.5-0.4-1.1-0.9-1.9-1.6c-0.8-0.7-1.6-1.6-2.4-2.5
				c-0.4-0.5-0.8-1-1.2-1.6c-0.4-0.5-0.8-1.1-1.2-1.7c-0.3-0.6-0.7-1.2-1-1.8c-0.3-0.6-0.6-1.2-0.8-1.8c-0.2-0.6-0.4-1.2-0.6-1.8
				c-0.2-0.6-0.3-1.1-0.4-1.6c-0.1-0.5-0.1-1-0.2-1.4c0-0.4-0.1-0.8,0-1.1C155.1,292.9,155.1,292.5,155.1,292.5z"/>
		</g>
		<g>
			<path class="st3" d="M121.2,467.6c0.3,0.1,0.6,0.2,0.9,0.3l0.9,0.3c0.6,0.1,1.2,0.2,1.8,0.3c0.6,0.1,1.2,0.1,1.9,0.1
				c0.6,0,1.3,0,1.9,0l-0.2,0.9c-0.5-0.2-1.1-0.5-1.6-0.7c-0.6-0.2-1.1-0.4-1.7-0.6l-0.8-0.4c-0.3-0.1-0.5-0.3-0.8-0.4l-0.8-0.5
				c-0.2-0.2-0.5-0.4-0.7-0.6l-0.4-0.4l0.5-0.2l0.6-0.3c0.2-0.1,0.4-0.2,0.6-0.3c0.4-0.1,0.9-0.3,1.3-0.4c0.9-0.2,1.7-0.3,2.6-0.4
				c-0.8,0.3-1.6,0.6-2.4,0.9c-0.4,0.2-0.8,0.3-1.2,0.5c-0.2,0.1-0.4,0.2-0.5,0.3l-0.5,0.3l0.1-0.6l0.7,0.5l0.7,0.4
				c0.5,0.3,1,0.5,1.6,0.7l1.7,0.6c0.6,0.2,1.1,0.5,1.7,0.7l2,1l-2.2-0.1c-0.6,0-1.3-0.1-1.9-0.1c-0.6-0.1-1.3-0.2-1.9-0.3l-0.9-0.3
				c-0.3-0.1-0.6-0.2-0.9-0.3l-0.9-0.4C121.8,468,121.5,467.8,121.2,467.6z"/>
		</g>
		<g>
			<path class="st3" d="M148.1,463.2c0,0-0.2,0.3-0.7,0.6c-0.2,0.2-0.5,0.3-0.8,0.4c-0.3,0.1-0.7,0.3-1,0.3c-0.3,0.1-0.7,0.1-1,0.1
				c-0.3,0-0.6,0-0.9,0c-0.5,0-0.9-0.2-0.9-0.2s0.3-0.2,0.8-0.4c0.5-0.2,1.1-0.4,1.8-0.5c0.3,0,0.6-0.1,0.9-0.2
				c0.3-0.1,0.6,0,0.9-0.1C147.7,463.2,148.1,463.2,148.1,463.2z"/>
		</g>
		<g>
			<path class="st3" d="M142.6,467.4c0,0,0.3-0.2,0.8-0.3c0.5-0.1,1.1-0.2,1.7-0.2c0.6,0,1.2,0,1.7,0.1c0.5,0.1,0.8,0.2,0.8,0.2
				s-0.3,0.2-0.8,0.3c-0.5,0.2-1.1,0.3-1.8,0.3c-0.6,0-1.3-0.1-1.8-0.2C142.9,467.6,142.6,467.4,142.6,467.4z"/>
		</g>
		<g>
			<g>
				<path class="st38" d="M150.8,218.4c2.5,0.9,5.1,5.3,6.6,7.6c2.1,3.5,3.5,7.6,4.6,11.4c1.4,4.8,2.1,10.1,3.9,14.8
					c-3.6,0.1-8.3,0.6-11.5-0.6L150.8,218.4z"/>
			</g>
		</g>
		<g>
			<g>
				<path class="st39" d="M155.5,247.4c3.6,0.7,7.5-0.1,11.1,0c0.1,2.2,0,4.5,0,6.7c-4.5,0.7-9.5,0.5-13.8,1L155.5,247.4z"/>
			</g>
		</g>
		<g>
			<g>
				<path class="st38" d="M108.3,297.4c0.8,2.4,4.8,4.4,6.8,5.7c3.4,2.5,7.1,4.4,11.1,5.9c6.6-8.9,11.6-12.2,17-20.1
					c6.3,8.2,11.3,12.2,15.9,20c0.3,0.5,6.9-8.5,6.8-9.5c-0.4-3.2-2.1-8.2-4.4-12.5c-1.2-2.3-3.2-4.9-3.9-7.4
					c-2.8-10.2,2.1-22.4,2.1-32.7c0-7-0.9-16.6-4-22.9c-3.8-8.4-11.1-6.8-18.4-6.2c-7.4,0.6-15.1-0.8-22.4-0.8
					c-6.2,0-12.7,13.6-15.2,27c-0.7,4,8,3.1,10.7,5.3c2.4,2,2.7,1.1,2.7,1.1c1.3,13.7,2.4,10.8,3.7,25.6L108.3,297.4z"/>
			</g>
		</g>
		<g>
			<g>
				<path class="st39" d="M142.3,233.5c1.1-0.4,1.9-1.4,2.8-2.1c1.9-1.3,3.8-2.7,5.8-3.6c-1.9-1.4-4.3-2.3-6-3.8
					c2.7-1.4,7-1.9,10.1-2.2c-4.6-3.9-8.7-9-14.3-11.3c-5.2-2.1-10.8-1-15.1,2.3c-4.6,3.5-9,6.8-11.9,12.1
					c6.3,0.2,13.7-2.2,19.6,0.5c-1.8,1.3-3.9,2.2-5.7,3.4c0.7,0.1,1.4,0.5,2.1,0.6L142.3,233.5z"/>
			</g>
		</g>
		<g>
			<g>
				<path class="st40" d="M143.9,286.8c-0.1-1-0.2-2.1-0.3-3.1c-0.1-1-0.1-2.1-0.1-3.1c0-1,0-2.1,0-3.1c0-1,0-2.1,0-3.1l0.1-3.1
					c0-1,0-2.1,0-3.1c0-1,0-2.1,0-3.1l0-3.1c0-1,0-2.1,0.1-3.1l0.1-3.1c0-1,0.1-2.1,0.2-3.1l0.2-3.1l0.1-1.6l0.2-1.6l0.4-3.1
					c0.1-0.5,0.1-1,0.2-1.6c0.1-0.5,0.2-1,0.2-1.5c0.1-1,0.2-2.1,0.2-3.1l0.1,0.1l-0.4,0c-0.1,0-0.2,0-0.3,0l-0.3-0.1
					c-0.1,0-0.2,0-0.3-0.1c-0.2-0.1-0.4-0.1-0.7-0.2l-0.7-0.2c-0.4-0.2-2.1-0.9-2.5-1.1l0,0c0.8,0.3,1.7,0.7,2.6,1l0.7,0.2
					c0.2,0.1,0.4,0.1,0.7,0.2c0.1,0,0.2,0,0.3,0.1l0.3,0.1c0.1,0,0.2,0,0.3,0l0.3,0l0.1,0l0,0.1c0,1,0,2.1-0.1,3.1
					c-0.1,0.5-0.1,1-0.2,1.6c-0.1,0.5-0.1,1-0.2,1.6l-0.3,3.1l-0.2,1.6l-0.1,1.6l-0.2,3.1c-0.1,1-0.1,2.1-0.2,3.1l-0.1,3.1
					c-0.1,1-0.1,2.1-0.1,3.1l-0.1,3.1c0,1,0,2.1,0,3.1c0,1,0,2.1-0.1,3.1l-0.1,3.1c0,1-0.1,2.1-0.1,3.1l0,1.6l0,1.6c0,1,0,2.1,0,3.1
					C143.7,284.7,143.8,285.8,143.9,286.8z"/>
			</g>
		</g>
		<g>
			<g>
				<path class="st35" d="M151.2,136.7c3.9,4.1,8.8,8.1,10.7,13.5c1.7,4.9,1.9,9.8,1.7,14.8c-0.6,11.1-0.7,22.5-3.6,31.1
					c-1.5,4.6-8.9,7.6-14.4,8.2c-3,0.4-3,1.1-3.6,4.5c-0.9,4.1,0.4,4.3,3,7.5c1.1,1.3,1.3,0.6,1.5,2.6c0.2,1.7-1.1,5.1-1.9,6.6
					c-1.5,2.8-2.8,6.7-4.6,5.2c-4.5-3.6-12.2-11.9-12.2-16.4c0-0.4,0.2,0.4,0,0c8.2,0.4,7-9.4,4.4-13c-1.3-1.9-4.9-3.9-6.6-5.8
					c-2.4-2.4-4.9-4.5-6.4-7.5c-8.3-15.2-0.4-36.4,12.8-46.2c3-2.1,6.4-3.9,9.6-5.6L151.2,136.7z"/>
			</g>
		</g>
		<g>
			<g>
				<g>
					<path class="st10" d="M141.6,191c-3.1-0.9-6-2.6-8.3-4.7c1.5,3.4,3.4,6.7,7.9,7.8c1.4,0.3,3.2,0.2,4.9-0.2
						c-0.3-0.8-0.6-1.5-0.9-2.2C143.9,191.5,142.6,191.2,141.6,191z"/>
				</g>
			</g>
			<g>
				<g>
					<path class="st11" d="M151.2,190.2c-0.8,0-1.6,0-2.4-0.1c-0.2,0.2-0.3,0.4-0.5,0.5c-1,1-1,1-2.2,1c-0.3,0-0.6,0-0.9,0
						c0.3,0.7,0.6,1.5,0.9,2.2C148.1,193.2,150.1,192.1,151.2,190.2z"/>
				</g>
			</g>
			<g>
				<g>
					<path class="st9" d="M146.1,191.6c1.3,0,1.3,0,2.2-1c0.2-0.2,0.3-0.3,0.5-0.5c-4.8-0.4-10.6-1.7-15.6-4c0,0,0,0.1,0.1,0.1
						c2.3,2.1,5.2,3.8,8.3,4.7C142.9,191.3,144.6,191.7,146.1,191.6z"/>
				</g>
			</g>
		</g>
		<g>
			<g>
				<path class="st40" d="M118.3,234.9c0,0,0,0.3-0.2,0.8c-0.1,0.5-0.3,1.2-0.5,2c-0.2,0.8-0.4,1.8-0.6,2.8c-0.2,1-0.4,2.1-0.6,3.3
					c-0.2,1.1-0.4,2.2-0.7,3.3c-0.1,0.5-0.3,1-0.4,1.5c-0.1,0.5-0.3,0.9-0.5,1.3c-0.2,0.4-0.3,0.8-0.5,1.1c-0.2,0.3-0.3,0.6-0.4,0.8
					c-0.2,0.4-0.4,0.7-0.4,0.7s0.1-0.3,0.2-0.7c0.1-0.2,0.2-0.5,0.3-0.8c0.1-0.3,0.2-0.7,0.3-1.1c0.1-0.4,0.2-0.8,0.3-1.3
					c0.1-0.5,0.2-1,0.3-1.5c0.2-1,0.4-2.2,0.6-3.3c0.2-1.1,0.5-2.2,0.7-3.3c0.1-0.5,0.3-1,0.4-1.5c0.1-0.5,0.3-0.9,0.4-1.3
					c0.3-0.8,0.6-1.5,0.8-1.9C118.2,235.2,118.3,234.9,118.3,234.9z"/>
			</g>
		</g>
		<g>
			<g>
				<path class="st40" d="M156.7,231.4c0,0,0,0.3,0.1,0.8c0.1,0.5,0.1,1.3,0.2,2.1c0.1,0.4,0.1,0.9,0.2,1.4c0,0.5,0.2,1,0.3,1.5
					c0.2,1.1,0.4,2.2,0.7,3.4c0.5,2.3,1,4.6,1.3,6.3c0.2,0.9,0.2,1.6,0.2,2.1c0,0.5,0.1,0.8,0.1,0.8s-0.1-0.3-0.2-0.8
					c-0.1-0.5-0.3-1.2-0.6-2.1c-0.5-1.7-1.1-4-1.6-6.2c-0.1-0.6-0.2-1.2-0.3-1.7c-0.1-0.6-0.2-1.1-0.3-1.7c-0.1-0.6-0.2-1.1-0.2-1.6
					c0-0.5,0-1-0.1-1.4c0-0.4,0-0.8,0-1.2c0-0.4,0-0.7,0.1-0.9C156.7,231.7,156.7,231.4,156.7,231.4z"/>
			</g>
		</g>
		<g>
			<g>
				<path class="st40" d="M158,239.7c0,0,0-0.3,0-0.6c0-0.3,0.2-0.7,0.4-1.1c0.2-0.4,0.4-0.7,0.7-1c0.2-0.2,0.4-0.4,0.4-0.4
					s0,0.3,0,0.6c0,0.3-0.2,0.7-0.4,1.1c-0.2,0.4-0.4,0.7-0.7,1C158.2,239.6,158,239.7,158,239.7z"/>
			</g>
		</g>
		<g>
			<g>
				<path class="st40" d="M138.8,279.3c0,0,0.4-0.6,1.1-1.3c0.7-0.8,1.7-1.7,2.8-2.6c0.6-0.4,1.1-0.8,1.7-1.2
					c0.3-0.2,0.5-0.4,0.8-0.5c0.3-0.1,0.5-0.3,0.8-0.4c1-0.4,1.6-0.7,1.6-0.7s-0.5,0.5-1.4,1.1c-0.2,0.2-0.4,0.3-0.7,0.5
					c-0.2,0.2-0.5,0.4-0.7,0.6c-0.5,0.4-1,0.8-1.6,1.2c-0.5,0.4-1.1,0.9-1.6,1.2c-0.5,0.4-1,0.7-1.4,1.1
					C139.4,279,138.8,279.3,138.8,279.3z"/>
			</g>
		</g>
		<g>
			<g>
				<path class="st41" d="M132.6,159.5c1.2-2.2,5.2-3.1,6.4-1.9"/>
			</g>
		</g>
		<g>
			<g>
				<path class="st41" d="M155,159.5c1.7,0.2,3.6,1.7,4.1,3.9"/>
			</g>
		</g>
		<g>
			<path class="st36" d="M147.8,162.9c0,0,0,0.1,0,0.3c0,0.2-0.1,0.5-0.2,0.9c-0.2,0.8-0.4,1.8-0.8,3.1c-0.3,1.3-0.7,2.8-1,4.4
				c-0.1,0.8-0.2,1.6-0.3,2.5c0,0.8,0,1.7,0.3,2.4c0,0.1,0.1,0.2,0.1,0.3l0.1,0.3c0.1,0.2,0.2,0.4,0.3,0.6l0.3,0.5l0.4,0.5
				c0.5,0.7,1.1,1.3,1.6,2c0.2,0.4,0.5,0.7,0.7,1.1c0.2,0.4,0.4,0.7,0.4,1.3c0,0.5-0.4,1-0.7,1.2c-0.4,0.2-0.8,0.3-1.1,0.3
				c-1.4,0.1-2.5-0.2-3.2-0.4c-0.4-0.1-0.6-0.3-0.8-0.4c-0.2-0.1-0.2-0.3-0.2-0.3s0,0.1,0.2,0.2c0.2,0.1,0.5,0.2,0.8,0.3
				c0.7,0.2,1.9,0.3,3.1,0.1c0.6-0.1,1.3-0.4,1.2-0.9c0-0.1,0-0.1,0-0.2c0-0.1-0.1-0.2-0.1-0.2c-0.1-0.2-0.2-0.3-0.3-0.5
				c-0.2-0.3-0.4-0.6-0.7-0.9c-0.5-0.6-1.1-1.2-1.7-1.9l-0.4-0.5l-0.4-0.6c-0.2-0.2-0.2-0.4-0.3-0.6l-0.1-0.3
				c-0.1-0.2-0.1-0.2-0.1-0.4c-0.3-0.9-0.4-1.9-0.3-2.8c0-0.9,0.2-1.8,0.4-2.6c0.4-1.7,0.9-3.1,1.3-4.4c0.4-1.3,0.9-2.3,1.1-3
				C147.7,163.3,147.8,162.9,147.8,162.9z"/>
		</g>
		<g>
			<path class="st36" d="M136,202.9c0,0,0.4,0.1,1.1,0.3c0.3,0.1,0.7,0.2,1,0.4c0.4,0.1,0.8,0.3,1.2,0.4c0.2,0.1,0.4,0.2,0.6,0.2
				c0.2,0,0.4,0.1,0.6,0.2c0.2,0.1,0.4,0.1,0.5,0.2c0.2,0.1,0.3,0.1,0.5,0.1c0.6,0.1,1,0.3,1,0.3s-0.4,0.1-1.1,0.1
				c-0.2,0-0.3,0-0.5,0c-0.2,0-0.4,0-0.6-0.1c-0.2,0-0.4-0.1-0.6-0.1c-0.2,0-0.4-0.1-0.6-0.2c-0.4-0.2-0.8-0.3-1.2-0.5
				c-0.4-0.2-0.7-0.4-0.9-0.6C136.4,203.2,136,202.9,136,202.9z"/>
		</g>
		<g>
			<path d="M135.5,172c-0.2,1.3-0.9,2.3-1.7,2.2c-0.8-0.1-1.3-1.2-1.1-2.5c0.2-1.3,0.9-2.3,1.7-2.2
				C135.1,169.5,135.6,170.7,135.5,172z"/>
		</g>
		<g>
			<path d="M155,174.8c-0.1,1.3-0.8,2.3-1.6,2.3c-0.8-0.1-1.3-1.2-1.2-2.5c0.1-1.3,0.8-2.3,1.6-2.3
				C154.6,172.4,155.1,173.5,155,174.8z"/>
		</g>
		<g>
			<g>
				<g>
					<path class="st35" d="M113.4,251.1c-1.6,21.3-2.4,23.6-3,44.6c-0.1,3.8-0.7,11.1-0.6,14.9c0.2,3.3,0.6,3.6,2.6,6.1
						c2.8,3.5,2.9,8.8,3.5,13.2c-2.6,4.4-3.9-6.5-6.8-7.4c-1.8,3.5,0,10.1,0.8,13.7c0.4,1.4,3.1,7.2,2.1,8.4
						c-1.7,2.6-4.6-4.6-5.8-5.8c-3.5-2.7-8.2-2.7-10.1-7.2c-1.9-4.7-0.5-9.9,2.5-13.5c1.1-1.4,3-3.9,3.9-5.1
						c1.7-2.4-0.7-60.1,1.3-64.6L113.4,251.1z"/>
				</g>
			</g>
			<g>
				<g>
					<path class="st36" d="M107.5,340.4c0,0-0.2-0.8-0.5-2c-0.4-1.2-0.9-2.8-1.6-4.3c-0.7-1.5-1.4-3-2-4.1c-0.6-1.1-1.1-1.8-1.1-1.8
						s0.2,0.8,0.5,2c0.4,1.2,0.9,2.8,1.6,4.3c0.6,1.5,1.4,3,2,4.1C107,339.7,107.5,340.4,107.5,340.4z"/>
				</g>
			</g>
			<g>
				<g>
					<path class="st36" d="M100.4,329.3c0,0-0.2,0.4-0.3,1.1c-0.1,0.3-0.1,0.8-0.1,1.2c0,0.4,0.1,0.9,0.1,1.4
						c0.1,0.2,0.1,0.5,0.2,0.7c0,0.2,0.2,0.4,0.2,0.6c0.2,0.4,0.4,0.8,0.6,1.1c0.2,0.3,0.4,0.5,0.6,0.6c0.2,0.1,0.3,0.2,0.3,0.2
						s0-0.1-0.1-0.3c0-0.2-0.1-0.5-0.2-0.8c0-0.2-0.1-0.3-0.1-0.5c-0.1-0.2-0.1-0.4-0.1-0.6c-0.1-0.4-0.2-0.8-0.3-1.2
						c-0.1-0.4-0.2-0.9-0.3-1.3c-0.1-0.4-0.2-0.8-0.2-1.1C100.6,329.8,100.4,329.3,100.4,329.3z"/>
				</g>
			</g>
			<g>
				<g>
					<path class="st36" d="M97.9,328c0,0-0.2,0.4-0.4,1c-0.1,0.3-0.2,0.7-0.2,1.1c0,0.4,0,0.9,0,1.3c0.1,0.4,0.2,0.9,0.3,1.3
						c0.1,0.4,0.3,0.7,0.5,1c0.4,0.6,0.7,0.9,0.7,0.9s0-0.5-0.1-1.1c0-0.2,0-0.3-0.1-0.5c0-0.2,0-0.4,0-0.5c0-0.4-0.1-0.8-0.2-1.1
						c0-0.4-0.1-0.8-0.1-1.1c0-0.2-0.1-0.4-0.1-0.5c0-0.2,0-0.4,0-0.5C98,328.4,97.9,328,97.9,328z"/>
				</g>
			</g>
		</g>
		<g>
			<g>
				<polygon class="st39" points="98.1,249.8 98.9,244.8 115.2,248.4 114.6,253.7 				"/>
			</g>
		</g>
		<g>
			<path class="st42" d="M152.8,135.9c-1.5-1.8-3.2-3.1-5-3.8l-0.1,0.1c-5.5-5.1-15.3-4.7-22-2.9c-11.6,3-16,11.8-19.3,22.6
				c-3.5,11.4-4.3,22.8-4.7,34.7c-0.4,11.3-7.7,24.6-5,35.9c1,4.2,3.7,4.1,6.1,6.3c3.2,2.9,3.9,6.4,9.1,7.2
				c-0.6-1.1-0.9-2.3-0.7-3.6c0.8,4.5,7.8,6.4,11.1,8.9c-0.4-3-1.2-28.2-1.8-39.5c2.2,5.6,4.1,11.1,4.8,16.4
				c4.6-10.7-2.7-22.5-4.2-32.7c-1-6.9-0.5-13.5,1.3-19.6c0.9-0.5,2.2-1,4-1.8c4.8-2.4,10.1-5.5,14.5-9.4c2.5-1.7,4.9-3.5,6.9-5.3
				c-1.5,3-3.4,5.7-5.3,8.8c6.9-2.7,9.9-7.6,12.9-14.1c0,4.9-0.8,9.5-2.3,14.5c4.7-2.8,5.4-8.9,3.7-14.6c3.3,5,5.6,11.3,7.8,15.7
				C166.9,151.3,161.9,139.1,152.8,135.9z"/>
		</g>
	</g>
</g>
<g id="DESIGNED_BY_FREEPIK">
</g>
</svg>
