<?xml version="1.0" encoding="utf-8"?>
<!-- Generator: Adobe Illustrator 22.0.1, SVG Export Plug-In . SVG Version: 6.00 Build 0)  -->
<svg version="1.1" xmlns="http://www.w3.org/2000/svg" xmlns:xlink="http://www.w3.org/1999/xlink" x="0px" y="0px"
	 viewBox="0 0 500 500" style="enable-background:new 0 0 500 500;" xml:space="preserve">
<style type="text/css">
	.st0{fill:#F0F3FC;}
	.st1{fill:#636363;}
	.st2{fill:#394042;}
	.st3{fill:#F7E0D5;}
	.st4{fill:#F1D3C3;}
	.st5{fill:#EBB1BB;}
	.st6{fill:#E39880;}
	.st7{fill:#DE8080;}
	.st8{fill:#767676;}
	.st9{fill:#F0CA3B;}
	.st10{fill:#C2954E;}
	.st11{fill:#EBEBEB;}
	.st12{fill:#9F7F4A;}
	.st13{fill:#A64A4A;}
	.st14{fill:#E69797;}
	.st15{fill:#FFFFFF;}
	.st16{fill:#D09F59;}
</style>
<g id="BACKGROUND">
	<rect class="st0" width="500" height="500"/>
</g>
<g id="OBJECTS">
	<g>
		<g>
			<path class="st1" d="M287.2,276.4c4.3-2.6,2.2-10.6-2.6-10.9c-8.4-0.7-3.9,11.1,3.3,10.9H287.2z"/>
		</g>
		<g>
			<g>
				<g>
					<path class="st2" d="M222,486.5c-1.2,1.1-13.9,6.6-10.2,7.9c2.3,0.9,19.5-1.7,23.6-3.3c0.5-0.8,0.5-3.3,0.5-4.4
						c-3.9,1.7-6.1,2-9.6,3.3C225.1,489,223.4,486.7,222,486.5z"/>
				</g>
			</g>
			<g>
				<g>
					<path class="st3" d="M236,417.6c0.4-6.7,3.8-55.2,0.4-78.5l-23.3,1.2c0.8,8.9,6.6,50.6,7.6,56.7c0.7,4.4,0.6,13.3-0.1,17.7
						c-2.2,13.7,8.5,65.9,7.3,67.6c-1.4,2.2-5.2,3.6-5.8,4.2c1.5,0.3,3.1,2.5,4.3,3.5c3.6-1.1,5.7-1.4,9.6-3.3
						c0.1-2.8-0.4-9.5-0.2-11.8C236,470.1,235.7,419,236,417.6z"/>
				</g>
			</g>
		</g>
		<g>
			<g>
				<g>
					<path class="st2" d="M260.2,486.5c1.2,1.1,13.9,6.6,10.2,7.9c-2.3,0.9-19.5-1.7-23.6-3.3c-0.5-0.8-0.5-3.3-0.5-4.4
						c3.9,1.7,6.1,2,9.6,3.3C257,489,258.7,486.7,260.2,486.5z"/>
				</g>
			</g>
			<g>
				<g>
					<path class="st3" d="M246.2,417.6c-0.4-6.7-3.8-55.2-0.4-78.5l23.3,1.2c-0.8,8.9-6.6,50.6-7.6,56.7c-0.7,4.4-0.6,13.3,0.2,17.7
						c2.2,13.7-8.5,65.9-7.3,67.6c1.4,2.2,5.2,3.6,5.8,4.2c-1.5,0.3-3.1,2.5-4.3,3.5c-3.6-1.1-5.7-1.4-9.6-3.3
						c-0.1-2.8,0.4-9.5,0.2-11.8C246.1,470.1,246.4,419,246.2,417.6z"/>
				</g>
			</g>
		</g>
		<g>
			<g>
				<path class="st2" d="M260.7,286.8l-43.3,1.7c0,0-10,23.4-6.3,64l2.4,20.8c0,0,18,3.9,43.4,2l1.7-33.9l2.7,33.5
					c2.6-0.3,5.3-0.6,8-1C269.2,374,277.2,314,260.7,286.8z"/>
			</g>
		</g>
		<g>
			<path class="st4" d="M254.1,237.8c2,10.8,6.4,20.3,10.8,30.1c1.7,4.1,8.8,23,12.5,11.5c2-6.4-4.1-17.6-6.4-23.4
				c-2.7-7.8-4.7-15.6-6.4-23.4c-0.7-1.7-0.7-3.4-1.4-4.7L254.1,237.8z"/>
		</g>
		<g>
			<path class="st5" d="M220.9,222.6c-14.6-2.6-16.6,12.5-18,20l0,0c2,1.7,7.1,2,8.5,4.1c1.7,1.7,1.4,6.8,2,9.1
				c2,7.5,4.7,12.9,4.4,20.7c-0.3,14.2-5.1,26.1-7.8,39.3c15.6,6.8,35.4,7.2,51.7,2.1c3-0.7,8.1-2.2,9.4-5.2c1-3-2-8-3-10.7
				c-2.7-7.5-3.9-12.3-6.3-19.7c-2.7-7.5-3-15.6-2.4-23.7c0.3-3.7,0.7-7.8,0-11.5c-0.7-5.4-3-6.1,1.7-9.8c4.7-3.4,6.8-0.1,4.8-6.2
				c-1-3-4.1-11.1-7.1-12.5c-6.8-3.4-13.2,6.1-20,6.8c-2,0-3.7,0-5.4,0.3L220.9,222.6z"/>
		</g>
		<g>
			<path class="st3" d="M274.3,283.4c-3-1.4-5-8.4-4.6-11.3c0.8-7.1,8.9-5.2,14.1-7.5c3.1-1.3,3.8-4.3,7.1-1.2
				c2.6,2.8,0.9,5.4-0.9,7.8c-2.4,2.9-12.9,13.2-15.4,12.3C274.5,283.5,274.4,283.4,274.3,283.4z"/>
		</g>
		<g>
			<path class="st6" d="M270,275.9c0,0-0.1-0.2-0.2-0.5c-0.1-0.3-0.3-0.8-0.4-1.4c-0.1-0.3-0.1-0.6-0.2-1c0-0.4-0.1-0.7,0-1.2
				c0.1-0.4,0.1-0.7,0.2-1.1c0.1-0.4,0.3-0.8,0.5-1.2c0.2-0.4,0.5-0.7,0.7-1c0.3-0.3,0.6-0.6,0.9-0.8c0.3-0.2,0.6-0.4,1-0.5
				c0.3-0.1,0.6-0.3,0.9-0.3c0.6-0.2,1.1-0.2,1.4-0.3c0.3,0,0.5,0,0.5,0s-0.2,0.1-0.5,0.2c-0.3,0.1-0.8,0.4-1.3,0.6
				c-0.3,0.1-0.5,0.3-0.8,0.5c-0.3,0.1-0.5,0.4-0.8,0.6c-0.3,0.2-0.5,0.5-0.7,0.7c-0.2,0.3-0.4,0.6-0.6,0.9
				c-0.1,0.3-0.3,0.6-0.4,0.9c-0.1,0.4-0.2,0.7-0.3,1.1c-0.1,0.3-0.1,0.6-0.1,1c0,0.3,0,0.6,0,0.9c0,0.6,0,1.1,0,1.4
				C270,275.7,270,275.9,270,275.9z"/>
		</g>
		<g>
			<path class="st7" d="M218.8,304.5c0,0,0.6,0.4,1.6,1c0.5,0.3,1.1,0.7,1.8,1.1c0.7,0.4,1.5,0.8,2.5,1.3c0.9,0.5,1.9,0.9,3,1.4
				c1.1,0.4,2.2,0.9,3.4,1.3c1.2,0.4,2.4,0.8,3.7,1.2c1.3,0.4,2.6,0.7,3.9,1c0.7,0.1,1.3,0.2,2,0.4c0.7,0.1,1.3,0.2,2,0.3
				c0.7,0.1,1.3,0.2,2,0.2c0.6,0,1.3,0.1,1.9,0.1c0.6,0.1,1.2,0,1.9,0c0.6,0,1.2,0,1.8,0c1.1-0.1,2.3-0.2,3.2-0.4
				c1-0.2,1.9-0.4,2.7-0.6c0.8-0.2,1.5-0.4,2-0.7c1.1-0.5,1.7-0.7,1.7-0.7s-0.6,0.3-1.6,0.9c-0.5,0.3-1.2,0.6-2,0.9
				c-0.4,0.1-0.8,0.4-1.3,0.5c-0.5,0.1-0.9,0.2-1.4,0.4c-1,0.3-2.1,0.4-3.3,0.6c-0.6,0.1-1.2,0.1-1.8,0.1c-0.6,0-1.3,0.1-1.9,0
				c-0.6,0-1.3,0-2-0.1c-0.7,0-1.3-0.1-2-0.2c-0.7-0.1-1.4-0.2-2-0.3c-0.7-0.1-1.4-0.2-2-0.4c-1.3-0.3-2.7-0.6-4-1
				c-1.3-0.4-2.5-0.9-3.8-1.3c-1.2-0.5-2.3-1-3.4-1.5c-1-0.5-2.1-1-2.9-1.6c-0.9-0.5-1.7-1-2.4-1.5c-0.7-0.5-1.3-0.9-1.8-1.3
				C219.4,304.9,218.8,304.5,218.8,304.5z"/>
		</g>
		<g>
			<path class="st7" d="M233.7,305.9c0,0,0.4,0,1,0c0.3,0,0.7,0,1.1,0c0.4,0,0.9,0,1.4-0.1c0.5,0,1.1-0.1,1.7-0.2
				c0.6,0,1.2-0.2,1.9-0.3c0.6-0.1,1.3-0.2,2-0.4c0.7-0.2,1.3-0.3,2-0.5c0.7-0.2,1.3-0.4,2-0.6c0.7-0.2,1.3-0.5,1.9-0.7
				c0.6-0.3,1.2-0.4,1.7-0.7c0.5-0.3,1.1-0.5,1.5-0.7c1-0.4,1.7-0.9,2.3-1.1c0.6-0.3,0.9-0.4,0.9-0.4s-0.3,0.2-0.8,0.6
				c-0.2,0.2-0.6,0.4-0.9,0.7c-0.3,0.3-0.7,0.5-1.2,0.8c-0.5,0.3-1,0.6-1.5,0.9c-0.5,0.3-1.1,0.6-1.7,0.8c-0.6,0.3-1.2,0.6-1.9,0.8
				c-0.7,0.2-1.3,0.5-2,0.7c-0.7,0.2-1.4,0.3-2.1,0.5c-0.7,0.2-1.4,0.2-2,0.3c-0.7,0.1-1.3,0.2-1.9,0.2c-0.6,0-1.2,0-1.7,0
				c-0.3,0-0.5,0-0.8,0c-0.2,0-0.5-0.1-0.7-0.1c-0.4-0.1-0.8-0.1-1.1-0.2C234.1,305.9,233.7,305.9,233.7,305.9z"/>
		</g>
		<g>
			<path class="st7" d="M212.9,252.3c0,0-0.3-0.9-0.5-2.2c-0.1-0.3-0.1-0.7-0.2-1c-0.1-0.4-0.1-0.8-0.2-1.2
				c-0.1-0.8-0.1-1.7-0.2-2.6c0-0.9,0-1.8,0-2.6c0-0.8,0.1-1.6,0.1-2.3c0.1-1.3,0.3-2.2,0.3-2.2s0.2,0.9,0.3,2.2
				c0.1,0.7,0.2,1.4,0.2,2.2c0,0.8,0.1,1.7,0.1,2.6c0,0.9,0.1,1.7,0.1,2.6c0,0.8,0,1.6,0,2.2C213,251.4,212.9,252.3,212.9,252.3z"/>
		</g>
		<g>
			<path class="st7" d="M258.9,244c0,0-0.4-0.7-0.8-1.7c-0.2-0.5-0.4-1.2-0.7-1.8c-0.3-0.7-0.5-1.4-0.7-2.1
				c-0.2-0.7-0.5-1.4-0.7-2.1c-0.2-0.7-0.4-1.3-0.5-1.9c-0.3-1.1-0.5-1.8-0.5-1.8s0.5,0.6,1,1.6c0.3,0.5,0.5,1.1,0.8,1.8
				c0.3,0.7,0.6,1.4,0.8,2.1c0.2,0.7,0.4,1.5,0.6,2.2c0.2,0.7,0.3,1.3,0.4,1.9C258.9,243.3,258.9,244,258.9,244z"/>
		</g>
		<g>
			<path class="st7" d="M230.6,260.3c0,0,0.2-0.2,0.7-0.4c0.2-0.1,0.5-0.3,0.8-0.5c0.3-0.2,0.6-0.4,1-0.6c0.4-0.2,0.8-0.4,1.3-0.6
				c0.5-0.2,1-0.4,1.5-0.6c0.5-0.2,1-0.4,1.6-0.5c0.6-0.1,1.1-0.3,1.7-0.4c0.6-0.1,1.1-0.2,1.7-0.3c0.6-0.1,1.1-0.1,1.7-0.2
				c1.1-0.1,2.1-0.2,2.9-0.2c0.9,0,1.6,0,2.1,0c0.5,0,0.8,0,0.8,0s-0.3,0.1-0.8,0.2c-0.5,0.1-1.2,0.2-2,0.4
				c-0.4,0.1-0.9,0.2-1.4,0.2c-0.5,0.1-1,0.2-1.5,0.3c-1,0.2-2.2,0.4-3.3,0.6c-1.1,0.3-2.2,0.5-3.2,0.8c-0.5,0.2-1,0.2-1.5,0.4
				c-0.5,0.2-0.9,0.3-1.3,0.4c-0.8,0.2-1.5,0.5-2,0.7C230.9,260.2,230.6,260.3,230.6,260.3z"/>
		</g>
		<g>
			<g>
				<g>
					<path class="st3" d="M287.5,271.2c-1,0.1-1.9-0.1-2.6-0.7c-1.2-1-0.8-2.2-0.8-3.5c0-1.3-0.1-2.6-0.2-3.9
						c0-3.4-0.1-6.8-0.2-10.1c-0.1-2.6-0.1-5.3-0.1-7.9c0-3.3-0.8-6.9-0.3-10.2c0.5-2.3,2.3-4.1,2.8-1.2c0.8,4.5,1.1,8.5,1.3,13.1
						c0,0.7,0,3.2,0,3.2c2.1-5.6,1.6-12,4-17.8c0.3-1.2,1.2-4.6,3-3.6c0.8,0.5,1,3.6,1.3,4.5c3.8-3,3.3,4.1,3.1,6.4
						c-0.2,3.5-0.7,8.6-2,11.7c1-2.8,4.1-8,5-7.9c3.1,0.8-2.1,10.1-3.3,14.9c-0.8,2.5-0.2,4.9-1.5,7.4
						C295,269.1,291.5,270.9,287.5,271.2z"/>
				</g>
			</g>
			<g>
				<g>
					<path class="st3" d="M284.2,270.1c0-1.5-2.3-4.3-3.5-5.8c-2.5-3.8-3.5-9.7-3.6-14.2c-0.2-2.3-0.5-10.1,2.3-5.8
						c2,2.8,2.1,6.9,2.3,10.2c3.8,0.3,6.8,7.3,6.6,9.7"/>
				</g>
			</g>
			<g>
				<g>
					<path class="st6" d="M295.3,232.8c0,0,0,0.3,0.1,0.7c0,0.5,0.1,1.1,0.1,2c0,0.4,0,0.8,0,1.3c0,0.5-0.1,1-0.1,1.5
						c-0.1,1-0.2,2.1-0.4,3.2c-0.4,2.1-0.8,4.2-1.2,5.8c-0.2,0.8-0.4,1.4-0.5,1.9c-0.1,0.5-0.2,0.7-0.2,0.7s0-0.3,0-0.7
						c0-0.5,0.1-1.1,0.2-1.9c0.2-1.6,0.5-3.7,0.8-5.8c0.1-1,0.3-2.1,0.5-3.1c0.1-0.5,0.2-1,0.2-1.4c0.1-0.5,0.1-0.9,0.2-1.3
						c0.1-0.8,0.2-1.5,0.3-1.9C295.2,233,295.3,232.8,295.3,232.8z"/>
				</g>
			</g>
			<g>
				<g>
					<path class="st6" d="M284.2,270.1c-0.1-0.3-0.1-0.6-0.2-0.8c-0.1-0.3-0.2-0.5-0.4-0.8c-0.3-0.5-0.6-1-0.9-1.4
						c-0.7-0.9-1.4-1.8-2.1-2.6l0,0l0,0c-0.4-0.6-0.8-1.2-1.1-1.9c-0.3-0.7-0.6-1.3-0.9-2l-0.4-1l-0.3-1.1c-0.2-0.7-0.4-1.4-0.5-2.1
						c-0.2-0.7-0.2-1.4-0.4-2.2c-0.1-0.7-0.2-1.5-0.3-2.2l-0.1-2.2c0-0.7-0.1-1.5-0.1-2.2c0-0.7,0-1.5,0.1-2.2
						c0-0.4,0.1-0.8,0.2-1.1c0.1-0.4,0.2-0.8,0.5-1.2c0.1-0.2,0.6-0.4,0.9-0.4c0.3,0.1,0.6,0.2,0.7,0.4c0.3,0.3,0.6,0.6,0.8,0.9
						c0.4,0.7,0.8,1.2,1.1,2c0.3,0.7,0.5,1.4,0.7,2.2c0.2,0.7,0.3,1.5,0.4,2.2c0.1,0.7,0.2,1.5,0.2,2.2l0.1,2.2l-0.3-0.3
						c0.3,0.1,0.6,0.1,0.8,0.2c0.3,0.1,0.5,0.2,0.8,0.4c0.2,0.2,0.5,0.3,0.7,0.5c0.2,0.2,0.4,0.3,0.6,0.5c0.4,0.4,0.7,0.8,1.1,1.2
						c0.3,0.4,0.6,0.9,0.9,1.3c0.3,0.5,0.5,0.9,0.7,1.4c0.2,0.5,0.4,1,0.6,1.5c0.2,0.5,0.3,1,0.4,1.5c0.1,0.5,0.1,1,0.1,1.6
						c0-0.5-0.1-1-0.2-1.5c-0.1-0.5-0.3-1-0.5-1.5c-0.2-0.5-0.4-1-0.6-1.4c-0.2-0.5-0.5-0.9-0.8-1.3c-0.3-0.4-0.6-0.8-0.9-1.3
						c-0.3-0.4-0.7-0.8-1-1.1c-0.2-0.2-0.4-0.3-0.6-0.5c-0.2-0.2-0.4-0.3-0.6-0.4c-0.2-0.1-0.4-0.2-0.7-0.3
						c-0.2-0.1-0.5-0.1-0.7-0.1l-0.3-0.1l0-0.3l-0.2-2.2c-0.1-0.7-0.1-1.4-0.2-2.1c-0.1-0.7-0.2-1.4-0.4-2.1c-0.2-0.7-0.4-1.4-0.7-2
						c-0.2-0.6-0.7-1.3-1-1.8c-0.2-0.3-0.4-0.5-0.6-0.7c-0.1-0.1-0.2-0.1-0.2-0.1c0,0,0,0,0,0c-0.1,0.1-0.2,0.5-0.3,0.8
						c-0.1,0.3-0.1,0.7-0.1,1c-0.1,0.7-0.1,1.4-0.1,2.1c0,0.7,0,1.4,0.1,2.1l0.1,2.2c0.1,0.7,0.1,1.4,0.2,2.1
						c0.1,0.7,0.2,1.4,0.3,2.1c0.1,0.7,0.2,1.4,0.4,2.1l0.3,1l0.3,1c0.2,0.7,0.5,1.3,0.8,2c0.3,0.7,0.7,1.3,1,1.9l0,0
						c0.7,0.9,1.4,1.8,2,2.8c0.3,0.5,0.6,1,0.8,1.5c0.1,0.3,0.2,0.5,0.3,0.8C284.2,269.5,284.2,269.8,284.2,270.1z"/>
				</g>
			</g>
			<g>
				<g>
					<path class="st6" d="M289.1,249.5c0,0,0.5-0.1,1.3-0.1c0.7,0,1.7,0.1,2.7,0.3c1,0.2,1.9,0.5,2.6,0.8c0.7,0.3,1.1,0.6,1.1,0.6
						s-0.5,0-1.3,0c-0.4,0-0.8-0.1-1.2-0.1c-0.5-0.1-0.9-0.2-1.4-0.2c-1-0.2-1.9-0.4-2.6-0.7C289.6,249.8,289.1,249.5,289.1,249.5z"
						/>
				</g>
			</g>
		</g>
		<g>
			<path class="st8" d="M245.1,220.5c2.7,19.1,6.5,37.1,7.5,56.2c0.7,15.7-1,33,2,48c4.3,0.7,15.3-0.8,18.3-4.2
				c1.6-1.8,1.1-6.3,0.7-8.6c-0.4-2.8-3-5-2.3-7.9c0.4-1.4,1.6-1.8,1.6-3.5c0-1.4-0.9-2.5-1.4-3.7c-8.2-17.6-8.7-39-11.5-57.9
				c-1-6.8-3.1-14-6.1-19.8"/>
		</g>
		<g>
			<path class="st6" d="M199.3,265.5c0,0,0.1-0.3,0.4-0.9c0.1-0.3,0.3-0.6,0.5-1c0.2-0.4,0.4-0.9,0.6-1.3c0.2-0.5,0.5-1,0.6-1.6
				c0.2-0.6,0.4-1.2,0.6-1.8c0.2-0.6,0.4-1.3,0.6-2c0.2-0.7,0.4-1.4,0.5-2c0.1-0.7,0.4-1.4,0.4-2.1c0.1-0.7,0.2-1.4,0.4-2
				c0.1-0.7,0.2-1.3,0.3-1.9c0.1-0.6,0.2-1.2,0.3-1.7c0.1-1.1,0.3-1.9,0.4-2.6c0.1-0.6,0.2-1,0.2-1s0,0.4,0,1c0,0.6,0,1.5,0,2.6
				c0,0.5-0.1,1.1-0.1,1.7c-0.1,0.6-0.1,1.3-0.2,1.9c-0.1,0.7-0.2,1.4-0.3,2.1c-0.1,0.7-0.3,1.4-0.4,2.1c-0.2,0.7-0.3,1.4-0.5,2.1
				c-0.2,0.7-0.4,1.4-0.7,2c-0.3,0.6-0.5,1.2-0.8,1.8c-0.2,0.6-0.6,1.1-0.8,1.6c-0.3,0.5-0.5,0.9-0.8,1.3c-0.3,0.4-0.5,0.7-0.7,0.9
				C199.6,265.2,199.3,265.5,199.3,265.5z"/>
		</g>
		<g>
			<path class="st8" d="M245.1,220.9c4.1-0.7,10.2-4.4,14-3.4c6.1,1.7,19.8,48.4,21.5,48c-0.3,4.8,3.7,11.6,8.9,8.5
				c-2,3.7-11.6,15-16,13.3c-3.7-1.4-7.5-14.7-8.9-18.4c-5.8-13.6-13.3-30.7-15-45"/>
		</g>
		<g>
			<g>
				<path class="st8" d="M225.3,261.7c-0.3-7.5-0.8-13.3-1.1-20.4c-0.2-4-1.1-8.3-2.3-18.9c0,0-0.1,0-0.1,0l0.1-0.2
					c-0.6,0-1.2,0-1.8,0c-0.8-0.1-1.6-0.2-2.3-0.2c-2.7-0.3-5.4-0.6-8.2,1.9c-5.8,5.5-8.2,15.7-10.6,22.8
					c-1.4,3.7-8.9,19.1-6.8,21.8c4.3,10.9,16.8-10.7,20.1-14.8c1.1,6,2.4,11.9,3.1,17.6c0.7,6.5,0,13.3-2.7,19.4
					c-1.4,3.4-5.1,8.2-5.8,11.6c-0.3,1.4,1.4,2.7,1,3.7c0,0.3-1.4,2.7-1.4,2.7c0.3,1.7-1.4,2.7,1.7,4.4c-4.8,8.2,8.2,9.2,14,11.6
					c0.3-5.5,1-10.6,1-16C223.6,293.1,226,277.4,225.3,261.7z"/>
			</g>
			<g>
				<path class="st9" d="M222.9,222.6l-1-0.3c0,0.1,0,0.2,0,0.2C222.2,222.5,222.6,222.5,222.9,222.6z"/>
			</g>
		</g>
		<g>
			<path class="st10" d="M217.1,141.2c-2.2,0.8-7.9,3.2-9.9,5.1c-5,4.7-6.8,13.2-6.6,19.6c0.2,9.3,0.3,18.6-1.6,27.8
				c-2.5,12.3,7.9,20.7,19.4,21.3c-0.4-0.3-1-0.6-1.4-0.9c8.8,3.9,18.3,1.6,27.1-0.7c0.1,0.4,0.2,0.8,0.3,1.2
				c6.8-0.5,12.1-3.5,17.7-7.3c-0.1,0.3-1.1,3.8-1.2,3.8c14.4-1.9,4.5-20.4,3.4-27.3c-1.7-11.3-0.3-21.9-6.8-32.2
				C248.8,138,231.3,135.9,217.1,141.2z"/>
		</g>
		<g>
			<path class="st11" d="M232.7,217.5c-5.8,1-8.1,0.7-11.9,6.1c-3.4,4.7-6.1,12.2-7.5,18c7.1-6.8,14.6-5.8,21,0.7
				c4.4-5.4,10.8-11.2,18.6-7.8c-1.4-5.8-7.8-16.3-13.9-18L232.7,217.5z"/>
		</g>
		<g>
			<path class="st3" d="M260.6,185.6c-0.7-3.6-3.9-5.4-6.2-3.5c0.6-6.3,0.8-13.3-1-19.2c-2.1-0.2-4.3-1-6-1.1c0.6,0.2,1.2,0.8,1.7,1
				c-7.9,2.5-17.3,0-24.8-2.5c0.8,0.8,1.6,1.5,2.3,2.3c-4,0-9.7-2.8-13.1-6.6c-2.8,3.4-4.9,6-5.7,11.1c-1.1,6.9-0.7,13.1,0.6,19.8
				c0.1,0.3,0.1,0.6,0.2,0.8c-2.5-1.7-6.2-1.5-6.3,2.3c-0.2,4.4,5.4,10.6,9.1,8.2c2.4,6.7,6.5,12.7,14,14.4c1.3,0.4,3.3,0.6,3.3,0.6
				c0.5,1.6,0.8,4.8,0.6,6.1c-0.2,2.2,0.4,1.9-1.9,2.8c-1.3,0.6-3.3,0.8-3.3,0.8c-0.6,1.5,2.7,7,3.6,8.2c2.2,3.2,3.9,5.3,6.7,7.7
				c1.7-2.6,3.6-5.8,4.7-8.6c1.1-2.8,2.2-4.4,3.2-7.6c-2.2-0.3-3.9-0.2-5.2-1.3c-0.2-4.1-0.6-6.2,0-8.6c9.3-2.4,13.4-10.7,15.3-18.1
				c1.3,0.1,3-0.2,3.7-0.4C259.7,192.9,261.4,189.2,260.6,185.6z"/>
		</g>
		<g>
			<path class="st12" d="M215.8,168c0,0,0-0.1,0.1-0.2c0.1-0.1,0.2-0.4,0.4-0.6c0.2-0.2,0.5-0.5,0.8-0.7c0.3-0.2,0.7-0.4,1-0.5
				c0.2-0.1,0.4-0.1,0.6-0.2c0.2-0.1,0.4-0.1,0.6-0.1c0.4-0.1,0.7,0,1,0c0.3,0,0.5,0.1,0.7,0.2c0.2,0.1,0.3,0.1,0.3,0.1
				s-0.4,0.2-0.9,0.4c-0.5,0.2-1.2,0.4-1.8,0.6c-0.3,0.1-0.7,0.2-1,0.4c-0.3,0.1-0.6,0.2-0.8,0.3c-0.3,0.1-0.5,0.2-0.6,0.3
				C215.9,167.9,215.8,168,215.8,168z"/>
		</g>
		<g>
			<path class="st12" d="M237.6,166c0,0,0.1-0.1,0.3-0.2c0.2-0.1,0.4-0.3,0.8-0.4c0.4-0.1,0.8-0.3,1.3-0.3c0.3,0,0.5-0.1,0.8,0
				c0.3,0.1,0.5,0.1,0.8,0.2c0.3,0.1,0.5,0.2,0.7,0.3c0.3,0.1,0.4,0.3,0.6,0.5c0.4,0.3,0.7,0.7,0.9,1.1c0.1,0.2,0.2,0.3,0.2,0.5
				c0.1,0.2,0.1,0.3,0.1,0.4c0.1,0.2,0.1,0.3,0.1,0.3s-0.1-0.1-0.3-0.2c-0.1-0.1-0.2-0.2-0.3-0.3c-0.1-0.1-0.2-0.2-0.4-0.3
				c-0.1-0.1-0.3-0.2-0.4-0.3c-0.1-0.1-0.3-0.2-0.5-0.3c-0.2-0.1-0.4-0.2-0.6-0.3c-0.2-0.1-0.4-0.2-0.6-0.3
				c-0.2-0.1-0.4-0.1-0.6-0.2c-0.2-0.1-0.4-0.1-0.6-0.1c-0.2,0-0.4-0.1-0.6-0.1c-0.2,0-0.4,0-0.6,0c-0.4,0-0.7,0-0.9,0
				C237.7,166,237.6,166,237.6,166z"/>
		</g>
		<g>
			<g>
				<path class="st13" d="M238.9,201.2c1.2-1.5,2-3.4,2-5.8c-0.4,0.1-0.7,0.2-1.1,0.3c-0.6,4-4.7,3.4-9.7,3.8
					c-4.2,0.2-5.9-0.1-7.5-2.8c-0.5-0.1-1-0.1-1.5-0.2c0.6,2.2,1.7,3.9,3.1,5.2C226.5,200.9,232.2,199.3,238.9,201.2z"/>
			</g>
			<g>
				<path class="st14" d="M224.2,201.7c4.3,4,11.3,3.6,14.7-0.5C232.2,199.3,226.5,200.9,224.2,201.7z"/>
			</g>
			<g>
				<path class="st15" d="M230.1,199.4c5-0.3,9,0.2,9.7-3.8c-5.1,1.4-12.1,1.6-17.2,1C224.2,199.3,225.8,199.6,230.1,199.4z"/>
			</g>
		</g>
		<g>
			<path class="st6" d="M204.3,190.5c0,0,0.6,0.2,1.3,0.6c0.2,0.1,0.4,0.2,0.6,0.3c0.2,0.1,0.4,0.3,0.6,0.4c0.4,0.3,0.9,0.7,1.3,1.1
				c0.4,0.4,0.8,0.9,1.1,1.3c0.4,0.4,0.6,0.8,0.8,1.2c0.5,0.7,0.7,1.3,0.7,1.3s-0.5-0.3-1.1-0.9c-0.2-0.1-0.3-0.3-0.5-0.5
				c-0.2-0.2-0.4-0.3-0.6-0.5c-0.4-0.4-0.8-0.8-1.2-1.2c-0.4-0.4-0.8-0.7-1.2-1.1c-0.2-0.2-0.3-0.4-0.5-0.5
				c-0.2-0.2-0.4-0.3-0.5-0.4C204.7,190.9,204.3,190.5,204.3,190.5z"/>
		</g>
		<g>
			<path class="st6" d="M253.4,192.4c0,0,0-0.1,0-0.4c0-0.2,0-0.6,0.1-0.9c0.1-0.4,0.2-0.8,0.4-1.3c0.2-0.5,0.4-0.9,0.7-1.4
				c0.1-0.2,0.3-0.4,0.4-0.6c0.1-0.2,0.3-0.4,0.5-0.6c0.3-0.4,0.6-0.7,0.9-0.9c0.3-0.3,0.6-0.4,0.8-0.6c0.2-0.1,0.3-0.2,0.3-0.2
				s-0.1,0.1-0.2,0.3c-0.1,0.2-0.3,0.5-0.5,0.8c-0.4,0.6-0.9,1.5-1.5,2.3c-0.2,0.4-0.5,0.8-0.7,1.2c-0.1,0.2-0.2,0.4-0.3,0.6
				c-0.1,0.2-0.2,0.4-0.3,0.5c-0.2,0.3-0.3,0.6-0.4,0.8C253.4,192.2,253.4,192.4,253.4,192.4z"/>
		</g>
		<g>
			<g>
				<path class="st15" d="M211.7,200.1c0,1.5-1.2,2.7-2.7,2.7c-1.5,0-2.7-1.2-2.7-2.7c0-1.5,1.2-2.7,2.7-2.7
					C210.5,197.4,211.7,198.6,211.7,200.1z"/>
			</g>
		</g>
		<g>
			<g>
				<path class="st15" d="M257.8,195.7c0,1.5-1.2,2.7-2.7,2.7c-1.5,0-2.7-1.2-2.7-2.7c0-1.5,1.2-2.7,2.7-2.7
					C256.6,193,257.8,194.2,257.8,195.7z"/>
			</g>
		</g>
		<g>
			<path class="st6" d="M229.6,172.1c0,0,0.1,0.4,0.3,1.2c0.1,0.7,0.4,1.8,0.6,3.1c0.2,1.3,0.6,2.7,0.9,4.3c0.1,0.4,0.1,0.8,0.2,1.2
				c0.1,0.4,0.2,0.7,0.4,1.1c0.3,0.7,0.7,1.5,1.1,2.2c0.4,0.8,0.8,1.5,1.2,2.3c0.3,0.8,0.6,1.6,0.6,2.6l0,0.3c0,0.2,0,0.2-0.1,0.3
				c0,0.2-0.1,0.4-0.2,0.6c-0.1,0.5-0.5,0.9-0.9,1.1c-0.9,0.4-1.7-0.1-2.3-0.4c-1.2-0.7-1.8-1.6-2.3-2.2c-0.2-0.3-0.4-0.6-0.5-0.7
				c-0.1-0.2-0.2-0.3-0.2-0.3s0.3,0.3,0.8,0.9c0.5,0.5,1.3,1.2,2.4,1.8c0.5,0.3,1.2,0.5,1.7,0.2c0.2-0.1,0.4-0.4,0.4-0.7
				c0.1-0.1,0.1-0.3,0.1-0.5c0-0.1,0-0.2,0-0.3l0-0.3c0-0.7-0.3-1.5-0.6-2.2c-0.3-0.7-0.7-1.5-1.1-2.2c-0.4-0.8-0.8-1.5-1.2-2.3
				c-0.2-0.4-0.3-0.9-0.4-1.3c-0.1-0.4-0.1-0.8-0.2-1.2c-0.2-1.6-0.4-3.1-0.6-4.4c-0.1-1.3-0.2-2.4-0.3-3.1
				C229.7,172.6,229.6,172.1,229.6,172.1z"/>
		</g>
		<g>
			<path class="st1" d="M215,214c0.4,0.8-0.2,1.9-1.1,2.3l0,0c-1,0.4-2.1,0.1-2.4-0.8l-13.8-32.7c-0.4-0.8,0.2-1.9,1.1-2.3l0,0
				c1-0.4,2.1-0.1,2.4,0.8L215,214z"/>
		</g>
		<g>
			<g>
				<path class="st3" d="M202.9,220.9c-3.2-6.9-10.4-15.7-6.1-23.4c1.2-2.2,4.4-6.1,7.1-6.2c4.5,0-2.3,5.6-3.1,7.2
					c-0.6,1.2-0.9,2.6-1.1,3.9c2.6-0.6,5-2.6,7.4-3.7c1-0.4,3-1.5,4-1.1c1.6,0.7,1.1,2.4-0.3,3.1c4.2,1.1-2.1,5.8-3.7,7
					c1.4-0.5,7.1-3.3,7.2-0.9c0,1.9-5.1,4.7-6.5,5.5c0.8,2.9,2.9,5.4,2.9,8.5c0.1,2.2-1.1,2.3-2,3.9c-0.8,1.5-0.6,4.4-1,6.2
					c-2.3,11.6-4.4,21.4-7.7,33c-0.7,2.4-1.5,3.6-5.9,5.8c-5.4,2.7-5.2-5.7-5-10.1C189.8,244,197.9,233.1,202.9,220.9L202.9,220.9z"
					/>
			</g>
			<g>
				<path class="st6" d="M210.8,200.6c0,0-0.6,0.2-1.4,0.5c-0.8,0.3-1.8,0.9-2.8,1.5c-1,0.6-1.9,1.3-2.5,1.9c-0.7,0.6-1,1-1,1
					s0.6-0.2,1.4-0.5c0.8-0.3,1.8-0.9,2.8-1.5c1-0.6,1.9-1.3,2.5-1.9C210.4,201,210.8,200.6,210.8,200.6z"/>
			</g>
			<g>
				<path class="st6" d="M204.3,210.6c0,0-0.3-0.6-0.8-1.3c-0.1-0.2-0.3-0.4-0.4-0.6c-0.2-0.2-0.3-0.5-0.5-0.7
					c-0.3-0.5-0.7-0.9-1-1.4c-0.7-1-1.5-1.9-2.2-2.6c-0.6-0.7-1.1-1.1-1.1-1.1s0.2,0.6,0.6,1.5c0.4,0.8,1.1,1.9,1.8,2.9
					c0.4,0.5,0.8,1,1.2,1.4c0.4,0.5,0.8,0.8,1.2,1.1C203.7,210.3,204.3,210.6,204.3,210.6z"/>
			</g>
		</g>
		<g>
			<path class="st1" d="M254.6,316.9c0,0,0.3-0.1,0.8-0.2c0.5-0.1,1.2-0.4,2.1-0.6c0.4-0.1,0.9-0.2,1.4-0.3c0.5-0.1,1-0.3,1.6-0.4
				c1.1-0.3,2.2-0.5,3.4-0.8c1.1-0.3,2.3-0.6,3.4-0.9c0.5-0.1,1.1-0.2,1.6-0.4c0.5-0.1,0.9-0.3,1.4-0.4c0.9-0.2,1.6-0.4,2.1-0.6
				c0.5-0.1,0.8-0.2,0.8-0.2s-0.3,0.1-0.7,0.4c-0.5,0.2-1.1,0.6-2,0.9c-0.4,0.2-0.9,0.4-1.3,0.6c-0.5,0.2-1,0.3-1.5,0.5
				c-1.1,0.3-2.2,0.7-3.4,1c-1.2,0.2-2.3,0.5-3.4,0.7c-1.1,0.2-2.1,0.3-3,0.4c-0.9,0.1-1.6,0.1-2.2,0.2
				C254.9,316.9,254.6,316.9,254.6,316.9z"/>
		</g>
		<g>
			<path class="st1" d="M258.7,317.3c0,0,0.3,0.3,0.5,0.8c0.3,0.5,0.6,1.1,0.8,1.8c0.2,0.7,0.3,1.4,0.4,1.9c0,0.5,0,1,0,1
				s-0.3-0.3-0.5-0.8c-0.3-0.5-0.6-1.1-0.8-1.8c-0.2-0.7-0.3-1.4-0.4-1.9C258.6,317.7,258.7,317.3,258.7,317.3z"/>
		</g>
		<g>
			<path class="st1" d="M262.8,316.9c0,0,0.2,0.3,0.3,0.8c0.1,0.2,0.1,0.5,0.2,0.8c0.1,0.3,0.1,0.6,0.2,0.9c0.1,0.3,0.1,0.6,0.2,0.9
				c0,0.3,0.1,0.6,0.1,0.8c0,0.5,0,0.9,0,0.9s-0.3-0.2-0.5-0.7c-0.1-0.2-0.3-0.5-0.4-0.8c-0.1-0.3-0.2-0.6-0.3-1
				c-0.1-0.7-0.2-1.4,0-1.9C262.6,317.3,262.8,316.9,262.8,316.9z"/>
		</g>
		<g>
			<path class="st1" d="M266.5,316.3c0,0,0.2,0.3,0.4,0.8c0.1,0.2,0.2,0.5,0.3,0.9c0.1,0.3,0.1,0.7,0.2,1c0,0.3,0.1,0.7,0.1,1
				c0,0.3,0,0.6,0.1,0.9c0,0.5,0,0.9,0,0.9s-0.3-0.3-0.5-0.8c-0.1-0.2-0.3-0.5-0.4-0.9c-0.1-0.3-0.2-0.7-0.2-1c0-0.4-0.1-0.7-0.1-1
				c0-0.3,0-0.6,0-0.9C266.4,316.6,266.5,316.3,266.5,316.3z"/>
		</g>
		<g>
			<path class="st1" d="M270.6,315.2c0,0,0.2,0.2,0.3,0.6c0.1,0.2,0.1,0.4,0.1,0.6c0,0.2,0,0.5,0,0.7c-0.1,0.5-0.2,1-0.4,1.3
				c-0.2,0.3-0.4,0.5-0.4,0.5s-0.1-0.3-0.1-0.6c0-0.2,0-0.4-0.1-0.6c0-0.2,0-0.4,0-0.7c0-0.5,0.1-0.9,0.2-1.3
				C270.5,315.5,270.6,315.2,270.6,315.2z"/>
		</g>
		<g>
			<path class="st1" d="M209,312.5c0,0,0.8,0.1,2,0.4c0.3,0.1,0.6,0.2,1,0.3c0.3,0.1,0.7,0.2,1.1,0.3c0.7,0.2,1.5,0.4,2.3,0.6
				c0.8,0.2,1.6,0.4,2.3,0.6c0.7,0.2,1.4,0.4,2,0.6c1.2,0.3,2,0.7,2,0.7s-0.8,0-2.1-0.1c-1.2-0.1-2.9-0.4-4.5-0.8
				c-0.8-0.2-1.6-0.5-2.3-0.7c-0.4-0.1-0.7-0.2-1-0.4c-0.3-0.1-0.6-0.3-0.9-0.4C209.7,313,209,312.5,209,312.5z"/>
		</g>
		<g>
			<path class="st1" d="M210.7,319.3c0,0-0.2-0.3-0.3-0.8c-0.2-0.5-0.3-1.1-0.2-1.8c0-0.3,0.1-0.7,0.1-1c0-0.2,0.1-0.3,0.1-0.4
				c0-0.1,0.1-0.3,0.2-0.4c0.1-0.2,0.3-0.4,0.3-0.5c0.1-0.1,0.2-0.2,0.2-0.2s0.1,0.4,0.1,0.8c0,0.2,0,0.5,0,0.8c0,0.3,0,0.6,0,0.9
				c0,0.6-0.1,1.3-0.2,1.7C210.8,319,210.7,319.3,210.7,319.3z"/>
		</g>
		<g>
			<path class="st1" d="M214.7,320.7c0,0-0.1-0.3-0.1-0.7c0-0.4,0-0.9,0.1-1.3c0.1-0.5,0.3-0.9,0.6-1.2c0.2-0.3,0.4-0.5,0.4-0.5
				s0.1,0.3,0.1,0.7c0,0.4,0,0.9-0.1,1.3c-0.1,0.5-0.3,0.9-0.6,1.2C215,320.5,214.7,320.7,214.7,320.7z"/>
		</g>
		<g>
			<path class="st1" d="M219.5,322.4c0,0-0.1-0.3-0.1-0.7c0-0.4,0-0.9,0.1-1.3c0.1-0.5,0.3-0.9,0.6-1.2c0.2-0.3,0.4-0.5,0.4-0.5
				s0.1,0.3,0.1,0.7c0,0.4,0,0.9-0.1,1.3c-0.1,0.5-0.3,0.9-0.6,1.2C219.7,322.2,219.5,322.4,219.5,322.4z"/>
		</g>
		<g>
			<path class="st1" d="M258,227.3c0,0,0,0.7,0.1,1.9c0,0.6,0.1,1.3,0.1,2.1c0,0.8,0.1,1.7,0.2,2.7c0.1,1,0.2,2.1,0.5,3.2
				c0.1,0.6,0.2,1.1,0.4,1.7c0.2,0.6,0.3,1.2,0.5,1.8c0.4,1.2,0.8,2.4,1.2,3.7c0.4,1.2,0.9,2.5,1.3,3.8c0.4,1.3,0.8,2.6,1,3.9
				c0.3,1.3,0.5,2.6,0.6,3.9c0.3,2.5,0.3,4.9,0.2,7c0,2-0.2,3.7-0.3,4.9c-0.1,1.2-0.2,1.9-0.2,1.9s-0.1-2.7-0.1-6.7
				c-0.1-2-0.2-4.4-0.5-6.8c-0.2-1.2-0.4-2.5-0.7-3.8c-0.3-1.3-0.6-2.6-1-3.8c-0.4-1.3-0.9-2.5-1.3-3.8c-0.4-1.3-0.8-2.5-1.2-3.7
				c-0.2-0.6-0.3-1.2-0.4-1.8c-0.1-0.6-0.2-1.2-0.3-1.8c-0.2-1.2-0.3-2.3-0.3-3.3c-0.1-2,0-3.7,0-4.9C258,228,258,227.3,258,227.3z"
				/>
		</g>
		<g>
			<path class="st1" d="M262.1,242.7c0,0,0.1-0.3,0.2-0.6c0.2-0.3,0.4-0.7,0.8-1.1c0.3-0.3,0.7-0.6,1.1-0.8c0.3-0.2,0.6-0.2,0.6-0.2
				s-0.1,0.3-0.2,0.6c-0.2,0.3-0.4,0.7-0.8,1.1c-0.3,0.3-0.7,0.6-1.1,0.8C262.4,242.6,262.1,242.7,262.1,242.7z"/>
		</g>
		<g>
			<path class="st1" d="M268.2,269.9c0,0,0-0.1,0.1-0.4c0-0.1,0.1-0.3,0.1-0.5c0-0.2,0.1-0.4,0.2-0.6c0.1-0.2,0.2-0.4,0.4-0.7
				c0.1-0.3,0.3-0.4,0.5-0.7c0.2-0.2,0.4-0.5,0.7-0.6c0.2-0.2,0.5-0.4,0.8-0.5c0.3-0.1,0.5-0.3,0.8-0.4c0.3-0.1,0.5-0.2,0.8-0.3
				c0.5-0.2,1-0.3,1.5-0.4c0.9-0.2,1.5-0.2,1.5-0.2s-0.5,0.3-1.3,0.7c-0.4,0.2-0.8,0.4-1.3,0.6c-0.5,0.2-1,0.5-1.5,0.7
				c-0.2,0.1-0.5,0.3-0.7,0.4c-0.2,0.1-0.4,0.3-0.6,0.5c-0.2,0.2-0.4,0.3-0.5,0.5c-0.1,0.2-0.3,0.3-0.4,0.5
				c-0.2,0.1-0.2,0.3-0.3,0.5c-0.1,0.1-0.2,0.3-0.3,0.4C268.3,269.8,268.2,269.9,268.2,269.9z"/>
		</g>
		<g>
			<path class="st1" d="M271.6,268.9c0,0,0.1-0.1,0.3-0.3c0.2-0.2,0.4-0.5,0.8-0.8c0.3-0.3,0.8-0.6,1.3-0.9c0.2-0.1,0.5-0.3,0.8-0.4
				c0.3-0.1,0.5-0.3,0.8-0.4c0.3-0.1,0.6-0.2,0.8-0.3c0.3-0.1,0.6-0.1,0.8-0.2c0.5-0.1,1.1-0.2,1.5-0.2c0.4,0,0.8,0,1.1,0
				c0.3,0,0.4,0,0.4,0s-0.1,0.1-0.4,0.2c-0.2,0.1-0.6,0.2-1,0.4c-0.4,0.2-0.9,0.3-1.4,0.5c-0.5,0.2-1,0.4-1.6,0.6
				c-0.3,0.1-0.5,0.2-0.8,0.3c-0.3,0.1-0.5,0.2-0.8,0.3c-0.2,0.1-0.5,0.2-0.7,0.3c-0.2,0.1-0.4,0.2-0.6,0.3c-0.4,0.2-0.7,0.3-1,0.4
				C271.8,268.9,271.6,268.9,271.6,268.9z"/>
		</g>
		<g>
			<path class="st1" d="M276.1,267.5c0,0,0,0.3,0.1,0.7c0,0.5,0.1,1.1,0.2,1.9c0,0.4,0.1,0.8,0.2,1.2c0.1,0.4,0.2,0.9,0.3,1.4
				c0.1,0.5,0.3,0.9,0.5,1.4c0.2,0.5,0.4,0.9,0.6,1.4c0.3,0.4,0.5,0.9,0.8,1.2c0.1,0.2,0.3,0.4,0.5,0.5c0.2,0.2,0.3,0.4,0.5,0.5
				c0.2,0.1,0.4,0.3,0.5,0.4c0.2,0.1,0.4,0.2,0.6,0.3c0.4,0.2,0.8,0.3,1.1,0.5c0.4,0.1,0.7,0.2,1,0.3c0.3,0.1,0.6,0.1,0.8,0.1
				c0.5,0.1,0.7,0.1,0.7,0.1s-0.3,0-0.7,0.1c-0.2,0-0.5,0.1-0.8,0c-0.3,0-0.7,0-1.1-0.1c-0.4-0.1-0.9-0.1-1.3-0.4
				c-0.2-0.1-0.5-0.2-0.7-0.3c-0.2-0.1-0.4-0.3-0.7-0.4c-0.2-0.1-0.4-0.3-0.6-0.5c-0.2-0.2-0.4-0.4-0.6-0.6c-0.4-0.4-0.7-0.9-1-1.4
				c-0.2-0.5-0.5-1-0.7-1.5c-0.2-0.5-0.3-1-0.4-1.5c-0.1-0.5-0.2-1-0.2-1.5c0-0.5-0.1-0.9,0-1.3c0-0.8,0.1-1.5,0.2-1.9
				C276,267.8,276.1,267.5,276.1,267.5z"/>
		</g>
		<g>
			<path class="st1" d="M276.1,270.9c0,0,0-0.1,0.1-0.2c0.1-0.1,0.1-0.2,0.2-0.4c0.2-0.3,0.4-0.7,0.8-1c0.3-0.3,0.7-0.6,1-0.7
				c0.3-0.2,0.6-0.2,0.6-0.2s0,0.3-0.2,0.6c-0.2,0.3-0.4,0.7-0.8,1c-0.2,0.2-0.4,0.3-0.5,0.4c-0.2,0.1-0.4,0.2-0.6,0.3
				c-0.2,0.1-0.4,0.1-0.5,0.1C276.1,271,276.1,270.9,276.1,270.9z"/>
		</g>
		<g>
			<path class="st1" d="M278.1,275c0,0,0.1-0.1,0.1-0.1c0.1-0.1,0.2-0.2,0.3-0.3c0,0,0.1-0.2,0.1-0.2c0.1-0.1,0.1-0.2,0.2-0.3
				c0.1-0.2,0.3-0.3,0.4-0.5c0.3-0.3,0.7-0.7,1-0.9c0.3-0.2,0.6-0.3,0.6-0.3s0,0.3-0.1,0.7c-0.1,0.4-0.4,0.8-0.7,1.2
				c-0.2,0.2-0.4,0.4-0.6,0.5c-0.1,0.1-0.2,0.1-0.3,0.2c-0.1,0.1-0.2,0.1-0.3,0.1c-0.2,0.1-0.4,0.1-0.5,0.1
				C278.2,275.1,278.1,275,278.1,275z"/>
		</g>
		<g>
			<path class="st1" d="M280.5,278.1c0,0,0-0.3,0-0.7c0-0.2,0.1-0.4,0.2-0.7c0.1-0.2,0.2-0.5,0.4-0.7c0.2-0.2,0.3-0.4,0.5-0.6
				c0.2-0.2,0.4-0.3,0.6-0.4c0.4-0.2,0.7-0.3,0.7-0.3s-0.1,0.3-0.2,0.7c-0.2,0.4-0.4,0.8-0.7,1.2c-0.2,0.2-0.3,0.4-0.4,0.6
				c-0.2,0.2-0.3,0.3-0.5,0.5C280.8,277.9,280.5,278.1,280.5,278.1z"/>
		</g>
		<g>
			<path class="st1" d="M283.9,279.5c0,0,0-0.3,0-0.6c0.1-0.4,0.2-0.8,0.4-1.2c0.2-0.4,0.5-0.7,0.8-1c0.3-0.2,0.5-0.3,0.5-0.3
				s0,0.3,0,0.6c-0.1,0.4-0.2,0.8-0.4,1.1c-0.2,0.4-0.5,0.7-0.8,0.9C284.2,279.4,283.9,279.5,283.9,279.5z"/>
		</g>
		<g>
			<path class="st8" d="M200.5,223.6c-0.3,4.8-2.7,5.5-5.1,8.9c-1.7,2-2,6.1-3.1,9.2c-2.4,7.5-4.8,12.9-5.1,21
				c-0.2,4.8,3.3,10.4,8.7,8.4c5.8-2.1,7.8-7.8,9.7-13.1c1.7-4.7,3.2-9.9,3.5-14.9c0.3-5.9,0.2-11.6,0.8-17.5
				C209.1,225.4,200.5,223.6,200.5,223.6z"/>
		</g>
		<g>
			<path class="st1" d="M209,228.4c0,0,0,0.5-0.1,1.4c-0.1,0.9-0.1,2.1-0.2,3.6c-0.1,0.7-0.1,1.5-0.2,2.4c-0.1,0.8-0.2,1.7-0.3,2.7
				c-0.2,1.8-0.5,3.8-0.8,5.8c-0.3,2-0.7,3.9-1,5.7c-0.3,1.8-0.7,3.5-1,5c-0.3,1.5-0.6,2.7-0.8,3.5c-0.2,0.8-0.3,1.3-0.3,1.3
				s0-0.5,0.1-1.4c0.1-0.9,0.2-2.1,0.4-3.6c0.2-1.5,0.4-3.2,0.7-5c0.3-1.8,0.6-3.8,0.9-5.7c0.3-2,0.6-3.9,0.9-5.7
				c0.1-0.9,0.3-1.8,0.5-2.6c0.1-0.8,0.3-1.6,0.4-2.4c0.2-1.5,0.5-2.7,0.6-3.5C208.9,228.8,209,228.4,209,228.4z"/>
		</g>
		<g>
			<path class="st1" d="M198.5,230.4c0,0,0.4-0.1,1-0.1c0.6,0,1.4,0.1,2.2,0.2c0.4,0.1,0.8,0.2,1.1,0.4c0.4,0.1,0.7,0.3,0.9,0.5
				c0.5,0.4,0.8,0.7,0.8,0.7s-0.5,0-1-0.2c-0.1,0-0.3-0.1-0.5-0.1c-0.2,0-0.3-0.1-0.5-0.1c-0.4-0.1-0.7-0.2-1.1-0.3
				c-0.8-0.2-1.5-0.4-2.1-0.6C198.8,230.6,198.5,230.4,198.5,230.4z"/>
		</g>
		<g>
			<path class="st1" d="M202.9,225.6c0,0,0.1,0.3,0.2,0.7c0,0.2,0,0.5,0.1,0.7c0,0.3,0,0.5,0,0.8c0,0.5-0.1,1.1-0.3,1.5
				c-0.1,0.4-0.3,0.7-0.3,0.7s-0.2-0.3-0.3-0.7c-0.1-0.4-0.2-1-0.2-1.6c0.1-0.6,0.2-1.2,0.4-1.5
				C202.7,225.9,202.9,225.6,202.9,225.6z"/>
		</g>
		<g>
			<path class="st1" d="M204.9,226.7c0,0,0.2,0.3,0.3,0.7c0.1,0.4,0.2,1,0.2,1.6c-0.1,0.6-0.2,1.1-0.4,1.5c-0.2,0.4-0.4,0.6-0.4,0.6
				s-0.1-0.3-0.2-0.7c0-0.4-0.1-1,0-1.5c0-0.5,0.1-1.1,0.3-1.5C204.8,226.9,204.9,226.7,204.9,226.7z"/>
		</g>
		<g>
			<path class="st1" d="M207.7,227.3c0,0,0.1,0,0.1,0.1c0.1,0,0.2,0.2,0.3,0.4c0.1,0.2,0.1,0.3,0.2,0.5c0,0.2,0,0.4,0,0.6
				c0,0.4-0.2,0.8-0.3,1c-0.1,0.3-0.3,0.5-0.3,0.5s-0.2-0.2-0.3-0.5c-0.1-0.3-0.2-0.7-0.1-1.1c0-0.4,0.1-0.7,0.2-1
				c0-0.1,0.1-0.2,0.1-0.3C207.6,227.4,207.7,227.3,207.7,227.3z"/>
		</g>
		<g>
			<path class="st16" d="M214.1,148.5c1.9,4.2,8.5,7.5,13.2,6.6c-0.5-0.5-0.9-1.9-1.9-2.8c6.6,4.2,14.1,5.2,21.7,4.7
				c-1.9-1.4-2.8-3.3-4.7-4.2c2.4,0.9,5.2,0.9,7.5,0.5c-2.8-11.3-24-12.7-32.5-7.5L214.1,148.5z"/>
		</g>
		<g>
			<path class="st1" d="M205.6,251.5c0,0,0.3,0.3,0.5,0.9c0.3,0.5,0.5,1.3,0.7,2c0.2,0.7,0.3,1.5,0.4,2.1c0.1,0.6,0,1,0,1
				s-0.3-0.3-0.6-0.8c-0.3-0.5-0.6-1.3-0.8-2c-0.2-0.7-0.3-1.5-0.3-2.1C205.6,251.9,205.6,251.5,205.6,251.5z"/>
		</g>
		<g>
			<path class="st1" d="M211.2,231.6c0,0,0,0.1,0.1,0.3c0.1,0.2,0.2,0.5,0.3,1c0.1,0.4,0.3,1,0.3,1.6c0,0.3,0.1,0.6,0.1,1
				c0,0.3,0,0.7,0.1,1.1c0,1.5,0,3.3-0.1,5.1c0,0.9,0,1.9,0,2.9c0,1,0,1.9,0.1,2.9c0.1,1,0.1,2,0.2,2.9c0.1,1,0.2,1.9,0.3,2.8
				c0.1,0.9,0.2,1.8,0.3,2.7c0.1,0.8,0.2,1.6,0.3,2.4c0.5,2.9,0.8,4.9,0.8,4.9s-0.1-0.5-0.4-1.3c-0.2-0.8-0.6-2-0.9-3.5
				c-0.2-0.7-0.3-1.5-0.5-2.4c-0.2-0.8-0.3-1.7-0.5-2.7c-0.2-0.9-0.3-1.9-0.4-2.9c-0.1-1-0.2-2-0.3-3c-0.1-1-0.1-2-0.1-3
				c0-1,0.1-1.9,0.1-2.9c0.1-1.9,0.4-3.6,0.4-5.1c0-0.7,0-1.4,0-2c0-0.6-0.1-1.1-0.1-1.5C211.3,232.1,211.2,231.6,211.2,231.6z"/>
		</g>
		<g>
			<path class="st1" d="M209.9,240.5c0,0,0.3,0,0.6,0c0.2,0,0.3,0.1,0.5,0.2c0.2,0.1,0.3,0.2,0.5,0.3c0.3,0.3,0.5,0.6,0.6,0.9
				c0.1,0.3,0.1,0.6,0.1,0.6s-0.3,0-0.5-0.2c-0.1-0.1-0.3-0.2-0.4-0.2c-0.1-0.1-0.3-0.2-0.4-0.3c-0.1-0.1-0.2-0.2-0.3-0.4
				c-0.1-0.1-0.2-0.3-0.3-0.4C210,240.8,209.9,240.5,209.9,240.5z"/>
		</g>
		<g>
			<path class="st1" d="M221.2,313.6c0,0,0-0.3,0.1-0.8c0-0.3,0.1-0.6,0.1-1c0-0.4,0.1-0.8,0.1-1.3c0-1,0-2.2,0-3.6
				c-0.1-1.4-0.2-3-0.2-4.7c0-0.9,0-1.8,0-2.7c0.1-0.9,0.1-1.9,0.2-2.9c0.1-2,0.3-4,0.4-6.2c0.3-4.3,0.7-8.9,1.1-13.4
				c0.3-2.3,0.4-4.6,0.6-6.8c0-2.2,0-4.4-0.2-6.6c-0.2-2.1-0.3-4.2-0.5-6.2c-0.1-2-0.3-3.8-0.3-5.5c-0.1-1.7-0.1-3.3-0.1-4.7
				c0-1.4,0.1-2.6,0.2-3.6c0.2-2,0.3-3.1,0.3-3.1s-0.1,1.1-0.2,3.1c0,1,0,2.2,0,3.6c0.1,1.4,0.1,3,0.3,4.7c0.2,3.4,0.7,7.4,1.1,11.7
				c0.2,2.1,0.2,4.4,0.2,6.7c-0.1,2.3-0.3,4.6-0.5,6.8c-0.5,4.6-0.8,9.1-1.2,13.4c-0.2,2.1-0.4,4.2-0.6,6.2c-0.1,1-0.2,1.9-0.3,2.9
				c-0.1,0.9-0.1,1.8-0.1,2.7c0,1.7,0,3.3,0,4.7c0,1.4-0.1,2.6-0.2,3.6c-0.1,1-0.2,1.8-0.4,2.3C221.3,313.3,221.2,313.6,221.2,313.6
				z"/>
		</g>
		<g>
			<path class="st1" d="M249.6,236.4c0,0,0.1,1.2,0.3,3.4c0.1,1.1,0.3,2.4,0.5,3.9c0.2,1.5,0.6,3.2,0.8,5c0.7,3.7,1.6,7.9,2.4,12.6
				c0.3,2.3,0.7,4.7,0.9,7.2c0.2,1.2,0.2,2.5,0.2,3.7c0,1.2,0.1,2.5,0.1,3.7c0.1,2.5,0.2,5,0.2,7.4c0,2.5,0,4.9,0,7.2
				c0,4.7-0.1,9-0.1,12.8c0,7.5,0,12.5,0,12.5s-0.1-1.2-0.2-3.4c-0.1-1.1-0.1-2.4-0.2-3.9c-0.1-1.5-0.2-3.2-0.2-5.1
				c0-3.7-0.1-8.1-0.2-12.8c0-2.3,0-4.7-0.1-7.2c0-2.4-0.1-4.9-0.2-7.4c0-1.2-0.1-2.5-0.1-3.7c0-1.3,0-2.5-0.2-3.7
				c-0.2-2.4-0.5-4.8-0.8-7.1c-0.8-4.6-1.5-8.9-2.1-12.6c-0.3-1.9-0.5-3.5-0.7-5.1c-0.1-1.5-0.3-2.8-0.3-3.9
				C249.6,237.7,249.6,236.4,249.6,236.4z"/>
		</g>
		<g>
			<path class="st1" d="M258.1,218.8c0,0,0.1,0.4,0.2,1.1c0.1,0.7,0.1,1.5,0.1,2.4c-0.1,0.9-0.3,1.7-0.4,2.4c-0.2,0.6-0.4,1-0.4,1
				s-0.1-0.5-0.2-1.1c-0.1-0.7-0.1-1.5,0-2.4c0.1-0.9,0.2-1.7,0.4-2.3C257.9,219.2,258.1,218.8,258.1,218.8z"/>
		</g>
		<g>
			<path d="M221.5,182.3c0,1.3-0.5,2.3-1.3,2.3c-0.7,0-1.4-1-1.4-2.2c0-1.3,0.5-2.3,1.3-2.3C220.9,180,221.5,181,221.5,182.3z"/>
		</g>
		<g>
			<path d="M243.1,181.2c0,1.3-0.6,2.3-1.4,2.3c-0.7,0-1.4-1-1.4-2.3c0-1.3,0.6-2.3,1.4-2.3C242.5,178.9,243.1,179.9,243.1,181.2z"
				/>
		</g>
	</g>
</g>
<g id="DESIGNED_BY_FREEPIK">
</g>
</svg>
